<?xml version="1.0" standalone="no"?>
<!DOCTYPE svg PUBLIC "-//W3C//DTD SVG 1.1//EN" "http://www.w3.org/Graphics/SVG/1.1/DTD/svg11.dtd" >
<svg xmlns="http://www.w3.org/2000/svg">
<metadata>
Created by FontPrep 20130207 at Wed Dec  9 16:04:17 2015
 By Gianna Fusaro
Copyright (c) 2011 by Atipus. All rights reserved.
</metadata>
<defs>
<font id="1f3314d27e46c8e390df5c2e0a004a75" horiz-adv-x='1024' >
  <font-face 
    font-family="Blanch-Caps"
    font-weight="410"
    font-variant="small-caps"
    font-stretch="normal"
    units-per-em="2048"
    panose-1="2 11 5 4 0 0 0 2 0 4"
    ascent="1434"
    descent="-614"
    x-height="1012"
    cap-height="1014"
    bbox="-95.1607 -264 1049 1436"
    underline-thickness="102"
    underline-position="-102"
    unicode-range="U+0020-20AC"
  />
<missing-glyph horiz-adv-x="0" 
 />
    <glyph glyph-name=".notdef" horiz-adv-x="0" 
 />
    <glyph glyph-name=".null" horiz-adv-x="0" 
 />
    <glyph glyph-name="nonmarkingreturn" horiz-adv-x="681" 
 />
    <glyph glyph-name="space" unicode=" " horiz-adv-x="294" 
 />
    <glyph glyph-name="exclam" unicode="!" horiz-adv-x="301" 
d="M190 979v-748q0 -33 -32 -32h-66q-33 0 -33 32v748q0 33 33 33h66q32 0 32 -33zM158 70q33 0 32 -33v-135q0 -33 -32 -33h-66q-33 0 -33 33v135q0 33 33 33h66z" />
    <glyph glyph-name="numbersign" unicode="#" horiz-adv-x="1085" 
d="M891 637h-213v-262h213q12 0 22 -9t11 -24v-66q0 -12 -10 -22t-23 -10h-213v-211q0 -13 -10 -23t-23 -10h-65q-33 0 -33 33v211h-131v-211q0 -33 -33 -33h-66q-12 0 -22 9t-10 24v211h-213q-12 0 -23 10q-10 10 -10 22v66q0 14 10 24t23 9h213v262h-213q-12 0 -23 9
q-10 9 -10 24v63q0 13 10 23t23 10h213v213q0 14 10 23t22 10h66q33 0 33 -33v-213h131v213q0 33 33 33h65q13 0 23 -10t10 -23v-213h213q12 0 22 -9t11 -22v-65q0 -14 -10 -24t-23 -9zM416 637v-262h131v262h-131z" />
    <glyph glyph-name="dollar" unicode="$" horiz-adv-x="641" 
d="M432 680q-12 0 -22 9t-11 24v69q0 43 -30 74q-31 31 -74 31t-74 -31t-31 -66t5 -42l288 -379q35 -49 41 -65t6 -82q0 -64 -48 -126t-122 -86v-102q0 -33 -32 -33h-66q-33 0 -33 33v102q-73 23 -121 85t-49 143v69q0 33 33 33h66q12 0 22 -9t10 -24v-69q0 -43 31 -74
t74 -31t74 31t31 66t-5 42l-289 379q-34 47 -40 65t-6 82t48 126t121 86v102q0 33 33 33h66q33 0 32 -33v-102q74 -23 122 -85t48 -143v-69q0 -33 -32 -33h-66z" />
    <glyph glyph-name="percent" unicode="%" horiz-adv-x="1159" 
d="M1049 238v-2q0 -96 -70 -166t-166 -70t-166 70t-69 166v2q0 96 70 164t165 69q96 -1 166 -69t70 -164zM813 131q43 0 74 31t31 74q0 44 -31 74t-74 30t-74 -31t-31 -73t32 -74q30 -31 73 -31zM449 236v-203q1 -13 -9 -23t-24 -10h-66q-12 0 -22 10t-11 23v203q0 49 7 65
q6 16 43 66l286 378q6 8 6 35v201q0 33 33 33h66q33 0 33 -33v-201q-1 -52 -7 -68t-43 -63l-286 -381q-6 -6 -6 -32zM296 1014q97 0 166 -69t70 -165v-2q-2 -96 -70 -166t-166 -70q-97 0 -166 70q-69 68 -71 166v2q2 96 71 165t166 69zM297 674q43 0 74 31t31 73t-31 74
q-31 31 -74 31t-74 -31t-31 -74q0 -44 31 -74t74 -30z" />
    <glyph glyph-name="ampersand" unicode="&#x26;" horiz-adv-x="759" 
d="M401 131v414h-106q-43 0 -74 -32t-31 -75v-200q0 -45 31 -76t74 -31h106zM637 676q14 0 23 -10t10 -23v-65q0 -33 -33 -33h-105v-512q0 -13 -10 -23t-22 -10h-205q-96 0 -166 70t-70 168v200q0 104 74 172q-74 68 -74 168t70 170t166 70h70q14 0 23 -10t9 -23v-67
q0 -12 -9 -22t-23 -11h-70q-43 0 -74 -31t-31 -74q0 -44 31 -74t74 -30h106v104q0 33 33 33h66q12 0 22 -9t10 -24v-104h105z" />
    <glyph glyph-name="quotesingle" unicode="'" horiz-adv-x="301" 
d="M158 1145q33 0 32 -33v-399q0 -33 -32 -33h-66q-33 0 -33 33v399q0 33 33 33h66z" />
    <glyph glyph-name="parenleft" unicode="(" horiz-adv-x="438" 
d="M328 913q0 -30 -38 -30t-69 -31t-31 -76v-540q0 -45 31 -76t69 -31t38 -33v-63q0 -33 -33 -33q-96 0 -166 69t-70 167v540q0 98 70 167t166 69q33 0 33 -33v-66z" />
    <glyph glyph-name="parenright" unicode=")" horiz-adv-x="436" 
d="M92 1012q96 0 166 -69t70 -167v-540q0 -98 -70 -167t-166 -69q-33 0 -33 33v63q0 33 38 33t69 31t31 76v540q0 45 -31 76t-68 31t-39 30v66q0 33 33 33z" />
    <glyph glyph-name="plus" unicode="+" horiz-adv-x="569" 
d="M428 569q33 0 33 -32v-66q0 -33 -33 -33h-102v-102q0 -33 -33 -33h-66q-33 0 -32 33v102h-103q-33 0 -33 33v66q0 33 33 32h103v103q0 33 32 33h66q33 0 33 -33v-103h102z" />
    <glyph glyph-name="comma" unicode="," horiz-adv-x="301" 
d="M158 201q33 0 32 -33v-399q0 -33 -32 -33h-66q-33 0 -33 33v399q0 33 33 33h66z" />
    <glyph glyph-name="hyphen" unicode="-" horiz-adv-x="571" 
d="M428 569q14 0 24 -10t9 -22v-66q0 -33 -33 -33h-336q-33 0 -33 33v66q-1 12 9 22t24 10h336z" />
    <glyph glyph-name="period" unicode="." horiz-adv-x="301" 
d="M158 201q33 0 32 -33v-135q0 -33 -32 -33h-66q-33 0 -33 33v135q0 33 33 33h66z" />
    <glyph glyph-name="slash" unicode="/" horiz-adv-x="643" 
d="M532 981v-201q0 -51 -6 -67t-43 -64l-286 -381q-6 -6 -7 -32v-203q0 -13 -9 -23t-23 -10h-66q-14 0 -23 10t-10 23v203q0 49 7 65q6 16 43 66l286 378q6 8 6 35v201q0 33 33 33h66q12 0 22 -10t10 -23z" />
    <glyph glyph-name="zero" unicode="0" horiz-adv-x="641" 
d="M530 780v-542q0 -98 -68 -168t-166 -70q-97 0 -167 70t-70 166v542q0 96 69 166t166 70q96 0 166 -69t70 -165zM399 787q0 34 -30 65q-31 31 -74 31t-74 -31t-31 -74v-303l205 270q4 8 4 42zM399 238v301l-202 -271q-7 -6 -7 -40t31 -66q31 -31 74 -31t74 31q30 31 30 76
z" />
    <glyph glyph-name="one" unicode="1" horiz-adv-x="440" 
d="M264 1014q27 0 46 -20t20 -46v-915q0 -13 -10 -23t-23 -10h-66q-14 0 -23 10t-9 23v850h-107q-33 0 -33 32v66q0 33 33 33h172z" />
    <glyph glyph-name="two" unicode="2" horiz-adv-x="643" 
d="M500 131q33 0 32 -33v-65q0 -13 -9 -23t-23 -10h-408q-14 0 -23 10t-10 23v200q1 49 7 65t43 67l286 378q6 8 6 43t-30 66q-31 31 -75 31t-75 -31t-31 -74v-71q0 -13 -9 -23t-23 -10h-66q-14 0 -23 10t-10 23v71q0 96 70 166t167 70t167 -70t69 -166q0 -51 -6 -67
t-43 -64l-286 -381q-6 -6 -7 -33v-102h310z" />
    <glyph glyph-name="three" unicode="3" horiz-adv-x="643" 
d="M532 778v-98q0 -102 -73 -172q74 -70 73 -170v-100q0 -98 -70 -168t-166 -70q-97 0 -167 70t-70 168v69q0 33 33 33h66q33 0 32 -33v-69q0 -45 31 -76t75 -31t75 31t30 76v100q0 43 -30 74q-31 30 -70 30t-39 33v66q0 33 39 33t70 30q31 31 30 76v98q0 43 -30 74
q-31 31 -75 31t-75 -31t-31 -74v-71q0 -13 -9 -23t-23 -10h-66q-14 0 -23 10t-10 23v71q0 96 70 166t167 70q96 0 166 -70t70 -166z" />
    <glyph glyph-name="four" unicode="4" horiz-adv-x="780" 
d="M637 442q33 0 33 -32v-66q0 -33 -33 -33h-105v-278q0 -13 -9 -23t-23 -10h-66q-14 0 -23 10t-10 23v278h-309q-33 0 -33 33v98q1 44 7 60t43 65l286 379q6 8 6 35q0 33 33 33h66q32 0 32 -41t-6 -57t-43 -66l-286 -379q-6 -8 -7 -29h211v105q0 33 33 33h66q33 0 32 -33
v-105h105z" />
    <glyph glyph-name="five" unicode="5" horiz-adv-x="643" 
d="M500 883h-310v-209h107q96 0 166 -69t69 -167v-200q0 -98 -70 -168t-166 -70q-97 0 -167 70t-70 168v69q0 33 33 33h66q33 0 32 -33v-69q0 -45 31 -76t75 -31t75 31t30 76v200q0 43 -30 74q-31 31 -74 31h-205q-14 0 -23 10t-10 22v406q0 33 33 33h408q33 0 32 -33v-66
q1 -32 -32 -32z" />
    <glyph glyph-name="six" unicode="6" horiz-adv-x="643" 
d="M297 674q96 0 166 -69t69 -167v-200q0 -98 -70 -168t-166 -70q-97 0 -167 70t-70 168v540q0 96 70 166t167 70t167 -70t69 -166q0 -33 -32 -33h-66q-33 0 -33 38t-30 69q-31 31 -75 31t-75 -31t-31 -74v-129q50 25 107 25zM401 238v200q0 43 -30 74q-31 31 -75 31
t-75 -31t-31 -74v-200q0 -45 31 -76t75 -31t75 31q30 31 30 76z" />
    <glyph glyph-name="seven" unicode="7" horiz-adv-x="641" 
d="M498 1014q33 0 32 -33v-201q0 -51 -6 -67t-41 -64l-288 -381q-4 -6 -5 -32v-203q0 -13 -10 -23t-22 -10h-66q-14 0 -23 10t-10 23v203q0 49 7 65q6 16 40 66l289 378q4 8 4 35v103h-307q-33 0 -33 32v66q0 33 33 33h406z" />
    <glyph glyph-name="eight" unicode="8" horiz-adv-x="641" 
d="M295 674q43 0 74 31t31 73t-31 74q-31 31 -74 31t-74 -31t-31 -74q0 -44 31 -74t74 -30zM399 438q0 43 -30 74q-31 31 -74 31t-74 -31t-31 -74v-200q0 -45 31 -76t74 -31t74 31t30 76v200zM530 778q0 -98 -71 -170q72 -68 71 -170v-200q0 -98 -68 -168t-167 -70
q-98 0 -167 70t-69 168v200q0 102 72 170q-72 72 -72 170v2q0 96 70 165t166 69t166 -69t69 -165v-2z" />
    <glyph glyph-name="nine" unicode="9" horiz-adv-x="641" 
d="M296 1014q97 0 167 -70t69 -166v-540q0 -98 -70 -168t-166 -70q-97 0 -167 70t-70 168q0 33 33 32h66q32 0 32 -38t31 -70q31 -31 74 -31t75 31t31 76v229q-55 -25 -106 -25q-96 0 -166 70t-70 168v98q0 96 70 166t167 70zM401 680v98q0 43 -31 74q-32 31 -75 31t-74 -31
t-31 -74v-98q0 -45 31 -76t74 -31t75 31q31 31 31 76z" />
    <glyph glyph-name="colon" unicode=":" horiz-adv-x="301" 
d="M158 696q33 0 32 -32v-136q0 -33 -32 -32h-66q-33 0 -33 32v136q0 33 33 32h66zM158 201q33 0 32 -33v-135q0 -33 -32 -33h-66q-33 0 -33 33v135q0 33 33 33h66z" />
    <glyph glyph-name="semicolon" unicode=";" horiz-adv-x="301" 
d="M158 201q33 0 32 -33v-399q0 -33 -32 -33h-66q-33 0 -33 33v399q0 33 33 33h66zM158 696q33 0 32 -32v-136q0 -33 -32 -32h-66q-33 0 -33 32v136q0 33 33 32h66z" />
    <glyph glyph-name="equal" unicode="=" horiz-adv-x="571" 
d="M428 440q14 0 24 -10t9 -22v-66q0 -33 -33 -33h-336q-33 0 -33 33v66q-1 12 9 22t24 10h336zM428 700q14 0 24 -10t9 -22v-66q0 -33 -33 -33h-336q-33 0 -33 33v66q-1 12 9 22t24 10h336z" />
    <glyph glyph-name="question" unicode="?" horiz-adv-x="641" 
d="M532 782q0 -51 -6 -67t-43 -64l-286 -381q-6 -8 -7 -32q0 -33 -32 -33h-66q-33 0 -33 41t7 57q6 16 43 66l286 379q6 8 6 42t-30 66q-31 31 -75 31t-75 -31t-31 -74v-71q0 -13 -9 -23t-23 -10h-66q-14 0 -23 10t-10 23v71q0 96 70 166t167 70q96 0 166 -70t70 -166z
M158 76q33 0 32 -33v-135q0 -33 -32 -33h-66q-33 0 -33 33v135q0 33 33 33h66z" />
    <glyph glyph-name="at" unicode="@" horiz-adv-x="1236" 
d="M614 559v4q0 43 -30 74q-31 31 -74 31t-74 -31t-30 -74v-4h208zM725 1012q96 0 166 -69t70 -167v-325q0 -98 -70 -168t-166 -70h-78q-14 0 -23 10t-10 23v182h-208v-182q0 -12 -10 -22t-23 -11h-66q-14 0 -23 10t-10 23v317q0 96 69 166t167 70t167 -70t68 -166v-217
q37 8 61 37t23 68v325q0 43 -30 74q-31 31 -74 31h-430q-43 0 -74 -31t-31 -74v-540q0 -43 31 -74t74 -31h328q14 0 23 -10t9 -23v-65q0 -33 -32 -33h-328q-96 0 -166 69t-70 167v540q0 98 70 167t166 69h430z" />
    <glyph glyph-name="A" unicode="A" horiz-adv-x="643" 
d="M401 571v205q0 43 -30 74q-31 31 -75 31t-75 -31t-31 -74v-205h211zM296 1012q97 0 167 -70t69 -166v-743q0 -33 -32 -33h-66q-33 0 -33 33v407h-211v-407q0 -33 -32 -33h-66q-33 0 -33 33v743q0 96 70 166t167 70z" />
    <glyph glyph-name="B" unicode="B" horiz-adv-x="643" 
d="M532 776v-98q0 -102 -73 -170q74 -68 73 -172v-98q0 -98 -70 -168t-165 -70h-172q-27 0 -46 19t-20 47v882q-1 27 19 46t47 20h172q95 0 165 -70t70 -168zM401 678v98q0 45 -30 76q-31 31 -74 31h-107v-310h107q43 0 74 31q30 31 30 74zM401 336q0 45 -30 76
q-31 31 -74 30h-107v-309h107q43 0 74 31t30 74v98z" />
    <glyph glyph-name="C" unicode="C" horiz-adv-x="620" 
d="M432 676q-33 0 -33 33v69q0 43 -30 74q-31 31 -74 31t-74 -31t-31 -74v-542q0 -43 31 -74t74 -31t74 31t30 74v75q0 33 33 33h66q33 0 32 -33v-75q0 -96 -70 -166t-166 -70q-97 0 -166 70t-69 166v542q0 96 69 166t166 70t167 -70t69 -166v-69q0 -33 -32 -33h-66z" />
    <glyph glyph-name="D" unicode="D" horiz-adv-x="643" 
d="M297 1014q98 0 167 -70t68 -168v-538q0 -98 -68 -168t-167 -70h-172q-27 0 -46 19t-20 47v882q-1 27 19 46t47 20h172zM401 238v538q0 45 -30 76q-31 31 -74 31h-107v-750h107q43 0 74 31q30 31 30 74z" />
    <glyph glyph-name="E" unicode="E" horiz-adv-x="512" 
d="M369 883h-179v-310h179q33 0 32 -32v-66q0 -33 -32 -33h-179v-311h179q33 0 32 -33v-65q0 -33 -32 -33h-244q-27 0 -46 19t-20 47v882q-1 27 19 46t47 20h244q33 0 32 -33v-66q1 -32 -32 -32z" />
    <glyph glyph-name="F" unicode="F" horiz-adv-x="512" 
d="M369 883h-179v-310h179q33 0 32 -32v-66q0 -33 -32 -33h-179v-409q0 -33 -32 -33h-66q-33 0 -33 33v915q-1 27 19 46t47 20h244q33 0 32 -33v-66q1 -32 -32 -32z" />
    <glyph glyph-name="G" unicode="G" horiz-adv-x="641" 
d="M432 674q-33 0 -33 33v69q0 45 -30 75q-31 30 -74 30t-74 -30t-31 -75v-543q0 -43 31 -73t74 -31q43 0 74 31t30 73v211h-71q-14 0 -24 10t-9 21v66q0 33 33 32h170q33 0 32 -32v-308q0 -97 -70 -165t-165 -68q-96 0 -166 69t-70 164v543q0 98 70 167t166 69t166 -69
t69 -167v-69q0 -33 -32 -33h-66z" />
    <glyph glyph-name="H" unicode="H" horiz-adv-x="641" 
d="M498 1014q33 0 32 -33v-948q0 -33 -32 -33h-66q-12 0 -22 9t-11 24v409h-209v-409q0 -33 -32 -33h-66q-33 0 -33 33v948q0 33 33 33h66q33 0 32 -33v-408h209v408q1 13 11 23t22 10h66z" />
    <glyph glyph-name="I" unicode="I" horiz-adv-x="301" 
d="M190 981v-948q0 -33 -32 -33h-66q-33 0 -33 33v948q0 33 33 33h66q12 0 22 -10t10 -23z" />
    <glyph glyph-name="J" unicode="J" horiz-adv-x="641" 
d="M498 1014q33 0 32 -33v-745q0 -96 -68 -166t-166 -70q-97 0 -167 70t-70 166v75q1 13 11 23t22 10h66q33 0 32 -33v-75q0 -43 31 -74t75 -31t74 31t29 74v745q1 13 11 23t22 10h66z" />
    <glyph glyph-name="K" unicode="K" horiz-adv-x="643" 
d="M532 981v-301q0 -102 -73 -172q74 -70 73 -170v-305q0 -13 -9 -23t-23 -10h-66q-14 0 -23 10t-10 23v305q0 43 -30 74q-31 31 -76 30h-105v-409q0 -13 -9 -23t-23 -10h-66q-14 0 -23 10t-10 23v948q0 33 33 33h66q33 0 32 -33v-408h105q45 0 76 31t30 76v301q0 33 33 33
h66q32 0 32 -33z" />
    <glyph glyph-name="L" unicode="L" horiz-adv-x="489" 
d="M367 131q33 0 32 -33v-65q0 -13 -9 -23t-23 -10h-242q-27 0 -46 19t-20 47v915q0 33 33 33h66q12 0 22 -9t10 -24v-850h177z" />
    <glyph glyph-name="M" unicode="M" horiz-adv-x="985" 
d="M636 1014q99 0 169 -70t69 -166v-745q0 -13 -9 -23t-23 -10h-66q-14 0 -23 10t-10 23v745q0 43 -30 74q-31 31 -75 31t-75 -31t-31 -74v-745q0 -13 -9 -23t-23 -10h-66q-14 0 -23 10t-10 23v745q0 43 -30 74q-31 31 -75 31t-75 -31t-31 -74v-745q0 -13 -9 -23t-23 -10
h-66q-12 0 -22 10t-11 23v745q0 96 70 166t169 70t169 -74q70 74 169 74z" />
    <glyph glyph-name="N" unicode="N" horiz-adv-x="643" 
d="M296 1014q97 0 167 -70t69 -166v-745q0 -13 -9 -23t-23 -10h-66q-14 0 -23 10t-10 23v745q0 43 -30 74q-31 31 -75 31t-75 -31t-31 -74v-745q0 -13 -9 -23t-23 -10h-66q-14 0 -23 10t-10 23v745q0 96 70 166t167 70z" />
    <glyph glyph-name="O" unicode="O" horiz-adv-x="643" 
d="M296 1014q97 0 167 -70t69 -166v-540q0 -98 -70 -168t-166 -70q-97 0 -167 70t-70 168v540q0 96 70 166t167 70zM401 238v540q0 43 -30 74q-31 31 -75 31t-75 -31t-31 -74v-540q0 -45 31 -76t75 -31t75 31q30 31 30 76z" />
    <glyph glyph-name="P" unicode="P" horiz-adv-x="600" 
d="M297 1014q96 0 166 -70t69 -166v-98q0 -98 -70 -168t-165 -70h-107v-409q0 -13 -9 -23t-23 -10h-66q-12 0 -22 10t-11 23v948q1 13 11 23t22 10h205zM401 680v98q0 43 -30 74q-31 31 -74 31h-107v-310h107q43 0 74 31q30 31 30 76z" />
    <glyph glyph-name="Q" unicode="Q" horiz-adv-x="643" 
d="M294 1014q97 0 167 -69t69 -167v-540q0 -80 -48 -142t-122 -86v-106q0 -33 -32 -33h-66q-33 0 -33 33v106q-73 23 -121 85t-49 143v540q0 98 69 167t166 69zM399 238v540q0 43 -30 74q-31 31 -74 31t-74 -31t-31 -74v-540q0 -43 31 -74t74 -31t74 31q30 31 30 74z" />
    <glyph glyph-name="R" unicode="R" horiz-adv-x="630" 
d="M389 680v98q0 43 -31 74t-73 31h-105v-310h105q43 0 73 31t31 76zM520 778v-98q0 -104 -71 -172q72 -68 71 -170v-305q0 -13 -9 -23t-24 -10h-65q-14 0 -24 10q-9 10 -9 23v305q0 43 -31 74t-73 30h-105v-409q0 -13 -10 -23t-23 -10h-65q-14 0 -24 10q-9 10 -9 23v915
q1 27 19 46t47 20h170q99 0 167 -70t68 -166z" />
    <glyph glyph-name="S" unicode="S" horiz-adv-x="600" 
d="M412 676q-33 0 -33 33v69q0 43 -31 74t-74 31q-44 0 -74 -31t-30 -66t6 -43l285 -376q37 -49 43 -65t6 -66q0 -96 -70 -166t-166 -70t-166 70t-69 166v69q0 33 33 33h65q33 0 33 -33v-69q0 -43 31 -74t73 -31t74 31q31 31 31 66t-6 42l-285 377q-37 49 -43 65t-6 66
q0 96 70 166q69 70 165 70t166 -70t70 -166v-69q0 -33 -33 -33h-65z" />
    <glyph glyph-name="T" unicode="T" horiz-adv-x="509" 
d="M387 1014q33 0 33 -33v-66q0 -33 -33 -32h-92v-850q0 -13 -9 -23t-24 -10h-65q-14 0 -24 10q-9 10 -9 23v850h-92q-33 0 -33 32v66q0 33 33 33h315z" />
    <glyph glyph-name="U" unicode="U" horiz-adv-x="643" 
d="M500 1014q33 0 32 -33v-743q0 -98 -70 -168t-166 -70q-97 0 -167 70t-70 168v743q1 13 11 23t22 10h66q33 0 32 -33v-743q0 -45 31 -76t75 -31t75 31t30 76v743q0 33 33 33h66z" />
    <glyph glyph-name="V" unicode="V" horiz-adv-x="643" 
d="M498 1012q33 0 32 -33v-637q0 -70 -38 -131l-111 -195q-10 -16 -29 -16h-114q-18 0 -29 16l-111 195q-39 61 -39 131v637q0 33 33 33h66q33 0 32 -33v-637q0 -18 7 -33l98 -176l100 176q4 20 4 33v637q1 14 11 23t22 10h66z" />
    <glyph glyph-name="W" unicode="W" horiz-adv-x="983" 
d="M840 1012q33 0 32 -33v-635q0 -74 -38 -131l-111 -197q-12 -16 -29 -16h-114q-16 0 -29 16l-84 152l-86 -152q-12 -16 -29 -16h-114q-18 0 -27 16l-113 197q-39 57 -39 131v635q0 33 33 33h66q33 0 32 -33v-635q0 -16 7 -35l98 -174l100 174q6 18 6 35v635q0 33 33 33h66
q12 0 22 -10t10 -23v-635q0 -10 5 -35l100 -174l98 174q6 18 6 35v635q0 33 33 33h66z" />
    <glyph glyph-name="X" unicode="X" horiz-adv-x="643" 
d="M532 848q0 -74 -40 -131l-119 -213l119 -213q41 -57 40 -131v-127q0 -13 -9 -23t-23 -10h-66q-14 0 -23 10t-10 23v127q0 20 -6 35l-100 176l-98 -176q-6 -14 -7 -35v-127q0 -13 -9 -23t-23 -10h-66q-14 0 -23 10t-10 23v127q0 74 41 131l119 213l-121 213
q-39 57 -39 131v133q0 33 33 33h66q33 0 32 -33v-133q0 -16 7 -35l98 -174l100 174q6 18 6 35v133q0 33 33 33h66q33 0 32 -33v-133z" />
    <glyph glyph-name="Y" unicode="Y" horiz-adv-x="602" 
d="M479 1014q33 0 33 -33v-301q0 -80 -48 -142t-122 -85v-420q0 -13 -10 -23t-23 -10h-65q-14 0 -24 10q-9 10 -9 23v420q-76 23 -124 85t-48 142v301q0 33 33 33h65q33 0 33 -33v-301q0 -45 31 -76t75 -31t74 31q31 31 31 76v301q0 33 33 33h65z" />
    <glyph glyph-name="Z" unicode="Z" horiz-adv-x="620" 
d="M498 1014q33 0 32 -33v-201q0 -51 -6 -67t-41 -64l-286 -381q-6 -6 -7 -32v-105h308q33 0 32 -33v-65q0 -13 -9 -23t-23 -10h-406q-14 0 -23 10t-10 23v203q0 49 7 65q6 16 40 66l289 378q4 8 4 35v103h-307q-33 0 -33 32v66q0 33 33 33h406z" />
    <glyph glyph-name="bracketleft" unicode="[" horiz-adv-x="509" 
d="M367 883h-177v-752h177q33 0 32 -33v-65q0 -13 -9 -23t-23 -10h-275q-14 0 -23 10t-10 23v948q0 33 33 33h275q33 0 32 -33v-66q1 -32 -32 -32z" />
    <glyph glyph-name="backslash" unicode="\" horiz-adv-x="643" 
d="M59 780v201q0 33 33 33h66q33 0 32 -33v-201q0 -27 7 -35l286 -378q37 -49 43 -65t6 -66v-203q0 -13 -10 -23t-22 -10h-66q-14 0 -23 10t-10 23v203q0 27 -6 32l-286 381q-37 47 -43 63t-7 68z" />
    <glyph glyph-name="bracketright" unicode="]" horiz-adv-x="509" 
d="M270 883h-178q-33 0 -33 32v66q0 33 33 33h277q12 0 22 -9t10 -24v-948q0 -13 -10 -23t-22 -10h-277q-14 0 -23 10t-10 23v65q0 33 33 33h178v752z" />
    <glyph glyph-name="asciicircum" unicode="^" horiz-adv-x="612" 
d="M88 1151q-18 0 -25 10q-6 10 3 27l118 209q18 33 58 37q2 2 39 2t38 -2q39 -4 58 -37l119 -209q8 -16 2 -26t-25 -11h-63q-43 0 -66 37l-63 115l-64 -115q-23 -37 -65 -37h-64z" />
    <glyph glyph-name="grave" unicode="`" horiz-adv-x="452" 
d="M154 1436q43 0 65 -37l119 -211q8 -16 2 -26t-25 -11h-63q-43 0 -66 37l-118 211q-8 14 -2 25t24 12h64z" />
    <glyph glyph-name="a" unicode="a" horiz-adv-x="643" 
d="M401 571v205q0 43 -30 74q-31 31 -75 31t-75 -31t-31 -74v-205h211zM296 1012q97 0 167 -70t69 -166v-743q0 -33 -32 -33h-66q-33 0 -33 33v407h-211v-407q0 -33 -32 -33h-66q-33 0 -33 33v743q0 96 70 166t167 70z" />
    <glyph glyph-name="b" unicode="b" horiz-adv-x="643" 
d="M532 776v-98q0 -102 -73 -170q74 -68 73 -172v-98q0 -98 -70 -168t-165 -70h-172q-27 0 -46 19t-20 47v882q-1 27 19 46t47 20h172q95 0 165 -70t70 -168zM401 678v98q0 45 -30 76q-31 31 -74 31h-107v-310h107q43 0 74 31q30 31 30 74zM401 336q0 45 -30 76
q-31 31 -74 30h-107v-309h107q43 0 74 31t30 74v98z" />
    <glyph glyph-name="c" unicode="c" horiz-adv-x="620" 
d="M432 676q-33 0 -33 33v69q0 43 -30 74q-31 31 -74 31t-74 -31t-31 -74v-542q0 -43 31 -74t74 -31t74 31t30 74v75q0 33 33 33h66q33 0 32 -33v-75q0 -96 -70 -166t-166 -70q-97 0 -166 70t-69 166v542q0 96 69 166t166 70t167 -70t69 -166v-69q0 -33 -32 -33h-66z" />
    <glyph glyph-name="d" unicode="d" horiz-adv-x="643" 
d="M297 1014q98 0 167 -70t68 -168v-538q0 -98 -68 -168t-167 -70h-172q-27 0 -46 19t-20 47v882q-1 27 19 46t47 20h172zM401 238v538q0 45 -30 76q-31 31 -74 31h-107v-750h107q43 0 74 31q30 31 30 74z" />
    <glyph glyph-name="e" unicode="e" horiz-adv-x="512" 
d="M369 883h-179v-310h179q33 0 32 -32v-66q0 -33 -32 -33h-179v-311h179q33 0 32 -33v-65q0 -33 -32 -33h-244q-27 0 -46 19t-20 47v882q-1 27 19 46t47 20h244q33 0 32 -33v-66q1 -32 -32 -32z" />
    <glyph glyph-name="f" unicode="f" horiz-adv-x="512" 
d="M369 883h-179v-310h179q33 0 32 -32v-66q0 -33 -32 -33h-179v-409q0 -33 -32 -33h-66q-33 0 -33 33v915q-1 27 19 46t47 20h244q33 0 32 -33v-66q1 -32 -32 -32z" />
    <glyph glyph-name="g" unicode="g" horiz-adv-x="641" 
d="M432 674q-33 0 -33 33v69q0 45 -30 75q-31 30 -74 30t-74 -30t-31 -75v-543q0 -43 31 -73t74 -31q43 0 74 31t30 73v211h-71q-14 0 -24 10t-9 21v66q0 33 33 32h170q33 0 32 -32v-308q0 -97 -70 -165t-165 -68q-96 0 -166 69t-70 164v543q0 98 70 167t166 69t166 -69
t69 -167v-69q0 -33 -32 -33h-66z" />
    <glyph glyph-name="h" unicode="h" horiz-adv-x="641" 
d="M498 1014q33 0 32 -33v-948q0 -33 -32 -33h-66q-12 0 -22 9t-11 24v409h-209v-409q0 -33 -32 -33h-66q-33 0 -33 33v948q0 33 33 33h66q33 0 32 -33v-408h209v408q1 13 11 23t22 10h66z" />
    <glyph glyph-name="i" unicode="i" horiz-adv-x="301" 
d="M190 981v-948q0 -33 -32 -33h-66q-33 0 -33 33v948q0 33 33 33h66q12 0 22 -10t10 -23z" />
    <glyph glyph-name="j" unicode="j" horiz-adv-x="641" 
d="M498 1014q33 0 32 -33v-745q0 -96 -68 -166t-166 -70q-97 0 -167 70t-70 166v75q1 13 11 23t22 10h66q33 0 32 -33v-75q0 -43 31 -74t75 -31t74 31t29 74v745q1 13 11 23t22 10h66z" />
    <glyph glyph-name="k" unicode="k" horiz-adv-x="643" 
d="M532 981v-301q0 -102 -73 -172q74 -70 73 -170v-305q0 -13 -9 -23t-23 -10h-66q-14 0 -23 10t-10 23v305q0 43 -30 74q-31 31 -76 30h-105v-409q0 -13 -9 -23t-23 -10h-66q-14 0 -23 10t-10 23v948q0 33 33 33h66q33 0 32 -33v-408h105q45 0 76 31t30 76v301q0 33 33 33
h66q32 0 32 -33z" />
    <glyph glyph-name="l" unicode="l" horiz-adv-x="489" 
d="M367 131q33 0 32 -33v-65q0 -13 -9 -23t-23 -10h-242q-27 0 -46 19t-20 47v915q0 33 33 33h66q12 0 22 -9t10 -24v-850h177z" />
    <glyph glyph-name="m" unicode="m" horiz-adv-x="985" 
d="M636 1014q99 0 169 -70t69 -166v-745q0 -13 -9 -23t-23 -10h-66q-14 0 -23 10t-10 23v745q0 43 -30 74q-31 31 -75 31t-75 -31t-31 -74v-745q0 -13 -9 -23t-23 -10h-66q-14 0 -23 10t-10 23v745q0 43 -30 74q-31 31 -75 31t-75 -31t-31 -74v-745q0 -13 -9 -23t-23 -10
h-66q-12 0 -22 10t-11 23v745q0 96 70 166t169 70t169 -74q70 74 169 74z" />
    <glyph glyph-name="n" unicode="n" horiz-adv-x="643" 
d="M296 1014q97 0 167 -70t69 -166v-745q0 -13 -9 -23t-23 -10h-66q-14 0 -23 10t-10 23v745q0 43 -30 74q-31 31 -75 31t-75 -31t-31 -74v-745q0 -13 -9 -23t-23 -10h-66q-14 0 -23 10t-10 23v745q0 96 70 166t167 70z" />
    <glyph glyph-name="o" unicode="o" horiz-adv-x="643" 
d="M296 1014q97 0 167 -70t69 -166v-540q0 -98 -70 -168t-166 -70q-97 0 -167 70t-70 168v540q0 96 70 166t167 70zM401 238v540q0 43 -30 74q-31 31 -75 31t-75 -31t-31 -74v-540q0 -45 31 -76t75 -31t75 31q30 31 30 76z" />
    <glyph glyph-name="p" unicode="p" horiz-adv-x="600" 
d="M297 1014q96 0 166 -70t69 -166v-98q0 -98 -70 -168t-165 -70h-107v-409q0 -13 -9 -23t-23 -10h-66q-12 0 -22 10t-11 23v948q1 13 11 23t22 10h205zM401 680v98q0 43 -30 74q-31 31 -74 31h-107v-310h107q43 0 74 31q30 31 30 76z" />
    <glyph glyph-name="q" unicode="q" horiz-adv-x="643" 
d="M294 1014q97 0 167 -69t69 -167v-540q0 -80 -48 -142t-122 -86v-106q0 -33 -32 -33h-66q-33 0 -33 33v106q-73 23 -121 85t-49 143v540q0 98 69 167t166 69zM399 238v540q0 43 -30 74q-31 31 -74 31t-74 -31t-31 -74v-540q0 -43 31 -74t74 -31t74 31q30 31 30 74z" />
    <glyph glyph-name="r" unicode="r" horiz-adv-x="630" 
d="M389 680v98q0 43 -31 74t-73 31h-105v-310h105q43 0 73 31t31 76zM520 778v-98q0 -104 -71 -172q72 -68 71 -170v-305q0 -13 -9 -23t-24 -10h-65q-14 0 -24 10q-9 10 -9 23v305q0 43 -31 74t-73 30h-105v-409q0 -13 -10 -23t-23 -10h-65q-14 0 -24 10q-9 10 -9 23v915
q1 27 19 46t47 20h170q99 0 167 -70t68 -166z" />
    <glyph glyph-name="s" unicode="s" horiz-adv-x="600" 
d="M412 676q-33 0 -33 33v69q0 43 -31 74t-74 31q-44 0 -74 -31t-30 -66t6 -43l285 -376q37 -49 43 -65t6 -66q0 -96 -70 -166t-166 -70t-166 70t-69 166v69q0 33 33 33h65q33 0 33 -33v-69q0 -43 31 -74t73 -31t74 31q31 31 31 66t-6 42l-285 377q-37 49 -43 65t-6 66
q0 96 70 166q69 70 165 70t166 -70t70 -166v-69q0 -33 -33 -33h-65z" />
    <glyph glyph-name="t" unicode="t" horiz-adv-x="509" 
d="M387 1014q33 0 33 -33v-66q0 -33 -33 -32h-92v-850q0 -13 -9 -23t-24 -10h-65q-14 0 -24 10q-9 10 -9 23v850h-92q-33 0 -33 32v66q0 33 33 33h315z" />
    <glyph glyph-name="u" unicode="u" horiz-adv-x="643" 
d="M500 1014q33 0 32 -33v-743q0 -98 -70 -168t-166 -70q-97 0 -167 70t-70 168v743q1 13 11 23t22 10h66q33 0 32 -33v-743q0 -45 31 -76t75 -31t75 31t30 76v743q0 33 33 33h66z" />
    <glyph glyph-name="v" unicode="v" horiz-adv-x="643" 
d="M498 1012q33 0 32 -33v-637q0 -70 -38 -131l-111 -195q-10 -16 -29 -16h-114q-18 0 -29 16l-111 195q-39 61 -39 131v637q0 33 33 33h66q33 0 32 -33v-637q0 -18 7 -33l98 -176l100 176q4 20 4 33v637q1 14 11 23t22 10h66z" />
    <glyph glyph-name="w" unicode="w" horiz-adv-x="983" 
d="M840 1012q33 0 32 -33v-635q0 -74 -38 -131l-111 -197q-12 -16 -29 -16h-114q-16 0 -29 16l-84 152l-86 -152q-12 -16 -29 -16h-114q-18 0 -27 16l-113 197q-39 57 -39 131v635q0 33 33 33h66q33 0 32 -33v-635q0 -16 7 -35l98 -174l100 174q6 18 6 35v635q0 33 33 33h66
q12 0 22 -10t10 -23v-635q0 -10 5 -35l100 -174l98 174q6 18 6 35v635q0 33 33 33h66z" />
    <glyph glyph-name="x" unicode="x" horiz-adv-x="643" 
d="M532 848q0 -74 -40 -131l-119 -213l119 -213q41 -57 40 -131v-127q0 -13 -9 -23t-23 -10h-66q-14 0 -23 10t-10 23v127q0 20 -6 35l-100 176l-98 -176q-6 -14 -7 -35v-127q0 -13 -9 -23t-23 -10h-66q-14 0 -23 10t-10 23v127q0 74 41 131l119 213l-121 213
q-39 57 -39 131v133q0 33 33 33h66q33 0 32 -33v-133q0 -16 7 -35l98 -174l100 174q6 18 6 35v133q0 33 33 33h66q33 0 32 -33v-133z" />
    <glyph glyph-name="y" unicode="y" horiz-adv-x="602" 
d="M479 1014q33 0 33 -33v-301q0 -80 -48 -142t-122 -85v-420q0 -13 -10 -23t-23 -10h-65q-14 0 -24 10q-9 10 -9 23v420q-76 23 -124 85t-48 142v301q0 33 33 33h65q33 0 33 -33v-301q0 -45 31 -76t75 -31t74 31q31 31 31 76v301q0 33 33 33h65z" />
    <glyph glyph-name="z" unicode="z" horiz-adv-x="620" 
d="M498 1014q33 0 32 -33v-201q0 -51 -6 -67t-41 -64l-286 -381q-6 -6 -7 -32v-105h308q33 0 32 -33v-65q0 -13 -9 -23t-23 -10h-406q-14 0 -23 10t-10 23v203q0 49 7 65q6 16 40 66l289 378q4 8 4 35v103h-307q-33 0 -33 32v66q0 33 33 33h406z" />
    <glyph glyph-name="exclamdown" unicode="&#xa1;" horiz-adv-x="301" 
d="M59 -90v747q0 33 33 33h66q33 0 32 -33v-747q0 -33 -32 -33h-66q-33 0 -33 33zM92 819q-33 0 -33 33v135q0 33 33 33h66q33 0 32 -33v-135q0 -33 -32 -33h-66z" />
    <glyph glyph-name="dieresis" unicode="&#xa8;" horiz-adv-x="509" 
d="M92 1149q-33 0 -33 33v135q-1 12 9 22t24 11h66q14 0 23 -10t9 -23v-135q0 -33 -32 -33h-66zM303 1149q-33 0 -33 33v135q0 12 10 22t23 11h64q14 0 23 -10t9 -23v-135q0 -33 -32 -33h-64z" />
    <glyph glyph-name="macron" unicode="&#xaf;" 
 />
    <glyph glyph-name="acute" unicode="&#xb4;" horiz-adv-x="450" 
d="M88 1151q-18 0 -25 10q-6 10 3 27l118 209q18 37 64 37h63q19 0 25 -10t-2 -27l-119 -209q-18 -37 -63 -37h-64z" />
    <glyph glyph-name="middot" unicode="&#xb7;" 
 />
    <glyph glyph-name="cedilla" unicode="&#xb8;" 
 />
    <glyph glyph-name="questiondown" unicode="&#xbf;" horiz-adv-x="641" 
d="M59 111q0 49 7 65q6 16 43 66l286 379q6 8 6 34q0 33 33 33h66q32 0 32 -42t-6 -58t-43 -64l-286 -379q-7 -9 -7 -43t31 -65t75 -31t75 31t30 74v69q0 33 33 33h66q33 0 32 -33v-69q0 -98 -70 -167t-166 -69q-97 0 -167 69t-70 167zM434 817q-33 0 -33 33v135q0 33 33 33
h66q33 0 32 -33v-135q0 -33 -32 -33h-66z" />
    <glyph glyph-name="Agrave" unicode="&#xc0;" horiz-adv-x="643" 
d="M296 1012q97 0 167 -69t69 -167v-743q0 -33 -32 -33h-66q-33 0 -33 33v409h-211v-409q0 -33 -32 -33h-66q-33 0 -33 33v743q0 98 70 167t167 69zM168 1436q43 0 65 -37l119 -211q8 -16 2 -26t-24 -11h-64q-42 0 -65 37l-119 211q-8 14 -2 25t24 12h64zM401 573v203
q0 43 -30 74q-31 31 -75 31t-75 -31t-31 -74v-203h211z" />
    <glyph glyph-name="Aacute" unicode="&#xc1;" horiz-adv-x="643" 
d="M254 1151q-40 0 -23 37l119 209q18 37 64 37h63q19 0 25 -10t-2 -27l-119 -209q-18 -37 -64 -37h-63zM296 1012q97 0 167 -69t69 -167v-743q0 -33 -32 -33h-66q-33 0 -33 33v409h-211v-409q0 -33 -32 -33h-66q-33 0 -33 33v743q0 98 70 167t167 69zM401 573v203
q0 43 -30 74q-31 31 -75 31t-75 -31t-31 -74v-203h211z" />
    <glyph glyph-name="Acircumflex" unicode="&#xc2;" horiz-adv-x="643" 
d="M102 1151q-39 0 -22 37l119 209q18 33 57 37q2 2 39 2t39 -2q39 -4 57 -37l119 -209q8 -16 2 -26t-25 -11h-63q-43 0 -66 37l-63 115l-64 -115q-23 -37 -65 -37h-64zM296 1012q97 0 167 -69t69 -167v-743q0 -33 -32 -33h-66q-33 0 -33 33v409h-211v-409q0 -33 -32 -33
h-66q-33 0 -33 33v743q0 98 70 167t167 69zM401 573v203q0 43 -30 74q-31 31 -75 31t-75 -31t-31 -74v-203h211z" />
    <glyph glyph-name="Atilde" unicode="&#xc3;" 
 />
    <glyph glyph-name="Adieresis" unicode="&#xc4;" horiz-adv-x="643" 
d="M158 1149q-33 0 -33 33v135q0 12 9 22t24 11h65q13 0 23 -10t10 -23v-135q0 -33 -33 -33h-65zM369 1149q-33 0 -33 33v135q0 12 9 22t24 11h63q14 0 24 -10t9 -23v-135q0 -33 -33 -33h-63zM296 1012q97 0 167 -69t69 -167v-743q0 -33 -32 -33h-66q-33 0 -33 33v409h-211
v-409q0 -33 -32 -33h-66q-33 0 -33 33v743q0 98 70 167t167 69zM401 573v203q0 43 -30 74q-31 31 -75 31t-75 -31t-31 -74v-203h211z" />
    <glyph glyph-name="Aring" unicode="&#xc5;" 
 />
    <glyph glyph-name="AE" unicode="&#xc6;" 
 />
    <glyph glyph-name="Ccedilla" unicode="&#xc7;" horiz-adv-x="641" 
d="M434 678q-33 0 -33 33v69q0 43 -30 74q-31 31 -75 31t-75 -31t-31 -74v-544q0 -43 31 -74t75 -31t75 31t30 74v75q0 33 33 33h66q12 0 22 -9t10 -24v-75q0 -80 -49 -142t-123 -86v-102q0 -33 -32 -33h-66q-33 0 -33 33v102q-73 23 -121 85t-49 143v544q0 98 70 167
t167 69t167 -69t69 -167v-69q0 -13 -10 -23t-22 -10h-66z" />
    <glyph glyph-name="Egrave" unicode="&#xc8;" horiz-adv-x="512" 
d="M369 883h-179v-310h179q33 0 32 -32v-66q0 -33 -32 -33h-179v-311h179q33 0 32 -33v-65q0 -33 -32 -33h-244q-27 0 -46 19t-20 47v882q-1 27 19 46t47 20h244q33 0 32 -33v-66q1 -32 -32 -32zM102 1436q43 0 66 -37l119 -211q8 -16 2 -26t-25 -11h-63q-43 0 -66 37
l-119 211q-8 14 -2 25t25 12h63z" />
    <glyph glyph-name="Eacute" unicode="&#xc9;" horiz-adv-x="550" 
d="M369 883h-179v-310h179q33 0 32 -32v-66q0 -33 -32 -33h-179v-311h179q33 0 32 -33v-65q0 -33 -32 -33h-244q-27 0 -46 19t-20 47v882q-1 27 19 46t47 20h244q33 0 32 -33v-66q1 -32 -32 -32zM188 1151q-39 0 -22 37l119 209q18 37 63 37h64q18 0 24 -10t-2 -27
l-119 -209q-18 -37 -63 -37h-64z" />
    <glyph glyph-name="Ecircumflex" unicode="&#xca;" horiz-adv-x="512" 
d="M39 1151q-40 0 -23 37l119 209q18 33 58 37q3 2 39 2t38 -2q39 -4 58 -37l118 -209q18 -37 -22 -37h-64q-43 0 -65 37l-64 115l-63 -115q-23 -37 -66 -37h-63zM371 883h-178v-310h178q33 0 32 -32v-66q0 -33 -32 -33h-178v-311h178q33 0 32 -33v-65q0 -33 -32 -33h-244
q-27 0 -46 19t-20 47v882q1 27 19 46t47 20h244q33 0 32 -33v-66q1 -32 -32 -32z" />
    <glyph glyph-name="Edieresis" unicode="&#xcb;" horiz-adv-x="512" 
d="M92 1149q-33 0 -33 33v135q-1 12 9 22t24 11h66q14 0 23 -10t9 -23v-135q0 -33 -32 -33h-66zM303 1149q-33 0 -33 33v135q0 12 10 22t23 11h64q14 0 23 -10t9 -23v-135q0 -33 -32 -33h-64zM369 883h-179v-310h179q33 0 32 -32v-66q0 -33 -32 -33h-179v-311h179
q33 0 32 -33v-65q0 -33 -32 -33h-244q-27 0 -46 19t-20 47v882q-1 27 19 46t47 20h244q33 0 32 -33v-66q1 -32 -32 -32z" />
    <glyph glyph-name="Igrave" unicode="&#xcc;" horiz-adv-x="301" 
d="M195 981v-948q0 -33 -33 -33h-66q-33 0 -33 33v948q0 33 33 33h66q12 0 22 -10t11 -23zM0 1436q43 0 66 -37l118 -211q8 -16 2 -26t-24 -11h-64q-42 0 -65 37l-119 211q-8 14 -2 25t25 12h63z" />
    <glyph glyph-name="Iacute" unicode="&#xcd;" horiz-adv-x="301" 
d="M193 981v-948q0 -33 -33 -33h-66q-33 0 -33 33v948q0 33 33 33h66q12 0 22 -10t11 -23zM84 1151q-40 0 -23 37l119 209q18 37 64 37h63q19 0 25 -10t-2 -27l-119 -209q-18 -37 -64 -37h-63z" />
    <glyph glyph-name="Icircumflex" unicode="&#xce;" horiz-adv-x="301" 
d="M-68 1151q-39 0 -22 37l119 209q18 33 57 37q2 2 39 2t39 -2q39 -4 57 -37l119 -209q8 -16 2 -26t-25 -11h-63q-43 0 -66 37l-63 115l-64 -115q-23 -37 -65 -37h-64zM193 981v-948q0 -33 -33 -33h-66q-33 0 -33 33v948q0 33 33 33h66q12 0 22 -10t11 -23z" />
    <glyph glyph-name="Idieresis" unicode="&#xcf;" horiz-adv-x="301" 
d="M-12 1149q-33 0 -33 33v135q0 12 9 22t24 11h65q13 0 23 -10t10 -23v-135q0 -33 -33 -33h-65zM199 1149q-33 0 -33 33v135q0 12 9 22t24 11h63q14 0 24 -10t9 -23v-135q0 -33 -33 -33h-63zM190 981v-948q0 -33 -32 -33h-66q-33 0 -33 33v948q0 33 33 33h66q12 0 22 -10
t10 -23z" />
    <glyph glyph-name="Ntilde" unicode="&#xd1;" horiz-adv-x="641" 
d="M296 1014q97 0 167 -70t69 -166v-745q0 -13 -9 -23t-23 -10h-66q-14 0 -23 10t-10 23v745q0 43 -30 74q-31 31 -75 31t-75 -31t-31 -74v-745q0 -13 -9 -23t-23 -10h-66q-14 0 -23 10t-10 23v745q0 96 70 166t167 70zM158 1149q-33 0 -33 33v65q0 33 33 33h276
q33 0 33 -33v-65q0 -33 -33 -33h-276z" />
    <glyph glyph-name="Ograve" unicode="&#xd2;" horiz-adv-x="643" 
d="M296 1014q97 0 167 -70t69 -166v-540q0 -98 -70 -168t-166 -70q-97 0 -167 70t-70 168v540q0 96 70 166t167 70zM401 238v540q0 43 -30 74q-31 31 -75 31t-75 -31t-31 -74v-540q0 -45 31 -76t75 -31t75 31q30 31 30 76zM168 1436q43 0 65 -37l119 -211q8 -16 2 -26
t-24 -11h-64q-42 0 -65 37l-119 211q-8 14 -2 25t24 12h64z" />
    <glyph glyph-name="Oacute" unicode="&#xd3;" horiz-adv-x="643" 
d="M296 1014q97 0 167 -70t69 -166v-540q0 -98 -70 -168t-166 -70q-97 0 -167 70t-70 168v540q0 96 70 166t167 70zM401 238v540q0 43 -30 74q-31 31 -75 31t-75 -31t-31 -74v-540q0 -45 31 -76t75 -31t75 31q30 31 30 76zM262 1151q-39 0 -22 37l118 209q18 37 64 37h63
q19 0 25 -10t-2 -27l-119 -209q-18 -37 -63 -37h-64z" />
    <glyph glyph-name="Ocircumflex" unicode="&#xd4;" horiz-adv-x="641" 
d="M102 1151q-39 0 -22 37l119 209q18 33 57 37q2 2 39 2t39 -2q39 -4 57 -37l119 -209q8 -16 2 -26t-25 -11h-63q-43 0 -66 37l-63 115l-64 -115q-23 -37 -65 -37h-64zM296 1014q97 0 167 -70t69 -166v-540q0 -98 -70 -168t-166 -70q-97 0 -167 70t-70 168v540q0 96 70 166
t167 70zM401 238v540q0 43 -30 74q-31 31 -75 31t-75 -31t-31 -74v-540q0 -45 31 -76t75 -31t75 31q30 31 30 76z" />
    <glyph glyph-name="Otilde" unicode="&#xd5;" 
 />
    <glyph glyph-name="Odieresis" unicode="&#xd6;" horiz-adv-x="643" 
d="M158 1149q-33 0 -33 33v135q0 12 9 22t24 11h65q13 0 23 -10t10 -23v-135q0 -33 -33 -33h-65zM369 1149q-33 0 -33 33v135q0 12 9 22t24 11h63q14 0 24 -10t9 -23v-135q0 -33 -33 -33h-63zM296 1014q97 0 167 -70t69 -166v-540q0 -98 -70 -168t-166 -70q-97 0 -167 70
t-70 168v540q0 96 70 166t167 70zM401 238v540q0 43 -30 74q-31 31 -75 31t-75 -31t-31 -74v-540q0 -45 31 -76t75 -31t75 31q30 31 30 76z" />
    <glyph glyph-name="Oslash" unicode="&#xd8;" 
 />
    <glyph glyph-name="Ugrave" unicode="&#xd9;" horiz-adv-x="643" 
d="M500 1014q33 0 32 -33v-743q0 -98 -70 -168t-166 -70q-97 0 -167 70t-70 168v743q1 13 11 23t22 10h66q33 0 32 -33v-743q0 -45 31 -76t75 -31t75 31t30 76v743q0 33 33 33h66zM168 1436q43 0 65 -37l119 -211q8 -16 2 -26t-24 -11h-64q-42 0 -65 37l-119 211
q-8 14 -2 25t24 12h64z" />
    <glyph glyph-name="Uacute" unicode="&#xda;" horiz-adv-x="643" 
d="M500 1014q33 0 32 -33v-743q0 -98 -70 -168t-166 -70q-97 0 -167 70t-70 168v743q1 13 11 23t22 10h66q33 0 32 -33v-743q0 -45 31 -76t75 -31t75 31t30 76v743q0 33 33 33h66zM252 1151q-40 0 -23 37l119 209q18 37 64 37h63q19 0 25 -10t-2 -27l-119 -209
q-18 -37 -64 -37h-63z" />
    <glyph glyph-name="Ucircumflex" unicode="&#xdb;" horiz-adv-x="643" 
d="M102 1151q-39 0 -22 37l119 209q18 33 57 37q2 2 39 2t39 -2q39 -4 57 -37l119 -209q8 -16 2 -26t-25 -11h-63q-43 0 -66 37l-63 115l-64 -115q-23 -37 -65 -37h-64zM500 1014q33 0 32 -33v-743q0 -98 -70 -168t-166 -70q-97 0 -167 70t-70 168v743q1 13 11 23t22 10h66
q33 0 32 -33v-743q0 -45 31 -76t75 -31t75 31t30 76v743q0 33 33 33h66z" />
    <glyph glyph-name="Udieresis" unicode="&#xdc;" horiz-adv-x="643" 
d="M158 1149q-33 0 -33 33v135q0 12 9 22t24 11h65q13 0 23 -10t10 -23v-135q0 -33 -33 -33h-65zM369 1149q-33 0 -33 33v135q0 12 9 22t24 11h63q14 0 24 -10t9 -23v-135q0 -33 -33 -33h-63zM500 1014q33 0 32 -33v-743q0 -98 -70 -168t-166 -70q-97 0 -167 70t-70 168v743
q1 13 11 23t22 10h66q33 0 32 -33v-743q0 -45 31 -76t75 -31t75 31t30 76v743q0 33 33 33h66z" />
    <glyph glyph-name="Yacute" unicode="&#xdd;" 
 />
    <glyph glyph-name="agrave" unicode="&#xe0;" horiz-adv-x="643" 
d="M296 1012q97 0 167 -69t69 -167v-743q0 -33 -32 -33h-66q-33 0 -33 33v409h-211v-409q0 -33 -32 -33h-66q-33 0 -33 33v743q0 98 70 167t167 69zM168 1436q43 0 65 -37l119 -211q8 -16 2 -26t-24 -11h-64q-42 0 -65 37l-119 211q-8 14 -2 25t24 12h64zM401 573v203
q0 43 -30 74q-31 31 -75 31t-75 -31t-31 -74v-203h211z" />
    <glyph glyph-name="aacute" unicode="&#xe1;" horiz-adv-x="643" 
d="M254 1151q-40 0 -23 37l119 209q18 37 64 37h63q19 0 25 -10t-2 -27l-119 -209q-18 -37 -64 -37h-63zM296 1012q97 0 167 -69t69 -167v-743q0 -33 -32 -33h-66q-33 0 -33 33v409h-211v-409q0 -33 -32 -33h-66q-33 0 -33 33v743q0 98 70 167t167 69zM401 573v203
q0 43 -30 74q-31 31 -75 31t-75 -31t-31 -74v-203h211z" />
    <glyph glyph-name="acircumflex" unicode="&#xe2;" horiz-adv-x="643" 
d="M102 1151q-39 0 -22 37l119 209q18 33 57 37q2 2 39 2t39 -2q39 -4 57 -37l119 -209q8 -16 2 -26t-25 -11h-63q-43 0 -66 37l-63 115l-64 -115q-23 -37 -65 -37h-64zM296 1012q97 0 167 -69t69 -167v-743q0 -33 -32 -33h-66q-33 0 -33 33v409h-211v-409q0 -33 -32 -33
h-66q-33 0 -33 33v743q0 98 70 167t167 69zM401 573v203q0 43 -30 74q-31 31 -75 31t-75 -31t-31 -74v-203h211z" />
    <glyph glyph-name="adieresis" unicode="&#xe4;" horiz-adv-x="643" 
d="M158 1149q-33 0 -33 33v135q0 12 9 22t24 11h65q13 0 23 -10t10 -23v-135q0 -33 -33 -33h-65zM369 1149q-33 0 -33 33v135q0 12 9 22t24 11h63q14 0 24 -10t9 -23v-135q0 -33 -33 -33h-63zM296 1012q97 0 167 -69t69 -167v-743q0 -33 -32 -33h-66q-33 0 -33 33v409h-211
v-409q0 -33 -32 -33h-66q-33 0 -33 33v743q0 98 70 167t167 69zM401 573v203q0 43 -30 74q-31 31 -75 31t-75 -31t-31 -74v-203h211z" />
    <glyph glyph-name="ccedilla" unicode="&#xe7;" horiz-adv-x="641" 
d="M434 678q-33 0 -33 33v69q0 43 -30 74q-31 31 -75 31t-75 -31t-31 -74v-544q0 -43 31 -74t75 -31t75 31t30 74v75q0 33 33 33h66q12 0 22 -9t10 -24v-75q0 -80 -49 -142t-123 -86v-102q0 -33 -32 -33h-66q-33 0 -33 33v102q-73 23 -121 85t-49 143v544q0 98 70 167
t167 69t167 -69t69 -167v-69q0 -13 -10 -23t-22 -10h-66z" />
    <glyph glyph-name="egrave" unicode="&#xe8;" horiz-adv-x="512" 
d="M369 883h-179v-310h179q33 0 32 -32v-66q0 -33 -32 -33h-179v-311h179q33 0 32 -33v-65q0 -33 -32 -33h-244q-27 0 -46 19t-20 47v882q-1 27 19 46t47 20h244q33 0 32 -33v-66q1 -32 -32 -32zM102 1436q43 0 66 -37l119 -211q8 -16 2 -26t-25 -11h-63q-43 0 -66 37
l-119 211q-8 14 -2 25t25 12h63z" />
    <glyph glyph-name="eacute" unicode="&#xe9;" horiz-adv-x="550" 
d="M369 883h-179v-310h179q33 0 32 -32v-66q0 -33 -32 -33h-179v-311h179q33 0 32 -33v-65q0 -33 -32 -33h-244q-27 0 -46 19t-20 47v882q-1 27 19 46t47 20h244q33 0 32 -33v-66q1 -32 -32 -32zM188 1151q-39 0 -22 37l119 209q18 37 63 37h64q18 0 24 -10t-2 -27
l-119 -209q-18 -37 -63 -37h-64z" />
    <glyph glyph-name="ecircumflex" unicode="&#xea;" horiz-adv-x="512" 
d="M39 1151q-40 0 -23 37l119 209q18 33 58 37q3 2 39 2t38 -2q39 -4 58 -37l118 -209q18 -37 -22 -37h-64q-43 0 -65 37l-64 115l-63 -115q-23 -37 -66 -37h-63zM371 883h-178v-310h178q33 0 32 -32v-66q0 -33 -32 -33h-178v-311h178q33 0 32 -33v-65q0 -33 -32 -33h-244
q-27 0 -46 19t-20 47v882q1 27 19 46t47 20h244q33 0 32 -33v-66q1 -32 -32 -32z" />
    <glyph glyph-name="edieresis" unicode="&#xeb;" horiz-adv-x="512" 
d="M92 1149q-33 0 -33 33v135q-1 12 9 22t24 11h66q14 0 23 -10t9 -23v-135q0 -33 -32 -33h-66zM303 1149q-33 0 -33 33v135q0 12 10 22t23 11h64q14 0 23 -10t9 -23v-135q0 -33 -32 -33h-64zM369 883h-179v-310h179q33 0 32 -32v-66q0 -33 -32 -33h-179v-311h179
q33 0 32 -33v-65q0 -33 -32 -33h-244q-27 0 -46 19t-20 47v882q-1 27 19 46t47 20h244q33 0 32 -33v-66q1 -32 -32 -32z" />
    <glyph glyph-name="igrave" unicode="&#xec;" horiz-adv-x="301" 
d="M195 981v-948q0 -33 -33 -33h-66q-33 0 -33 33v948q0 33 33 33h66q12 0 22 -10t11 -23zM0 1436q43 0 66 -37l118 -211q8 -16 2 -26t-24 -11h-64q-42 0 -65 37l-119 211q-8 14 -2 25t25 12h63z" />
    <glyph glyph-name="iacute" unicode="&#xed;" horiz-adv-x="301" 
d="M193 981v-948q0 -33 -33 -33h-66q-33 0 -33 33v948q0 33 33 33h66q12 0 22 -10t11 -23zM84 1151q-40 0 -23 37l119 209q18 37 64 37h63q19 0 25 -10t-2 -27l-119 -209q-18 -37 -64 -37h-63z" />
    <glyph glyph-name="icircumflex" unicode="&#xee;" horiz-adv-x="301" 
d="M-68 1151q-39 0 -22 37l119 209q18 33 57 37q2 2 39 2t39 -2q39 -4 57 -37l119 -209q8 -16 2 -26t-25 -11h-63q-43 0 -66 37l-63 115l-64 -115q-23 -37 -65 -37h-64zM193 981v-948q0 -33 -33 -33h-66q-33 0 -33 33v948q0 33 33 33h66q12 0 22 -10t11 -23z" />
    <glyph glyph-name="idieresis" unicode="&#xef;" horiz-adv-x="301" 
d="M-12 1149q-33 0 -33 33v135q0 12 9 22t24 11h65q13 0 23 -10t10 -23v-135q0 -33 -33 -33h-65zM199 1149q-33 0 -33 33v135q0 12 9 22t24 11h63q14 0 24 -10t9 -23v-135q0 -33 -33 -33h-63zM190 981v-948q0 -33 -32 -33h-66q-33 0 -33 33v948q0 33 33 33h66q12 0 22 -10
t10 -23z" />
    <glyph glyph-name="ntilde" unicode="&#xf1;" horiz-adv-x="641" 
d="M296 1014q97 0 167 -70t69 -166v-745q0 -13 -9 -23t-23 -10h-66q-14 0 -23 10t-10 23v745q0 43 -30 74q-31 31 -75 31t-75 -31t-31 -74v-745q0 -13 -9 -23t-23 -10h-66q-14 0 -23 10t-10 23v745q0 96 70 166t167 70zM158 1149q-33 0 -33 33v65q0 33 33 33h276
q33 0 33 -33v-65q0 -33 -33 -33h-276z" />
    <glyph glyph-name="ograve" unicode="&#xf2;" horiz-adv-x="643" 
d="M296 1014q97 0 167 -70t69 -166v-540q0 -98 -70 -168t-166 -70q-97 0 -167 70t-70 168v540q0 96 70 166t167 70zM401 238v540q0 43 -30 74q-31 31 -75 31t-75 -31t-31 -74v-540q0 -45 31 -76t75 -31t75 31q30 31 30 76zM168 1436q43 0 65 -37l119 -211q8 -16 2 -26
t-24 -11h-64q-42 0 -65 37l-119 211q-8 14 -2 25t24 12h64z" />
    <glyph glyph-name="oacute" unicode="&#xf3;" horiz-adv-x="643" 
d="M296 1014q97 0 167 -70t69 -166v-540q0 -98 -70 -168t-166 -70q-97 0 -167 70t-70 168v540q0 96 70 166t167 70zM401 238v540q0 43 -30 74q-31 31 -75 31t-75 -31t-31 -74v-540q0 -45 31 -76t75 -31t75 31q30 31 30 76zM262 1151q-39 0 -22 37l118 209q18 37 64 37h63
q19 0 25 -10t-2 -27l-119 -209q-18 -37 -63 -37h-64z" />
    <glyph glyph-name="ocircumflex" unicode="&#xf4;" horiz-adv-x="641" 
d="M102 1151q-39 0 -22 37l119 209q18 33 57 37q2 2 39 2t39 -2q39 -4 57 -37l119 -209q8 -16 2 -26t-25 -11h-63q-43 0 -66 37l-63 115l-64 -115q-23 -37 -65 -37h-64zM296 1014q97 0 167 -70t69 -166v-540q0 -98 -70 -168t-166 -70q-97 0 -167 70t-70 168v540q0 96 70 166
t167 70zM401 238v540q0 43 -30 74q-31 31 -75 31t-75 -31t-31 -74v-540q0 -45 31 -76t75 -31t75 31q30 31 30 76z" />
    <glyph glyph-name="odieresis" unicode="&#xf6;" horiz-adv-x="643" 
d="M158 1149q-33 0 -33 33v135q0 12 9 22t24 11h65q13 0 23 -10t10 -23v-135q0 -33 -33 -33h-65zM369 1149q-33 0 -33 33v135q0 12 9 22t24 11h63q14 0 24 -10t9 -23v-135q0 -33 -33 -33h-63zM296 1014q97 0 167 -70t69 -166v-540q0 -98 -70 -168t-166 -70q-97 0 -167 70
t-70 168v540q0 96 70 166t167 70zM401 238v540q0 43 -30 74q-31 31 -75 31t-75 -31t-31 -74v-540q0 -45 31 -76t75 -31t75 31q30 31 30 76z" />
    <glyph glyph-name="ugrave" unicode="&#xf9;" horiz-adv-x="643" 
d="M500 1014q33 0 32 -33v-743q0 -98 -70 -168t-166 -70q-97 0 -167 70t-70 168v743q1 13 11 23t22 10h66q33 0 32 -33v-743q0 -45 31 -76t75 -31t75 31t30 76v743q0 33 33 33h66zM168 1436q43 0 65 -37l119 -211q8 -16 2 -26t-24 -11h-64q-42 0 -65 37l-119 211
q-8 14 -2 25t24 12h64z" />
    <glyph glyph-name="uacute" unicode="&#xfa;" horiz-adv-x="643" 
d="M500 1014q33 0 32 -33v-743q0 -98 -70 -168t-166 -70q-97 0 -167 70t-70 168v743q1 13 11 23t22 10h66q33 0 32 -33v-743q0 -45 31 -76t75 -31t75 31t30 76v743q0 33 33 33h66zM252 1151q-40 0 -23 37l119 209q18 37 64 37h63q19 0 25 -10t-2 -27l-119 -209
q-18 -37 -64 -37h-63z" />
    <glyph glyph-name="ucircumflex" unicode="&#xfb;" horiz-adv-x="643" 
d="M102 1151q-39 0 -22 37l119 209q18 33 57 37q2 2 39 2t39 -2q39 -4 57 -37l119 -209q8 -16 2 -26t-25 -11h-63q-43 0 -66 37l-63 115l-64 -115q-23 -37 -65 -37h-64zM500 1014q33 0 32 -33v-743q0 -98 -70 -168t-166 -70q-97 0 -167 70t-70 168v743q1 13 11 23t22 10h66
q33 0 32 -33v-743q0 -45 31 -76t75 -31t75 31t30 76v743q0 33 33 33h66z" />
    <glyph glyph-name="udieresis" unicode="&#xfc;" horiz-adv-x="643" 
d="M158 1149q-33 0 -33 33v135q0 12 9 22t24 11h65q13 0 23 -10t10 -23v-135q0 -33 -33 -33h-65zM369 1149q-33 0 -33 33v135q0 12 9 22t24 11h63q14 0 24 -10t9 -23v-135q0 -33 -33 -33h-63zM500 1014q33 0 32 -33v-743q0 -98 -70 -168t-166 -70q-97 0 -167 70t-70 168v743
q1 13 11 23t22 10h66q33 0 32 -33v-743q0 -45 31 -76t75 -31t75 31t30 76v743q0 33 33 33h66z" />
    <glyph glyph-name="Amacron" unicode="&#x100;" 
 />
    <glyph glyph-name="Abreve" unicode="&#x102;" 
 />
    <glyph glyph-name="Aogonek" unicode="&#x104;" 
 />
    <glyph glyph-name="Cacute" unicode="&#x106;" 
 />
    <glyph glyph-name="Ccircumflex" unicode="&#x108;" 
 />
    <glyph glyph-name="Cdotaccent" unicode="&#x10a;" 
 />
    <glyph glyph-name="Ccaron" unicode="&#x10c;" 
 />
    <glyph glyph-name="Dcaron" unicode="&#x10e;" 
 />
    <glyph glyph-name="Dcroat" unicode="&#x110;" 
 />
    <glyph glyph-name="Emacron" unicode="&#x112;" 
 />
    <glyph glyph-name="Ebreve" unicode="&#x114;" 
 />
    <glyph glyph-name="Edotaccent" unicode="&#x116;" 
 />
    <glyph glyph-name="Eogonek" unicode="&#x118;" 
 />
    <glyph glyph-name="Ecaron" unicode="&#x11a;" horiz-adv-x="512" 
 />
    <glyph glyph-name="Gcircumflex" unicode="&#x11c;" 
 />
    <glyph glyph-name="Gbreve" unicode="&#x11e;" 
 />
    <glyph glyph-name="Gdotaccent" unicode="&#x120;" 
 />
    <glyph glyph-name="Gcommaaccent" unicode="&#x122;" 
 />
    <glyph glyph-name="Hcircumflex" unicode="&#x124;" 
 />
    <glyph glyph-name="Hbar" unicode="&#x126;" 
 />
    <glyph glyph-name="Itilde" unicode="&#x128;" 
 />
    <glyph glyph-name="Ibreve" unicode="&#x12c;" 
 />
    <glyph glyph-name="Iogonek" unicode="&#x12e;" 
 />
    <glyph glyph-name="Idotaccent" unicode="&#x130;" 
 />
    <glyph glyph-name="IJ" unicode="&#x132;" 
 />
    <glyph glyph-name="Jcircumflex" unicode="&#x134;" 
 />
    <glyph glyph-name="Kcommaaccent" unicode="&#x136;" 
 />
    <glyph glyph-name="Lacute" unicode="&#x139;" 
 />
    <glyph glyph-name="Lcommaaccent" unicode="&#x13b;" 
 />
    <glyph glyph-name="Lcaron" unicode="&#x13d;" 
 />
    <glyph glyph-name="Ldot" unicode="&#x13f;" 
 />
    <glyph glyph-name="Lslash" unicode="&#x141;" 
 />
    <glyph glyph-name="Nacute" unicode="&#x143;" 
 />
    <glyph glyph-name="Ncommaaccent" unicode="&#x145;" 
 />
    <glyph glyph-name="Ncaron" unicode="&#x147;" 
 />
    <glyph glyph-name="Omacron" unicode="&#x14c;" 
 />
    <glyph glyph-name="Obreve" unicode="&#x14e;" 
 />
    <glyph glyph-name="Ohungarumlaut" unicode="&#x150;" 
 />
    <glyph glyph-name="OE" unicode="&#x152;" horiz-adv-x="3411" 
 />
    <glyph glyph-name="Racute" unicode="&#x154;" 
 />
    <glyph glyph-name="Rcommaaccent" unicode="&#x156;" 
 />
    <glyph glyph-name="Rcaron" unicode="&#x158;" 
 />
    <glyph glyph-name="Sacute" unicode="&#x15a;" 
 />
    <glyph glyph-name="Scircumflex" unicode="&#x15c;" 
 />
    <glyph glyph-name="Scedilla" unicode="&#x15e;" 
 />
    <glyph glyph-name="Scaron" unicode="&#x160;" 
 />
    <glyph glyph-name="Tcommaaccent" unicode="&#x162;" 
 />
    <glyph glyph-name="Tcaron" unicode="&#x164;" 
 />
    <glyph glyph-name="Tbar" unicode="&#x166;" 
 />
    <glyph glyph-name="Utilde" unicode="&#x168;" 
 />
    <glyph glyph-name="Umacron" unicode="&#x16a;" 
 />
    <glyph glyph-name="Ubreve" unicode="&#x16c;" 
 />
    <glyph glyph-name="Uring" unicode="&#x16e;" 
 />
    <glyph glyph-name="Uhungarumlaut" unicode="&#x170;" 
 />
    <glyph glyph-name="Uogonek" unicode="&#x172;" 
 />
    <glyph glyph-name="Wcircumflex" unicode="&#x174;" 
 />
    <glyph glyph-name="Ycircumflex" unicode="&#x176;" 
 />
    <glyph glyph-name="Ydieresis" unicode="&#x178;" 
 />
    <glyph glyph-name="Zacute" unicode="&#x179;" 
 />
    <glyph glyph-name="Zdotaccent" unicode="&#x17b;" 
 />
    <glyph glyph-name="Zcaron" unicode="&#x17d;" 
 />
    <glyph glyph-name="AEacute" unicode="&#x1fc;" 
 />
    <glyph glyph-name="Oslashacute" unicode="&#x1fe;" 
 />
    <glyph glyph-name="Scommaaccent" unicode="&#x218;" 
 />
    <glyph glyph-name="circumflex" unicode="&#x2c6;" 
 />
    <glyph glyph-name="caron" unicode="&#x2c7;" 
 />
    <glyph glyph-name="breve" unicode="&#x2d8;" 
 />
    <glyph glyph-name="dotaccent" unicode="&#x2d9;" 
 />
    <glyph glyph-name="ring" unicode="&#x2da;" 
 />
    <glyph glyph-name="ogonek" unicode="&#x2db;" 
 />
    <glyph glyph-name="tilde" unicode="&#x2dc;" 
 />
    <glyph glyph-name="hungarumlaut" unicode="&#x2dd;" horiz-adv-x="901" 
 />
    <glyph glyph-name="Wgrave" unicode="&#x1e80;" 
 />
    <glyph glyph-name="Wacute" unicode="&#x1e82;" 
 />
    <glyph glyph-name="Wdieresis" unicode="&#x1e84;" 
 />
    <glyph glyph-name="Ygrave" unicode="&#x1ef2;" 
 />
    <glyph glyph-name="euro" unicode="&#x20ac;" horiz-adv-x="776" 
d="M565 674q-12 0 -21 10t-9 23v69q0 45 -31 76t-75 31t-75 -31t-30 -76v-74h102q14 0 24 -10t9 -22v-66q0 -33 -33 -33h-102v-131h102q33 0 33 -32v-66q0 -33 -33 -33h-102v-73q0 -45 30 -76t75 -31q44 0 75 31t31 76v75q0 13 9 23t21 10h66q33 0 33 -33v-75
q0 -98 -69 -167t-166 -69t-166 69t-68 167v73h-103q-33 0 -33 33v66q0 33 33 32h103v131h-103q-33 0 -33 33v66q-1 12 9 22t24 10h103v74q0 98 68 167q69 69 166 69t166 -69t69 -167v-69q0 -13 -10 -23t-23 -10h-66z" />
    <glyph glyph-name="CR" horiz-adv-x="294" 
 />
    <glyph glyph-name="Imacron" 
 />
    <glyph glyph-name="K.alt" 
 />
    <glyph glyph-name="Kcommaaccent.alt" 
 />
    <glyph glyph-name="Q.alt" 
 />
    <glyph glyph-name="R.alt" 
 />
    <glyph glyph-name="Racute.alt" 
 />
    <glyph glyph-name="Rcaron.alt" 
 />
    <glyph glyph-name="Rcommaaccent.alt" 
 />
    <glyph glyph-name="T_h" horiz-adv-x="2347" 
 />
    <glyph glyph-name="T_h.caron" 
 />
    <glyph glyph-name="T_h.commaaccent" 
 />
    <glyph glyph-name="Asmall" horiz-adv-x="0" 
 />
    <glyph glyph-name="Aacutesmall" horiz-adv-x="0" 
 />
    <glyph glyph-name="Abreve.small" 
 />
    <glyph glyph-name="Acircumflexsmall" horiz-adv-x="0" 
 />
    <glyph glyph-name="Adieresissmall" horiz-adv-x="0" 
 />
    <glyph glyph-name="Agravesmall" horiz-adv-x="0" 
 />
    <glyph glyph-name="Amacron.small" 
 />
    <glyph glyph-name="Aogonek.small" 
 />
    <glyph glyph-name="Aringsmall" horiz-adv-x="0" 
 />
    <glyph glyph-name="Atildesmall" horiz-adv-x="0" 
 />
    <glyph glyph-name="AEsmall" horiz-adv-x="0" 
 />
    <glyph glyph-name="AEacute.small" 
 />
    <glyph glyph-name="Bsmall" horiz-adv-x="0" 
 />
    <glyph glyph-name="Csmall" horiz-adv-x="0" 
 />
    <glyph glyph-name="Cacute.small" 
 />
    <glyph glyph-name="Ccaron.small" 
 />
    <glyph glyph-name="Ccedillasmall" horiz-adv-x="0" 
 />
    <glyph glyph-name="Ccircumflex.small" 
 />
    <glyph glyph-name="Cdotaccent.small" 
 />
    <glyph glyph-name="Dsmall" horiz-adv-x="0" 
 />
    <glyph glyph-name="Dcaron.small" 
 />
    <glyph glyph-name="Dcroat.small" 
 />
    <glyph glyph-name="Esmall" horiz-adv-x="0" 
 />
    <glyph glyph-name="Eacutesmall" horiz-adv-x="0" 
 />
    <glyph glyph-name="Ebreve.small" 
 />
    <glyph glyph-name="Ecaron.small" 
 />
    <glyph glyph-name="Ecircumflexsmall" horiz-adv-x="0" 
 />
    <glyph glyph-name="Edieresissmall" horiz-adv-x="0" 
 />
    <glyph glyph-name="Edotaccent.small" 
 />
    <glyph glyph-name="Egravesmall" horiz-adv-x="0" 
 />
    <glyph glyph-name="Emacron.small" 
 />
    <glyph glyph-name="Eogonek.small" 
 />
    <glyph glyph-name="Fsmall" horiz-adv-x="0" 
 />
    <glyph glyph-name="Gsmall" horiz-adv-x="0" 
 />
    <glyph glyph-name="Gbreve.small" 
 />
    <glyph glyph-name="Gcircumflex.small" 
 />
    <glyph glyph-name="Gcommaaccent.small" 
 />
    <glyph glyph-name="Gdotaccent.small" 
 />
    <glyph glyph-name="Hsmall" horiz-adv-x="0" 
 />
    <glyph glyph-name="Hbar.small" 
 />
    <glyph glyph-name="Hcircumflex.small" 
 />
    <glyph glyph-name="Ismall" horiz-adv-x="0" 
 />
    <glyph glyph-name="Iacutesmall" horiz-adv-x="0" 
 />
    <glyph glyph-name="Ibreve.small" 
 />
    <glyph glyph-name="Icircumflexsmall" horiz-adv-x="0" 
 />
    <glyph glyph-name="Idieresissmall" horiz-adv-x="0" 
 />
    <glyph glyph-name="Idotaccent.small" 
 />
    <glyph glyph-name="Igravesmall" horiz-adv-x="0" 
 />
    <glyph glyph-name="Imacron.small" 
 />
    <glyph glyph-name="Iogonek.small" 
 />
    <glyph glyph-name="Itilde.small" 
 />
    <glyph glyph-name="IJ.small" 
 />
    <glyph glyph-name="Jsmall" horiz-adv-x="0" 
 />
    <glyph glyph-name="Jcircumflex.small" 
 />
    <glyph glyph-name="Ksmall" horiz-adv-x="0" 
 />
    <glyph glyph-name="Kcommaaccent.small" 
 />
    <glyph glyph-name="Ksmall.alt" horiz-adv-x="0" 
 />
    <glyph glyph-name="Kcommaaccent.smallalt" 
 />
    <glyph glyph-name="Lsmall" horiz-adv-x="0" 
 />
    <glyph glyph-name="Lacute.small" 
 />
    <glyph glyph-name="Lcaron.small" 
 />
    <glyph glyph-name="Lcommaaccent.small" 
 />
    <glyph glyph-name="Ldot.small" 
 />
    <glyph glyph-name="Lslashsmall" horiz-adv-x="0" 
 />
    <glyph glyph-name="cyrbreve" horiz-adv-x="0" 
 />
    <glyph glyph-name="commaaccent" horiz-adv-x="294" 
 />
    <glyph glyph-name="undercommaaccent" horiz-adv-x="0" 
 />
    <glyph glyph-name="dieresisacute" horiz-adv-x="0" 
 />
    <glyph glyph-name="dieresisgrave" horiz-adv-x="0" 
 />
    <glyph glyph-name="dblgrave" horiz-adv-x="0" 
 />
    <glyph glyph-name="cyrflex" horiz-adv-x="0" 
 />
    <glyph glyph-name="Acute" horiz-adv-x="0" 
 />
    <glyph glyph-name="Breve" horiz-adv-x="0" 
 />
    <glyph glyph-name="cyrBreve" horiz-adv-x="0" 
 />
    <glyph glyph-name="Caron" horiz-adv-x="0" 
 />
    <glyph glyph-name="Cedilla" horiz-adv-x="0" 
 />
    <glyph glyph-name="Circumflex" horiz-adv-x="0" 
 />
    <glyph glyph-name="commaaccent.cap" horiz-adv-x="294" 
 />
    <glyph glyph-name="Dieresis" horiz-adv-x="0" 
 />
    <glyph glyph-name="DieresisAcute" horiz-adv-x="0" 
 />
    <glyph glyph-name="DieresisGrave" horiz-adv-x="0" 
 />
    <glyph glyph-name="Dotaccent" horiz-adv-x="0" 
 />
    <glyph glyph-name="Hungarumlaut" horiz-adv-x="0" 
 />
    <glyph glyph-name="Grave" horiz-adv-x="0" 
 />
    <glyph glyph-name="dblGrave" horiz-adv-x="0" 
 />
    <glyph glyph-name="cyrFlex" horiz-adv-x="0" 
 />
    <glyph glyph-name="Macron" horiz-adv-x="0" 
 />
    <glyph glyph-name="Ogonek" horiz-adv-x="0" 
 />
    <glyph glyph-name="Ring" horiz-adv-x="0" 
 />
    <glyph glyph-name="Tilde" horiz-adv-x="0" 
 />
    <glyph glyph-name="Acutesmall" horiz-adv-x="0" 
 />
    <glyph glyph-name="Brevesmall" horiz-adv-x="0" 
 />
    <glyph glyph-name="Caronsmall" horiz-adv-x="0" 
 />
    <glyph glyph-name="Cedillasmall" horiz-adv-x="0" 
 />
    <glyph glyph-name="Circumflexsmall" horiz-adv-x="0" 
 />
    <glyph glyph-name="commaaccent.small" horiz-adv-x="294" 
 />
    <glyph glyph-name="Dieresissmall" horiz-adv-x="0" 
 />
    <glyph glyph-name="DieresisAcute.small" horiz-adv-x="0" 
 />
    <glyph glyph-name="DieresisGrave.small" horiz-adv-x="0" 
 />
    <glyph glyph-name="Dotaccentsmall" horiz-adv-x="0" 
 />
    <glyph glyph-name="Hungarumlautsmall" horiz-adv-x="0" 
 />
    <glyph glyph-name="Gravesmall" horiz-adv-x="0" 
 />
    <glyph glyph-name="dblGrave.small" horiz-adv-x="0" 
 />
    <glyph glyph-name="Macronsmall" horiz-adv-x="0" 
 />
    <glyph glyph-name="Ogoneksmall" horiz-adv-x="0" 
 />
    <glyph glyph-name="Ringsmall" horiz-adv-x="0" 
 />
    <glyph glyph-name="Tildesmall" horiz-adv-x="0" 
 />
    </font>
</defs>
</svg>
