<?xml version="1.0" standalone="no"?>
<!DOCTYPE svg PUBLIC "-//W3C//DTD SVG 1.1//EN" "http://www.w3.org/Graphics/SVG/1.1/DTD/svg11.dtd" >
<svg xmlns="http://www.w3.org/2000/svg">
<metadata>
Created by FontPrep 20130207 at Wed Dec  9 16:04:24 2015
 By Gianna Fusaro
Krisjanis Mezulis RIT CREATIVE
</metadata>
<defs>
<font id="5ee0efe27071f94cee872c520c656b82" horiz-adv-x='1024' >
  <font-face 
    font-family="Etna"
    font-weight="400"
    font-stretch="normal"
    units-per-em="2048"
    panose-1="0 0 0 0 0 0 0 0 0 0"
    ascent="1536"
    descent="-512"
    x-height="1055"
    cap-height="1331"
    bbox="-205 -565 2546 2114"
    underline-thickness="102"
    underline-position="-102"
    unicode-range="U+000D-2122"
  />
<missing-glyph horiz-adv-x="661" 
 />
    <glyph glyph-name=".notdef" horiz-adv-x="661" 
 />
    <glyph glyph-name=".null" horiz-adv-x="0" 
 />
    <glyph glyph-name="nonmarkingreturn" horiz-adv-x="681" 
 />
    <glyph glyph-name="NULL" horiz-adv-x="0" 
 />
    <glyph glyph-name="NULL" horiz-adv-x="0" 
 />
    <glyph glyph-name="CR" unicode="&#xd;" horiz-adv-x="532" 
 />
    <glyph glyph-name="space" unicode=" " horiz-adv-x="532" 
 />
    <glyph glyph-name="exclam" unicode="!" horiz-adv-x="442" 
d="M61 0v319h320v-319h-320zM61 1542h320v-1065h-320v1065z" />
    <glyph glyph-name="quotedbl" unicode="&#x22;" horiz-adv-x="792" 
d="M444 1278h287v-584h-287v584zM61 1278h287v-584h-287v584z" />
    <glyph glyph-name="numbersign" unicode="#" horiz-adv-x="1005" 
d="M430 565h139v99h-139v-99zM733 664v-99h211v-164h-211v-225h-164v225h-139v-225h-164v225h-205v164h205v99h-205v163h205v230h164v-230h139v230h164v-230h211v-163h-211z" />
    <glyph glyph-name="dollar" unicode="$" horiz-adv-x="1009" 
d="M503 215q212 0 212 102q0 96 -221 123q-246 24 -355 146q-76 78 -76 192t74 207q82 92 236 119v121h266v-123q166 -35 250 -166q59 -92 59 -205h-227q0 51 -25 84q-53 74 -190 74q-84 0 -146 -24t-61 -74q-1 -100 231 -126t344 -155q74 -86 74 -201t-74 -200t-235 -109
v-145h-266v149q-37 6 -64 19q-72 27 -135 88q-111 100 -111 282l228 -2q0 -176 212 -176z" />
    <glyph glyph-name="percent" unicode="%" horiz-adv-x="1261" 
d="M768 319h319v-319h-319v319zM174 1372h320v-319h-320v319zM834 1372h366l-770 -1372h-369z" />
    <glyph glyph-name="ampersand" unicode="&#x26;" horiz-adv-x="1398" 
d="M289 487q0 -109 77 -185t185 -75q74 0 134 37t95 98l-354 355q-63 -33 -100 -95t-37 -135zM555 1262q-59 0 -101 -42t-42 -100t36 -97q36 -40 89 -48h18q59 0 101 42t42 101q0 60 -42 102t-101 42zM293 1380q117 109 261 109q72 0 146 -29q143 -67 197 -198
q29 -70 29 -143t-30 -145q-58 -137 -196 -198q-2 -2 -6 -2t-6 -2l260 -260l230 227l159 -159l-229 -228l172 -174l-158 -160l-174 177l-39 -37q-4 -6 -14 -17q-149 -141 -347 -141t-343 141q-66 66 -105 159t-39 187q0 93 39 187t105 160q41 37 61 51q-82 108 -82 244
q0 135 109 251z" />
    <glyph glyph-name="quotesingle" unicode="'" 
d="M61 1282h287v-584h-287v584z" />
    <glyph glyph-name="parenleft" unicode="(" horiz-adv-x="485" 
d="M266 455q0 -274 76 -467q13 -36 41 -81q27 -46 34 -53l-147 -143q-57 57 -110 185q-98 233 -98 558t98 570q57 147 106 197l158 -131q-41 -49 -78 -152q-80 -209 -80 -483zM417 -146l1 -1v2z" />
    <glyph glyph-name="parenright" unicode=")" horiz-adv-x="485" 
d="M424 480q0 -353 -98 -599q-57 -147 -107 -196l-158 131q39 49 78 151q80 209 80 496t-99 503q-11 25 -30 54q-19 30 -21 32l146 142l27 -33q11 -16 53 -87q129 -241 129 -594zM69 1052l-1 1v-2z" />
    <glyph glyph-name="asterisk" unicode="*" horiz-adv-x="706" 
d="M645 877h-168l119 -119l-72 -72l-118 119v-168h-103v168l-119 -119l-73 72l118 119h-168v102h168l-118 119l73 73l119 -118v168h103v-168l118 118l72 -73l-119 -119h168v-102z" />
    <glyph glyph-name="plus" unicode="+" horiz-adv-x="1177" 
d="M1116 786v-286h-385v-383h-287v383h-383v286h383v385h287v-385h385z" />
    <glyph glyph-name="comma" unicode="," 
d="M61 287h287v-287l-78 -174h-147l80 174h-142v287z" />
    <glyph glyph-name="hyphen" unicode="-" horiz-adv-x="825" 
d="M61 457v286h703v-286h-703z" />
    <glyph glyph-name="period" unicode="." 
d="M348 0h-287v287h287v-287z" />
    <glyph glyph-name="slash" unicode="/" horiz-adv-x="851" 
d="M791 1372l-431 -1372h-299l431 1372h299z" />
    <glyph glyph-name="zero" unicode="0" horiz-adv-x="1005" 
d="M657 440v547q0 63 -46 109t-109 45q-62 0 -108 -45t-46 -109v-547q0 -63 45 -108t110 -45t109 45t45 108zM944 987v-547q0 -182 -129 -311t-311 -129t-314 129q-59 55 -94 140t-35 171v547q0 86 35 169q69 165 237 237t341 0q163 -71 236 -241q34 -80 34 -165z" />
    <glyph glyph-name="one" unicode="1" horiz-adv-x="716" 
d="M61 1427h594v-1427h-286v1141h-308v286z" />
    <glyph glyph-name="two" unicode="2" horiz-adv-x="1067" 
d="M999 287v-287h-938l639 918q18 30 18 82t-43 96t-107 45q-64 0 -108 -44t-44 -108h-287q0 182 127 309q59 58 142 94q167 72 339 1q84 -35 140 -95q59 -55 94 -138t35 -170q0 -145 -82 -259l-316 -444h391z" />
    <glyph glyph-name="three" unicode="3" horiz-adv-x="999" 
d="M938 989q0 -149 -96 -276q43 -53 61 -105q35 -76 35 -170t-33 -171t-95 -139t-140 -95t-170 -33q-175 0 -312 127q-127 133 -127 311h287q0 -63 44 -107t108 -44t107 44q44 44 44 96t-18 83l-133 225l133 183q18 30 18 82t-44 96t-107 45q-64 0 -108 -44t-44 -108h-287
q0 94 35 170q29 76 90 137q60 60 144 96q168 72 340 1q84 -35 139 -95q63 -61 94 -139q35 -76 35 -170z" />
    <glyph glyph-name="four" unicode="4" horiz-adv-x="1128" 
d="M780 969h287v-969h-287v510h-719l467 917h367l-336 -630h221v172z" />
    <glyph glyph-name="five" unicode="5" horiz-adv-x="1001" 
d="M940 439q0 -87 -35 -170t-95 -143q-126 -126 -308 -126q-86 0 -168 33q-165 66 -238 233q-35 86 -35 172h287q0 -90 80 -135q18 -8 51 -16h21q63 0 108 44t45 93t-18 86v2q-43 78 -133 78h-430v837h712v-286h-426v-264h146q86 0 169 -35t138 -94q59 -56 94 -139t35 -170z
" />
    <glyph glyph-name="six" unicode="6" horiz-adv-x="1003" 
d="M502 287q63 0 108 45t45 108q0 62 -45 108t-108 46q-62 0 -108 -45t-46 -109t46 -108q46 -45 108 -45zM942 440q0 -94 -33 -172t-94 -139q-129 -129 -314 -129t-311 129q-121 112 -129 299v573q4 172 129 297q58 58 142 94q165 70 342 1q84 -35 139 -95
q121 -121 129 -297h-287q-6 59 -50 99t-103 41q-60 0 -104 -40t-50 -100v-147q72 27 156 27t169 -35q85 -34 144 -96t92 -139t33 -171z" />
    <glyph glyph-name="seven" unicode="7" horiz-adv-x="929" 
d="M61 1427h807l-413 -1427h-299l331 1141h-426v286z" />
    <glyph glyph-name="eight" unicode="8" horiz-adv-x="1005" 
d="M502 287q64 0 110 45q45 45 45 108q0 62 -45 108t-108 46q-64 0 -110 -45t-46 -109t45 -108q45 -45 109 -45zM504 1141q-64 0 -110 -45t-46 -110q0 -66 45 -110t109 -44t110 46q45 46 45 109t-45 109t-108 45zM944 440q0 -86 -35 -171t-94 -140q-125 -129 -309 -129
q-185 0 -316 129q-61 61 -95 143t-34 168q0 154 97 273q-97 125 -97 274q0 176 128 308q61 61 143 97q166 71 344 1q162 -71 233 -234q35 -86 35 -172q0 -156 -94 -274q94 -117 94 -273z" />
    <glyph glyph-name="nine" unicode="9" horiz-adv-x="1005" 
d="M502 831q63 -1 109 45t46 110t-46 110t-109 45q-62 0 -108 -45q-46 -44 -46 -108t46 -110t108 -47zM502 287q60 0 102 38q43 38 53 115v133q-160 -61 -327 7q-74 33 -140 94q-59 59 -94 141t-35 170t35 171q69 164 234 237q174 71 344 0q162 -69 235 -237q33 -76 35 -157
l-2 -575q0 -168 -128 -296t-313 -128t-311 129q-59 55 -93 135t-36 160h287q6 -59 50 -98t104 -39z" />
    <glyph glyph-name="colon" unicode=":" 
d="M61 567h287v-286h-287v286zM61 938h287v-287h-287v287z" />
    <glyph glyph-name="semicolon" unicode=";" 
d="M61 393h287v-184l-287 -207v391zM61 764h287v-287h-287v287z" />
    <glyph glyph-name="less" unicode="&#x3c;" horiz-adv-x="903" 
d="M653 23l-592 591l590 596l191 -188l-406 -406l406 -405z" />
    <glyph glyph-name="equal" unicode="=" horiz-adv-x="864" 
d="M61 328v286h742v-286h-742zM61 741v287h742v-287h-742z" />
    <glyph glyph-name="greater" unicode="&#x3e;" horiz-adv-x="903" 
d="M250 20l-189 187l404 407l-404 404l189 188l592 -592z" />
    <glyph glyph-name="question" unicode="?" horiz-adv-x="1110" 
d="M1049 1076q0 -72 -39 -161q-39 -90 -105 -155l-180 -180v-103h-319v180l221 207q137 139 137 218t-57 126t-149 47t-151 -50q-58 -50 -59 -118h-287q0 55 38 147q74 180 263 269q96 39 192 39t194 -39q187 -83 263 -265q38 -90 38 -162zM406 0v319h319v-319h-319z" />
    <glyph glyph-name="at" unicode="@" horiz-adv-x="1900" 
d="M674 616q0 -80 57 -141q59 -55 141 -57t142 55q57 61 57 141q4 80 -54 138q-59 58 -141 61q-82 2 -143 -55q-59 -62 -59 -142zM1839 602q0 -176 -70 -346q-35 -78 -71 -127q-8 -15 -43 -65t-59 -74t-76 -46t-106 -22t-107 24t-86 56q-82 90 -80 195v20l2 98
q-115 -106 -278 -104t-279 121q-116 120 -116 286q1 166 120 284q120 118 280 117t275 -106v113h223l-2 -559l2 -266v-4q0 -19 13 -33t33 -14t34 14q166 188 166 450t-195 457t-469 195t-469 -195t-195 -469t196 -469q194 -195 468 -194v-226q-186 0 -346 69
q-160 70 -282 192t-192 284q-69 162 -69 344t69 344t192 285q122 123 286 191t341 69q177 0 343 -70t287 -190q125 -129 193 -291t67 -338z" />
    <glyph glyph-name="A" unicode="A" horiz-adv-x="1472" 
d="M614 436h244l-121 234zM1083 0l-96 186h-502l-96 -186l348 1331l715 -1331h-369z" />
    <glyph glyph-name="B" unicode="B" horiz-adv-x="1290" 
d="M979 393q0 61 -43 105t-105 45h-389v-297h389q61 0 105 43q43 43 43 104zM442 1083v-297h285q61 0 106 43q44 43 44 105t-44 106q-44 43 -106 43h-285zM123 0v1331h616q35 0 101 -15q65 -15 112 -40q46 -25 96 -78t72 -137t8 -157q-12 -73 -38 -116l-25 -43q18 -6 52 -40
q33 -35 55 -71q54 -93 57 -251q0 -98 -40 -174t-95 -114q-111 -77 -209 -91l-39 -4h-723z" />
    <glyph glyph-name="C" unicode="C" horiz-adv-x="1312" 
d="M728 6q-266 0 -466 201t-201 485q0 284 201 484t468 200t460 -164l-205 -202q-104 80 -254 80q-151 0 -267 -117t-116 -282t117 -281t267 -117q150 0 253 80l205 -205q-196 -162 -462 -162z" />
    <glyph glyph-name="D" unicode="D" horiz-adv-x="1294" 
d="M381 1018v-719h186q150 0 254 104q105 105 105 253t-104 254t-257 108h-184zM567 1323q274 0 470 -195t196 -470t-196 -471t-470 -195h-506v1331h506z" />
    <glyph glyph-name="E" unicode="E" horiz-adv-x="1052" 
d="M381 522v-235h610v-287h-930v1331h930v-287h-610v-235h518v-287h-518z" />
    <glyph glyph-name="F" unicode="F" horiz-adv-x="946" 
d="M885 1044h-504v-235h375v-287h-375v-522h-320v1331h824v-287z" />
    <glyph glyph-name="G" unicode="G" horiz-adv-x="1474" 
d="M1147 506h-2l2 -2v2zM815 772h598v-772h-266v106q-178 -127 -399 -126q-285 0 -486 200t-201 486t201 486q200 200 470 200t462 -164l-205 -203q-109 80 -241 80q-168 0 -284 -118q-116 -117 -116 -281t118 -282t281 -118t283 117q72 72 92 123h-307v266z" />
    <glyph glyph-name="H" unicode="H" horiz-adv-x="1163" 
d="M782 1331h320v-1331h-320v522h-401v-522h-320v1331h320v-522h401v522z" />
    <glyph glyph-name="I" unicode="I" horiz-adv-x="380" 
d="M31 1331h319v-1331h-319v1331z" />
    <glyph glyph-name="J" unicode="J" horiz-adv-x="608" 
d="M227 0v1331h320v-1331q1 -125 -19 -209q-44 -190 -222 -246q-97 -31 -245 -30v319q74 0 120 42t46 124z" />
    <glyph glyph-name="K" unicode="K" horiz-adv-x="1466" 
d="M381 0h-320v1331h320v-530l530 530h453l-610 -608l692 -723h-453l-467 496l-145 -148v-348z" />
    <glyph glyph-name="L" unicode="L" horiz-adv-x="1046" 
d="M381 287h641v-287h-961v1331h320v-1044z" />
    <glyph glyph-name="M" unicode="M" horiz-adv-x="1540" 
d="M1479 0h-320v745l-395 -251l-383 249v-743h-320v1331l707 -457l711 457v-1331z" />
    <glyph glyph-name="N" unicode="N" horiz-adv-x="1300" 
d="M932 1331h319v-1331l-882 649v-649h-320v1331l883 -680v680z" />
    <glyph glyph-name="O" unicode="O" horiz-adv-x="1433" 
d="M1116 639q0 166 -117 283q-117 116 -283 116t-282 -116q-117 -116 -117 -283q0 -166 119 -283q118 -117 280 -117t283 117q117 117 117 283zM717 1325q285 0 485 -201q200 -202 201 -486q0 -284 -201 -484q-202 -200 -486 -201q-284 0 -485 201q-201 202 -201 486
t202 484q200 200 485 201z" />
    <glyph glyph-name="P" unicode="P" horiz-adv-x="1236" 
d="M889 877q0 67 -45 117t-144 50h-319v-333h315q63 0 107 18q29 17 47 35q39 47 39 113zM700 1331q228 0 352 -140t124 -306t-107 -305q-53 -70 -150 -113t-223 -43h-315v-424h-320v1331h639z" />
    <glyph glyph-name="Q" unicode="Q" horiz-adv-x="1517" 
d="M748 248q63 0 118 18l-121 121l226 227l137 -137q39 78 39 170q0 166 -117 283q-116 117 -282 117t-283 -117t-117 -283q0 -167 119 -283t281 -116zM748 -39q-285 0 -486 201q-201 202 -201 486t201 485t486 201q286 0 486 -202q200 -200 200 -485q0 -205 -115 -381
l137 -135l-227 -227l-146 145q-156 -88 -335 -88z" />
    <glyph glyph-name="R" unicode="R" horiz-adv-x="1234" 
d="M381 1044v-333h315q108 0 150 50q41 50 41 118t-43 112q-45 53 -146 53h-317zM1174 877q0 -129 -73 -250t-218 -172l286 -455h-358l-279 424h-151v-424h-320v1331h637q228 0 352 -140t124 -314z" />
    <glyph glyph-name="S" unicode="S" horiz-adv-x="1220" 
d="M63 487v11l281 -4q0 -74 33 -123q61 -92 227 -92q266 1 266 123t-289 155t-425 178q-92 100 -92 246t92 250q144 162 464 162t465 -222q74 -115 74 -253h-280q1 60 -31 102q-66 92 -238 92q-104 0 -180 -30t-76 -91q0 -127 290 -159t425 -189q90 -106 90 -249t-88 -240
q-139 -156 -449 -156q-152 0 -245 36q-195 76 -277 248q-26 63 -33 117t-5 66q1 12 1 22z" />
    <glyph glyph-name="T" unicode="T" horiz-adv-x="1116" 
d="M1073 1012h-346v-1012h-319v1012h-347v319h1012v-319z" />
    <glyph glyph-name="U" unicode="U" horiz-adv-x="1261" 
d="M903 1331h297v-768q0 -251 -179 -407t-382 -156t-383 141q-86 68 -140 180t-55 246v764h297v-764q0 -123 87 -197t184 -73q37 0 92 18q117 48 160 140q23 45 22 108v768z" />
    <glyph glyph-name="V" unicode="V" horiz-adv-x="1554" 
d="M778 2l-2 -2v2l-715 1329h369l348 -663l346 663h369z" />
    <glyph glyph-name="W" unicode="W" horiz-adv-x="2019" 
d="M1589 1331l-348 -1331h-463l-717 1331h369l348 -665l51 98l-305 567h369l348 -665z" />
    <glyph glyph-name="X" unicode="X" horiz-adv-x="1456" 
d="M1395 1110l-441 -440l441 -441l-228 -225l-440 440l-440 -440l-226 225l441 441l-441 440l228 225l438 -438l440 438z" />
    <glyph glyph-name="Y" unicode="Y" horiz-adv-x="1513" 
d="M915 0h-319v688l-535 643h420l277 -334l274 334h420l-537 -643v-688z" />
    <glyph glyph-name="Z" unicode="Z" horiz-adv-x="1247" 
d="M1186 1343v-286l-729 -770h729v-289l-1125 2v287l730 770h-730v286h1125z" />
    <glyph glyph-name="bracketleft" unicode="[" horiz-adv-x="595" 
d="M535 0v-205h-474v1372h474v-204h-248v-963h248z" />
    <glyph glyph-name="backslash" unicode="\" horiz-adv-x="849" 
d="M788 0h-296l-431 1372h299z" />
    <glyph glyph-name="bracketright" unicode="]" horiz-adv-x="595" 
d="M535 -205h-474v205h248v963h-248v204h474v-1372z" />
    <glyph glyph-name="asciicircum" unicode="^" horiz-adv-x="1134" 
d="M1073 1032l-190 -188l-318 317l-315 -315l-189 186l506 506z" />
    <glyph glyph-name="underscore" unicode="_" horiz-adv-x="1275" 
d="M61 -516v184h1153v-184h-1153z" />
    <glyph glyph-name="grave" unicode="`" horiz-adv-x="1705" 
d="M997 1432l-151 -150l-248 246l152 149z" />
    <glyph glyph-name="a" unicode="a" horiz-adv-x="1167" 
d="M809 534q0 110 -78 185q-79 76 -185 74t-182 -78q-76 -75 -75 -183q0 -108 77 -185t186 -75t183 77t74 185zM819 1059h287v-1059h-287v119q-88 -115 -266 -115q-217 -2 -373 152t-158 372t152 373q154 156 373 158q180 0 272 -117v117z" />
    <glyph glyph-name="b" unicode="b" horiz-adv-x="1247" 
d="M504 713q-76 -75 -78 -183t74 -184t185 -78t184 73t77 182t-74 188q-76 75 -183 75t-185 -73zM350 0h-287l-2 1430h287v-500q147 125 354 124t361 -157q153 -156 151 -374q-2 -217 -158 -371t-372 -152q-186 0 -334 121v-121z" />
    <glyph glyph-name="c" unicode="c" horiz-adv-x="937" 
d="M551 786q-96 0 -174 -73q-76 -75 -78 -183t74 -184t186 -80q86 0 156 51l190 -190q-151 -127 -359 -126t-362 157t-152 374t158 371q156 154 363 152t354 -131l-190 -189q-70 51 -166 51z" />
    <glyph glyph-name="d" unicode="d" horiz-adv-x="1234" 
d="M365 711q-76 -84 -75 -189q1 -104 77 -180t185 -74t184 77t73 185t-76 183q-77 73 -185 73t-183 -75zM887 0v121q-147 -121 -334 -121q-217 -2 -373 152t-158 372t152 373q154 156 358 157t353 -120v496h286l3 -1430h-287z" />
    <glyph glyph-name="e" unicode="e" horiz-adv-x="1099" 
d="M548 786q-108 0 -183 -75q-39 -43 -56 -86h482q-16 43 -58 88q-77 73 -185 73zM367 342q80 -76 187 -74t189 84l267 -84q-88 -138 -190 -202t-267 -66q-217 -2 -373 152t-158 372t152 373q154 156 372 158t374 -152t157 -373v-100l-770 2q16 -47 60 -90z" />
    <glyph glyph-name="f" unicode="f" horiz-adv-x="804" 
d="M645 1143q-47 0 -80 -34t-33 -81v-113h211v-286h-211v-629h-286v631h-185v284h185v228q0 119 84 202t202 82h211v-284h-98z" />
    <glyph glyph-name="g" unicode="g" horiz-adv-x="1177" 
d="M330 528q0 -106 77 -183t187 -75t176 71q68 69 78 157v61q-8 88 -81 159q-73 70 -179 70t-182 -75q-76 -79 -76 -185zM848 1057h268v-1055q0 -217 -152 -371q-152 -153 -363 -155t-361 131t-172 332h270q14 -66 70 -121q76 -76 184 -76t182 78q76 76 76 182l-2 104
q-104 -104 -254 -104q-219 -2 -375 152t-157 372t153 374q154 155 373 157q174 0 260 -109v109z" />
    <glyph glyph-name="h" unicode="h" horiz-adv-x="1198" 
d="M1137 526v-526h-267v520h-2v6q0 106 -75 183q-75 75 -183 75t-186 -78t-74 -184v-2h-2v-520h-287v1331h287v-409q60 70 118 96t140 33q225 17 378 -123t153 -402z" />
    <glyph glyph-name="i" unicode="i" 
d="M348 1053v-1053h-287v1053h287zM346 1427v-241h-285v241h285z" />
    <glyph glyph-name="j" unicode="j" horiz-adv-x="538" 
d="M477 0q0 -170 -120 -290t-289 -120h-7v287h7q47 0 88 35q35 41 34 88v1053h287v-1053zM477 1427v-241h-287v241h287z" />
    <glyph glyph-name="k" unicode="k" horiz-adv-x="1230" 
d="M348 0h-287v1423h287v-704l336 336l406 -2l-443 -441l522 -612h-381l-342 410l-98 -97v-313z" />
    <glyph glyph-name="l" unicode="l" 
d="M348 1423v-1423h-287v1423h287z" />
    <glyph glyph-name="m" unicode="m" horiz-adv-x="1902" 
d="M1841 551v-551h-266v532q0 69 -47 154q-25 45 -76 75t-122 30t-122 -30q-52 -30 -82 -94t-30 -139v-528h-269v532q0 121 -93 205q-58 53 -139 53t-133 -29q-52 -30 -83 -93t-31 -140v-528h-287v1059h287v-111q100 109 258 109q113 2 210 -46t165 -132l86 79
q121 99 285 99q213 2 351 -130t138 -376z" />
    <glyph glyph-name="n" unicode="n" horiz-adv-x="1157" 
d="M1116 0h-266v520h-2v4q0 109 -76 185q-76 75 -186 73t-185 -78q-76 -76 -71 -182v-2h-2v-520h-287v1059h287v-137q60 70 118 96t140 33q225 18 378 -122t152 -403v-526z" />
    <glyph glyph-name="o" unicode="o" horiz-adv-x="1097" 
d="M289 526q0 -106 77 -183t186 -75t183 77t74 182t-78 186q-78 73 -184 73t-182 -75q-76 -79 -76 -185zM547 1055q219 2 374 -153t155 -373q0 -219 -152 -373q-154 -154 -372 -156t-374 152t-156 372t152 374q154 155 373 157z" />
    <glyph glyph-name="p" unicode="p" horiz-adv-x="1173" 
d="M797 713q-78 73 -186 73q-107 0 -183 -78t-74 -185q2 -109 77 -183t185 -72t185 78q76 76 71 182q0 109 -75 185zM348 -393h-287v1446h287v-111q38 51 112 81t150 32q217 2 373 -152t158 -372q2 -217 -152 -373t-373 -158q-178 0 -268 113v-506z" />
    <glyph glyph-name="q" unicode="q" horiz-adv-x="1202" 
d="M330 526q0 -108 75 -182t183 -76t186 75q76 77 76 182t-76 186q-76 75 -182 75t-184 -73q-78 -79 -78 -187zM854 1053h287v-1446h-287v506q-90 -113 -266 -113q-219 2 -373 156t-152 374q0 219 156 373t375 152q74 -2 148 -32t112 -81v111z" />
    <glyph glyph-name="r" unicode="r" horiz-adv-x="735" 
d="M705 1073v-293q-156 0 -256 -100t-101 -213v-467h-287v1055h287v-158q35 98 116 137t241 39z" />
    <glyph glyph-name="s" unicode="s" horiz-adv-x="980" 
d="M672 688v19q0 41 -19 65q-45 61 -161 62q-70 0 -121 -18t-51 -55q0 -36 40 -59q43 -27 146 -38q236 -25 342 -150q72 -84 72 -198t-70 -193q-103 -123 -363 -123q-105 0 -177 28t-140 89q-117 109 -107 274v23l230 -4h18v-17q2 -51 23 -84q35 -59 153 -59q179 0 179 73
t-189 95q-123 12 -205 47t-146 105t-63 186q0 117 74 198q111 127 363 127t362 -174q57 -88 58 -200v-19h-248z" />
    <glyph glyph-name="t" unicode="t" horiz-adv-x="882" 
d="M821 1055v-287h-235v-768h-287v768h-238v287h238v368h287v-368h235z" />
    <glyph glyph-name="u" unicode="u" horiz-adv-x="1155" 
d="M61 506v553h267v-533q0 -123 93 -205q58 -53 139 -53t133 30t83 92t31 138v531h287v-1059h-287v111q-100 -111 -258 -111q-203 -2 -345 144t-143 362z" />
    <glyph glyph-name="v" unicode="v" horiz-adv-x="1341" 
d="M948 1055h332l-489 -1055h-218l-512 1055h334l287 -590z" />
    <glyph glyph-name="w" unicode="w" horiz-adv-x="1540" 
d="M1235 1069h295l-574 -1069l-2 2l-184 344l-186 -346v2l-574 1067h295l279 -534l41 79l-244 455h295l280 -534z" />
    <glyph glyph-name="x" unicode="x" horiz-adv-x="1185" 
d="M1124 203l-202 -203l-330 328l-328 -328l-203 203l328 327l-328 330l203 203l328 -330l330 330l202 -203l-329 -330z" />
    <glyph glyph-name="y" unicode="y" horiz-adv-x="1118" 
d="M1055 1057l-416 -1104q-68 -164 -215 -260t-322 -92v286q63 -2 127 27q90 41 136 129l57 158l-361 856h316l190 -461l170 461h318z" />
    <glyph glyph-name="z" unicode="z" horiz-adv-x="1013" 
d="M952 287v-287l-891 287l482 481h-482v287h887v-287l-481 -481h485z" />
    <glyph glyph-name="braceleft" unicode="{" horiz-adv-x="485" 
d="M266 467q0 -274 76 -467q13 -36 41 -81q27 -46 34 -53l-147 -142q-57 57 -110 184q-98 233 -98 558t98 570q57 147 106 197l158 -131q-41 -49 -78 -152q-80 -209 -80 -483zM417 -134l1 -1v2z" />
    <glyph glyph-name="bar" unicode="|" 
d="M348 1178v-1424h-287v1424h287z" />
    <glyph glyph-name="braceright" unicode="}" horiz-adv-x="485" 
d="M424 512q0 -353 -98 -598q-57 -147 -107 -197l-158 131q39 49 78 152q80 209 80 500t-99 498q-30 65 -51 86l146 143l27 -33q11 -16 53 -87q129 -242 129 -595zM69 1084l-1 1v-2z" />
    <glyph glyph-name="asciitilde" unicode="~" horiz-adv-x="1288" 
d="M1227 426l-379 -178l-399 141l-299 -141l-89 184l377 178l400 -141l301 141z" />
    <glyph glyph-name="cent" unicode="&#xa2;" horiz-adv-x="966" 
d="M299 533q0 -150 109 -224v422q-109 -81 -109 -198zM653 -145h-245v159q-166 50 -272 190t-104 317q1 177 106 315t270 188v162h245v-148q143 -25 252 -120l-190 -191q-31 23 -62 35v-486q27 10 60 33l190 -188q-104 -92 -250 -121v-145z" />
    <glyph glyph-name="sterling" unicode="&#xa3;" horiz-adv-x="1005" 
d="M944 287v-287h-883v268q103 0 173 70t81 151v103h-254v246h254v43q-10 236 156 397q141 139 336 152v-269q-86 -12 -154 -81t-71 -169v-73h211v-246h-211v-103q-11 -110 -58 -202h420z" />
    <glyph glyph-name="currency" unicode="&#xa4;" horiz-adv-x="1492" 
d="M762 477q121 0 206 85t85 204t-85 204t-206 85t-205 -86t-84 -203t84 -203t205 -86zM1260 758q0 -131 -70 -248l242 -242l-203 -202l-252 251q-104 -49 -221 -49t-230 60l-262 -262l-203 202l263 264q-117 224 -11 449l-252 252l203 203l244 -244q117 72 247 72t242 -60
l232 232l203 -203l-232 -232q60 -112 60 -243z" />
    <glyph glyph-name="yen" unicode="&#xa5;" horiz-adv-x="1452" 
d="M885 602h311v-246h-311v-49h311v-246h-311v-61h-320v61h-309v246h309v49h-309v246h309v86l-534 643h420l274 -336l276 336h420l-536 -645v-84z" />
    <glyph glyph-name="dieresis" unicode="&#xa8;" horiz-adv-x="976" 
d="M567 1612h287v-287h-287v287zM123 1612h287v-287h-287v287z" />
    <glyph glyph-name="copyright" unicode="&#xa9;" horiz-adv-x="1839" 
d="M920 0q274 0 469 195t194 469q0 274 -194 469q-195 195 -469 195t-469 -196q-195 -194 -195 -468t195 -469t469 -195zM100 1010q70 162 195 284t287 191q162 67 338 67t338 -68t286 -190t195 -285q69 -163 69 -347t-68 -344t-192 -284q-122 -122 -284 -191t-344 -69
t-344 70q-162 68 -286 191q-122 123 -191 287t-69 340q0 178 70 348zM955 895q-84 0 -154 -68q-70 -67 -71 -161t67 -164t156 -70t147 45l168 -170q-133 -115 -318 -113q-186 2 -322 139q-136 138 -134 333q0 196 138 332t322 136t316 -118l-168 -168q-63 47 -147 47z" />
    <glyph glyph-name="guillemotleft" unicode="&#xab;" horiz-adv-x="1542" 
d="M1481 999l-406 -405l404 -406l-187 -188l-592 592l590 596zM811 999l-405 -405l405 -406l-188 -188l-592 592l592 596z" />
    <glyph glyph-name="registered" unicode="&#xae;" horiz-adv-x="1859" 
d="M930 0q274 0 469 195t194 469q0 274 -194 469q-195 195 -469 195t-469 -196q-195 -194 -195 -468t195 -469t469 -195zM1819 662q0 -184 -69 -344q-70 -160 -192 -284q-122 -122 -282 -191t-344 -69t-347 70t-286 195t-191 285t-67 338q0 178 69 341t191 289
q127 123 290 192q163 68 340 68t338 -68t285 -190t195 -285q70 -163 70 -347zM811 940v-272h139q85 0 118 42q34 42 34 94t-35 91q-35 45 -115 45h-141zM1262 803q0 -76 -39 -150t-119 -112l194 -310h-206l-181 277h-100v-277h-209v869h350q146 0 228 -92t82 -205z" />
    <glyph glyph-name="acute" unicode="&#xb4;" horiz-adv-x="507" 
d="M61 1341l236 236l149 -150l-235 -235z" />
    <glyph glyph-name="mu" unicode="&#xb5;" horiz-adv-x="1265" 
d="M1204 1331q0 -554 -4 -776q0 -251 -180 -403t-393 -152q-131 0 -267 70v-324h-299v1585h299v-815q16 -94 86 -149q86 -74 184 -74t185 74q90 77 88 190l4 774h297z" />
    <glyph glyph-name="paragraph" unicode="&#xb6;" horiz-adv-x="1318" 
d="M389 1331h868v-1331h-286v1044h-297v-1044h-287v618h-2q-147 2 -251 106t-102 252q1 148 105 252t252 103z" />
    <glyph glyph-name="periodcentered" unicode="&#xb7;" 
d="M61 967h287v-584h-287v584z" />
    <glyph glyph-name="guillemotright" unicode="&#xbb;" horiz-adv-x="1540" 
d="M250 1186l592 -592l-592 -594l-189 186l404 408l-404 403zM920 1186l589 -592l-589 -594l-191 186l406 408l-404 403z" />
    <glyph glyph-name="Agrave" unicode="&#xc0;" horiz-adv-x="1554" 
d="M975 1677l-152 -149l-248 246l152 149zM655 436h244l-121 234zM1124 0l-96 186h-502l-96 -186l348 1331l715 -1331h-369z" />
    <glyph glyph-name="Aacute" unicode="&#xc1;" horiz-adv-x="1554" 
d="M584 1587l235 236l150 -150l-236 -235zM655 436h244l-121 234zM1124 0l-96 186h-502l-96 -186l348 1331l715 -1331h-369z" />
    <glyph glyph-name="Acircumflex" unicode="&#xc2;" horiz-adv-x="1554" 
d="M655 436h244l-121 234zM1124 0l-96 186h-502l-96 -186l348 1331l715 -1331h-369zM1212 1577l-149 -150l-234 236l150 149zM580 1812l149 -149l-233 -236l-150 152z" />
    <glyph glyph-name="Atilde" unicode="&#xc3;" horiz-adv-x="1554" 
d="M1151 1681l-242 -114l-258 92l-192 -92l-58 119l244 114l256 -92l195 92zM655 436h244l-121 234zM1124 0l-96 186h-502l-96 -186l348 1331l715 -1331h-369z" />
    <glyph glyph-name="Adieresis" unicode="&#xc4;" horiz-adv-x="1554" 
d="M655 436h244l-121 234zM1124 0l-96 186h-502l-96 -186l348 1331l715 -1331h-369zM856 1716h287v-286h-287v286zM412 1716h286v-286h-286v286z" />
    <glyph glyph-name="Aring" unicode="&#xc5;" horiz-adv-x="1554" 
d="M655 430h244l-121 236zM778 1446q-66 0 -110 -45t-43 -109q0 -64 44 -108q43 -45 109 -45t110 45t44 108q0 62 -44 108t-110 46zM379 1292q0 166 117 283q116 117 282 117t283 -117t117 -283t-117 -282q-25 -29 -78 -62l510 -948h-369l-96 184h-502l-96 -184h-369
l510 948q-192 134 -192 344z" />
    <glyph glyph-name="AE" unicode="&#xc6;" horiz-adv-x="2607" 
d="M1935 522v-235h611v-287h-930v1331h930v-287h-611v-235h519v-287h-519zM655 436h244l-121 234zM1124 0l-96 186h-502l-96 -186l348 1331l715 -1331h-369z" />
    <glyph glyph-name="Ccedilla" unicode="&#xc7;" horiz-adv-x="1312" 
d="M728 6q-266 0 -466 201t-201 485q0 284 201 484t468 200t460 -164l-205 -202q-104 80 -254 80q-151 0 -267 -117t-116 -282t117 -281t267 -117q150 0 253 80l205 -205q-196 -162 -462 -162z" />
    <glyph glyph-name="Egrave" unicode="&#xc8;" horiz-adv-x="1052" 
d="M831 1677l-151 -149l-248 246l152 149zM381 522v-235h610v-287h-930v1331h930v-287h-610v-235h518v-287h-518z" />
    <glyph glyph-name="Eacute" unicode="&#xc9;" horiz-adv-x="1052" 
d="M381 522v-235h610v-287h-930v1331h930v-287h-610v-235h518v-287h-518zM412 1581l235 236l150 -150l-236 -235z" />
    <glyph glyph-name="Ecircumflex" unicode="&#xca;" horiz-adv-x="1052" 
d="M817 1636l-149 -147l-144 143l-141 -141l-147 147l288 289zM381 522v-235h610v-287h-930v1331h930v-287h-610v-235h518v-287h-518z" />
    <glyph glyph-name="Edieresis" unicode="&#xcb;" horiz-adv-x="1052" 
d="M381 522v-235h610v-287h-930v1331h930v-287h-610v-235h518v-287h-518zM621 1430v286h286v-286h-286zM176 1430v286h287v-286h-287z" />
    <glyph glyph-name="Igrave" unicode="&#xcc;" horiz-adv-x="442" 
d="M420 1677l-152 -149l-248 246l152 149zM61 1331h320v-1331h-320v1331z" />
    <glyph glyph-name="Iacute" unicode="&#xcd;" horiz-adv-x="442" 
d="M29 1587l235 236l150 -150l-236 -235zM61 1331h320v-1331h-320v1331z" />
    <glyph glyph-name="Icircumflex" unicode="&#xce;" horiz-adv-x="442" 
d="M61 1331h320v-1331h-320v1331zM428 1812l234 -235l-150 -150l-233 236zM-205 1579l234 233l149 -149l-233 -236z" />
    <glyph glyph-name="Idieresis" unicode="&#xcf;" horiz-adv-x="442" 
d="M301 1858h287v-287h-287v287zM-143 1858h286v-287h-286v287zM61 1331h320v-1331h-320v1331z" />
    <glyph glyph-name="Eth" unicode="&#xd0;" horiz-adv-x="1503" 
d="M817 1030h-186v-258h229v-205h-229v-256h186q150 1 254 105q105 104 105 255t-104 255t-255 104zM807 1331q274 -1 470 -195t196 -469t-196 -471t-470 -196h-506v563h-270v205h270v563h506z" />
    <glyph glyph-name="Ntilde" unicode="&#xd1;" horiz-adv-x="1161" 
d="M954 1681l-241 -114l-258 92l-193 -92l-57 119l244 114l256 -92l194 92zM946 1331h320v-1331l-883 649v-649h-320v1331l883 -680v680z" />
    <glyph glyph-name="Ograve" unicode="&#xd2;" horiz-adv-x="1433" 
d="M918 1677l-152 -149l-248 246l152 149zM1116 639q0 166 -117 283q-117 116 -283 116t-282 -116q-117 -116 -117 -283q0 -166 119 -283q118 -117 280 -117t283 117q117 117 117 283zM717 1325q285 0 485 -201q200 -202 201 -486q0 -284 -201 -484q-202 -200 -486 -201
q-284 0 -485 201q-201 202 -201 486t202 484q200 200 485 201z" />
    <glyph glyph-name="Oacute" unicode="&#xd3;" horiz-adv-x="1433" 
d="M1116 639q0 166 -117 283q-117 116 -283 116t-282 -116q-117 -116 -117 -283q0 -166 119 -283q118 -117 280 -117t283 117q117 117 117 283zM717 1325q285 0 485 -201q200 -202 201 -486q0 -284 -201 -484q-202 -200 -486 -201q-284 0 -485 201q-201 202 -201 486
t202 484q200 200 485 201zM498 1581l235 236l150 -150l-236 -235z" />
    <glyph glyph-name="Ocircumflex" unicode="&#xd4;" horiz-adv-x="1495" 
d="M1147 639q0 166 -117 283q-116 116 -282 116t-283 -116t-117 -283q0 -166 119 -283t281 -117t282 117q117 117 117 283zM748 1325q286 0 486 -201q200 -202 200 -486t-201 -484t-485 -201q-284 0 -486 201q-201 202 -201 486t201 484t486 201zM979 1812l233 -235
l-149 -150l-234 236zM346 1579l234 233l149 -149l-233 -236z" />
    <glyph glyph-name="Otilde" unicode="&#xd5;" horiz-adv-x="1495" 
d="M1147 639q0 166 -117 283q-116 116 -282 116t-283 -116t-117 -283q0 -166 119 -283t281 -117t282 117q117 117 117 283zM748 1325q286 0 486 -201q200 -202 200 -486t-201 -484t-485 -201q-284 0 -486 201q-201 202 -201 486t201 484t486 201zM1118 1544l-241 -114
l-259 92l-192 -92l-57 118l243 115l256 -90l195 90z" />
    <glyph glyph-name="Odieresis" unicode="&#xd6;" horiz-adv-x="1495" 
d="M1147 639q0 166 -117 283q-116 116 -282 116t-283 -116t-117 -283q0 -166 119 -283t281 -117t282 117q117 117 117 283zM748 1325q286 0 486 -201q200 -202 200 -486t-201 -484t-485 -201q-284 0 -486 201q-201 202 -201 486t201 484t486 201zM850 1430v286h287v-286
h-287zM406 1430v286h286v-286h-286z" />
    <glyph glyph-name="multiply" unicode="&#xd7;" horiz-adv-x="1071" 
d="M1010 342l-203 -203l-272 273l-271 -273l-203 203l271 272l-271 271l203 202l271 -270l272 270l203 -202l-273 -271z" />
    <glyph glyph-name="Oslash" unicode="&#xd8;" horiz-adv-x="1138" 
d="M754 506q76 76 76 176t-60 172l-129 -416q64 19 113 68zM309 694q0 -100 60 -172l129 416q-68 -18 -113 -68q-76 -76 -76 -176zM856 1130q112 -72 176 -188t64 -252q2 -219 -153 -374t-372 -154h-18l-49 -160h-299l76 244q-109 72 -173 188t-67 252q0 219 154 374
t370 154h21l49 160h299z" />
    <glyph glyph-name="Ugrave" unicode="&#xd9;" horiz-adv-x="1261" 
d="M831 1677l-151 -149l-248 246l152 149zM903 1331h297v-768q0 -251 -179 -407t-382 -156t-383 141q-86 68 -140 180t-55 246v764h297v-764q0 -123 87 -197t184 -73q37 0 92 18q117 48 160 140q23 45 22 108v768z" />
    <glyph glyph-name="Uacute" unicode="&#xda;" horiz-adv-x="1261" 
d="M438 1587l236 236l149 -150l-235 -235zM903 1331h297v-768q0 -251 -179 -407t-382 -156t-383 141q-86 68 -140 180t-55 246v764h297v-764q0 -123 87 -197t184 -73q37 0 92 18q117 48 160 140q23 45 22 108v768z" />
    <glyph glyph-name="Ucircumflex" unicode="&#xdb;" horiz-adv-x="1261" 
d="M922 1587l-150 -147l-143 143l-142 -141l-147 147l289 289zM903 1331h297v-768q0 -251 -179 -407t-382 -156t-383 141q-86 68 -140 180t-55 246v764h297v-764q0 -123 87 -197t184 -73q37 0 92 18q117 48 160 140q23 45 22 108v768z" />
    <glyph glyph-name="Udieresis" unicode="&#xdc;" horiz-adv-x="1261" 
d="M903 1331h297v-768q0 -251 -179 -407t-382 -156t-383 141q-86 68 -140 180t-55 246v764h297v-764q0 -123 87 -197t184 -73q37 0 92 18q117 48 160 140q23 45 22 108v768zM727 1430v286h287v-286h-287zM283 1430v286h286v-286h-286z" />
    <glyph glyph-name="Yacute" unicode="&#xdd;" horiz-adv-x="1513" 
d="M563 1587l236 236l149 -150l-235 -235zM915 0h-319v688l-535 643h420l277 -334l274 334h420l-537 -643v-688z" />
    <glyph glyph-name="germandbls" unicode="&#xdf;" horiz-adv-x="1228" 
d="M1167 374q0 -88 -40 -165q-40 -76 -96 -114q-114 -78 -208 -91l-39 -4h-227v244h213q61 0 104 44t44 105q0 61 -44 105t-104 43h-213v245h109q61 0 105 43t44 105t-44 105q-44 44 -105 44h-285v-1083h-320v1331h617q36 0 100 -15t112 -40t97 -78t71 -137t10 -157
t-40 -116l-24 -43q18 -6 57 -45q106 -106 106 -326z" />
    <glyph glyph-name="agrave" unicode="&#xe0;" horiz-adv-x="1167" 
d="M784 1432l-151 -150l-248 246l152 149zM809 534q0 110 -78 185q-79 76 -185 74t-182 -78q-76 -75 -75 -183q0 -108 77 -185t186 -75t183 77t74 185zM819 1059h287v-1059h-287v119q-88 -115 -266 -115q-217 -2 -373 152t-158 372t152 373q154 156 373 158q180 0 272 -117
v117z" />
    <glyph glyph-name="aacute" unicode="&#xe1;" horiz-adv-x="1167" 
d="M391 1341l236 236l149 -150l-235 -235zM809 534q0 110 -78 185q-79 76 -185 74t-182 -78q-76 -75 -75 -183q0 -108 77 -185t186 -75t183 77t74 185zM819 1059h287v-1059h-287v119q-88 -115 -266 -115q-217 -2 -373 152t-158 372t152 373q154 156 373 158q180 0 272 -117
v117z" />
    <glyph glyph-name="acircumflex" unicode="&#xe2;" horiz-adv-x="1167" 
d="M809 534q0 110 -78 185q-79 76 -185 74t-182 -78q-76 -75 -75 -183q0 -108 77 -185t186 -75t183 77t74 185zM819 1059h287v-1059h-287v119q-88 -115 -266 -115q-217 -2 -373 152t-158 372t152 373q154 156 373 158q180 0 272 -117v117zM881 1333l-150 -147l-143 141
l-139 -139l-150 147l289 289z" />
    <glyph glyph-name="atilde" unicode="&#xe3;" horiz-adv-x="1167" 
d="M958 1436l-241 -115l-258 92l-193 -92l-57 119l244 114l256 -92l194 92zM809 534q0 110 -78 185q-79 76 -185 74t-182 -78q-76 -75 -75 -183q0 -108 77 -185t186 -75t183 77t74 185zM819 1059h287v-1059h-287v119q-88 -115 -266 -115q-217 -2 -373 152t-158 372t152 373
q154 156 373 158q180 0 272 -117v117z" />
    <glyph glyph-name="adieresis" unicode="&#xe4;" horiz-adv-x="1167" 
d="M809 534q0 110 -78 185q-79 76 -185 74t-182 -78q-76 -75 -75 -183q0 -108 77 -185t186 -75t183 77t74 185zM819 1059h287v-1059h-287v119q-88 -115 -266 -115q-217 -2 -373 152t-158 372t152 373q154 156 373 158q180 0 272 -117v117zM733 1182v286h287v-286h-287z
M289 1182v286h286v-286h-286z" />
    <glyph glyph-name="ccedilla" unicode="&#xe7;" horiz-adv-x="999" 
d="M580 782q-98 0 -172 -76q-76 -76 -78 -182t74 -184t176 -78t165 51l191 -190q-121 -102 -270 -123l77 -170h-145l-78 170q-194 24 -326 174t-130 360t157 363q156 154 362 153t355 -130l-190 -191q-70 53 -168 53z" />
    <glyph glyph-name="egrave" unicode="&#xe8;" horiz-adv-x="1120" 
d="M760 1432l-152 -150l-248 246l152 149zM558 786q-108 0 -183 -75q-39 -43 -56 -86h482q-16 43 -58 88q-77 73 -185 73zM1087 530v-100l-770 2q16 -47 60 -90q79 -76 187 -74t181 76l9 8l266 -84q-88 -138 -190 -202t-267 -66q-217 -2 -373 152t-158 372t152 373
q154 156 372 158t374 -152t157 -373z" />
    <glyph glyph-name="eacute" unicode="&#xe9;" horiz-adv-x="1120" 
d="M558 786q-108 0 -183 -75q-39 -43 -56 -86h482q-16 43 -58 88q-77 73 -185 73zM1087 530v-100l-770 2q16 -47 60 -90q79 -76 187 -74t181 76l9 8l266 -84q-88 -138 -190 -202t-267 -66q-217 -2 -373 152t-158 372t152 373q154 156 372 158t374 -152t157 -373zM352 1341
l236 236l149 -150l-235 -235z" />
    <glyph glyph-name="ecircumflex" unicode="&#xea;" horiz-adv-x="1120" 
d="M850 1288l-150 -147l-143 143l-141 -141l-148 147l289 289zM558 786q-108 0 -183 -75q-39 -43 -56 -86h482q-16 43 -58 88q-77 73 -185 73zM1087 530v-100l-770 2q16 -47 60 -90q79 -76 187 -74t181 76l9 8l266 -84q-88 -138 -190 -202t-267 -66q-217 -2 -373 152
t-158 372t152 373q154 156 372 158t374 -152t157 -373z" />
    <glyph glyph-name="edieresis" unicode="&#xeb;" horiz-adv-x="1120" 
d="M558 786q-108 0 -183 -75q-39 -43 -56 -86h482q-16 43 -58 88q-77 73 -185 73zM1087 530v-100l-770 2q16 -47 60 -90q79 -76 187 -74t181 76l9 8l266 -84q-88 -138 -190 -202t-267 -66q-217 -2 -373 152t-158 372t152 373q154 156 372 158t374 -152t157 -373zM645 1182
v286h287v-286h-287zM201 1182v286h286v-286h-286z" />
    <glyph glyph-name="igrave" unicode="&#xec;" 
d="M406 1323l-152 -149l-248 245l152 150zM348 1053v-1053h-287v1053h287z" />
    <glyph glyph-name="iacute" unicode="&#xed;" 
d="M16 1341l236 236l149 -150l-235 -235zM348 1055v-1055h-287v1055h287z" />
    <glyph glyph-name="icircumflex" unicode="&#xee;" horiz-adv-x="704" 
d="M643 1333l-149 -147l-144 141l-139 -139l-150 147l289 289zM487 1055v-1055h-286v1055h286z" />
    <glyph glyph-name="idieresis" unicode="&#xef;" horiz-adv-x="792" 
d="M475 1456h287v-287h-287v287zM31 1456h286v-287h-286v287zM539 1053v-1053h-287v1053h287z" />
    <glyph glyph-name="eth" unicode="&#xf0;" horiz-adv-x="1005" 
 />
    <glyph glyph-name="ntilde" unicode="&#xf1;" horiz-adv-x="1157" 
d="M952 1436l-241 -115l-258 92l-193 -92l-57 119l243 114l256 -92l195 92zM1126 0h-266v520h-2v4q0 109 -76 185q-76 75 -186 73t-184 -78q-76 -76 -72 -182v-2h-2v-520h-287v1059h287v-137q60 70 118 96t140 33q225 18 378 -122t152 -403v-526z" />
    <glyph glyph-name="ograve" unicode="&#xf2;" horiz-adv-x="1179" 
d="M791 1432l-152 -150l-248 246l152 149zM330 526q0 -106 77 -183t186 -75t183 77t74 182t-78 186q-78 73 -184 73t-182 -75q-76 -79 -76 -185zM588 1055q219 2 374 -153q156 -155 156 -373q0 -219 -154 -373t-371 -156q-218 -2 -374 152t-157 372t153 374q154 155 373 157
z" />
    <glyph glyph-name="oacute" unicode="&#xf3;" horiz-adv-x="1179" 
d="M330 526q0 -106 77 -183t186 -75t183 77t74 182t-78 186q-78 73 -184 73t-182 -75q-76 -79 -76 -185zM588 1055q219 2 374 -153q156 -155 156 -373q0 -219 -154 -373t-371 -156q-218 -2 -374 152t-157 372t153 374q154 155 373 157zM381 1341l235 236l150 -150l-236 -235
z" />
    <glyph glyph-name="ocircumflex" unicode="&#xf4;" horiz-adv-x="1179" 
d="M330 526q0 -106 77 -183t186 -75t183 77t74 182t-78 186q-78 73 -184 73t-182 -75q-76 -79 -76 -185zM588 1055q219 2 374 -153q156 -155 156 -373q0 -219 -154 -373t-371 -156q-218 -2 -374 152t-157 372t153 374q154 155 373 157zM889 1333l-150 -147l-143 141
l-139 -139l-150 147l289 289z" />
    <glyph glyph-name="otilde" unicode="&#xf5;" horiz-adv-x="1179" 
d="M330 526q0 -106 77 -183t186 -75t183 77t74 182t-78 186q-78 73 -184 73t-182 -75q-76 -79 -76 -185zM588 1055q219 2 374 -153q156 -155 156 -373q0 -219 -154 -373t-371 -156q-218 -2 -374 152t-157 372t153 374q154 155 373 157zM264 1430h647v-246h-647v246z" />
    <glyph glyph-name="odieresis" unicode="&#xf6;" horiz-adv-x="1179" 
d="M330 526q0 -106 77 -183t186 -75t183 77t74 182t-78 186q-78 73 -184 73t-182 -75q-76 -79 -76 -185zM588 1055q219 2 374 -153q156 -155 156 -373q0 -219 -154 -373t-371 -156q-218 -2 -374 152t-157 372t153 374q154 155 373 157zM688 1182v286h287v-286h-287z
M244 1182v286h286v-286h-286z" />
    <glyph glyph-name="divide" unicode="&#xf7;" horiz-adv-x="931" 
d="M322 1133h286v-287h-286v287zM322 377h286v-287h-286v287zM870 700v-180h-809v180h809z" />
    <glyph glyph-name="oslash" unicode="&#xf8;" horiz-adv-x="1138" 
d="M754 506q76 76 76 176t-60 172l-129 -416q64 19 113 68zM309 694q0 -100 60 -172l129 416q-68 -18 -113 -68q-76 -76 -76 -176zM856 1130q112 -72 176 -188t64 -252q2 -219 -153 -374t-372 -154h-18l-49 -160h-299l76 244q-109 72 -173 188t-67 252q0 219 154 374
t370 154h21l49 160h299z" />
    <glyph glyph-name="ugrave" unicode="&#xf9;" horiz-adv-x="1155" 
d="M778 1432l-151 -150l-248 246l151 149zM61 506v553h267v-533q0 -123 93 -205q58 -53 139 -53t133 30t83 92t31 138v531h287v-1059h-287v111q-100 -111 -258 -111q-203 -2 -345 144t-143 362z" />
    <glyph glyph-name="uacute" unicode="&#xfa;" horiz-adv-x="1155" 
d="M385 1341l236 236l149 -150l-235 -235zM61 506v553h267v-533q0 -123 93 -205q58 -53 139 -53t133 30t83 92t31 138v531h287v-1059h-287v111q-100 -111 -258 -111q-203 -2 -345 144t-143 362z" />
    <glyph glyph-name="ucircumflex" unicode="&#xfb;" horiz-adv-x="1155" 
d="M61 506v553h267v-533q0 -123 93 -205q58 -53 139 -53t133 30t83 92t31 138v531h287v-1059h-287v111q-100 -111 -258 -111q-203 -2 -345 144t-143 362z" />
    <glyph glyph-name="udieresis" unicode="&#xfc;" horiz-adv-x="1155" 
d="M61 506v553h267v-533q0 -123 93 -205q58 -53 139 -53t133 30t83 92t31 138v531h287v-1059h-287v111q-100 -111 -258 -111q-203 -2 -345 144t-143 362zM659 1182v286h287v-286h-287zM215 1182v286h287v-286h-287z" />
    <glyph glyph-name="yacute" unicode="&#xfd;" horiz-adv-x="1116" 
d="M365 1341l235 236l150 -150l-236 -235zM1055 1057l-416 -1104q-68 -164 -215 -260t-322 -92v286q63 -2 127 27q90 41 136 129l57 158l-361 856h316l190 -461l170 461h318z" />
    <glyph glyph-name="ydieresis" unicode="&#xff;" horiz-adv-x="1116" 
d="M637 1612h287v-287h-287v287zM193 1612h286v-287h-286v287zM1055 1057l-416 -1104q-68 -164 -215 -260t-322 -92v286q63 -2 127 27q90 41 136 129l57 158l-361 856h316l190 -461l170 461h318z" />
    <glyph glyph-name="Amacron" unicode="&#x100;" horiz-adv-x="1554" 
d="M655 436h244l-121 234zM1124 0l-96 186h-502l-96 -186l348 1331l715 -1331h-369zM1094 1675v-245h-648v245h648z" />
    <glyph glyph-name="amacron" unicode="&#x101;" horiz-adv-x="1167" 
d="M809 534q0 110 -78 185q-79 76 -185 74t-182 -78q-76 -75 -75 -183q0 -108 77 -185t186 -75t183 77t74 185zM819 1059h287v-1059h-287v119q-88 -115 -266 -115q-217 -2 -373 152t-158 372t152 373q154 156 373 158q180 0 272 -117v117zM459 1432h647v-246h-647v246z" />
    <glyph glyph-name="Abreve" unicode="&#x102;" horiz-adv-x="1554" 
d="M769 1511q-185 0 -304 97q-68 55 -88 108l148 65q4 -10 28 -32q78 -72 224 -73t231 84q12 13 16 22l6 6l146 -78l-20 -28q-42 -54 -77 -76q-125 -95 -310 -95zM655 436h244l-121 234zM1124 0l-96 186h-502l-96 -186l348 1331l715 -1331h-369zM525 1781q-1 1 -1 3l2 -2z
" />
    <glyph glyph-name="abreve" unicode="&#x103;" horiz-adv-x="1167" 
d="M577 1266q-185 0 -305 96q-68 55 -88 108l149 66q4 -9 28 -32q78 -74 224 -74t230 84q12 13 16 22l7 6l145 -78q-39 -65 -96 -104q-125 -94 -310 -94zM809 534q0 110 -78 185q-79 76 -185 74t-182 -78q-76 -75 -75 -183q0 -108 77 -185t186 -75t183 77t74 185zM819 1059
h287v-1059h-287v119q-88 -115 -266 -115q-217 -2 -373 152t-158 372t152 373q154 156 373 158q180 0 272 -117v117zM333 1536q-1 1 -1 2l2 -2h-1z" />
    <glyph glyph-name="Aogonek" unicode="&#x104;" horiz-adv-x="1554" 
d="M655 430h244l-121 236zM979 184h-453l-96 -184h-369l717 1331v-2l715 -1329h-367l78 -174h-145l-80 174v184z" />
    <glyph glyph-name="aogonek" unicode="&#x105;" horiz-adv-x="1208" 
d="M592 266q108 0 183 77t75 185t-77 184q-77 74 -183 74t-183 -76t-77 -186q0 -109 78 -182q76 -76 184 -76zM860 1053h287v-1059h-139l77 -172h-145l-80 172v121q-86 -115 -266 -115q-219 -2 -374 152t-157 372t152 373q154 156 373 156q78 2 152 -28t120 -87v115z" />
    <glyph glyph-name="Cacute" unicode="&#x106;" horiz-adv-x="1312" 
d="M728 6q-266 0 -466 201t-201 485q0 284 201 484t468 200t460 -164l-205 -202q-104 80 -254 80q-151 0 -267 -117t-116 -282t117 -281t267 -117q150 0 253 80l205 -205q-196 -162 -462 -162zM719 1817l149 -150l-235 -235l-150 149z" />
    <glyph glyph-name="cacute" unicode="&#x107;" horiz-adv-x="937" 
d="M551 786q-96 0 -174 -73q-76 -75 -78 -183t74 -184t186 -80q86 0 156 51l190 -190q-151 -127 -359 -126t-362 157t-152 374t158 371q156 154 363 152t354 -131l-190 -189q-70 51 -166 51zM352 1341l236 236l149 -150l-235 -235z" />
    <glyph glyph-name="Ccircumflex" unicode="&#x108;" horiz-adv-x="1312" 
d="M946 1589l-149 -147l-144 143l-141 -141l-147 147l288 289zM728 6q-266 0 -466 201t-201 485q0 284 201 484t468 200t460 -164l-205 -202q-104 80 -254 80q-151 0 -267 -117t-116 -282t117 -281t267 -117q150 0 253 80l205 -205q-196 -162 -462 -162z" />
    <glyph glyph-name="ccircumflex" unicode="&#x109;" horiz-adv-x="937" 
d="M760 1284l-150 -147l-143 143l-141 -141l-148 147l289 289zM551 786q-96 0 -174 -73q-76 -75 -78 -183t74 -184t186 -80q86 0 156 51l190 -190q-151 -127 -359 -126t-362 157t-152 374t158 371q156 154 363 152t354 -131l-190 -189q-70 51 -166 51z" />
    <glyph glyph-name="Cdotaccent" unicode="&#x10a;" horiz-adv-x="1312" 
d="M799 1755v-287h-287v287h287zM728 6q-266 0 -466 201t-201 485q0 284 201 484t468 200t460 -164l-205 -202q-104 80 -254 80q-151 0 -267 -117t-116 -282t117 -281t267 -117q150 0 253 80l205 -205q-196 -162 -462 -162z" />
    <glyph glyph-name="cdotaccent" unicode="&#x10b;" horiz-adv-x="937" 
d="M612 1376v-286h-286v286h286zM551 786q-96 0 -174 -73q-76 -75 -78 -183t74 -184t186 -80q86 0 156 51l190 -190q-151 -127 -359 -126t-362 157t-152 374t158 371q156 154 363 152t354 -131l-190 -189q-70 51 -166 51z" />
    <glyph glyph-name="Ccaron" unicode="&#x10c;" horiz-adv-x="1312" 
d="M440 1722l150 148l143 -144l141 142l148 -148l-289 -288zM728 6q-266 0 -466 201t-201 485q0 284 201 484t468 200t460 -164l-205 -202q-104 80 -254 80q-151 0 -267 -117t-116 -282t117 -281t267 -117q150 0 253 80l205 -205q-196 -162 -462 -162z" />
    <glyph glyph-name="ccaron" unicode="&#x10d;" horiz-adv-x="937" 
d="M178 1407l150 147l143 -143l141 141l148 -147l-289 -289zM551 786q-96 0 -174 -73q-76 -75 -78 -183t74 -184t186 -80q86 0 156 51l190 -190q-151 -127 -359 -126t-362 157t-152 374t158 371q156 154 363 152t354 -131l-190 -189q-70 51 -166 51z" />
    <glyph glyph-name="Dcaron" unicode="&#x10e;" horiz-adv-x="1294" 
d="M356 1868l150 147l143 -143l142 141l147 -147l-289 -289zM381 1018v-719h186q150 0 254 104q105 105 105 253t-104 254t-257 108h-184zM567 1323q274 0 470 -195t196 -470t-196 -471t-470 -195h-506v1331h506z" />
    <glyph glyph-name="dcaron" unicode="&#x10f;" horiz-adv-x="1644" 
d="M1296 1143v287h287v-287l-80 -174h-145l78 174h-140zM365 711q-76 -84 -75 -189q1 -104 77 -180t185 -74t184 77t73 185t-76 183q-77 73 -185 73t-183 -75zM887 0v121q-147 -121 -334 -121q-217 -2 -373 152t-158 372t152 373q154 156 358 157t353 -120v496h286l3 -1430
h-287z" />
    <glyph glyph-name="Dcroat" unicode="&#x110;" horiz-adv-x="1529" 
d="M1161 667q0 151 -104 255t-254 104h-187v-242h213v-192h-213v-285h187q150 1 254 105t104 255zM803 1333q274 1 470 -195q195 -196 195 -471t-194 -470t-471 -197h-506v592h-236v192h236v547h4v2h502z" />
    <glyph glyph-name="dcroat" unicode="&#x111;" horiz-adv-x="1234" 
d="M365 711q-76 -84 -75 -189q1 -104 77 -180t185 -74t184 77t73 185t-76 183q-77 73 -185 73t-183 -75zM887 0v121q-147 -121 -334 -121q-217 -2 -373 152t-158 372t152 373q154 156 358 157t353 -120v496h286l3 -1430h-287z" />
    <glyph glyph-name="Emacron" unicode="&#x112;" horiz-adv-x="1052" 
d="M381 522v-235h610v-287h-930v1331h930v-287h-610v-235h518v-287h-518zM858 1677v-245h-647v245h647z" />
    <glyph glyph-name="emacron" unicode="&#x113;" horiz-adv-x="1120" 
d="M558 786q-108 0 -183 -75q-39 -43 -56 -86h482q-16 43 -58 88q-77 73 -185 73zM1087 530v-100l-770 2q16 -47 60 -90q79 -76 187 -74t181 76l9 8l266 -84q-88 -138 -190 -202t-267 -66q-217 -2 -373 152t-158 372t152 373q154 156 372 158t374 -152t157 -373zM238 1430
h647v-246h-647v246z" />
    <glyph glyph-name="Ebreve" unicode="&#x114;" horiz-adv-x="1052" 
d="M519 1511q-185 0 -304 97q-68 55 -88 108l148 65q3 -8 28 -31q77 -73 223 -74q147 -1 232 84q12 13 16 22l6 6l146 -78q-41 -69 -97 -104q-125 -95 -310 -95zM381 522v-235h610v-287h-930v1331h930v-287h-610v-235h518v-287h-518zM275 1781q-1 1 -1 3l2 -2z" />
    <glyph glyph-name="ebreve" unicode="&#x115;" horiz-adv-x="1120" 
d="M552 1266q-185 0 -304 96q-68 55 -88 108l148 66q4 -9 28 -32q78 -74 224 -74q147 0 231 84q12 13 16 22l6 6l145 -78q-39 -65 -96 -104q-125 -94 -310 -94zM558 786q-108 0 -183 -75q-39 -43 -56 -86h482q-16 43 -58 88q-77 73 -185 73zM1087 530v-100l-770 2
q16 -47 60 -90q79 -76 187 -74t181 76l9 8l266 -84q-88 -138 -190 -202t-267 -66q-217 -2 -373 152t-158 372t152 373q154 156 372 158t374 -152t157 -373zM308 1536q-1 1 -1 2l2 -2h-1z" />
    <glyph glyph-name="Edotaccent" unicode="&#x116;" horiz-adv-x="1052" 
d="M381 522v-235h610v-287h-930v1331h930v-287h-610v-235h518v-287h-518zM674 1430h-287v286h287v-286z" />
    <glyph glyph-name="edotaccent" unicode="&#x117;" horiz-adv-x="1120" 
d="M558 786q-108 0 -183 -75q-39 -43 -56 -86h482q-16 43 -58 88q-77 73 -185 73zM1087 530v-100l-770 2q16 -47 60 -90q79 -76 187 -74t181 76l9 8l266 -84q-88 -138 -190 -202t-267 -66q-217 -2 -373 152t-158 372t152 373q154 156 372 158t374 -152t157 -373zM352 1341
l236 236l149 -150l-235 -235z" />
    <glyph glyph-name="eogonek" unicode="&#x119;" horiz-adv-x="1181" 
d="M350 623h481q-18 47 -57 86q-76 75 -183 75t-185 -77q-40 -43 -56 -84zM1118 428h-770q16 -45 60 -88q80 -76 188 -76t180 78l8 8l267 -84q-80 -124 -167 -188t-216 -78l75 -164h-145l-76 166q-196 25 -326 172t-132 356t151 364q154 155 372 157q217 2 373 -152
t158 -373v-98z" />
    <glyph glyph-name="Ecaron" unicode="&#x11a;" horiz-adv-x="1052" 
d="M256 1722l150 148l143 -144l141 142l148 -148l-289 -288zM381 522v-235h610v-287h-930v1331h930v-287h-610v-235h518v-287h-518z" />
    <glyph glyph-name="ecaron" unicode="&#x11b;" horiz-adv-x="1120" 
d="M299 1407l150 147l143 -143l141 141l148 -147l-289 -289zM558 786q-108 0 -183 -75q-39 -43 -56 -86h482q-16 43 -58 88q-77 73 -185 73zM1087 530v-100l-770 2q16 -47 60 -90q79 -76 187 -74t181 76l9 8l266 -84q-88 -138 -190 -202t-267 -66q-217 -2 -373 152t-158 372
t152 373q154 156 372 158t374 -152t157 -373z" />
    <glyph glyph-name="Gcircumflex" unicode="&#x11c;" horiz-adv-x="1474" 
d="M1028 1585l-149 -147l-144 143l-141 -141l-148 147l289 289zM1147 506h-2l2 -2v2zM815 772h598v-772h-266v106q-178 -127 -399 -126q-285 0 -486 200t-201 486t201 486q200 200 470 200t462 -164l-205 -203q-109 80 -241 80q-168 0 -284 -118q-116 -117 -116 -281
t118 -282t281 -118t283 117q72 72 92 123h-307v266z" />
    <glyph glyph-name="gcircumflex" unicode="&#x11d;" horiz-adv-x="1177" 
d="M879 1262l-150 -148l-143 143l-142 -141l-147 148l289 288zM330 528q0 -106 77 -183t187 -75t176 71q68 69 78 157v61q-8 88 -81 159q-73 70 -179 70t-182 -75q-76 -79 -76 -185zM848 1057h268v-1055q0 -217 -152 -371q-152 -153 -363 -155t-361 131t-172 332h270
q14 -66 70 -121q76 -76 184 -76t182 78q76 76 76 182l-2 104q-104 -104 -254 -104q-219 -2 -375 152t-157 372t153 374q154 155 373 157q174 0 260 -109v109z" />
    <glyph glyph-name="Gbreve" unicode="&#x11e;" horiz-adv-x="1474" 
d="M730 1511q-185 0 -304 97q-68 55 -88 108l148 65q3 -8 28 -31q77 -73 223 -74q178 -1 254 112l146 -78l-20 -28q-42 -54 -77 -76q-125 -95 -310 -95zM1147 506h-2l2 -2v2zM815 772h598v-772h-266v106q-178 -127 -399 -126q-285 0 -486 200t-201 486t201 486
q200 200 470 200t462 -164l-205 -203q-109 80 -241 80q-168 0 -284 -118q-116 -117 -116 -281t118 -282t281 -118t283 117q72 72 92 123h-307v266zM486 1781q-1 1 -1 3l2 -2z" />
    <glyph glyph-name="gbreve" unicode="&#x11f;" horiz-adv-x="1177" 
d="M581 1266q-185 0 -305 96q-68 55 -88 108l149 66q4 -9 28 -32q78 -74 227 -74t227 84l23 28l145 -78q-39 -65 -96 -104q-125 -94 -310 -94zM330 528q0 -106 77 -183t187 -75t176 71q68 69 78 157v61q-8 88 -81 159q-73 70 -179 70t-182 -75q-76 -79 -76 -185zM848 1057
h268v-1055q0 -217 -152 -371q-152 -153 -363 -155t-361 131t-172 332h270q14 -66 70 -121q76 -76 184 -76t182 78q76 76 76 182l-2 104q-104 -104 -254 -104q-219 -2 -375 152t-157 372t153 374q154 155 373 157q174 0 260 -109v109zM337 1536q-1 1 -1 2l2 -2h-1z" />
    <glyph glyph-name="Gdotaccent" unicode="&#x120;" horiz-adv-x="1474" 
d="M1147 506h-2l2 -2v2zM815 772h598v-772h-266v106q-178 -127 -399 -126q-285 0 -486 200t-201 486t201 486q200 200 470 200t462 -164l-205 -203q-109 80 -241 80q-168 0 -284 -118q-116 -117 -116 -281t118 -282t281 -118t283 117q72 72 92 123h-307v266zM872 1716v-286
h-286v286h286z" />
    <glyph glyph-name="gdotaccent" unicode="&#x121;" horiz-adv-x="1177" 
d="M731 1448v-287h-287v287h287zM330 528q0 -106 77 -183t187 -75t176 71q68 69 78 157v61q-8 88 -81 159q-73 70 -179 70t-182 -75q-76 -79 -76 -185zM848 1057h268v-1055q0 -217 -152 -371q-152 -153 -363 -155t-361 131t-172 332h270q14 -66 70 -121q76 -76 184 -76
t182 78q76 76 76 182l-2 104q-104 -104 -254 -104q-219 -2 -375 152t-157 372t153 374q154 155 373 157q174 0 260 -109v109z" />
    <glyph glyph-name="uni0122" unicode="&#x122;" horiz-adv-x="1441" 
d="M561 -391v287h287v-287l-80 -174h-145l79 174h-141zM1114 506h-2l2 -2v2zM782 772h598v-772h-266v109q-178 -129 -399 -129q-285 0 -485 200t-199 486q-1 286 199 486t470 200t461 -164l-205 -203q-104 80 -256 80t-268 -117q-115 -118 -115 -284t117 -279
q115 -119 282 -119t281 119q66 57 93 121h-308v266z" />
    <glyph glyph-name="uni0123" unicode="&#x123;" horiz-adv-x="1177" 
d="M330 528q0 -106 77 -183t187 -75t176 71q68 69 78 157v61q-8 88 -81 159q-73 70 -179 70t-182 -75q-76 -79 -76 -185zM848 1057h268v-1055q0 -217 -152 -371q-152 -153 -363 -155t-361 131t-172 332h270q14 -66 70 -121q76 -76 184 -76t182 78q76 76 76 182l-2 104
q-104 -104 -254 -104q-219 -2 -375 152t-157 372t153 374q154 155 373 157q174 0 260 -109v109zM418 1341l235 236l150 -150l-236 -235z" />
    <glyph glyph-name="Hcircumflex" unicode="&#x124;" horiz-adv-x="1163" 
d="M872 1616l-149 -148l-143 144l-142 -142l-147 148l289 289zM782 1331h320v-1331h-320v522h-401v-522h-320v1331h320v-522h401v522z" />
    <glyph glyph-name="hcircumflex" unicode="&#x125;" horiz-adv-x="1198" 
d="M889 1577l-150 -147l-143 143l-141 -141l-148 147l289 289zM1071 526v-526h-266v520h-2v6q0 106 -76 182t-183 76t-186 -77q-78 -78 -73 -185v-2h-2v-520h-287v1331h287v-409q59 70 117 96t141 33q225 18 378 -122q152 -141 152 -403z" />
    <glyph glyph-name="hbar" unicode="&#x127;" horiz-adv-x="1320" 
d="M1278 526v-526h-266v524q0 106 -77 184t-183 76q-106 0 -184 -76t-76 -186v-522h-287v1085h-174v246h614v-246h-153v-163q108 129 258 129q220 2 374 -153t154 -372z" />
    <glyph glyph-name="Itilde" unicode="&#x128;" horiz-adv-x="442" 
d="M596 1681l-242 -114l-258 92l-192 -92l-58 119l244 114l256 -92l195 92zM61 1331h320v-1331h-320v1331z" />
    <glyph glyph-name="itilde" unicode="&#x129;" horiz-adv-x="790" 
d="M770 1303l-242 -115l-258 92l-192 -92l-58 119l244 114l256 -92l195 92zM539 1053v-1053h-287v1053h287z" />
    <glyph glyph-name="Imacron" unicode="&#x12a;" horiz-adv-x="442" 
d="M61 1331h320v-1331h-320v1331zM-102 1675h647v-245h-647v245z" />
    <glyph glyph-name="imacron" unicode="&#x12b;" horiz-adv-x="688" 
d="M20 1430h648v-246h-648v246zM487 1053v-1053h-286v1053h286z" />
    <glyph glyph-name="Iogonek" unicode="&#x12e;" horiz-adv-x="442" 
d="M381 1331v-1331h-174l80 -174h-148l-78 174v1331h320z" />
    <glyph glyph-name="iogonek" unicode="&#x12f;" 
d="M346 1430v-287h-285v287h285zM348 1055v-1055h-141l80 -172h-148l-78 172v1055h287z" />
    <glyph glyph-name="Idotaccent" unicode="&#x130;" horiz-adv-x="442" 
d="M365 1622v-287h-287v287h287zM61 1331h320v-1331h-320v1331z" />
    <glyph glyph-name="dotlessi" unicode="&#x131;" 
d="M348 1053v-1053h-287v1053h287zM346 1427v-284h-285v284h285z" />
    <glyph glyph-name="IJ" unicode="&#x132;" horiz-adv-x="1050" 
d="M670 0v1331h319v-1331q0 -125 -19 -209q-20 -83 -72 -149q-103 -128 -394 -127v319q74 0 120 42t46 124zM61 1331h320v-1331h-320v1331z" />
    <glyph glyph-name="ij" unicode="&#x133;" horiz-adv-x="948" 
d="M887 0q0 -170 -120 -290t-290 -120h-6v287h6q47 0 88 35q35 41 35 88v1053h287v-1053zM887 1427v-241h-287v241h287zM348 1053v-1053h-287v1053h287zM346 1427v-241h-285v241h285z" />
    <glyph glyph-name="Jcircumflex" unicode="&#x134;" horiz-adv-x="737" 
d="M676 1823l-150 -148l-143 144l-141 -142l-148 148l289 289zM227 0v1331h320v-1331q1 -125 -19 -209q-44 -190 -222 -246q-97 -31 -245 -30v319q74 0 120 42t46 124z" />
    <glyph glyph-name="jcircumflex" unicode="&#x135;" horiz-adv-x="663" 
d="M623 1315l-150 -148l-143 144l-142 -142l-147 148l289 289zM479 0q0 -170 -120 -290t-289 -120h-7v287h7q47 0 88 35q35 41 35 88v1053h286v-1053z" />
    <glyph glyph-name="uni0136" unicode="&#x136;" horiz-adv-x="1466" 
d="M504 -391v287h287v-287l-80 -174h-146l80 174h-141zM381 0h-320v1331h320v-530l530 530h453l-608 -608l690 -723h-453l-465 496l-147 -148v-348z" />
    <glyph glyph-name="uni0137" unicode="&#x137;" horiz-adv-x="1230" 
d="M500 -391v287h286v-287l-79 -174h-146l80 174h-141zM348 0h-287v1423h287v-704l336 336l406 -2l-443 -441l522 -612h-381l-342 410l-98 -97v-313z" />
    <glyph glyph-name="kgreenlandic" unicode="&#x138;" horiz-adv-x="1230" 
d="M348 0h-287v1423h287v-704l336 336l406 -2l-443 -441l522 -612h-381l-342 410l-98 -97v-313z" />
    <glyph glyph-name="Lacute" unicode="&#x139;" horiz-adv-x="1083" 
d="M348 1587l236 236l149 -150l-235 -235zM381 287h641v-287h-961v1331h320v-1044z" />
    <glyph glyph-name="lacute" unicode="&#x13a;" 
d="M12 1665l236 236l149 -150l-235 -235zM348 1423v-1423h-287v1423h287z" />
    <glyph glyph-name="uni013B" unicode="&#x13b;" horiz-adv-x="1062" 
d="M403 -391v287h287v-287l-80 -174h-145l80 174h-142zM381 287h641v-287h-961v1331h320v-1044z" />
    <glyph glyph-name="uni013C" unicode="&#x13c;" 
d="M63 -391v287h287v-287l-80 -174h-145l80 174h-142zM348 1423v-1423h-287v1423h287z" />
    <glyph glyph-name="Lcaron" unicode="&#x13d;" horiz-adv-x="1083" 
d="M381 287h641v-287h-961v1331h320v-1044zM215 1751l119 119l201 -201l200 201l119 -121l-319 -319z" />
    <glyph glyph-name="lcaron" unicode="&#x13e;" horiz-adv-x="819" 
d="M459 1128v287h286v-287l-79 -174h-146l78 174h-139zM348 1423v-1423h-287v1423h287z" />
    <glyph glyph-name="Ldot" unicode="&#x13f;" horiz-adv-x="1083" 
d="M711 1079h286v-583h-286v583zM381 287h641v-287h-961v1331h320v-1044z" />
    <glyph glyph-name="ldot" unicode="&#x140;" horiz-adv-x="819" 
d="M471 967h272v-285h-272v285zM348 1423v-1423h-287v1423h287z" />
    <glyph glyph-name="Lslash" unicode="&#x141;" horiz-adv-x="1339" 
d="M1278 0h-961v383l-106 -107l-150 150l256 256v649h320v-330l156 156l149 -149l-305 -306l641 -415v-287z" />
    <glyph glyph-name="lslash" unicode="&#x142;" horiz-adv-x="1005" 
d="M606 0h-287v383l-108 -107l-150 150l258 256v743h287v-462l189 196l149 -149l-338 -340v-670z" />
    <glyph glyph-name="Nacute" unicode="&#x143;" horiz-adv-x="1161" 
d="M946 1331h320v-1331l-883 649v-649h-320v1331l883 -680v680zM412 1581l235 236l150 -150l-236 -235z" />
    <glyph glyph-name="nacute" unicode="&#x144;" horiz-adv-x="1157" 
d="M1126 0h-266v520h-2v4q0 109 -76 185q-76 75 -186 73t-184 -78q-76 -76 -72 -182v-2h-2v-520h-287v1059h287v-137q60 70 118 96t140 33q225 18 378 -122t152 -403v-526zM436 1341l236 236l149 -150l-235 -235z" />
    <glyph glyph-name="uni0145" unicode="&#x145;" horiz-adv-x="1327" 
d="M946 1331h320v-1331l-883 649v-649h-320v1331l883 -680v680zM500 -391v287h286v-287l-79 -174h-146l80 174h-141z" />
    <glyph glyph-name="uni0146" unicode="&#x146;" horiz-adv-x="1157" 
d="M1126 0h-266v520h-2v4q0 109 -76 185q-76 75 -186 73t-184 -78q-76 -76 -72 -182v-2h-2v-520h-287v1059h287v-137q60 70 118 96t140 33q225 18 378 -122t152 -403v-526zM467 -391v287h287v-287l-80 -174h-146l80 174h-141z" />
    <glyph glyph-name="Ncaron" unicode="&#x147;" horiz-adv-x="1161" 
d="M579 1511q-185 0 -305 97q-68 55 -88 108l149 65q4 -10 28 -32q78 -72 212 -73q189 -2 265 112l145 -78q-18 -30 -48 -61q-131 -138 -358 -138zM946 1331h320v-1331l-883 649v-649h-320v1331l883 -680v680zM335 1781q-1 1 -1 3l2 -2z" />
    <glyph glyph-name="ncaron" unicode="&#x148;" horiz-adv-x="1157" 
d="M299 1407l150 147l143 -143l141 141l148 -147l-289 -289zM1126 0h-266v520h-2v4q0 109 -76 185q-76 75 -186 73t-184 -78q-76 -76 -72 -182v-2h-2v-520h-287v1059h287v-137q60 70 118 96t140 33q225 18 378 -122t152 -403v-526z" />
    <glyph glyph-name="Omacron" unicode="&#x14c;" horiz-adv-x="1495" 
d="M1147 639q0 166 -117 283q-116 116 -282 116t-283 -116t-117 -283q0 -166 119 -283t281 -117t282 117q117 117 117 283zM748 1325q286 0 486 -201q200 -202 200 -486t-201 -484t-485 -201q-284 0 -486 201q-201 202 -201 486t201 484t486 201zM424 1675h647v-245h-647
v245z" />
    <glyph glyph-name="omacron" unicode="&#x14d;" horiz-adv-x="1179" 
d="M330 526q0 -106 77 -183t186 -75t183 77t74 182t-78 186q-78 73 -184 73t-182 -75q-76 -79 -76 -185zM588 1055q219 2 374 -153q156 -155 156 -373q0 -219 -154 -373t-371 -156q-218 -2 -374 152t-157 372t153 374q154 155 373 157z" />
    <glyph glyph-name="Obreve" unicode="&#x14e;" horiz-adv-x="1433" 
d="M710 1511q-185 0 -304 97q-68 55 -89 108l149 65q4 -10 28 -32q78 -72 212 -73q189 -2 265 112l145 -78q-18 -30 -48 -61q-131 -138 -358 -138zM1116 639q0 166 -117 283q-117 116 -283 116t-282 -116q-117 -116 -117 -283q0 -166 119 -283q118 -117 280 -117t283 117
q117 117 117 283zM717 1325q285 0 485 -201q200 -202 201 -486q0 -284 -201 -484q-202 -200 -486 -201q-284 0 -485 201q-201 202 -201 486t202 484q200 200 485 201zM466 1781q-1 1 -1 3l2 -2z" />
    <glyph glyph-name="obreve" unicode="&#x14f;" horiz-adv-x="1179" 
d="M583 1266q-185 0 -304 96q-68 55 -89 108l149 66q4 -9 28 -32q78 -74 212 -74q190 0 265 112l145 -78q-39 -65 -96 -104q-125 -94 -310 -94zM330 526q0 -106 77 -183t186 -75t183 77t74 182t-78 186q-78 73 -184 73t-182 -75q-76 -79 -76 -185zM588 1055q219 2 374 -153
q156 -155 156 -373q0 -219 -154 -373t-371 -156q-218 -2 -374 152t-157 372t153 374q154 155 373 157zM339 1536q-1 1 -1 2l2 -2h-1z" />
    <glyph glyph-name="Ohungarumlaut" unicode="&#x150;" horiz-adv-x="1495" 
d="M809 1616l235 235l150 -149l-236 -236zM301 1616l236 235l149 -149l-235 -236zM1147 639q0 166 -117 283q-116 116 -282 116t-283 -116t-117 -283q0 -166 119 -283t281 -117t282 117q117 117 117 283zM748 1325q286 0 486 -201q200 -202 200 -486t-201 -484t-485 -201
q-284 0 -486 201q-201 202 -201 486t201 484t486 201z" />
    <glyph glyph-name="ohungarumlaut" unicode="&#x151;" horiz-adv-x="1179" 
d="M651 1370l236 236l149 -150l-235 -235zM143 1370l236 236l149 -150l-235 -235zM330 526q0 -106 77 -183t186 -75t183 77t74 182t-78 186q-78 73 -184 73t-182 -75q-76 -79 -76 -185zM588 1055q219 2 374 -153q156 -155 156 -373q0 -219 -154 -373t-371 -156
q-218 -2 -374 152t-157 372t153 374q154 155 373 157z" />
    <glyph glyph-name="Racute" unicode="&#x154;" horiz-adv-x="1234" 
d="M424 1587l235 236l150 -150l-236 -235zM381 1044v-333h315q108 0 150 50q41 50 41 118t-43 112q-45 53 -146 53h-317zM1174 877q0 -129 -73 -250t-218 -172l286 -455h-358l-279 424h-151v-424h-320v1331h637q228 0 352 -140t124 -314z" />
    <glyph glyph-name="racute" unicode="&#x155;" horiz-adv-x="765" 
d="M190 1341l236 236l149 -150l-235 -235zM705 1073v-293q-156 0 -256 -100t-101 -213v-467h-287v1055h287v-158q35 98 116 137t241 39z" />
    <glyph glyph-name="uni0156" unicode="&#x156;" horiz-adv-x="1204" 
d="M381 1044v-333h315q108 0 150 50q41 50 41 118t-43 112q-45 53 -146 53h-317zM1174 877q0 -129 -73 -250t-218 -172l286 -455h-358l-279 424h-151v-424h-320v1331h637q228 0 352 -140t124 -314z" />
    <glyph glyph-name="uni0157" unicode="&#x157;" horiz-adv-x="735" 
d="M61 -391v287h287v-287l-80 -174h-145l80 174h-142zM705 1073v-293q-156 0 -256 -100t-101 -213v-467h-287v1055h287v-158q35 98 116 137t241 39z" />
    <glyph glyph-name="Rcaron" unicode="&#x158;" horiz-adv-x="1234" 
d="M326 1868l149 147l143 -143l142 141l147 -147l-289 -289zM381 1044v-333h315q108 0 150 50q41 50 41 118t-43 112q-45 53 -146 53h-317zM1174 877q0 -129 -73 -250t-218 -172l286 -455h-358l-279 424h-151v-424h-320v1331h637q228 0 352 -140t124 -314z" />
    <glyph glyph-name="rcaron" unicode="&#x159;" horiz-adv-x="765" 
d="M92 1622l150 147l143 -143l141 141l148 -147l-289 -289zM705 1073v-293q-156 0 -256 -100t-101 -213v-467h-287v1055h287v-158q35 98 116 137t241 39z" />
    <glyph glyph-name="Sacute" unicode="&#x15a;" horiz-adv-x="1220" 
d="M63 487v11l281 -4q0 -74 33 -123q61 -92 227 -92q266 1 266 123t-289 155t-425 178q-92 100 -92 246t92 250q144 162 464 162t465 -222q74 -115 74 -253h-280q1 60 -31 102q-66 92 -238 92q-104 0 -180 -30t-76 -91q0 -127 290 -159t425 -189q90 -106 90 -249t-88 -240
q-139 -156 -449 -156q-152 0 -245 36q-195 76 -277 248q-26 63 -33 117t-5 66q1 12 1 22zM475 1581l236 236l149 -150l-235 -235z" />
    <glyph glyph-name="sacute" unicode="&#x15b;" horiz-adv-x="980" 
d="M672 688v19q0 41 -19 65q-45 61 -161 62q-70 0 -121 -18t-51 -55q0 -36 40 -59q43 -27 146 -38q236 -25 342 -150q72 -84 72 -198t-70 -193q-103 -123 -363 -123q-105 0 -177 28t-140 89q-117 109 -107 274v23l230 -4h18v-17q2 -51 23 -84q35 -59 153 -59q179 0 179 73
t-189 95q-123 12 -205 47t-146 105t-63 186q0 117 74 198q111 127 363 127t362 -174q57 -88 58 -200v-19h-248zM340 1341l235 236l150 -150l-236 -235z" />
    <glyph glyph-name="Scircumflex" unicode="&#x15c;" horiz-adv-x="1220" 
d="M901 1589l-149 -147l-144 143l-141 -141l-148 147l289 289zM63 487v11l281 -23q7 -65 33 -104q61 -92 227 -92q266 1 266 123t-289 155t-425 178q-92 100 -92 246t92 250q144 162 464 162t465 -222q74 -115 74 -253l-280 14q0 16 -9 43q-8 27 -22 45q-66 92 -238 92
q-104 0 -180 -30t-76 -91q0 -127 290 -159t425 -189q90 -106 90 -249t-88 -240q-139 -156 -449 -156q-152 0 -245 36q-195 76 -277 248q-26 63 -33 117t-5 66q1 12 1 22z" />
    <glyph glyph-name="scircumflex" unicode="&#x15d;" horiz-adv-x="980" 
d="M782 1300l-149 -147l-144 143l-141 -141l-147 148l288 288zM672 688v19q0 41 -19 65q-45 61 -161 62q-70 0 -121 -18t-51 -55q0 -36 40 -59q43 -27 146 -38q236 -25 342 -150q72 -84 72 -198t-70 -193q-103 -123 -363 -123q-106 0 -186 33q-66 23 -131 84
q-117 109 -107 274v23l230 -4h18v-29q7 -47 23 -72q35 -59 153 -59q179 0 179 73t-189 95q-123 12 -205 47t-146 105t-63 186q0 117 74 198q111 127 363 127t362 -174q57 -88 58 -200v-19h-248z" />
    <glyph glyph-name="Scedilla" unicode="&#x15e;" horiz-adv-x="1220" 
d="M63 487v11l281 -4q0 -74 33 -123q61 -92 227 -92q266 1 266 123t-289 155t-425 178q-92 100 -92 246t92 250q144 162 464 162t465 -222q74 -115 74 -253h-280q1 60 -31 102q-66 92 -238 92q-104 0 -180 -30t-76 -91q0 -127 290 -159t425 -189q90 -106 90 -249t-88 -240
q-139 -156 -449 -156q-152 0 -245 36q-195 76 -277 248q-26 63 -33 117t-5 66q1 12 1 22zM434 -391v287h287v-287l-80 -174h-145l79 174h-141z" />
    <glyph glyph-name="scedilla" unicode="&#x15f;" horiz-adv-x="980" 
d="M672 688v19q0 41 -19 65q-45 61 -161 62q-70 0 -121 -18t-51 -55q0 -36 40 -59q43 -27 146 -38q236 -25 342 -150q72 -84 72 -198t-70 -193q-103 -123 -363 -123q-105 0 -177 28t-140 89q-117 109 -107 274v23l230 -4h18v-17q2 -51 23 -84q35 -59 153 -59q179 0 179 73
t-189 95q-123 12 -205 47t-146 105t-63 186q0 117 74 198q111 127 363 127t362 -174q57 -88 58 -200v-19h-248zM352 -391v287h287v-287l-80 -174h-145l80 174h-142z" />
    <glyph glyph-name="Scaron" unicode="&#x160;" horiz-adv-x="1220" 
d="M319 1720l150 148l143 -144l142 142l147 -148l-289 -288zM63 487v11l281 -23q7 -65 33 -104q61 -92 227 -92q266 1 266 123t-289 155t-425 178q-92 100 -92 246t92 250q144 162 464 162t465 -222q74 -115 74 -253l-280 14q0 16 -9 43q-8 27 -22 45q-66 92 -238 92
q-104 0 -180 -30t-76 -91q0 -127 290 -159t425 -189q90 -106 90 -249t-88 -240q-139 -156 -449 -156q-152 0 -245 36q-195 76 -277 248q-26 63 -33 117t-5 66q1 12 1 22z" />
    <glyph glyph-name="scaron" unicode="&#x161;" horiz-adv-x="980" 
d="M178 1407l150 147l143 -143l141 141l148 -147l-289 -289zM672 688v19q0 41 -19 65q-45 61 -161 62q-70 0 -121 -18t-51 -55q0 -36 40 -59q43 -27 146 -38q236 -25 342 -150q72 -84 72 -198t-70 -193q-103 -123 -363 -123q-106 0 -186 33q-66 23 -131 84
q-117 109 -107 274v23l230 -4h18v-29q7 -47 23 -72q35 -59 153 -59q179 0 179 73t-189 95q-123 12 -205 47t-146 105t-63 186q0 117 74 198q111 127 363 127t362 -174q57 -88 58 -200v-19h-248z" />
    <glyph glyph-name="uni0162" unicode="&#x162;" horiz-adv-x="1134" 
d="M434 -391v287h287v-287l-80 -174h-145l79 174h-141zM1073 1012h-346v-1012h-319v1012h-347v319h1012v-319z" />
    <glyph glyph-name="uni0163" unicode="&#x163;" horiz-adv-x="882" 
d="M297 -391v287h287v-287l-80 -174h-146l80 174h-141zM821 1055v-287h-235v-768h-287v768h-238v287h238v368h287v-368h235z" />
    <glyph glyph-name="Tcaron" unicode="&#x164;" horiz-adv-x="1116" 
d="M268 1868l150 147l143 -143l141 141l148 -147l-289 -289zM1073 1012h-346v-1012h-319v1012h-347v319h1012v-319z" />
    <glyph glyph-name="Utilde" unicode="&#x168;" horiz-adv-x="1261" 
d="M1006 1681l-242 -114l-258 92l-193 -92l-57 119l244 114l256 -92l194 92zM903 1331h297v-768q0 -251 -179 -407t-382 -156t-383 141q-86 68 -140 180t-55 246v764h297v-764q0 -123 87 -197t184 -73q37 0 92 18q117 48 160 140q23 45 22 108v768z" />
    <glyph glyph-name="utilde" unicode="&#x169;" horiz-adv-x="1155" 
d="M952 1436l-241 -115l-258 92l-193 -92l-57 119l243 114l256 -92l195 92zM61 506v553h267v-533q0 -123 93 -205q58 -53 139 -53t133 30t83 92t31 138v531h287v-1059h-287v111q-100 -111 -258 -111q-203 -2 -345 144t-143 362z" />
    <glyph glyph-name="Umacron" unicode="&#x16a;" horiz-adv-x="1261" 
d="M903 1331h297v-768q0 -251 -179 -407t-382 -156t-383 141q-86 68 -140 180t-55 246v764h297v-764q0 -123 87 -197t184 -73q37 0 92 18q117 48 160 140q23 45 22 108v768zM317 1675h648v-245h-648v245z" />
    <glyph glyph-name="umacron" unicode="&#x16b;" horiz-adv-x="1155" 
d="M61 506v553h267v-533q0 -123 93 -205q58 -53 139 -53t133 30t83 92t31 138v531h287v-1059h-287v111q-100 -111 -258 -111q-203 -2 -345 144t-143 362zM264 1430h647v-246h-647v246z" />
    <glyph glyph-name="Ubreve" unicode="&#x16c;" horiz-adv-x="1261" 
d="M624 1511q-185 0 -305 97q-68 55 -88 108l149 65q4 -10 28 -32q78 -72 212 -73q189 -2 265 112l145 -78q-18 -30 -48 -61q-131 -138 -358 -138zM903 1331h297v-768q0 -251 -179 -407t-382 -156t-383 141q-86 68 -140 180t-55 246v764h297v-764q0 -123 87 -197t184 -73
q37 0 92 18q117 48 160 140q23 45 22 108v768zM380 1781q-1 1 -1 3l2 -2z" />
    <glyph glyph-name="ubreve" unicode="&#x16d;" horiz-adv-x="1155" 
d="M570 1266q-185 0 -304 96q-68 55 -88 108l149 66q3 -8 27 -32q76 -74 224 -74q179 0 253 112l146 -78q-8 -14 -18 -25q-9 -11 -26 -33t-52 -46q-126 -94 -311 -94zM61 506v553h267v-533q0 -123 93 -205q58 -53 139 -53t133 30t83 92t31 138v531h287v-1059h-287v111
q-100 -111 -258 -111q-203 -2 -345 144t-143 362zM327 1536q-1 1 -1 2l2 -2h-1z" />
    <glyph glyph-name="Uring" unicode="&#x16e;" horiz-adv-x="1261" 
d="M348 1722l150 148l143 -144l141 142l148 -148l-289 -288zM903 1331h297v-768q0 -251 -179 -407t-382 -156t-383 141q-86 68 -140 180t-55 246v764h297v-764q0 -123 87 -197t184 -73q37 0 92 18q117 48 160 140q23 45 22 108v768z" />
    <glyph glyph-name="Uhungarumlaut" unicode="&#x170;" horiz-adv-x="1261" 
d="M692 1616l236 235l149 -149l-235 -236zM184 1616l236 235l149 -149l-235 -236zM903 1331h297v-768q0 -251 -179 -407t-382 -156t-383 141q-86 68 -140 180t-55 246v764h297v-764q0 -123 87 -197t184 -73q37 0 92 18q117 48 160 140q23 45 22 108v768z" />
    <glyph glyph-name="uhungarumlaut" unicode="&#x171;" horiz-adv-x="1155" 
d="M639 1370l235 236l150 -150l-236 -235zM131 1370l236 236l149 -150l-235 -235zM61 506v553h267v-533q0 -123 93 -205q58 -53 139 -53t133 30t83 92t31 138v531h287v-1059h-287v111q-100 -111 -258 -111q-203 -2 -345 144t-143 362z" />
    <glyph glyph-name="Uogonek" unicode="&#x172;" horiz-adv-x="1263" 
d="M905 1327h297v-768q0 -195 -112 -333t-277 -197v-2h-6q-57 -20 -123 -27l68 -147h-146l-71 153q-186 35 -330 181q-143 146 -144 374v766h297v-766q0 -121 87 -195t184 -73q105 0 192 77q86 77 84 189v768z" />
    <glyph glyph-name="uogonek" unicode="&#x173;" horiz-adv-x="1155" 
d="M1094 1059v-1059h-140l78 -168h-145l-80 168v111q-98 -109 -258 -109q-203 -2 -345 144t-143 362v551h267v-533q0 -123 93 -205q58 -53 139 -53t133 30t83 93t31 139v529h287z" />
    <glyph glyph-name="Wcircumflex" unicode="&#x174;" horiz-adv-x="2019" 
d="M1300 1653l-149 -148l-143 144l-142 -142l-147 148l289 289zM1860 1331l-349 -1331h-462l-717 1331h368l349 -665l51 98l-305 567h368l348 -665z" />
    <glyph glyph-name="wcircumflex" unicode="&#x175;" horiz-adv-x="1540" 
d="M1235 1069h295l-574 -1069l-2 2l-184 344l-186 -346v2l-574 1067h295l279 -534l41 79l-244 455h295l280 -534z" />
    <glyph glyph-name="Ycircumflex" unicode="&#x176;" horiz-adv-x="1513" 
d="M1047 1655l-150 -148l-143 144l-142 -142l-147 148l289 289zM915 0h-319v688l-535 643h420l277 -334l274 334h420l-537 -643v-688z" />
    <glyph glyph-name="ycircumflex" unicode="&#x177;" horiz-adv-x="1116" 
d="M848 1577l-150 -147l-143 143l-141 -141l-148 147l289 289zM1055 1057l-416 -1104q-68 -164 -215 -260t-322 -92v286q63 -2 127 27q90 41 136 129l57 158l-361 856h316l190 -461l170 461h318z" />
    <glyph glyph-name="Ydieresis" unicode="&#x178;" horiz-adv-x="1513" 
d="M836 1858h286v-287h-286v287zM391 1858h287v-287h-287v287zM915 0h-319v688l-535 643h420l277 -334l274 334h420l-537 -643v-688z" />
    <glyph glyph-name="Zacute" unicode="&#x179;" horiz-adv-x="1247" 
d="M1186 1343v-286l-729 -770h729v-289l-1125 2v287l730 770h-730v286h1125zM455 1581l235 236l150 -150l-236 -235z" />
    <glyph glyph-name="zacute" unicode="&#x17a;" horiz-adv-x="1013" 
d="M952 287v-287l-891 287l482 481h-482v287h887v-287l-481 -481h485zM352 1341l236 236l149 -150l-235 -235z" />
    <glyph glyph-name="Zdotaccent" unicode="&#x17b;" horiz-adv-x="1247" 
d="M1186 1343v-286l-729 -770h729v-289l-1125 2v287l730 770h-730v286h1125zM782 1716v-286h-286v286h286z" />
    <glyph glyph-name="zdotaccent" unicode="&#x17c;" horiz-adv-x="1013" 
d="M952 287v-287l-891 287l482 481h-482v287h887v-287l-481 -481h485zM340 1341l235 236l150 -150l-236 -235z" />
    <glyph glyph-name="Zcaron" unicode="&#x17d;" horiz-adv-x="1247" 
d="M319 1720l150 148l143 -144l142 142l147 -148l-289 -288zM1186 1343v-286l-729 -770h729v-289l-1125 2v287l730 770h-730v286h1125z" />
    <glyph glyph-name="zcaron" unicode="&#x17e;" horiz-adv-x="1013" 
d="M178 1407l150 147l143 -143l141 141l148 -147l-289 -289zM952 287v-287l-891 287l482 481h-482v287h887v-287l-481 -481h485z" />
    <glyph glyph-name="longs" unicode="&#x17f;" horiz-adv-x="804" 
d="M645 1143q-47 0 -80 -34t-33 -81v-113h211v-286h-211v-629h-286v631h-185v284h185v228q0 119 84 202t202 82h211v-284h-98z" />
    <glyph glyph-name="florin" unicode="&#x192;" horiz-adv-x="804" 
d="M645 1143q-47 0 -80 -34t-33 -81v-113h211v-286h-211v-629h-286v631h-185v284h185v228q0 119 84 202t202 82h211v-284h-98z" />
    <glyph glyph-name="uni0218" unicode="&#x218;" horiz-adv-x="1179" 
d="M587 279q263 1 263 123t-290 155t-425 178q-92 100 -92 246t92 250q143 162 464 162t466 -222q74 -115 74 -253h-281q1 60 -31 102q-66 92 -237 92q-104 0 -180 -30t-76 -91q0 -127 290 -159t425 -189q90 -106 90 -249t-88 -240q-140 -156 -467 -156q-136 0 -228 36
t-178 111q-125 109 -136 296q-1 17 0 27t1 19v11l281 -4q0 -215 263 -215zM414 -391v287h286v-287l-79 -174h-146l80 174h-141z" />
    <glyph glyph-name="uni0219" unicode="&#x219;" horiz-adv-x="940" 
d="M651 688v19q0 41 -18 65q-45 61 -162 62q-70 0 -121 -18t-51 -55q0 -36 41 -59q43 -27 145 -38q236 -25 342 -150q72 -84 72 -198t-70 -193q-103 -123 -362 -123q-105 0 -177 28t-140 89q-117 109 -107 274v23l229 -4h19v-17q2 -51 22 -84q35 -59 154 -59q178 0 178 73
t-188 95q-123 12 -205 47t-146 105t-63 186q0 117 74 198q111 127 363 127t362 -174q57 -88 57 -200v-19h-248zM332 -391v287h286v-287l-79 -174h-146l80 174h-141z" />
    <glyph glyph-name="uni021A" unicode="&#x21a;" horiz-adv-x="1116" 
d="M1073 1012h-346v-1012h-319v1012h-347v319h1012v-319zM434 -391v287h287v-287l-80 -174h-145l79 174h-141z" />
    <glyph glyph-name="uni021B" unicode="&#x21b;" horiz-adv-x="882" 
d="M821 1055v-287h-235v-768h-287v768h-238v287h238v368h287v-368h235zM299 -391v287h287v-287l-80 -174h-146l80 174h-141z" />
    <glyph glyph-name="circumflex" unicode="&#x2c6;" horiz-adv-x="1073" 
d="M827 1577l-149 -147l-143 143l-142 -141l-147 147l289 289z" />
    <glyph glyph-name="caron" unicode="&#x2c7;" horiz-adv-x="1073" 
d="M246 1622l149 147l144 -143l141 141l147 -147l-288 -289z" />
    <glyph glyph-name="breve" unicode="&#x2d8;" horiz-adv-x="839" 
d="M413 1266q-185 0 -304 96q-68 55 -89 108l149 66q4 -9 28 -32q78 -74 227 -74t227 84l23 28l145 -78q-39 -65 -96 -104q-125 -94 -310 -94zM169 1536q-1 1 -1 2l2 -2h-1z" />
    <glyph glyph-name="dotaccent" unicode="&#x2d9;" 
d="M348 1376v-286h-287v286h287z" />
    <glyph glyph-name="ogonek" unicode="&#x2db;" horiz-adv-x="1705" 
 />
    <glyph glyph-name="tilde" unicode="&#x2dc;" horiz-adv-x="872" 
d="M811 1436l-242 -115l-258 92l-192 -92l-58 119l244 114l256 -92l195 92z" />
    <glyph glyph-name="hungarumlaut" unicode="&#x2dd;" horiz-adv-x="1015" 
d="M569 1370l236 236l149 -150l-235 -235zM61 1370l236 236l149 -150l-235 -235z" />
    <glyph glyph-name="dieresistonos" unicode="&#x385;" horiz-adv-x="976" 
d="M567 1612h287v-287h-287v287zM123 1612h287v-287h-287v287z" />
    <glyph glyph-name="uni0401" unicode="&#x401;" horiz-adv-x="1021" 
d="M350 522v-235h611v-287h-930v1331h930v-287h-611v-235h518v-287h-518zM584 1430v286h286v-286h-286zM139 1430v286h287v-286h-287z" />
    <glyph glyph-name="uni0402" unicode="&#x402;" horiz-adv-x="1124" 
d="M723 268q47 0 81 35t34 83t-33 81q-39 33 -82 33h-148v-232h148zM723 766q157 0 269 -112t112 -270t-112 -270t-269 -112h-434v1137h-269v293h820v-293h-265v-373h148z" />
    <glyph glyph-name="uni0403" unicode="&#x403;" horiz-adv-x="886" 
d="M305 1587l236 236l149 -150l-235 -235zM350 1044v-1044h-319v1331h825v-287h-506z" />
    <glyph glyph-name="uni0404" unicode="&#x404;" horiz-adv-x="1220" 
d="M700 0q-268 0 -469 201t-201 485t202 486q200 200 468 200t459 -164l-203 -204q-106 82 -254 82t-268 -117q-61 -61 -94 -150h369v-268h-367q27 -80 92 -148q121 -117 283 -116q131 0 239 80l203 -203q-191 -164 -459 -164z" />
    <glyph glyph-name="uni0405" unicode="&#x405;" horiz-adv-x="1220" 
d="M63 487v11l281 -4q0 -74 33 -123q61 -92 227 -92q266 1 266 123t-289 155t-425 178q-92 100 -92 246t92 250q144 162 464 162t465 -222q74 -115 74 -253h-280q1 60 -31 102q-66 92 -238 92q-104 0 -180 -30t-76 -91q0 -127 290 -159t425 -189q90 -106 90 -249t-88 -240
q-139 -156 -449 -156q-152 0 -245 36q-195 76 -277 248q-26 63 -33 117t-5 66q1 12 1 22z" />
    <glyph glyph-name="uni0406" unicode="&#x406;" horiz-adv-x="401" 
d="M41 1331h319v-1331h-319v1331z" />
    <glyph glyph-name="uni0407" unicode="&#x407;" horiz-adv-x="772" 
d="M231 1331h320v-1331h-320v1331zM465 1430v286h287v-286h-287zM20 1430v286h287v-286h-287z" />
    <glyph glyph-name="uni0408" unicode="&#x408;" horiz-adv-x="567" 
d="M207 0v1331h319v-1331q0 -125 -19 -209q-19 -83 -71 -149q-103 -128 -395 -127v319q74 0 120 42t46 124z" />
    <glyph glyph-name="uni0409" unicode="&#x409;" horiz-adv-x="1906" 
d="M1087 528q0 -110 77 -186q78 -76 184 -76t183 77t77 183t-77 184q-77 76 -183 76t-184 -74q-77 -74 -77 -184zM1081 0h-319v723l-281 -723h-450v281h219l409 1050h422v-391q128 115 269 113q218 0 372 -155t153 -374q-1 -218 -156 -372t-373 -152q-162 0 -265 92v-92z
" />
    <glyph glyph-name="uni040A" unicode="&#x40a;" horiz-adv-x="1548" 
d="M1098 270q49 0 83 35q33 35 33 84t-34 81t-82 32h-144v-232h144zM1145 764q159 0 271 -112t112 -270t-113 -270t-270 -112h-430v465h-408v-465h-287v1063h287v-311h408v311h286v-299h144z" />
    <glyph glyph-name="uni040C" unicode="&#x40c;" horiz-adv-x="1435" 
d="M350 0h-319v1331h319v-530l531 530h452l-610 -608l692 -723h-452l-467 496l-146 -148v-348zM483 1581l236 236l149 -150l-235 -235z" />
    <glyph glyph-name="uni040E" unicode="&#x40e;" horiz-adv-x="1431" 
d="M724 1511q-185 0 -304 97q-68 55 -88 108l148 65q4 -10 28 -32q78 -72 224 -73t231 84q12 13 16 22l6 6l145 -78q-42 -70 -96 -104q-125 -95 -310 -95zM874 0h-319v688l-535 643h420l277 -334l274 334h420l-537 -643v-688zM480 1781q-1 1 -1 3l2 -2z" />
    <glyph glyph-name="uni040F" unicode="&#x40f;" horiz-adv-x="1263" 
d="M905 1307h297v-770q0 -201 -119 -342t-292 -195v-184h-320v184q-170 50 -290 192t-120 349v766h297v-766q0 -125 91 -197q6 -6 22 -18v174h320v-174l26 20q90 77 88 191v770z" />
    <glyph glyph-name="uni0410" unicode="&#x410;" horiz-adv-x="1554" 
d="M655 436h244l-121 234zM1124 0l-96 186h-502l-96 -186l348 1331l715 -1331h-369z" />
    <glyph glyph-name="uni0411" unicode="&#x411;" horiz-adv-x="1198" 
d="M348 526q0 -108 77 -184t183 -76t184 75q76 75 76 183t-74 186q-74 76 -184 76t-186 -76t-76 -184zM322 0h-287l-4 1430l714 -3v-227h-426v-233q135 88 293 86q217 0 371 -155t153 -374q-1 -218 -156 -372t-374 -152q-156 0 -284 84v-84z" />
    <glyph glyph-name="uni0412" unicode="&#x412;" horiz-adv-x="1198" 
d="M887 393q0 61 -43 105t-105 45h-389v-297h389q61 0 105 43q43 43 43 104zM350 1083v-297h285q61 0 105 43t44 105t-44 106q-44 43 -105 43h-285zM31 0v1331h616q35 0 101 -15q65 -15 112 -40t96 -78t71 -137q21 -84 9 -157t-37 -116l-26 -43q18 -6 52 -40q33 -35 55 -71
q54 -93 57 -251q0 -98 -40 -174q-39 -76 -95 -114q-112 -76 -207 -91l-41 -4h-723z" />
    <glyph glyph-name="uni0413" unicode="&#x413;" horiz-adv-x="886" 
d="M350 1044v-1044h-319v1331h825v-287h-506z" />
    <glyph glyph-name="uni0414" unicode="&#x414;" horiz-adv-x="1296" 
d="M545 625h219v419h-219v-419zM1051 625h194v-625h-287v338h-620v-338h-287v625h207v706h793v-706z" />
    <glyph glyph-name="uni0415" unicode="&#x415;" horiz-adv-x="1021" 
d="M350 522v-235h611v-287h-930v1331h930v-287h-611v-235h518v-287h-518z" />
    <glyph glyph-name="uni0416" unicode="&#x416;" horiz-adv-x="1413" 
d="M815 0h-246v395l-303 -303l-225 225l438 441l-438 440l225 225l303 -303v396h246v-422l330 329l227 -225l-440 -440l440 -441l-225 -225l-332 330v-422z" />
    <glyph glyph-name="uni0417" unicode="&#x417;" horiz-adv-x="970" 
d="M909 438q0 -88 -35 -171t-94 -138q-55 -59 -138 -94t-170 -35t-170 35t-142 92t-94 140t-35 171h286q0 -63 45 -107q44 -44 108 -44t109 44q44 44 44 96t-19 83l-133 225l133 183q18 30 18 82t-43 96t-107 45q-64 0 -110 -44t-45 -108h-286q1 184 133 313
q130 126 307 126q94 0 170 -35q76 -29 137 -91q131 -132 131 -298q0 -167 -96 -289q96 -127 96 -277z" />
    <glyph glyph-name="uni0418" unicode="&#x418;" horiz-adv-x="1120" 
d="M1079 0h-319v602l-719 -602v1331h319v-612l719 612v-1331z" />
    <glyph glyph-name="uni0419" unicode="&#x419;" horiz-adv-x="1120" 
d="M1079 0h-319v602l-719 -602v1331h319v-612l719 612v-1331zM285 1671h647v-246h-647v246z" />
    <glyph glyph-name="uni041A" unicode="&#x41a;" horiz-adv-x="1445" 
d="M350 0h-319v1331h319v-530l531 530h452l-610 -608l692 -723h-452l-467 496l-146 -148v-348z" />
    <glyph glyph-name="uni041B" unicode="&#x41b;" horiz-adv-x="1142" 
d="M1081 1331v-1331h-319v723l-281 -723h-450v281h219l409 1050h422z" />
    <glyph glyph-name="uni041C" unicode="&#x41c;" horiz-adv-x="1540" 
d="M1479 0h-320v745l-395 -251l-383 249v-743h-320v1331l707 -457l711 457v-1331z" />
    <glyph glyph-name="uni041D" unicode="&#x41d;" horiz-adv-x="1163" 
d="M782 1331h320v-1331h-320v522h-401v-522h-320v1331h320v-522h401v522z" />
    <glyph glyph-name="uni041E" unicode="&#x41e;" horiz-adv-x="1413" 
d="M1106 639q0 166 -117 283q-117 116 -283 116t-282 -116q-117 -116 -117 -283q0 -166 119 -283q118 -117 280 -117t283 117q117 117 117 283zM707 1325q285 0 485 -201q200 -202 201 -486q0 -284 -201 -484q-202 -200 -486 -201q-284 0 -485 201q-201 202 -201 486
t201 484t486 201z" />
    <glyph glyph-name="uni041F" unicode="&#x41f;" horiz-adv-x="1153" 
d="M61 1331h1031v-1331h-287v1044h-457v-1044h-287v1331z" />
    <glyph glyph-name="uni0420" unicode="&#x420;" horiz-adv-x="1196" 
d="M889 877q0 67 -45 117t-144 50h-319v-333h315q63 0 107 18q29 17 47 35q39 47 39 113zM700 1331q228 0 352 -140t124 -306t-107 -305q-53 -70 -150 -113t-223 -43h-315v-424h-320v1331h639z" />
    <glyph glyph-name="uni0421" unicode="&#x421;" horiz-adv-x="1179" 
d="M688 6q-266 0 -467 201t-201 485t201 484t469 200t459 -164l-205 -202q-104 80 -254 80t-266 -117q-117 -117 -117 -282t117 -281q116 -116 266 -117q150 0 254 80l205 -205q-195 -162 -461 -162z" />
    <glyph glyph-name="uni0422" unicode="&#x422;" horiz-adv-x="1073" 
d="M1042 1012h-346v-1012h-319v1012h-346v319h1011v-319z" />
    <glyph glyph-name="uni0423" unicode="&#x423;" horiz-adv-x="1431" 
d="M874 0h-319v688l-535 643h420l277 -334l274 334h420l-537 -643v-688z" />
    <glyph glyph-name="uni0424" unicode="&#x424;" horiz-adv-x="1179" 
d="M850 664q0 135 -117 219v-434q18 9 41 32q76 75 76 183zM330 664q0 -108 78 -185q20 -20 38 -30v434q-23 -14 -40 -35q-76 -76 -76 -184zM733 0h-287v158q-168 47 -276 186q-108 138 -108 318q-1 180 107 321t277 188v160h287v-160q167 -47 275 -186t109 -318t-107 -321
q-109 -141 -277 -188v-158z" />
    <glyph glyph-name="uni0425" unicode="&#x425;" horiz-adv-x="1456" 
d="M1395 1110l-441 -440l441 -441l-228 -225l-440 440l-440 -440l-226 225l441 441l-441 440l228 225l438 -438l440 438z" />
    <glyph glyph-name="uni0426" unicode="&#x426;" horiz-adv-x="1263" 
d="M905 1307h297v-770q0 -201 -119 -342t-292 -195v-184h-320v184q-170 50 -290 192t-120 349v766h297v-766q0 -125 91 -197q6 -6 22 -18v174h320v-174l26 20q90 77 88 191v770z" />
    <glyph glyph-name="uni0427" unicode="&#x427;" horiz-adv-x="991" 
d="M659 1331h271v-1331h-271v532h-102q-217 0 -372 154t-154 371v274h268v-270q0 -109 77 -185t181 -77h102v532z" />
    <glyph glyph-name="uni0428" unicode="&#x428;" horiz-adv-x="1542" 
d="M61 1331h320v-745l242 155v590h319v-600l219 -143v743h320v-1331l-709 457l-711 -457v1331z" />
    <glyph glyph-name="uni0429" unicode="&#x429;" horiz-adv-x="1705" 
d="M61 1331h320v-745l242 155v590h319v-600l217 -143v743h320v-952l196 -129l-196 -250l-707 457l-711 -457v1331z" />
    <glyph glyph-name="uni042A" unicode="&#x42a;" horiz-adv-x="1452" 
d="M892 266q107 0 183 76t76 182q4 106 -74 184q-77 78 -185 78t-184 -76t-77 -182q-2 -106 76 -184t185 -78zM604 0h-287l-2 1200h-284v230h571v-463q135 88 293 86q217 0 372 -155t153 -374q-2 -218 -158 -372q-154 -154 -373 -152q-156 0 -285 84v-84z" />
    <glyph glyph-name="uni042B" unicode="&#x42b;" horiz-adv-x="1542" 
d="M638 266q107 0 182 75t77 183t-75 186q-76 76 -184 76t-184 -76t-76 -180q-1 -106 75 -186q78 -78 185 -78zM350 0h-287l-2 1430h287v-463q135 88 293 86q217 0 372 -155t153 -374q-2 -218 -158 -372q-154 -154 -373 -152q-156 0 -285 84v-84zM1198 1421h283v-1421h-283
v1421z" />
    <glyph glyph-name="uni042C" unicode="&#x42c;" horiz-adv-x="1198" 
d="M638 266q107 0 182 75t77 183t-75 186q-76 76 -184 76t-184 -76t-76 -180q-1 -106 75 -186q78 -78 185 -78zM350 0h-287l-2 1430h287v-463q135 88 293 86q217 0 372 -155t153 -374q-2 -218 -158 -372q-154 -154 -373 -152q-156 0 -285 84v-84z" />
    <glyph glyph-name="uni042D" unicode="&#x42d;" horiz-adv-x="1189" 
d="M492 1370q266 0 466 -201t201 -485q0 -284 -201 -484t-468 -200t-459 164l205 203q104 -80 256 -80t264 116q68 66 94 150h-369v266h369q-33 90 -94 148q-113 117 -281 116q-137 0 -239 -79l-205 204q195 162 461 162z" />
    <glyph glyph-name="uni042E" unicode="&#x42e;" horiz-adv-x="1867" 
d="M1151 1065q-162 0 -281 -117q-118 -116 -118 -282t116 -283t283 -117q166 0 283 119t116 281q0 162 -116 282q-121 117 -283 117zM1151 1352q285 0 485 -201t201 -485q0 -284 -201 -486q-201 -201 -485 -200q-248 0 -437 158t-237 394h-96v-532h-320v1331h320v-532h96
q47 241 237 397t437 156z" />
    <glyph glyph-name="uni042F" unicode="&#x42f;" horiz-adv-x="1204" 
d="M823 711v333h-319q-96 0 -142 -51t-45 -117q0 -66 39 -112q37 -53 152 -53h315zM504 1331h639v-1331h-320v424h-151l-279 -424h-358l287 453q-145 51 -219 172q-73 121 -72 249q0 174 123 316t350 141z" />
    <glyph glyph-name="uni0430" unicode="&#x430;" horiz-adv-x="1187" 
d="M309 532q0 -108 77 -185q76 -77 186 -75t184 77t74 185t-78 185q-78 76 -185 74t-183 -78q-76 -75 -75 -183zM840 1059h286v-1059h-286v119q-88 -115 -267 -115q-217 -2 -373 152t-157 372q-2 218 152 373q154 156 372 158q180 0 273 -117v117z" />
    <glyph glyph-name="uni0431" unicode="&#x431;" horiz-adv-x="1187" 
d="M595 268q107 0 185 74q76 76 78 183t-74 183t-186 78t-184 -74q-76 -76 -78 -182t75 -184t184 -78zM848 1423v-225q-272 0 -418 -170q78 27 170 27q219 -2 373 -158q153 -156 151 -373q-2 -216 -156 -370t-363 -153q-208 1 -355 130t-174 322q-14 68 -13 182
q6 274 152 483q94 139 251 222t382 83z" />
    <glyph glyph-name="uni0432" unicode="&#x432;" horiz-adv-x="1208" 
d="M899 528q0 108 -74 183q-74 76 -184 75q-106 4 -184 -74t-78 -185t76 -183t182 -78t184 76t78 186zM352 0h-286l-5 1430h287l2 -461q131 86 293 86q217 -2 371 -157t152 -373q-2 -219 -156 -373t-373 -152q-152 0 -285 86v-86z" />
    <glyph glyph-name="uni0433" unicode="&#x433;" horiz-adv-x="768" 
d="M725 1055v-287h-377v-768h-287v1055h664z" />
    <glyph glyph-name="uni0434" unicode="&#x434;" horiz-adv-x="1159" 
d="M489 485h191v328h-191v-328zM928 485h170v-485h-250v236h-539v-236h-248v485h179v578h688v-578z" />
    <glyph glyph-name="uni0435" unicode="&#x435;" horiz-adv-x="1120" 
d="M558 786q-108 0 -183 -75q-39 -43 -56 -86h482q-16 43 -58 88q-77 73 -185 73zM1087 530v-100l-770 2q16 -47 60 -90q79 -76 187 -74t181 76l9 8l266 -84q-88 -138 -190 -202t-267 -66q-217 -2 -373 152t-158 372t152 373q154 156 372 158t374 -152t157 -373z" />
    <glyph glyph-name="uni0436" unicode="&#x436;" horiz-adv-x="1277" 
d="M739 -84h-223v363l-278 -279l-207 207l403 401l-403 404l209 205l276 -277v360h223v-385l301 302l207 -205l-401 -404l401 -401l-205 -207l-303 303v-387z" />
    <glyph glyph-name="uni0437" unicode="&#x437;" horiz-adv-x="745" 
d="M715 328q-1 -131 -97 -228q-96 -98 -231 -98q-59 0 -123 27q-125 52 -176 174q-27 55 -27 127h213q0 -47 33 -81t80 -34t81 34t34 70t-15 64l-100 166l100 135q38 78 -19 133q-34 33 -81 33t-80 -33t-33 -80h-213q0 72 26 129q56 123 173 172q61 25 128 25q130 0 230 -94
q97 -97 97 -221t-74 -216q25 -27 49 -85t25 -119z" />
    <glyph glyph-name="uni0438" unicode="&#x438;" horiz-adv-x="948" 
d="M315 1055v-477l572 477v-1055h-254v483l-572 -483v1055h254z" />
    <glyph glyph-name="uni0439" unicode="&#x439;" horiz-adv-x="948" 
d="M472 1266q-185 0 -304 96q-68 55 -88 108l148 66q3 -7 27 -31q77 -75 225 -75q179 0 253 112l146 -78q-51 -72 -97 -104q-125 -94 -310 -94zM315 1055v-477l572 477v-1055h-254v483l-572 -483v1055h254zM228 1536q-1 1 -1 2l2 -2h-1z" />
    <glyph glyph-name="uni043A" unicode="&#x43a;" horiz-adv-x="1200" 
d="M348 0h-287v1423h287v-704l336 336l406 -2l-443 -441l522 -612h-381l-342 410l-98 -97v-313z" />
    <glyph glyph-name="uni043B" unicode="&#x43b;" horiz-adv-x="907" 
d="M866 1075v-1075h-256v584l-227 -584h-363v227h177l331 848h338z" />
    <glyph glyph-name="uni043C" unicode="&#x43c;" horiz-adv-x="1861" 
d="M1821 0h-267v532q0 69 -47 154q-25 45 -75 75t-122 30q-71 0 -122 -30t-82 -93t-31 -140v-528h-268v532q0 121 -93 205q-58 53 -140 53t-133 -29q-53 -30 -83 -94t-30 -139v-528h-287v1059h287v-111q100 109 258 109q113 2 210 -46t165 -132l86 79q120 99 284 99
q205 1 347 -145t143 -361v-551z" />
    <glyph glyph-name="uni043D" unicode="&#x43d;" horiz-adv-x="1103" 
d="M756 1063h286v-1063h-286v387h-408v-387h-287v1063h287v-389h408v389z" />
    <glyph glyph-name="uni043E" unicode="&#x43e;" horiz-adv-x="1138" 
d="M309 526q0 -106 77 -183q76 -77 186 -75t184 77t74 182t-78 186q-78 73 -184 73t-183 -75q-76 -79 -76 -185zM567 1055q219 2 374 -153t156 -373q1 -219 -153 -373t-372 -156t-374 152t-156 372q-2 218 152 374q154 155 373 157z" />
    <glyph glyph-name="uni043F" unicode="&#x43f;" horiz-adv-x="1024" 
d="M61 1055h902v-1055h-287v768h-328v-768h-287v1055z" />
    <glyph glyph-name="uni0440" unicode="&#x440;" horiz-adv-x="1173" 
d="M797 713q-78 73 -186 73q-107 0 -183 -78t-74 -185q2 -109 77 -183t185 -72t185 78q76 76 71 182q0 109 -75 185zM348 -393h-287v1446h287v-111q38 51 112 81t150 32q217 2 373 -152t158 -372q2 -217 -152 -373t-373 -158q-178 0 -268 113v-506z" />
    <glyph glyph-name="uni0441" unicode="&#x441;" horiz-adv-x="937" 
d="M551 786q-96 0 -174 -73q-76 -75 -78 -183t74 -184t186 -80q86 0 156 51l190 -190q-151 -127 -359 -126t-362 157t-152 374t158 371q156 154 363 152t354 -131l-190 -189q-70 51 -166 51z" />
    <glyph glyph-name="uni0442" unicode="&#x442;" horiz-adv-x="880" 
d="M850 774h-264v-774h-287v774h-268v287h819v-287z" />
    <glyph glyph-name="uni0443" unicode="&#x443;" horiz-adv-x="1116" 
d="M1055 1104l-416 -1104q-68 -164 -215 -260t-322 -92v286q63 -2 127 27q90 41 136 129l57 158l-361 850h316l190 -455l170 461h318z" />
    <glyph glyph-name="uni0444" unicode="&#x444;" horiz-adv-x="1163" 
d="M774 338q82 82 80 192t-82 191q-18 20 -41 35v-453q29 19 43 35zM391 336q23 -23 41 -33v453q-29 -20 -43 -37q-82 -83 -80 -193t82 -190zM731 -166h-299v166q-174 48 -287 194t-112 332q-2 186 110 335q113 148 289 196v166h299v-164q174 -49 287 -196t114 -333
t-112 -333t-289 -197v-166z" />
    <glyph glyph-name="uni0445" unicode="&#x445;" horiz-adv-x="1185" 
d="M1124 203l-202 -203l-330 328l-328 -328l-203 203l328 327l-328 330l203 203l328 -330l330 330l202 -203l-329 -330z" />
    <glyph glyph-name="uni0446" unicode="&#x446;" horiz-adv-x="1161" 
d="M41 1057h266v-533q0 -122 94 -206q59 -52 141 -52q200 0 236 191q8 37 8 71v529h287v-795h68v-325h-355v172q-98 -109 -256 -109q-205 -2 -347 144t-142 360v553z" />
    <glyph glyph-name="uni0447" unicode="&#x447;" horiz-adv-x="1093" 
d="M745 1055h287v-1055h-287v141q-100 -53 -219 -53q-201 0 -343 143t-142 344v480h264v-480h2q0 -92 64 -155q61 -66 155 -66t156 66q53 51 63 131v504z" />
    <glyph glyph-name="uni0448" unicode="&#x448;" horiz-adv-x="1247" 
d="M61 1059h254v-594l191 123v471h254v-479l174 -113v592h252v-1059l-561 362l-564 -362v1059z" />
    <glyph glyph-name="uni0449" unicode="&#x449;" horiz-adv-x="1431" 
d="M61 1077h261v-604l194 125v479h258v-487l178 -115v602h258v-772l160 -104l-160 -201l-571 369l-578 -369v1077z" />
    <glyph glyph-name="uni044A" unicode="&#x44a;" horiz-adv-x="1060" 
d="M657 266q49 0 83 35t34 82t-34 81t-83 34h-163v-232h163zM657 764q158 0 271 -112q112 -112 112 -270t-112 -270t-271 -112h-450v829h-187v226h474v-291h163z" />
    <glyph glyph-name="uni044B" unicode="&#x44b;" horiz-adv-x="1267" 
d="M940 0v1055h287v-1055h-287zM494 266q46 0 80 35t34 84t-34 81t-80 32h-166v-232h166zM874 383q0 -159 -112 -271t-268 -112h-453v1055h287v-291h166q158 0 269 -112t111 -269z" />
    <glyph glyph-name="uni044C" unicode="&#x44c;" horiz-adv-x="894" 
d="M494 266q46 0 80 35t34 84t-34 81t-80 32h-166v-232h166zM874 383q0 -159 -112 -271t-268 -112h-453v1055h287v-291h166q158 0 269 -112t111 -269z" />
    <glyph glyph-name="uni044D" unicode="&#x44d;" horiz-adv-x="968" 
d="M398 1128q220 0 385 -164t165 -398t-165 -400t-385 -166t-378 135l168 168q86 -67 209 -67t219 96q53 57 78 123h-303v219l303 2q-25 68 -78 121q-96 96 -216 96t-212 -66l-168 166q158 135 378 135z" />
    <glyph glyph-name="uni044E" unicode="&#x44e;" horiz-adv-x="1513" 
d="M1247 530q0 127 -94 226q-92 92 -224 92t-225 -95q-94 -95 -94 -223t94 -222q94 -95 225 -95q132 0 225 95t93 222zM943 1075q212 0 372 -160t160 -385t-160 -385q-160 -159 -372 -159q-213 0 -363 125t-187 313h-76v-424h-256v1059h256v-422h76q37 188 187 313t363 125z
" />
    <glyph glyph-name="uni044F" unicode="&#x44f;" horiz-adv-x="989" 
d="M674 567v264h-254q-78 0 -117 -40q-33 -39 -33 -91t31 -92q39 -39 121 -41h252zM41 716q0 122 98 233q98 112 281 112h508v-1061h-254v338h-121l-223 -338h-285l227 362q-117 40 -174 136t-57 218z" />
    <glyph glyph-name="uni0451" unicode="&#x451;" horiz-adv-x="1120" 
d="M558 786q-108 0 -183 -75q-39 -43 -56 -86h482q-16 43 -58 88q-77 73 -185 73zM1087 530v-100l-770 2q16 -47 60 -90q79 -76 187 -74t181 76l9 8l266 -84q-88 -138 -190 -202t-267 -66q-217 -2 -373 152t-158 372t152 373q154 156 372 158t374 -152t157 -373zM655 1182
v286h287v-286h-287zM211 1182v286h287v-286h-287z" />
    <glyph glyph-name="uni0453" unicode="&#x453;" horiz-adv-x="724" 
d="M152 1341l235 236l150 -150l-236 -235zM705 1055v-287h-377v-768h-287v1055h664z" />
    <glyph glyph-name="uni0454" unicode="&#x454;" horiz-adv-x="968" 
d="M571 0q-220 0 -386 166q-165 166 -165 399t165 399t385 164q220 0 378 -135l-168 -168q-90 68 -210 68t-218 -96q-51 -47 -78 -123h304v-219h-304q27 -72 78 -123q96 -96 216 -96t212 65l168 -166q-157 -135 -377 -135z" />
    <glyph glyph-name="uni0455" unicode="&#x455;" horiz-adv-x="980" 
d="M672 688v19q0 41 -19 65q-45 61 -161 62q-70 0 -121 -18t-51 -55q0 -36 40 -59q43 -27 146 -38q236 -25 342 -150q72 -84 72 -198t-70 -193q-103 -123 -363 -123q-105 0 -177 28t-140 89q-117 109 -107 274v23l230 -4h18v-17q2 -51 23 -84q35 -59 153 -59q179 0 179 73
t-189 95q-123 12 -205 47t-146 105t-63 186q0 117 74 198q111 127 363 127t362 -174q57 -88 58 -200v-19h-248z" />
    <glyph glyph-name="uni0456" unicode="&#x456;" horiz-adv-x="368" 
d="M328 1053v-1053h-287v1053h287zM326 1427v-284h-285v284h285z" />
    <glyph glyph-name="uni0457" unicode="&#x457;" horiz-adv-x="813" 
d="M485 1182v286h287v-286h-287zM41 1182v286h287v-286h-287zM557 1055v-1055h-287v1055h287z" />
    <glyph glyph-name="uni0458" unicode="&#x458;" horiz-adv-x="538" 
d="M477 0q0 -170 -120 -290t-289 -120h-7v287h7q47 0 88 35q35 41 34 88v1053h287v-1053zM477 1427v-284h-287v284h287z" />
    <glyph glyph-name="uni0459" unicode="&#x459;" horiz-adv-x="1427" 
d="M1026 266q47 0 81 35t34 83t-33 81q-39 33 -82 33h-158v-232h158zM1026 764q158 0 270 -112t111 -270q0 -158 -112 -270t-269 -112h-416v584l-227 -584h-363v227h177l331 848h340v-311h158z" />
    <glyph glyph-name="uni045A" unicode="&#x45a;" horiz-adv-x="1568" 
d="M1118 270q49 0 83 35t34 84t-34 81t-83 32h-143v-232h143zM1165 764q158 0 271 -112q112 -112 112 -270t-112 -270t-271 -112h-430v465h-407v-465h-287v1063h287v-311h407v311h287v-299h143z" />
    <glyph glyph-name="uni045B" unicode="&#x45b;" horiz-adv-x="1282" 
d="M711 1051q244 -1 386 -149t144 -376q0 -16 -2 -24v-502h-266v526q0 106 -76 183q-80 75 -185 75q-104 0 -182 -76t-77 -186v-522h-287v1118h-146v154h146v59h287v-59h174v-154h-174v-196q108 129 258 129z" />
    <glyph glyph-name="uni045C" unicode="&#x45c;" horiz-adv-x="1200" 
d="M348 0h-287v1423h287v-704l336 336l406 -2l-443 -441l522 -612h-381l-342 410l-98 -97v-313zM494 1341l235 236l150 -150l-236 -235z" />
    <glyph glyph-name="uni045E" unicode="&#x45e;" horiz-adv-x="1236" 
d="M589 1260q-185 0 -304 96q-68 55 -88 108l148 65q3 -8 27 -31q76 -73 218 -75q175 0 260 113l145 -78l-19 -27q-43 -56 -77 -77q-125 -94 -310 -94zM1055 1104l-416 -1104q-68 -164 -215 -260t-322 -92v286q63 -2 127 27q90 41 136 129l57 158l-361 850h316l190 -455
l170 461h318zM345 1529q-1 1 -1 3l2 -2z" />
    <glyph glyph-name="uni045F" unicode="&#x45f;" horiz-adv-x="1005" 
d="M723 1057h242v-623q-1 -162 -97 -278t-235 -158v-150h-260v150q-137 43 -235 157q-97 114 -97 281v621h240v-621q0 -98 73 -160q10 -5 19 -14v141h260v-141q9 8 31 27t40 57t19 88v623z" />
    <glyph glyph-name="uni0490" unicode="&#x490;" horiz-adv-x="917" 
d="M600 1458h287v-414h-506v-1044h-320v1331h539v127z" />
    <glyph glyph-name="uni0491" unicode="&#x491;" horiz-adv-x="1705" 
 />
    <glyph glyph-name="Wgrave" unicode="&#x1e80;" horiz-adv-x="2019" 
d="M1313 1677l-152 -149l-248 246l152 149zM1860 1331l-349 -1331h-462l-717 1331h368l349 -665l51 98l-305 567h368l348 -665z" />
    <glyph glyph-name="wgrave" unicode="&#x1e81;" horiz-adv-x="1540" 
d="M971 1432l-152 -150l-248 246l152 149zM1235 1069h295l-574 -1069l-2 2l-184 344l-186 -346v2l-574 1067h295l279 -534l41 79l-244 455h295l280 -534z" />
    <glyph glyph-name="Wacute" unicode="&#x1e82;" horiz-adv-x="2019" 
d="M817 1587l236 236l149 -150l-235 -235zM1860 1331l-349 -1331h-462l-717 1331h368l349 -665l51 98l-305 567h368l348 -665z" />
    <glyph glyph-name="wacute" unicode="&#x1e83;" horiz-adv-x="1540" 
d="M578 1341l235 236l150 -150l-236 -235zM1235 1069h295l-574 -1069l-2 2l-184 344l-186 -346v2l-574 1067h295l279 -534l41 79l-244 455h295l280 -534z" />
    <glyph glyph-name="Wdieresis" unicode="&#x1e84;" horiz-adv-x="2019" 
d="M1087 1858h287v-287h-287v287zM643 1858h287v-287h-287v287zM1860 1331l-349 -1331h-462l-717 1331h368l349 -665l51 98l-305 567h368l348 -665z" />
    <glyph glyph-name="wdieresis" unicode="&#x1e85;" horiz-adv-x="1540" 
d="M848 1612h287v-287h-287v287zM403 1612h287v-287h-287v287zM1235 1069h295l-574 -1069l-2 2l-184 344l-186 -346v2l-574 1067h295l279 -534l41 79l-244 455h295l280 -534z" />
    <glyph glyph-name="endash" unicode="&#x2013;" horiz-adv-x="825" 
d="M61 328v286h703v-286h-703z" />
    <glyph glyph-name="emdash" unicode="&#x2014;" horiz-adv-x="1275" 
d="M61 430v184h1153v-184h-1153z" />
    <glyph glyph-name="quoteleft" unicode="&#x2018;" 
d="M348 1085v-286h-287v286l78 175h148l-80 -175h141z" />
    <glyph glyph-name="quoteright" unicode="&#x2019;" 
d="M61 1085v287h287v-287l-80 -174h-145l78 174h-140z" />
    <glyph glyph-name="quotesinglbase" unicode="&#x201a;" 
d="M61 287h287v-287l-80 -174h-145l78 174h-140v287z" />
    <glyph glyph-name="quotedblleft" unicode="&#x201c;" horiz-adv-x="794" 
d="M350 764h-287l-2 319l80 174h146l-78 -174h139zM733 1085v-286h-287v286l80 175h146l-78 -175h139z" />
    <glyph glyph-name="quotedblright" unicode="&#x201d;" horiz-adv-x="794" 
d="M446 1372h287v-287l-78 -174h-147l80 174h-142v287zM61 1083v287h287v-287l-78 -174h-147l80 174h-142z" />
    <glyph glyph-name="quotedblbase" unicode="&#x201e;" horiz-adv-x="794" 
d="M446 287h287v-287l-80 -174h-145l78 174h-140v287zM61 -2v287h287v-287l-80 -174h-145l78 174h-140z" />
    <glyph glyph-name="guilsinglleft" unicode="&#x2039;" horiz-adv-x="903" 
d="M653 0l-592 592l590 596l191 -189l-406 -405l406 -406z" />
    <glyph glyph-name="guilsinglright" unicode="&#x203a;" horiz-adv-x="903" 
d="M250 0l-189 188l404 406l-404 405l189 189l592 -592z" />
    <glyph glyph-name="lira" unicode="&#x20a4;" horiz-adv-x="1005" 
d="M944 287v-287h-883v268q103 0 173 70t81 151v103h-254v246h254v43q-10 236 156 397q141 139 336 152v-269q-86 -12 -154 -81t-71 -169v-73h211v-246h-211v-103q-11 -110 -58 -202h420z" />
    <glyph glyph-name="Euro" unicode="&#x20ac;" horiz-adv-x="1404" 
d="M886 287q148 0 253 80l204 -203q-193 -164 -426 -164t-407 123t-250 319h-199v211h154v47h-154v213h193q70 203 247 330t413 127t429 -162l-204 -204q-102 80 -253 80q-189 -1 -315 -171l381 -2v-211h-450v-14q0 -23 2 -33h448v-211h-368q10 -14 34 -39
q120 -116 268 -116z" />
    <glyph glyph-name="trademark" unicode="&#x2122;" horiz-adv-x="1267" 
d="M1227 612h-150v349l-184 -119l-180 116v-346h-150v623l332 -215l332 215v-623zM516 1085h-162v-473h-149v473h-164v150h475v-150z" />
    <glyph glyph-name="Racute.alt" horiz-adv-x="1234" 
 />
    <glyph glyph-name="b.001" horiz-adv-x="1236" 
d="M504 713q-76 -75 -78 -183t74 -184t185 -78t184 73t77 182t-74 188q-76 75 -183 75t-185 -73zM350 0h-287l-2 1430h287v-500q147 125 354 124t361 -157q153 -156 151 -374q-2 -217 -158 -371t-372 -152q-186 0 -334 121v-121z" />
    </font>
</defs>
</svg>
