<?xml version="1.0" standalone="no"?>
<!DOCTYPE svg PUBLIC "-//W3C//DTD SVG 1.1//EN" "http://www.w3.org/Graphics/SVG/1.1/DTD/svg11.dtd" >
<svg xmlns="http://www.w3.org/2000/svg">
<metadata>
Created by FontPrep 20130207 at Wed Dec  9 16:04:25 2015
 By Gianna Fusaro
Copyright (c) 2013, Natanael Gama (www.ndiscovered.com . info(at)ndiscovered.com), with Reserved Font Name Exo. This Font Software is licensed under the SIL Open Font License, Version 1.1.
</metadata>
<defs>
<font id="de1d09bf165e7107e3d0f120dc6d00b9" horiz-adv-x='1024' >
  <font-face 
    font-family="Exo2-Medium"
    font-weight="500"
    font-stretch="normal"
    units-per-em="2048"
    panose-1="0 0 6 0 0 0 0 0 0 0"
    ascent="1638"
    descent="-410"
    x-height="999"
    cap-height="1413"
    bbox="-358 -569 2509 1921"
    underline-thickness="102"
    underline-position="-102"
    unicode-range="U+0020-FB02"
  />
<missing-glyph horiz-adv-x="1228" 
 />
    <glyph glyph-name=".notdef" horiz-adv-x="1228" 
 />
    <glyph glyph-name=".null" horiz-adv-x="0" 
 />
    <glyph glyph-name="nonmarkingreturn" horiz-adv-x="681" 
 />
    <glyph glyph-name="space" unicode=" " horiz-adv-x="454" 
 />
    <glyph glyph-name="exclam" unicode="!" horiz-adv-x="567" 
d="M260 254h49q41 0 57 -16t17 -56v-108q0 -42 -16 -58t-58 -16h-49q-41 0 -56 16t-16 58v108q0 40 16 56t56 16zM184 1423h199v-612l-21 -375h-157l-21 375v612z" />
    <glyph glyph-name="quotedbl" unicode="&#x22;" horiz-adv-x="733" 
d="M586 971h-135l-13 442h160zM285 971h-135l-13 442h160z" />
    <glyph glyph-name="numbersign" unicode="#" horiz-adv-x="1409" 
d="M918 909h-357l-61 -354h356zM1075 909l-61 -354h223l-25 -125h-219l-75 -430h-158l76 430h-357l-76 -430h-157l76 430h-238l25 125h233l61 354h-233l25 125h231l66 379h157l-65 -379h356l66 379h157l-65 -379h225l-25 -125h-223z" />
    <glyph glyph-name="dollar" unicode="$" horiz-adv-x="1157" 
d="M848 360q0 116 -37 158t-131 66l-57 16l-35 -434q154 0 207 39t53 155zM319 1072q0 -118 38 -160q38 -44 135 -68l59 -17l33 428q-156 -1 -210 -33t-55 -150zM1057 365q-1 -236 -107 -313t-377 -77l-18 -231h-104l18 233q-170 8 -338 39l14 158q262 -6 340 -8l37 461
l-129 37q-153 41 -217 138q-64 96 -64 240t26 219q47 136 231 164q78 12 209 13h20l16 196h103l-15 -198q180 -10 302 -41l-13 -150q-166 8 -303 10l-35 -456l117 -33q158 -43 222 -139t65 -262z" />
    <glyph glyph-name="percent" unicode="%" horiz-adv-x="1835" 
d="M1409 694q-104 0 -143 -63t-39 -231t39 -234q39 -64 143 -64t143 65t39 233t-39 232q-39 62 -143 62zM1077 398q0 228 75 324t258 97q183 0 258 -96q75 -97 75 -325t-75 -323t-258 -95t-258 95t-75 323zM604 1020q0 168 -39 232t-142 65q-103 0 -142 -66
q-39 -67 -39 -233t39 -231t142 -65t142 66q39 64 39 232zM532 0h-139l903 1413h140zM424 1440q184 0 259 -95t75 -323t-75 -326q-75 -96 -259 -96t-259 96t-75 324t75 324t259 96z" />
    <glyph glyph-name="ampersand" unicode="&#x26;" horiz-adv-x="1576" 
d="M1004 653h-377q-158 0 -218 -54q-61 -55 -61 -199t54 -194t196 -50q256 2 406 149v348zM410 737q-238 22 -238 300q0 214 75 296q75 81 260 95q79 8 235 8t294 -23l-24 -153q-86 6 -293 6t-273 -42t-66 -182t56 -186q55 -47 203 -47h369l16 252h166v-252h252l-2 -156
h-250v-370q0 -72 28 -101t97 -28h145l23 -146q-92 -27 -223 -26q-211 0 -250 170q-88 -94 -194 -134t-269 -41q-225 0 -321 85q-95 86 -95 276t65 284t214 107v8z" />
    <glyph glyph-name="quotesingle" unicode="'" horiz-adv-x="432" 
d="M285 971h-135l-13 442h160z" />
    <glyph glyph-name="parenleft" unicode="(" horiz-adv-x="737" 
d="M297 641q0 -692 381 -887l-25 -92q-283 106 -415 343t-134 635q0 398 133 636t416 342l25 -92q-199 -94 -290 -314t-91 -571z" />
    <glyph glyph-name="parenright" unicode=")" horiz-adv-x="737" 
d="M635 640q0 -398 -133 -635t-418 -343l-25 92q381 195 381 887q0 351 -91 571t-290 314l25 92q285 -104 418 -342t133 -636z" />
    <glyph glyph-name="asterisk" unicode="*" horiz-adv-x="921" 
d="M817 1122l-254 -65l-26 33v51l243 94zM383 1141l-2 -51l-25 -33l-254 67l39 111zM500 1083l209 -264l-95 -69l-155 254l-154 -252l-96 69l209 262l-17 332h119z" />
    <glyph glyph-name="plus" unicode="+" horiz-adv-x="1126" 
d="M1014 539h-377v-357h-150v357h-376v147h374v358h154v-358h375v-147z" />
    <glyph glyph-name="comma" unicode="," horiz-adv-x="475" 
d="M211 254h57q38 0 54 -15t16 -57v-131q-2 -182 -78 -325l-94 24q23 115 22 250q-55 0 -55 63v119q1 40 19 56t59 16z" />
    <glyph glyph-name="hyphen" unicode="-" horiz-adv-x="905" 
d="M764 442h-623v152h623v-152z" />
    <glyph glyph-name="period" unicode="." horiz-adv-x="477" 
d="M207 254h63q42 0 58 -15t16 -57v-108q0 -42 -16 -58t-58 -16h-63q-41 0 -57 16t-17 58v108q1 40 17 56t57 16z" />
    <glyph glyph-name="slash" unicode="/" horiz-adv-x="1069" 
d="M213 -137h-162l805 1550h162z" />
    <glyph glyph-name="zero" unicode="0" horiz-adv-x="1243" 
d="M621 1262q-167 0 -231 -124t-64 -431t64 -432q66 -123 232 -123t231 122t65 432t-65 433t-232 123zM621 1440q272 0 384 -169q111 -169 111 -564t-111 -565q-112 -169 -384 -169t-384 169q-112 168 -112 564t112 565t384 169z" />
    <glyph glyph-name="one" unicode="1" horiz-adv-x="823" 
d="M600 0h-205v1094q0 74 11 127l-340 -105l-25 154l354 143h205v-1413z" />
    <glyph glyph-name="two" unicode="2" horiz-adv-x="1153" 
d="M566 1438q216 0 324 -64t107 -246q0 -132 -53 -242t-192 -263l-394 -433q96 8 226 9h463v-199h-936v129q0 55 30 86l394 444q262 283 256 457q-3 88 -61 115t-216 27t-381 -31l-12 159q229 52 445 52z" />
    <glyph glyph-name="three" unicode="3" horiz-adv-x="1140" 
d="M552 1440q216 0 318 -72t103 -256q0 -317 -207 -356v-8q131 -23 185 -110t59 -245q4 -219 -100 -319t-326 -100t-480 36l13 166q239 -20 397 -20t226 57t67 193q0 136 -55 195q-55 60 -211 61h-260v159h260q145 1 190 63t44 183t-56 157t-220 36t-358 -17l-14 160
q209 37 425 37z" />
    <glyph glyph-name="four" unicode="4" horiz-adv-x="1267" 
d="M1182 502v-146l-185 -20v-336h-194v336h-567q-92 0 -137 73q-44 73 -7 158l391 846h201l-381 -831q-31 -80 49 -80h451v409l37 230h157v-639h185z" />
    <glyph glyph-name="five" unicode="5" horiz-adv-x="1101" 
d="M490 158q172 0 235 61q61 61 66 205q3 58 -9 108t-31 70t-35 35t-73 31q-58 16 -111 22t-87 9t-105 10l-107 10q-35 3 -57 27t-18 61l32 606h760l-8 -176h-586l-20 -352l160 -15q272 -23 385 -124t110 -322q0 -190 -84 -307q-97 -142 -407 -142q-170 0 -400 52l25 166
q193 -35 365 -35z" />
    <glyph glyph-name="six" unicode="6" horiz-adv-x="1175" 
d="M872 462q0 166 -52 232t-195 66q-84 0 -149 -26t-144 -91q0 -230 20 -316q20 -87 52 -115q68 -60 220 -60t200 72t48 238zM678 926q221 0 305 -102t84 -361q0 -121 -17 -202q-16 -81 -64 -149q-95 -136 -372 -137q-154 0 -246 32q-181 63 -218 331q-18 126 -18 356
q-1 464 137 612q75 80 169 106t258 26t281 -31l-16 -150q-91 7 -233 7t-200 -16q-130 -37 -170 -213q-20 -93 -24 -247q70 76 148 107t196 31z" />
    <glyph glyph-name="seven" unicode="7" horiz-adv-x="1052" 
d="M881 1413q67 0 93 -36t7 -97l-436 -1280h-205l387 1130q23 66 47 109h-690l-8 174h805z" />
    <glyph glyph-name="eight" unicode="8" horiz-adv-x="1243" 
d="M328 402q0 -146 59 -197t235 -51t232 51q57 51 57 199t-56 197q-56 50 -232 49q-175 -1 -235 -51q-60 -51 -60 -197zM623 1270q-162 0 -215 -48q-54 -48 -54 -182t54 -180q54 -45 217 -45q164 0 214 44t50 179q0 136 -52 184t-214 48zM1075 1061q0 -301 -201 -324v-8
q126 -12 180 -107t54 -283q0 -187 -101 -273t-383 -88t-385 85t-103 275t51 284q52 96 182 107v8q-201 23 -201 324q0 203 95 289q96 86 359 85t358 -86t95 -288z" />
    <glyph glyph-name="nine" unicode="9" horiz-adv-x="1175" 
d="M547 651q83 0 147 27t148 96q0 226 -20 314t-50 116q-66 59 -216 59q-149 1 -202 -74t-53 -234q-1 -159 53 -231t193 -73zM1040 741q0 -207 -20 -337t-59 -215t-109 -132t-154 -64t-240 -17t-284 30l16 152q98 -6 295 -6t272 97t83 384q-72 -82 -151 -114t-197 -32
q-383 0 -383 461q-2 254 103 372t365 118t350 -110q74 -91 93 -235q20 -144 20 -352z" />
    <glyph glyph-name="colon" unicode=":" horiz-adv-x="495" 
d="M207 254h65q42 0 58 -15t16 -57v-108q0 -42 -16 -58t-58 -16h-65q-41 0 -56 16t-16 58v108q1 40 17 56t55 16zM207 905h65q42 0 58 -15t16 -56v-111q0 -41 -16 -56t-58 -16h-65q-39 1 -55 17t-17 55v111q1 39 17 55t55 16z" />
    <glyph glyph-name="semicolon" unicode=";" horiz-adv-x="497" 
d="M223 254h58q39 0 54 -15t15 -57v-131q-2 -182 -78 -325l-92 24q20 121 21 250q-55 0 -56 63l2 119q3 40 19 56t57 16zM219 905h64q41 0 57 -15t16 -56v-111q0 -41 -16 -56t-57 -16h-64q-41 -1 -57 15t-17 57v111q1 41 17 56t57 15z" />
    <glyph glyph-name="less" unicode="&#x3c;" horiz-adv-x="1081" 
d="M942 885l-668 -275l668 -268v-158l-838 348v156l838 354v-157z" />
    <glyph glyph-name="equal" unicode="=" horiz-adv-x="1198" 
d="M1051 311h-906v148h906v-148zM1051 743h-906v148h906v-148z" />
    <glyph glyph-name="greater" unicode="&#x3e;" horiz-adv-x="1081" 
d="M977 688v-156l-838 -348v158l668 268l-668 275v157z" />
    <glyph glyph-name="question" unicode="?" horiz-adv-x="1032" 
d="M473 254h49q42 0 58 -15t16 -57v-108q0 -42 -16 -58t-58 -16h-49q-41 0 -57 16t-17 58v108q1 40 17 56t57 16zM535 1458q418 0 417 -317q0 -153 -127 -282q-53 -54 -106 -110q-130 -137 -137 -313h-168q-2 104 30 192t79 145t97 109q119 124 122 221t-57 142t-225 45
t-372 -18l-10 143q25 4 76 13q170 30 381 30z" />
    <glyph glyph-name="at" unicode="@" horiz-adv-x="1480" 
d="M690 582v-43q0 -127 125 -127q86 0 179 34t157 93v159l-340 -8q-69 -2 -95 -26t-26 -82zM725 1204h297q156 0 236 -70t79 -231v-633h-147l-21 154q-63 -66 -171 -118t-226 -52t-192 64t-74 186v102q0 102 59 158t176 55h410v78q0 82 -36 113t-132 30h-256q-99 0 -151 -3
t-104 -20t-72 -45t-40 -88q-18 -60 -22 -136t-4 -188t2 -176q7 -211 76 -272q30 -28 56 -39q70 -30 331 -30h534v-147q-550 -31 -786 -14q-96 7 -176 36t-119 69t-66 123t-33 180q-7 97 -8 325t30 333q30 105 65 145q36 39 106 67t155 36t224 8z" />
    <glyph glyph-name="A" unicode="A" horiz-adv-x="1282" 
d="M866 604l-164 537q-6 18 -17 57t-17 57h-56l-32 -114l-166 -537h452zM537 1413h208q61 0 74 -55l445 -1358h-211l-131 426h-564l-131 -426h-209l443 1358q16 55 76 55z" />
    <glyph glyph-name="B" unicode="B" horiz-adv-x="1273" 
d="M952 396q0 146 -62 200q-62 55 -228 57h-289v-493l301 -2q162 0 220 46t58 192zM633 1255h-260v-444h286q147 0 204 46t57 178t-62 176t-225 44zM1116 1061q0 -154 -57 -233t-182 -91v-8q155 -14 219 -107t64 -288t-102 -273q-101 -78 -353 -77q-346 0 -533 16v1413
q166 17 452 17t388 -77q104 -77 104 -292z" />
    <glyph glyph-name="C" unicode="C" 
d="M680 1438q221 0 391 -41l-20 -158q-164 16 -365 16q-202 -1 -276 -119t-74 -429t75 -431t269 -118q260 0 399 22l21 -155q-170 -49 -420 -50q-309 0 -434 164q-125 163 -125 567t125 568t434 164z" />
    <glyph glyph-name="D" unicode="D" horiz-adv-x="1361" 
d="M682 160q194 0 268 119t74 428t-75 428t-267 118q-125 0 -305 -4v-1085q176 -4 305 -4zM682 1432q311 0 435 -158t124 -568t-124 -567q-124 -158 -435 -157q-242 0 -510 18v1413q268 19 510 19z" />
    <glyph glyph-name="E" unicode="E" horiz-adv-x="1150" 
d="M444 -4q-130 0 -206 69t-78 185v913q2 117 78 186t206 68q420 0 607 -16l-11 -160h-561q-61 0 -87 -30t-25 -101v-283h596v-165h-596v-361q-1 -71 25 -101t87 -30h561l11 -158q-186 -16 -607 -16z" />
    <glyph glyph-name="F" unicode="F" horiz-adv-x="1105" 
d="M504 1241q-72 0 -102 -30t-29 -101v-305h577v-166l-577 -2v-637h-205v1153q0 125 77 195t208 69q406 0 585 -18l-10 -158h-524z" />
    <glyph glyph-name="G" unicode="G" horiz-adv-x="1288" 
d="M1155 815v-815h-151l-21 141q-181 -168 -417 -168q-236 1 -340 179t-105 561q0 285 59 441q58 156 186 222q128 64 353 64t397 -43l-20 -156q-172 16 -314 16t-202 -11q-141 -26 -188 -140q-54 -131 -54 -422t62 -412t221 -120q91 0 167 32t166 92v539h201z" />
    <glyph glyph-name="H" unicode="H" horiz-adv-x="1372" 
d="M1200 1413v-1413h-205v666h-618v-666h-205v1413h205v-571h618v571h205z" />
    <glyph glyph-name="I" unicode="I" horiz-adv-x="548" 
d="M377 0h-205v1413h205v-1413z" />
    <glyph glyph-name="J" unicode="J" horiz-adv-x="702" 
d="M537 1413v-1104q0 -162 -72 -246q-72 -85 -200 -83t-208 28l23 148h100q152 0 152 143v1114h205z" />
    <glyph glyph-name="K" unicode="K" horiz-adv-x="1222" 
d="M377 0h-205v1413h205v-434q0 -88 -15 -160h160l416 594h223l-399 -577q-33 -47 -86 -99v-6q57 -49 98 -106l414 -625h-227l-437 653h-162q14 -86 15 -145v-508z" />
    <glyph glyph-name="L" unicode="L" horiz-adv-x="1054" 
d="M373 1413v-1110q1 -71 29 -101t100 -30h502l10 -158q-199 -18 -545 -18q-301 0 -301 278v1139h205z" />
    <glyph glyph-name="M" unicode="M" horiz-adv-x="1804" 
d="M1296 1413h224q80 0 84 -84l57 -1329h-205l-49 1243h-41l-287 -1005q-18 -70 -88 -70h-178q-72 0 -90 70l-289 1005h-39l-47 -1243h-203l54 1329q4 84 84 84h227q63 0 86 -70l240 -827q20 -74 47 -190h37q25 109 49 192l237 825q22 70 90 70z" />
    <glyph glyph-name="N" unicode="N" horiz-adv-x="1449" 
d="M1278 1413v-1333q0 -80 -76 -80h-194q-61 0 -88 63l-441 963q-74 160 -84 197h-28q10 -82 10 -197v-1026h-205v1333q0 80 78 80h188q59 0 90 -63l428 -938q8 -18 28 -60t38 -81q18 -38 33 -70h30q-10 123 -10 219v993h203z" />
    <glyph glyph-name="O" unicode="O" horiz-adv-x="1370" 
d="M684 1257q-200 -1 -274 -119t-74 -431t75 -433t273 -118q198 0 274 118t76 432t-76 432t-274 119zM121 707q0 413 125 573t439 160t439 -160t125 -574t-125 -573q-125 -160 -439 -160t-439 160t-125 574z" />
    <glyph glyph-name="P" unicode="P" horiz-adv-x="1212" 
d="M377 713h282q150 2 205 57t56 215q0 160 -56 215t-232 55q-178 0 -255 -2v-540zM638 1432q290 0 389 -94t99 -354q0 -259 -95 -353t-343 -94q-154 0 -311 18v-555h-205v1413q176 19 466 19z" />
    <glyph glyph-name="Q" unicode="Q" horiz-adv-x="1374" 
d="M545 -209l55 125q244 -94 559 -139l-65 -205q-262 55 -549 219zM686 1257q-200 -1 -274 -119t-74 -431t75 -433t273 -118q198 0 275 118q75 118 75 432t-75 433q-76 118 -275 118zM121 707q0 413 126 573t440 160t439 -160t125 -574t-125 -573q-125 -160 -439 -160
t-440 160t-126 574z" />
    <glyph glyph-name="R" unicode="R" horiz-adv-x="1269" 
d="M375 758h287q152 2 208 54t56 196t-56 196q-56 51 -237 51q-180 0 -258 -2v-495zM375 0h-203v1413q176 18 494 19q256 0 361 -88t106 -322q-1 -170 -61 -256t-200 -104v-11q137 -41 179 -205l133 -446h-219l-121 440q-45 141 -178 142l-291 2v-584z" />
    <glyph glyph-name="S" unicode="S" horiz-adv-x="1153" 
d="M632 1438q190 0 367 -43l-12 -150q-297 10 -431 10q-134 1 -187 -31t-53 -150t37 -162q38 -44 132 -68l281 -78q158 -43 222 -139t65 -262q-1 -233 -107 -311t-353 -79q-247 0 -466 41l14 152q319 -10 457 -9t192 40t54 158t-37 161t-131 66l-287 80q-153 41 -217 138
q-64 96 -64 240t26 219q47 135 230 165q78 12 268 12z" />
    <glyph glyph-name="T" unicode="T" horiz-adv-x="1196" 
d="M1149 1231h-449v-1231h-206v1231h-445v182h1100v-182z" />
    <glyph glyph-name="U" unicode="U" horiz-adv-x="1363" 
d="M1202 1413v-868q0 -311 -116 -441t-400 -131q-284 0 -404 130t-120 442v868h205v-868q-1 -217 69 -303t245 -86t246 86t70 303v868h205z" />
    <glyph glyph-name="V" unicode="V" horiz-adv-x="1253" 
d="M727 0h-201q-59 0 -77 57l-418 1356h211l319 -1100q10 -39 39 -155h55q12 59 39 155l318 1100h211l-418 -1356q-18 -57 -78 -57z" />
    <glyph glyph-name="W" unicode="W" horiz-adv-x="1947" 
d="M1536 0h-227q-66 0 -80 61l-205 1039q-20 106 -29 160h-43q-4 -18 -12 -70t-18 -90l-203 -1039q-4 -27 -28 -44t-52 -17h-229q-63 0 -78 59l-271 1354h218l202 -1077q6 -35 25 -180h47q10 88 31 180l202 1010q14 68 78 67h219q29 0 51 -19t27 -48l201 -1012
q16 -82 31 -178h47q4 29 12 88t14 88l203 1081h217l-270 -1354q-18 -59 -80 -59z" />
    <glyph glyph-name="X" unicode="X" horiz-adv-x="1259" 
d="M653 655h-49l-336 -655h-223l389 731l-362 682h221l309 -602h53l310 602h221l-363 -682l389 -731h-223z" />
    <glyph glyph-name="Y" unicode="Y" horiz-adv-x="1175" 
d="M690 0h-205v494l-467 919h218l284 -579q16 -35 62 -164h14q43 127 61 161l285 582h213l-465 -924v-489z" />
    <glyph glyph-name="Z" unicode="Z" horiz-adv-x="1163" 
d="M1067 174v-174h-969v174l729 1065h-718v174h944v-174l-729 -1065h743z" />
    <glyph glyph-name="bracketleft" unicode="[" horiz-adv-x="679" 
d="M598 1444h-199q-31 0 -30 -33v-1587q0 -33 30 -33h199v-129h-297q-119 0 -119 119v1673q0 53 34 86t85 33h297v-129z" />
    <glyph glyph-name="backslash" unicode="\" horiz-adv-x="1071" 
d="M1020 -137h-164l-805 1550h164z" />
    <glyph glyph-name="bracketright" unicode="]" horiz-adv-x="679" 
d="M82 1573h297q51 0 85 -33t34 -86v-1673q0 -51 -34 -85t-85 -34h-297v129h197q33 0 32 33v1587q0 33 -32 33h-197v129z" />
    <glyph glyph-name="asciicircum" unicode="^" horiz-adv-x="886" 
d="M825 803l-80 -49l-292 354h-17l-295 -354l-80 49l312 436h143z" />
    <glyph glyph-name="underscore" unicode="_" horiz-adv-x="1179" 
d="M1038 -150h-897v150h897v-150z" />
    <glyph glyph-name="grave" unicode="`" horiz-adv-x="659" 
d="M524 1188l-65 -92l-408 239l111 152z" />
    <glyph glyph-name="a" unicode="a" horiz-adv-x="1128" 
d="M301 342v-53q0 -74 35 -107t110 -32q180 0 338 141v178h-364q-66 -2 -92 -34t-27 -93zM612 1026q198 0 285 -74q86 -74 86 -256v-696h-156l-22 158q-172 -176 -399 -176q-139 0 -223 73q-83 74 -83 209v105q0 119 74 185t209 64h401v78q-2 92 -43 127t-155 35t-424 -24
l-19 145q271 47 469 47z" />
    <glyph glyph-name="b" unicode="b" horiz-adv-x="1173" 
d="M635 854q-70 0 -132 -33t-157 -106l2 -543q135 -35 268 -32t189 83q55 80 57 281q-2 202 -47 276t-180 74zM694 1026q198 0 285 -123q88 -123 88 -395t-99 -402q-100 -130 -360 -131q-260 0 -458 72v1387h198v-359q0 -137 -20 -227q168 178 366 178z" />
    <glyph glyph-name="c" unicode="c" horiz-adv-x="1005" 
d="M584 1026q201 0 331 -51l-26 -127q-154 10 -271 10q-172 0 -238 -76t-67 -282q0 -206 67 -283q66 -76 236 -76t297 23l19 -133q-152 -55 -348 -56q-262 0 -370 118t-108 407q0 290 108 408t370 118z" />
    <glyph glyph-name="d" unicode="d" horiz-adv-x="1177" 
d="M313 506q0 -207 48 -283t165 -76q76 0 134 27t165 98v533q-185 49 -299 49t-164 -70t-49 -278zM1024 1434v-1434h-156l-16 137q-188 -162 -382 -162q-194 1 -278 133t-84 408t93 392q92 118 284 118t349 -90q-8 88 -9 197v301h199z" />
    <glyph glyph-name="e" unicode="e" horiz-adv-x="1103" 
d="M570 858q-136 0 -194 -62t-65 -239h400q98 0 98 133q-2 92 -52 130t-187 38zM604 141q142 0 361 25l18 -131q-135 -59 -396 -59t-371 118q-110 119 -110 409q0 291 108 407t346 116t342 -84t106 -252q0 -287 -244 -287h-449q15 -156 81 -209t208 -53z" />
    <glyph glyph-name="f" unicode="f" horiz-adv-x="788" 
d="M602 1307q-92 0 -130 -35t-38 -121v-152h309v-153h-309v-846h-198v846h-181v143l181 10v175q0 145 69 220q70 74 245 74t271 -14l-16 -147h-203z" />
    <glyph glyph-name="g" unicode="g" horiz-adv-x="1148" 
d="M856 -99q0 83 -31 105t-139 37l-321 41q-95 -78 -95 -173t56 -124t236 -29q179 0 237 30q57 30 57 113zM554 535q140 0 196 37q55 38 55 134t-54 132q-55 36 -197 36t-198 -36q-55 -37 -55 -131t56 -134q57 -38 197 -38zM989 705q0 -170 -97 -245t-337 -75
q-113 0 -199 16q-34 -43 -18 -94t82 -61l368 -58q142 -20 202 -88t61 -196q-1 -178 -105 -246t-380 -68t-382 67t-106 241q0 82 37 132t123 97q-72 61 -64 159t78 152q-131 68 -131 254t96 260t340 74q152 0 240 -27h309l-10 -106l-142 -14q35 -63 35 -174z" />
    <glyph glyph-name="h" unicode="h" horiz-adv-x="1193" 
d="M776 1026q131 0 201 -71t70 -205v-750h-199v692q0 94 -28 130t-102 36t-158 -35q-83 -35 -208 -112v-711h-198v1434h198l2 -387q0 -121 -14 -195q237 174 436 174z" />
    <glyph glyph-name="i" unicode="i" horiz-adv-x="520" 
d="M358 0h-196v999h196v-999zM213 1425h94q57 0 58 -57v-115q0 -59 -58 -59h-94q-57 0 -57 59v115q0 57 57 57z" />
    <glyph glyph-name="j" unicode="j" horiz-adv-x="524" 
d="M362 999v-1009q0 -124 -54 -230t-148 -174l-111 86q115 145 115 318v1009h198zM217 1425h94q57 0 58 -57v-115q0 -59 -58 -59h-94q-59 0 -59 59v115q0 57 59 57z" />
    <glyph glyph-name="k" unicode="k" horiz-adv-x="1058" 
d="M352 336v-336h-198v1434h198l2 -629q0 -88 -12 -170h125l299 364h229l-301 -362q-27 -37 -73 -74v-4q39 -31 73 -86l334 -473h-229l-332 492h-125q10 -88 10 -156z" />
    <glyph glyph-name="l" unicode="l" horiz-adv-x="618" 
d="M483 162h92l23 -154q-59 -26 -183 -26t-192 68t-67 194v1190h198l-2 -1145q0 -127 131 -127z" />
    <glyph glyph-name="m" unicode="m" horiz-adv-x="1792" 
d="M1376 1026q131 0 200 -71t69 -205v-750h-195v692q-2 88 -35 127t-105 39t-134 -31q-61 -31 -181 -116v-711h-190v692q0 90 -35 128t-106 38t-133 -31t-181 -114v-713h-196v999h163l11 -151q206 178 406 178t249 -174q198 174 393 174z" />
    <glyph glyph-name="n" unicode="n" horiz-adv-x="1193" 
d="M776 1026q133 0 202 -71t69 -205v-750h-199v692q0 94 -28 130t-102 36t-155 -35q-80 -35 -213 -114l2 -709h-198v999h168l12 -151q237 178 442 178z" />
    <glyph glyph-name="o" unicode="o" horiz-adv-x="1167" 
d="M584 858q-156 0 -213 -76t-57 -284t56 -283q58 -76 214 -76t213 76t57 284q0 207 -57 283t-213 76zM584 1026q260 0 368 -121t109 -407q0 -286 -109 -406q-108 -119 -368 -119t-369 119t-109 406q0 288 109 408t369 120z" />
    <glyph glyph-name="p" unicode="p" horiz-adv-x="1196" 
d="M653 147q129 0 180 71q50 71 50 274q0 202 -46 282t-167 80t-320 -145v-508q217 -54 303 -54zM748 1026q340 0 339 -532q0 -283 -92 -401q-91 -118 -291 -118t-360 101q8 -102 6 -203v-281h-196v1407h163l15 -153q78 82 192 131t224 49z" />
    <glyph glyph-name="q" unicode="q" 
d="M311 502q0 -198 43 -277q43 -78 164 -78q78 0 144 30t163 95v555q-137 35 -271 31t-188 -81t-55 -275zM106 496q0 270 100 400t360 130q259 0 456 -74v-1360h-197l-2 328q0 121 17 209q-186 -156 -374 -156t-275 126q-85 127 -85 397z" />
    <glyph glyph-name="r" unicode="r" horiz-adv-x="827" 
d="M711 840q-74 0 -150 -26t-209 -89v-725h-198v999h153l21 -153q225 180 420 180h47l-23 -186h-61z" />
    <glyph glyph-name="s" unicode="s" horiz-adv-x="1042" 
d="M486 858q-106 0 -151 -17q-44 -17 -44 -93q0 -35 6 -57t35 -38t100 -37l283 -69q127 -33 180 -93t53 -188q0 -176 -97 -232t-321 -56t-413 28l14 148q115 -10 313 -10t254 23q57 24 58 99q0 33 -8 55q-15 42 -144 72l-278 70q-125 33 -176 97t-52 188q0 166 89 223
q91 57 319 54t414 -34l-17 -143q-311 10 -417 10z" />
    <glyph glyph-name="t" unicode="t" horiz-adv-x="794" 
d="M430 846v-557q0 -70 30 -99t101 -28h146l22 -154q-94 -26 -228 -26t-201 72t-67 208v584h-182v143l182 10v293h197v-293h309v-153h-309z" />
    <glyph glyph-name="u" unicode="u" 
d="M1018 999v-999h-158l-14 137q-223 -164 -426 -164q-272 0 -273 277v749h199v-692q-2 -92 31 -128t107 -36t149 31q74 31 188 102v723h197z" />
    <glyph glyph-name="v" unicode="v" horiz-adv-x="1093" 
d="M635 0h-178q-51 0 -68 49l-356 950h211l233 -688q7 -25 17 -53t21 -64t17 -55h27q8 25 29 83q20 58 30 89l232 688h211l-356 -950q-20 -49 -70 -49z" />
    <glyph glyph-name="w" unicode="w" horiz-adv-x="1691" 
d="M1288 0h-178q-61 0 -76 63l-145 658q-4 18 -11 60t-20 100h-24q-4 -27 -16 -80t-17 -80l-144 -658q-14 -63 -77 -63h-177q-61 0 -73 55l-283 944h205l192 -720q25 -102 31 -154h27q25 102 35 154l147 659q14 61 74 61h178q59 0 74 -63l145 -657q4 -20 35 -154h27
q14 92 30 154l193 720h205l-281 -944q-16 -55 -76 -55z" />
    <glyph glyph-name="x" unicode="x" horiz-adv-x="1091" 
d="M565 442h-39l-270 -442h-215l328 516l-303 483h213l243 -403h45l244 403h213l-301 -483l328 -516h-215z" />
    <glyph glyph-name="y" unicode="y" horiz-adv-x="1091" 
d="M457 0q-57 0 -70 51l-354 948h213l248 -727q25 -63 34 -122h29l287 849h213l-387 -1046q-139 -369 -459 -373l-21 131q117 35 185 96t108 156l15 37h-41z" />
    <glyph glyph-name="z" unicode="z" horiz-adv-x="1048" 
d="M950 162v-162h-852v162l625 676h-617v161h836v-161l-623 -676h631z" />
    <glyph glyph-name="braceleft" unicode="{" horiz-adv-x="661" 
d="M575 1448q-102 0 -140 -37t-38 -129v-354q2 -128 -37 -182t-151 -74q115 -35 155 -87t42 -161v-473q0 -92 38 -128t140 -36v-125q-369 -31 -369 275v518q0 39 -6 67t-58 56q-13 6 -61 24v139q80 25 98 47t19 109v401q-1 306 368 275v-125z" />
    <glyph glyph-name="bar" unicode="|" horiz-adv-x="509" 
d="M326 -346h-144v1945h144v-1945z" />
    <glyph glyph-name="braceright" unicode="}" horiz-adv-x="663" 
d="M88 1448v125q369 31 369 -275v-401q0 -88 18 -110t98 -46v-139q-85 -34 -105 -58t-19 -89v-518q0 -305 -369 -275v125q102 0 140 36t38 128v473q2 109 42 161t155 87q-113 20 -152 74t-37 182v354q0 92 -38 129t-140 37z" />
    <glyph glyph-name="asciitilde" unicode="~" horiz-adv-x="1071" 
d="M819 709h103q14 -125 -31 -192t-129 -61t-230 58q-146 53 -194 58q-49 5 -67 -20q-17 -26 -17 -91h-100q-16 129 30 195t123 63q78 -4 225 -57q146 -54 198 -60t71 19q18 25 18 88z" />
    <glyph glyph-name="uni00A0" unicode="&#xa0;" horiz-adv-x="454" 
 />
    <glyph glyph-name="exclamdown" unicode="&#xa1;" horiz-adv-x="534" 
d="M367 -397h-199v602l20 375h158l21 -375v-602zM244 1016h49q39 0 55 -16t17 -58v-111q-1 -41 -17 -56t-55 -15h-49q-41 0 -58 16q-16 16 -16 55v111q0 42 18 58t56 16z" />
    <glyph glyph-name="cent" unicode="&#xa2;" horiz-adv-x="1040" 
d="M301 724q0 -188 49 -267q49 -80 172 -95l60 709q-158 -7 -220 -83t-61 -264zM584 1239h16l16 174h103l-17 -180q131 -12 211 -43l-24 -133q-100 12 -203 12l-63 -713q163 1 288 21l19 -133q-141 -49 -322 -54l-20 -190h-101l19 193q-219 14 -310 134q-92 121 -92 399
t109 396t371 117z" />
    <glyph glyph-name="sterling" unicode="&#xa3;" horiz-adv-x="1169" 
d="M1067 176v-176h-944v176q176 82 158 371l-9 139h-159v115h153l-14 264q-12 232 94 307q55 39 124 52q165 31 552 -7l-12 -164q-156 6 -361 7q-119 0 -162 -41t-34 -158l16 -260h418l-6 -115h-406l8 -139q9 -141 -25 -226t-120 -155q47 10 139 10h590z" />
    <glyph glyph-name="currency" unicode="&#xa4;" horiz-adv-x="1212" 
d="M887 721q0 119 -83 203t-200 84t-201 -84t-84 -203t84 -204t201 -85t200 85t83 204zM606 315q-136 0 -239 78l-146 -145l-92 92l145 145q-74 105 -74 237t79 239l-144 145l86 86l144 -148q104 80 238 80t245 -80l147 148l84 -86l-147 -148q78 -106 78 -239t-78 -238
l149 -149l-88 -86l-149 149q-102 -80 -238 -80z" />
    <glyph glyph-name="yen" unicode="&#xa5;" horiz-adv-x="1271" 
d="M1096 668v-117h-344l-13 -23v-92h357v-117h-357v-319h-204v319h-347l-2 117h349v92l-13 23h-334l-4 117h277l-393 745h213l282 -553q30 -62 68 -162h14q6 12 29 72t35 90l282 553h213l-391 -745h283z" />
    <glyph glyph-name="brokenbar" unicode="&#xa6;" horiz-adv-x="514" 
d="M328 -346h-144v819h144v-819zM328 780h-144v819h144v-819z" />
    <glyph glyph-name="section" unicode="&#xa7;" horiz-adv-x="1116" 
d="M995 -48q1 -106 -27 -162t-87 -83q-98 -45 -297 -45q-262 4 -449 25l17 155q326 -21 424 -15q98 5 136 16q70 20 70 98q4 63 -28 103q-33 40 -97 77l-321 178q-145 77 -184 197t4 288h143q-11 -134 19 -206t126 -125l344 -197q104 -59 156 -129q52 -69 51 -175zM656 1272
q-136 0 -174 -2q-101 -5 -123 -36q-23 -30 -25 -82t31 -92q33 -38 100 -73l319 -180q146 -78 184 -200t-7 -288h-144q10 133 -19 207q-30 74 -124 127l-344 199q-106 61 -157 129q-50 68 -50 188q1 159 99 215t334 54t425 -23l-12 -155q-177 12 -313 12z" />
    <glyph glyph-name="dieresis" unicode="&#xa8;" horiz-adv-x="845" 
d="M573 1427h66q55 0 55 -55v-110q0 -55 -55 -56h-66q-53 0 -53 56v110q0 55 53 55zM211 1427h65q53 0 54 -55v-110q0 -55 -54 -56h-65q-53 0 -53 56v110q0 55 53 55z" />
    <glyph glyph-name="copyright" unicode="&#xa9;" horiz-adv-x="1703" 
d="M862 1157q162 0 277 -29l-17 -112q-117 8 -259 8t-194 -68q-53 -68 -53 -246t52 -245q52 -68 214 -68t263 13l14 -113q-123 -33 -319 -33t-287 100q-90 100 -90 347q0 246 90 346t309 100zM852 1335q-262 0 -445 -180t-183 -448q0 -269 182 -449q184 -180 446 -180
t445 180t183 448t-182 449q-184 180 -446 180zM852 1440q311 0 524 -208t213 -525t-213 -525t-524 -209q-311 0 -524 209q-213 208 -213 524t213 525t524 209z" />
    <glyph glyph-name="ordfeminine" unicode="&#xaa;" horiz-adv-x="903" 
d="M270 788v-30q0 -46 26 -66t81 -20q113 0 233 94v119l-243 -19q-97 -4 -97 -78zM502 1247q136 0 197 -52q60 -52 61 -175v-461h-119l-16 123q-129 -137 -295 -137q-92 0 -149 47q-56 47 -56 133v78q0 78 51 122t143 44h291v51q0 102 -123 102q-102 0 -315 -16l-16 111
q210 30 346 30z" />
    <glyph glyph-name="guillemotleft" unicode="&#xab;" horiz-adv-x="1005" 
d="M901 874l-250 -360l252 -367l-104 -69l-330 414v45l328 405zM520 874l-250 -360l252 -367l-104 -69l-330 414v45l328 405z" />
    <glyph glyph-name="logicalnot" unicode="&#xac;" horiz-adv-x="1208" 
d="M1051 684v-414h-150v265h-756v149h906z" />
    <glyph glyph-name="softhyphen" unicode="&#xad;" horiz-adv-x="903" 
d="M762 442h-621v152h621v-152z" />
    <glyph glyph-name="registered" unicode="&#xae;" horiz-adv-x="1122" 
d="M446 1004h132q70 2 96 20t24 68q2 53 -24 70q-27 17 -96 18h-132v-176zM580 938h-134v-213h-90v520q72 6 206 6q134 -1 180 -33q48 -32 49 -116q0 -117 -119 -131v-4q59 -8 80 -78l59 -164h-96l-53 160q-23 53 -82 53zM561 592q160 0 274 115q113 115 113 277t-114 274
q-114 114 -273 114t-273 -114t-114 -276t114 -276t273 -114zM560 1438q188 0 322 -133t134 -323t-133 -322q-133 -134 -323 -134t-322 133q-134 133 -134 323t134 322q134 134 322 134z" />
    <glyph glyph-name="macron" unicode="&#xaf;" horiz-adv-x="819" 
d="M698 1241h-577v145h577v-145z" />
    <glyph glyph-name="degree" unicode="&#xb0;" horiz-adv-x="735" 
d="M369 1321q-61 0 -103 -40t-41 -102q0 -61 41 -103q42 -42 102 -42t102 41t42 103t-41 103q-41 40 -102 40zM368 1440q110 0 190 -77t79 -185q0 -108 -80 -186q-79 -79 -189 -79t-189 79q-79 78 -79 186t79 185t189 77z" />
    <glyph glyph-name="plusminus" unicode="&#xb1;" horiz-adv-x="1200" 
d="M147 281h906v-148h-906v148zM1053 813v-147h-379v-269h-150v269h-377v147h377v268h152v-268h377z" />
    <glyph glyph-name="twosuperior" unicode="&#xb2;" horiz-adv-x="888" 
d="M436 1599q152 1 224 -39t73 -164q0 -124 -164 -282l-250 -244q49 6 138 7l311 -3l-2 -137h-645v86q0 41 24 66l252 244q162 156 168 251q2 52 -36 68t-145 16t-247 -14l-8 117q155 28 307 28z" />
    <glyph glyph-name="threesuperior" unicode="&#xb3;" horiz-adv-x="849" 
d="M434 1602q148 0 214 -43t67 -154q0 -193 -156 -215v-4q96 -12 136 -64t42 -149q4 -133 -67 -193q-72 -59 -222 -59t-331 22l8 115q133 -8 252 -8t161 31t42 101t-36 104t-134 34h-174v115l174 2q104 0 129 38q24 38 24 96t-37 80q-38 22 -162 22t-223 -7l-8 113
q153 23 301 23z" />
    <glyph glyph-name="acute" unicode="&#xb4;" horiz-adv-x="657" 
d="M584 1335l-408 -239l-65 92l362 299z" />
    <glyph glyph-name="paragraph" unicode="&#xb6;" horiz-adv-x="1214" 
d="M705 1438q190 0 315 -35v-1403h-148v1303q-127 8 -180 8v-1741h-147v842q-250 24 -360 142q-109 118 -109 384t144 384q144 116 485 116z" />
    <glyph glyph-name="periodcentered" unicode="&#xb7;" horiz-adv-x="495" 
d="M215 655h66q39 0 55 -16t16 -55v-111q0 -39 -16 -55t-55 -17h-66q-41 1 -57 17t-17 55v111q1 39 17 55t57 16z" />
    <glyph glyph-name="cedilla" unicode="&#xb8;" horiz-adv-x="483" 
d="M158 -178l20 92q135 12 190 -14q54 -27 52 -119q-2 -133 -102 -204t-252 -50l32 104q78 -2 128 35t53 98q1 32 -23 44t-98 14z" />
    <glyph glyph-name="onesuperior" unicode="&#xb9;" horiz-adv-x="606" 
d="M455 737h-154v627q0 55 6 84l-223 -57l-21 108l238 86h154v-848z" />
    <glyph glyph-name="ordmasculine" unicode="&#xba;" horiz-adv-x="907" 
d="M453 1124q-103 0 -143 -49t-40 -182t39 -180t145 -47t144 47q39 47 39 180t-40 182t-144 49zM454 1247q187 0 263 -80q76 -81 76 -275t-76 -272t-263 -77q-187 0 -264 78q-76 79 -76 273t77 274q76 80 263 79z" />
    <glyph glyph-name="guillemotright" unicode="&#xbb;" horiz-adv-x="1005" 
d="M918 537v-45l-330 -414l-105 69l252 367l-250 360l105 68zM537 537v-45l-328 -414l-107 69l252 367l-250 360l107 68z" />
    <glyph glyph-name="onequarter" unicode="&#xbc;" horiz-adv-x="1775" 
d="M1595 0h-145v193h-387q-57 1 -84 37t2 102l250 516h149l-239 -492q-8 -16 2 -29t33 -14h274v236l27 135h118v-371h99v-106l-99 -12v-195zM1327 1413l-903 -1413h-139l903 1413h139zM307 565v627q0 45 8 84l-225 -57l-18 108l235 86h154v-848h-154z" />
    <glyph glyph-name="onehalf" unicode="&#xbd;" horiz-adv-x="1822" 
d="M1392 862q152 0 226 -40t74 -162t-164 -283l-252 -244q51 6 137 6l311 -2v-137h-645v86q0 41 25 66l252 243q162 156 168 252q2 51 -36 67t-146 17q-108 0 -246 -14l-9 117q153 28 305 28zM410 0h-142l903 1413h140zM461 565h-154v627q0 45 8 84l-225 -57l-18 108l235 86
h154v-848z" />
    <glyph glyph-name="threequarters" unicode="&#xbe;" horiz-adv-x="1964" 
d="M1780 0h-146v193h-383q-57 1 -84 37t0 102l252 516h150l-240 -492q-8 -16 1 -29t32 -14h272v236l27 135h119v-371h102v-106l-102 -12v-195zM1534 1413l-903 -1413h-139l901 1413h141zM371 674q119 0 161 31t41 101q0 70 -35 104q-36 34 -135 34l-174 4v107l174 6
q66 -1 102 21t44 46t8 73q0 50 -37 73q-58 36 -385 16l-8 113q137 20 293 20t221 -42q66 -42 66 -144q0 -103 -34 -157t-120 -66v-4q96 -12 136 -64t42 -168q3 -233 -291 -233q-150 0 -329 22l8 115q133 -8 252 -8z" />
    <glyph glyph-name="questiondown" unicode="&#xbf;" horiz-adv-x="1024" 
d="M549 -264q146 0 393 18l10 -141q-42 -7 -84 -15t-78 -14t-59 -7t-74 -5t-161 -4q-418 0 -418 317q0 151 126 282q52 55 106 111t94 137q41 81 45 177h165q2 -104 -30 -192t-79 -147q-48 -57 -96 -109q-119 -127 -122 -223q-4 -95 56 -140t206 -45zM510 1026h49
q39 0 55 -15t17 -57v-110q1 -42 -15 -58t-57 -16h-49q-41 0 -57 16t-17 58v110q0 40 16 56t58 16z" />
    <glyph glyph-name="Agrave" unicode="&#xc0;" horiz-adv-x="1282" 
d="M868 604l-166 537q-2 8 -15 50t-17 64h-56q-18 -53 -34 -114l-164 -537h452zM537 1413h208q59 0 76 -55l445 -1358h-211l-131 426h-564l-131 -426h-211l445 1358q12 55 74 55zM682 1487l-408 239l111 152l363 -299z" />
    <glyph glyph-name="Aacute" unicode="&#xc1;" horiz-adv-x="1282" 
d="M868 604l-166 537q-2 8 -15 50t-17 64h-56q-18 -53 -34 -114l-164 -537h452zM537 1413h208q59 0 76 -55l445 -1358h-211l-131 426h-564l-131 -426h-211l445 1358q12 55 74 55zM567 1487l-65 92l362 299l111 -152z" />
    <glyph glyph-name="Acircumflex" unicode="&#xc2;" horiz-adv-x="1282" 
d="M868 604l-166 537q-2 8 -15 50t-17 64h-56q-18 -53 -34 -114l-164 -537h452zM537 1413h208q59 0 76 -55l445 -1358h-211l-131 426h-564l-131 -426h-211l445 1358q12 55 74 55zM369 1493l-66 84l266 264h146l268 -264l-68 -84l-266 197h-16z" />
    <glyph glyph-name="Atilde" unicode="&#xc3;" horiz-adv-x="1282" 
d="M868 604l-166 537q-2 8 -15 50t-17 64h-56q-18 -53 -34 -114l-164 -537h452zM537 1413h208q59 0 76 -55l445 -1358h-211l-131 426h-564l-131 -426h-211l445 1358q12 55 74 55zM403 1563h-90q-14 123 32 187t120 58t168 -54q178 -91 225 -39q20 24 21 83h90
q14 -119 -31 -182q-82 -115 -302 -1q-172 89 -213 37q-20 -26 -20 -89z" />
    <glyph glyph-name="Adieresis" unicode="&#xc4;" horiz-adv-x="1282" 
d="M868 604l-166 537q-2 8 -15 50t-17 64h-56q-18 -53 -34 -114l-164 -537h452zM537 1413h208q59 0 76 -55l445 -1358h-211l-131 426h-564l-131 -426h-211l445 1358q12 55 74 55zM856 1567h-65q-53 0 -54 55v111q0 55 54 55h65q55 0 55 -55v-111q0 -55 -55 -55zM494 1567
h-66q-53 0 -53 55v111q0 55 53 55h66q53 0 53 -55v-111q0 -55 -53 -55z" />
    <glyph glyph-name="Aring" unicode="&#xc5;" horiz-adv-x="1282" 
d="M868 604l-166 537q-2 8 -15 50t-17 64h-56q-18 -53 -34 -114l-164 -537h452zM537 1413h208q59 0 76 -55l445 -1358h-211l-131 426h-564l-131 -426h-211l445 1358q12 55 74 55zM642 1800q-50 0 -83 -33t-33 -87t33 -86t83 -32t83 32t33 85t-33 87t-83 34zM640 1462
q-93 0 -158 62t-64 155q0 92 65 156q66 63 158 63t158 -63q65 -63 65 -155t-66 -156q-66 -62 -158 -62z" />
    <glyph glyph-name="AE" unicode="&#xc6;" horiz-adv-x="1873" 
d="M922 612v518q0 41 18 83t43 63h-18q-57 -33 -111 -125l-303 -539h371zM1163 -4q-109 0 -175 72t-66 182v192h-467l-248 -442h-215l682 1182q74 135 176 184t307 49q397 0 615 -14l-9 -162h-518q-59 0 -95 -37t-36 -100v-273l569 -2v-165l-569 -3v-356q0 -71 31 -101
t100 -30h518l9 -160q-195 -16 -609 -16z" />
    <glyph glyph-name="Ccedilla" unicode="&#xc7;" 
d="M547 -203l20 92q135 12 190 -14q54 -27 52 -119q-2 -134 -102 -204t-252 -50l32 105q78 -2 128 35t53 98q2 33 -22 44t-99 13zM680 1438q223 0 393 -41l-22 -158q-164 16 -365 16q-202 -1 -276 -119t-74 -429t75 -431t269 -118q260 0 399 22l23 -155q-170 -49 -422 -50
q-309 0 -434 164q-125 163 -125 567t125 568t434 164z" />
    <glyph glyph-name="Egrave" unicode="&#xc8;" horiz-adv-x="1150" 
d="M444 -4q-130 0 -206 69t-78 185v913q2 117 78 186t206 68q420 0 607 -16l-9 -160h-563q-61 0 -87 -30t-25 -101v-283h596v-165h-596v-361q-1 -71 25 -101t87 -30h563l9 -158q-186 -16 -607 -16zM676 1528l-408 239l111 152l362 -299z" />
    <glyph glyph-name="Eacute" unicode="&#xc9;" horiz-adv-x="1150" 
d="M444 -4q-130 0 -206 69t-78 185v913q2 117 78 186t206 68q420 0 607 -16l-9 -160h-563q-61 0 -87 -30t-25 -101v-283h596v-165h-596v-361q-1 -71 25 -101t87 -30h563l9 -158q-186 -16 -607 -16zM559 1528l-65 92l362 299l111 -152z" />
    <glyph glyph-name="Ecircumflex" unicode="&#xca;" horiz-adv-x="1150" 
d="M444 -4q-130 0 -206 69t-78 185v913q2 117 78 186t206 68q420 0 607 -16l-9 -160h-563q-61 0 -87 -30t-25 -101v-283h596v-165h-596v-361q-1 -71 25 -101t87 -30h563l9 -158q-186 -16 -607 -16zM360 1534l-65 84l266 264h146l268 -264l-68 -84l-266 197h-16z" />
    <glyph glyph-name="Edieresis" unicode="&#xcb;" horiz-adv-x="1150" 
d="M444 -4q-130 0 -206 69t-78 185v913q2 117 78 186t206 68q420 0 607 -16l-9 -160h-563q-61 0 -87 -30t-25 -101v-283h596v-165h-596v-361q-1 -71 25 -101t87 -30h563l9 -158q-186 -16 -607 -16zM848 1608h-66q-53 0 -53 55v111q0 55 53 55h66q55 0 55 -55v-111
q0 -55 -55 -55zM485 1608h-65q-53 0 -53 55v111q0 55 53 55h65q53 0 54 -55v-111q-1 -55 -54 -55z" />
    <glyph glyph-name="Igrave" unicode="&#xcc;" horiz-adv-x="548" 
d="M377 0h-205v1413h205v-1413zM381 1579l-66 -92l-407 239l110 152z" />
    <glyph glyph-name="Iacute" unicode="&#xcd;" horiz-adv-x="548" 
d="M377 0h-205v1413h205v-1413zM606 1726l-407 -239l-66 92l363 299z" />
    <glyph glyph-name="Icircumflex" unicode="&#xce;" horiz-adv-x="548" 
d="M377 0h-205v1413h205v-1413zM614 1577l-67 -84l-266 197h-17l-264 -197l-66 84l267 264h145z" />
    <glyph glyph-name="Idieresis" unicode="&#xcf;" horiz-adv-x="548" 
d="M377 0h-205v1413h205v-1413zM422 1788h65q55 0 56 -55v-111q0 -55 -56 -55h-65q-53 0 -53 55v111q0 55 53 55zM59 1788h66q53 0 53 -55v-111q0 -55 -53 -55h-66q-53 0 -53 55v111q0 55 53 55z" />
    <glyph glyph-name="Eth" unicode="&#xd0;" horiz-adv-x="1372" 
d="M692 160q194 0 268 119t74 428t-75 428t-267 118q-123 0 -307 -4v-444h299v-113h-299v-528q176 -4 307 -4zM692 1432q309 0 433 -159t124 -567t-124 -566q-124 -159 -433 -158q-242 0 -510 18v692h-137v113h137v608q268 19 510 19z" />
    <glyph glyph-name="Ntilde" unicode="&#xd1;" horiz-adv-x="1449" 
d="M1278 1413v-1333q0 -80 -76 -80h-194q-61 0 -88 63l-441 963q-74 160 -84 197h-26q8 -88 8 -197v-1026h-205v1333q0 80 80 80h188q61 0 88 -63l428 -938q55 -111 99 -211h30q-10 123 -10 219v993h203zM502 1563h-90q-14 123 31 187q46 64 120 58t168 -54q179 -92 225 -39
q20 24 21 83h90q14 -119 -31 -182q-82 -115 -302 -1q-172 89 -213 37q-19 -26 -19 -89z" />
    <glyph glyph-name="Ograve" unicode="&#xd2;" horiz-adv-x="1370" 
d="M686 1257q-198 -1 -274 -119t-76 -431t76 -433t274 -118q198 0 274 118q74 118 74 432t-74 432t-274 119zM686 1440q315 0 440 -160t125 -574t-125 -573q-125 -160 -440 -160t-440 160t-125 574q0 413 125 573t440 160zM788 1579l-65 -92l-408 239l111 152z" />
    <glyph glyph-name="Oacute" unicode="&#xd3;" horiz-adv-x="1370" 
d="M686 1257q-198 -1 -274 -119t-76 -431t76 -433t274 -118q198 0 274 118q74 118 74 432t-74 432t-274 119zM686 1440q315 0 440 -160t125 -574t-125 -573q-125 -160 -440 -160t-440 160t-125 574q0 413 125 573t440 160zM1016 1726l-408 -239l-65 92l362 299z" />
    <glyph glyph-name="Ocircumflex" unicode="&#xd4;" horiz-adv-x="1370" 
d="M686 1257q-198 -1 -274 -119t-76 -431t76 -433t274 -118q198 0 274 118q74 118 74 432t-74 432t-274 119zM686 1440q315 0 440 -160t125 -574t-125 -573q-125 -160 -440 -160t-440 160t-125 574q0 413 125 573t440 160zM1024 1577l-68 -84l-266 197h-16l-264 -197l-66 84
l266 264h146z" />
    <glyph glyph-name="Otilde" unicode="&#xd5;" horiz-adv-x="1370" 
d="M686 1257q-198 -1 -274 -119t-76 -431t76 -433t274 -118q198 0 274 118q74 118 74 432t-74 432t-274 119zM686 1440q315 0 440 -160t125 -574t-125 -573q-125 -160 -440 -160t-440 160t-125 574q0 413 125 573t440 160zM388 1750q46 64 120 58t168 -54q178 -91 225 -39
q20 24 21 83h90q14 -119 -31 -182q-82 -115 -302 -1q-172 89 -213 37q-19 -26 -20 -89h-90q-14 123 32 187z" />
    <glyph glyph-name="Odieresis" unicode="&#xd6;" horiz-adv-x="1370" 
d="M686 1257q-198 -1 -274 -119t-76 -431t76 -433t274 -118q198 0 274 118q74 118 74 432t-74 432t-274 119zM686 1440q315 0 440 -160t125 -574t-125 -573q-125 -160 -440 -160t-440 160t-125 574q0 413 125 573t440 160zM831 1788h66q55 0 55 -55v-111q0 -55 -55 -55h-66
q-53 0 -53 55v111q0 55 53 55zM469 1788h66q53 0 53 -55v-111q0 -55 -53 -55h-66q-53 0 -53 55v111q0 55 53 55z" />
    <glyph glyph-name="multiply" unicode="&#xd7;" horiz-adv-x="991" 
d="M614 594l299 -270l-96 -117l-317 285l-316 -285l-98 117l301 270l-301 270l98 117l316 -285l317 285l96 -117z" />
    <glyph glyph-name="Oslash" unicode="&#xd8;" horiz-adv-x="1370" 
d="M686 156q200 0 274 118t74 441q0 322 -84 436l-448 -961q69 -34 184 -34zM336 704q0 -316 80 -434l446 955q-68 33 -176 32q-198 -1 -274 -119t-76 -434zM1251 707q0 -414 -125 -574t-440 -160q-158 0 -268 37l-62 -131l-104 43l65 141q-104 76 -150 230t-46 414
q0 413 125 573t440 160q158 0 260 -35l64 133l102 -41l-65 -141q109 -74 157 -230t47 -419z" />
    <glyph glyph-name="Ugrave" unicode="&#xd9;" horiz-adv-x="1363" 
d="M1202 1413v-868q0 -311 -116 -441t-400 -131q-284 0 -404 130t-120 442v868h205v-868q-1 -217 69 -303t245 -86t246 86t70 303v868h205zM791 1579l-66 -92l-408 239l111 152z" />
    <glyph glyph-name="Uacute" unicode="&#xda;" horiz-adv-x="1363" 
d="M1202 1413v-868q0 -311 -116 -441t-400 -131q-284 0 -404 130t-120 442v868h205v-868q-1 -217 69 -303t245 -86t246 86t70 303v868h205zM1016 1726l-408 -239l-65 92l362 299z" />
    <glyph glyph-name="Ucircumflex" unicode="&#xdb;" horiz-adv-x="1363" 
d="M1202 1413v-868q0 -311 -116 -441t-400 -131q-284 0 -404 130t-120 442v868h205v-868q-1 -217 69 -303t245 -86t246 86t70 303v868h205zM1024 1577l-68 -84l-266 197h-16l-264 -197l-66 84l266 264h146z" />
    <glyph glyph-name="Udieresis" unicode="&#xdc;" horiz-adv-x="1363" 
d="M1202 1413v-868q0 -311 -116 -441t-400 -131q-284 0 -404 130t-120 442v868h205v-868q-1 -217 69 -303t245 -86t246 86t70 303v868h205zM831 1788h66q55 0 55 -55v-111q0 -55 -55 -55h-66q-53 0 -53 55v111q0 55 53 55zM469 1788h66q53 0 53 -55v-111q0 -55 -53 -55h-66
q-53 0 -53 55v111q0 55 53 55z" />
    <glyph glyph-name="Yacute" unicode="&#xdd;" horiz-adv-x="1175" 
d="M690 0h-205v494l-467 919h218l284 -579q16 -35 62 -164h14q39 113 61 161l285 582h213l-465 -924v-489zM512 1487l-66 92l363 299l111 -152z" />
    <glyph glyph-name="Thorn" unicode="&#xde;" horiz-adv-x="1216" 
d="M377 438h282q152 2 206 58q55 56 55 219q0 164 -56 220t-232 56q-178 0 -255 -2v-551zM692 1167q236 0 335 -95t99 -358q0 -264 -95 -358t-343 -94q-170 0 -311 17v-279h-205v1413h205v-250q79 4 315 4z" />
    <glyph glyph-name="germandbls" unicode="&#xdf;" horiz-adv-x="1392" 
d="M1321 260q0 -166 -86 -224q-143 -96 -608 -36l12 150q125 -10 262 -10t182 24q45 23 45 106q0 31 -8 56t-64 59q-15 8 -61 31l-207 98q-166 80 -165 234q0 70 21 100q20 31 32 46t44 40t81 52q49 28 91 56t69 62q27 35 27 95t-57 90q-56 30 -220 30q-163 0 -221 -45
t-58 -180v-1094h-199v844h-180v153l180 2v117q0 221 112 293t365 72q253 -1 358 -61t106 -220q0 -82 -38 -147t-211 -168q-51 -29 -67 -41q-48 -35 -47 -85q1 -49 29 -73t104 -61l203 -97q96 -47 135 -104t39 -164z" />
    <glyph glyph-name="agrave" unicode="&#xe0;" horiz-adv-x="1128" 
d="M301 342v-53q0 -74 35 -107t110 -32q178 0 338 139v180h-362q-66 -2 -94 -35t-27 -92zM610 1026q200 0 287 -74q86 -74 86 -256v-696h-156l-22 158q-172 -176 -399 -176q-137 0 -222 74q-84 75 -84 208v105q0 119 75 185t210 64h399v78q-2 92 -43 127t-157 35t-422 -24
l-19 145q267 47 467 47zM592 1120l-408 240l111 151l362 -299z" />
    <glyph glyph-name="aacute" unicode="&#xe1;" horiz-adv-x="1128" 
d="M301 342v-53q0 -74 35 -107t110 -32q178 0 338 139v180h-362q-66 -2 -94 -35t-27 -92zM610 1026q200 0 287 -74q86 -74 86 -256v-696h-156l-22 158q-172 -176 -399 -176q-137 0 -222 74q-84 75 -84 208v105q0 119 75 185t210 64h399v78q-2 92 -43 127t-157 35t-422 -24
l-19 145q267 47 467 47zM477 1120l-65 92l362 299l111 -151z" />
    <glyph glyph-name="acircumflex" unicode="&#xe2;" horiz-adv-x="1128" 
d="M301 342v-53q0 -74 35 -107t110 -32q178 0 338 139v180h-362q-66 -2 -94 -35t-27 -92zM610 1026q200 0 287 -74q86 -74 86 -256v-696h-156l-22 158q-172 -176 -399 -176q-137 0 -222 74q-84 75 -84 208v105q0 119 75 185t210 64h399v78q-2 92 -43 127t-157 35t-422 -24
l-19 145q267 47 467 47zM279 1126l-66 84l266 265h146l268 -265l-68 -84l-266 197h-16z" />
    <glyph glyph-name="atilde" unicode="&#xe3;" horiz-adv-x="1128" 
d="M301 342v-53q0 -74 35 -107t110 -32q178 0 338 139v180h-362q-66 -2 -94 -35t-27 -92zM610 1026q200 0 287 -74q86 -74 86 -256v-696h-156l-22 158q-172 -176 -399 -176q-137 0 -222 74q-84 75 -84 208v105q0 119 75 185t210 64h399v78q-2 92 -43 127t-157 35t-422 -24
l-19 145q267 47 467 47zM313 1194h-90q-14 124 32 188t120 58t168 -54q178 -92 225 -39q20 24 20 83h91q14 -118 -31 -182t-125 -58t-177 56t-145 56t-68 -19q-20 -26 -20 -89z" />
    <glyph glyph-name="adieresis" unicode="&#xe4;" horiz-adv-x="1128" 
d="M301 342v-53q0 -74 35 -107t110 -32q178 0 338 139v180h-362q-66 -2 -94 -35t-27 -92zM610 1026q200 0 287 -74q86 -74 86 -256v-696h-156l-22 158q-172 -176 -399 -176q-137 0 -222 74q-84 75 -84 208v105q0 119 75 185t210 64h399v78q-2 92 -43 127t-157 35t-422 -24
l-19 145q267 47 467 47zM766 1200h-66q-53 0 -53 55v111q0 55 53 55h66q55 0 55 -55v-111q0 -55 -55 -55zM403 1200h-65q-53 0 -53 55v111q0 55 53 55h65q53 0 54 -55v-111q-1 -55 -54 -55z" />
    <glyph glyph-name="aring" unicode="&#xe5;" horiz-adv-x="1128" 
d="M301 342v-53q0 -74 35 -107t110 -32q178 0 338 139v180h-362q-66 -2 -94 -35t-27 -92zM610 1026q200 0 287 -74q86 -74 86 -256v-696h-156l-22 158q-172 -176 -399 -176q-137 0 -222 74q-84 75 -84 208v105q0 119 75 185t210 64h399v78q-2 92 -43 127t-157 35t-422 -24
l-19 145q267 47 467 47zM553 1432q-49 0 -82 -33t-33 -87t33 -86t83 -32t83 32t33 85t-34 87t-83 34zM552 1094q-93 0 -158 62q-64 62 -64 154t65 156q66 64 158 64t158 -64q65 -64 65 -155q0 -92 -65 -155q-66 -62 -159 -62z" />
    <glyph glyph-name="ae" unicode="&#xe6;" horiz-adv-x="1781" 
d="M301 289q1 -75 35 -107t111 -32t173 38t179 113q-12 61 -17 168h-362q-66 -2 -92 -34t-27 -93v-53zM1245 858q-137 0 -194 -62t-62 -239h387q109 0 109 133q0 90 -51 129q-52 39 -189 39zM1284 141q144 0 356 25l19 -131q-133 -59 -393 -60q-174 1 -278 51t-154 160
q-66 -78 -179 -141t-251 -63t-221 73q-83 74 -83 209v105q0 119 74 185t209 64h401v78q0 92 -42 127t-156 35t-424 -24l-19 145q271 47 481 47t291 -92q107 92 333 92t330 -84t105 -252q4 -287 -251 -287h-439q15 -156 81 -209t210 -53z" />
    <glyph glyph-name="ccedilla" unicode="&#xe7;" horiz-adv-x="1005" 
d="M453 -203l20 92q135 12 190 -14q54 -27 52 -119q-3 -134 -103 -204t-252 -50l33 105q78 -2 128 35t52 98q2 33 -22 44t-98 13zM586 1026q199 0 329 -51l-24 -127q-158 10 -273 10q-172 0 -238 -76t-65 -282q0 -206 66 -283q65 -76 235 -76t297 23l19 -133
q-152 -55 -348 -56q-262 0 -370 118t-108 408q0 289 109 407t371 118z" />
    <glyph glyph-name="egrave" unicode="&#xe8;" horiz-adv-x="1103" 
d="M570 858q-136 0 -194 -62t-63 -239h398q98 0 98 133q0 92 -51 130t-188 38zM606 141q144 0 359 25l18 -131q-133 -59 -395 -59t-372 118q-110 119 -110 409q0 291 108 407t346 116t342 -84t106 -236q3 -303 -242 -303h-449q13 -156 79 -209t210 -53zM614 1120l-407 240
l110 151l363 -299z" />
    <glyph glyph-name="eacute" unicode="&#xe9;" horiz-adv-x="1103" 
d="M570 858q-136 0 -194 -62t-63 -239h398q98 0 98 133q0 92 -51 130t-188 38zM606 141q144 0 359 25l18 -131q-133 -59 -395 -59t-372 118q-110 119 -110 409q0 291 108 407t346 116t342 -84t106 -236q3 -303 -242 -303h-449q13 -156 79 -209t210 -53zM500 1120l-66 92
l363 299l110 -151z" />
    <glyph glyph-name="ecircumflex" unicode="&#xea;" horiz-adv-x="1103" 
d="M570 858q-136 0 -194 -62t-63 -239h398q98 0 98 133q0 92 -51 130t-188 38zM606 141q144 0 359 25l18 -131q-133 -59 -395 -59t-372 118q-110 119 -110 409q0 291 108 407t346 116t342 -84t106 -236q3 -303 -242 -303h-449q13 -156 79 -209t210 -53zM301 1126l-65 84
l266 265h145l268 -265l-67 -84l-266 197h-17z" />
    <glyph glyph-name="edieresis" unicode="&#xeb;" horiz-adv-x="1103" 
d="M570 858q-136 0 -194 -62t-63 -239h398q98 0 98 133q0 92 -51 130t-188 38zM606 141q144 0 359 25l18 -131q-133 -59 -395 -59t-372 118q-110 119 -110 409q0 291 108 407t346 116t342 -84t106 -236q3 -303 -242 -303h-449q13 -156 79 -209t210 -53zM788 1200h-65
q-53 0 -53 55v111q0 55 53 55h65q55 0 56 -55v-111q-1 -55 -56 -55zM426 1200h-66q-53 0 -53 55v111q0 55 53 55h66q53 0 53 -55v-111q0 -55 -53 -55z" />
    <glyph glyph-name="igrave" unicode="&#xec;" horiz-adv-x="522" 
d="M360 0h-198v999h198v-999zM369 1212l-66 -92l-407 240l110 151z" />
    <glyph glyph-name="iacute" unicode="&#xed;" horiz-adv-x="522" 
d="M360 0h-198v999h198v-999zM594 1360l-408 -240l-65 92l362 299z" />
    <glyph glyph-name="icircumflex" unicode="&#xee;" horiz-adv-x="522" 
d="M360 0h-198v999h198v-999zM602 1210l-67 -84l-267 197h-16l-264 -197l-66 84l266 265h146z" />
    <glyph glyph-name="idieresis" unicode="&#xef;" horiz-adv-x="522" 
d="M360 0h-198v999h198v-999zM410 1421h65q55 0 55 -55v-111q0 -55 -55 -55h-65q-53 0 -54 55v111q1 55 54 55zM47 1421h66q53 0 53 -55v-111q0 -55 -53 -55h-66q-53 0 -53 55v111q0 55 53 55z" />
    <glyph glyph-name="eth" unicode="&#xf0;" horiz-adv-x="1148" 
d="M578 139q146 -1 193 103q48 104 48 348q0 45 -4 123q-111 39 -250 39t-194 -75t-55 -237t58 -231q58 -70 204 -70zM1026 580q0 -301 -99 -454t-349 -153t-360 114q-110 113 -110 355t98 360q97 118 322 118q152 0 269 -68q-41 205 -152 313l-153 -121l-70 86l129 103
q-123 59 -307 53l22 144q242 12 420 -91l158 125l71 -90l-133 -102q244 -217 244 -692z" />
    <glyph glyph-name="ntilde" unicode="&#xf1;" horiz-adv-x="1193" 
d="M776 1026q133 0 202 -71t69 -205v-750h-199v692q0 94 -28 130t-102 36t-155 -35q-80 -35 -213 -114l2 -709h-198v999h168l12 -151q237 178 442 178zM373 1194h-90q-15 124 31 188t120 58t168 -54t150 -56q56 -7 75 17q20 24 21 83h90q14 -118 -31 -182q-82 -115 -302 -2
q-173 89 -213 37q-19 -26 -19 -89z" />
    <glyph glyph-name="ograve" unicode="&#xf2;" horiz-adv-x="1167" 
d="M584 858q-156 0 -213 -76t-57 -284t56 -283q58 -76 213 -76t213 76t58 284q0 207 -57 283t-213 76zM586 1026q260 0 368 -121t107 -407q0 -286 -108 -406q-109 -119 -369 -119t-369 120t-109 406q0 287 110 407t370 120zM688 1212l-65 -92l-408 240l111 151z" />
    <glyph glyph-name="oacute" unicode="&#xf3;" horiz-adv-x="1167" 
d="M584 858q-156 0 -213 -76t-57 -284t56 -283q58 -76 213 -76t213 76t58 284q0 207 -57 283t-213 76zM586 1026q260 0 368 -121t107 -407q0 -286 -108 -406q-109 -119 -369 -119t-369 120t-109 406q0 287 110 407t370 120zM913 1360l-407 -240l-66 92l363 299z" />
    <glyph glyph-name="ocircumflex" unicode="&#xf4;" horiz-adv-x="1167" 
d="M584 858q-156 0 -213 -76t-57 -284t56 -283q58 -76 213 -76t213 76t58 284q0 207 -57 283t-213 76zM586 1026q260 0 368 -121t107 -407q0 -286 -108 -406q-109 -119 -369 -119t-369 120t-109 406q0 287 110 407t370 120zM922 1210l-68 -84l-266 197h-17l-264 -197l-65 84
l266 265h145z" />
    <glyph glyph-name="otilde" unicode="&#xf5;" horiz-adv-x="1167" 
d="M584 858q-156 0 -213 -76t-57 -284t56 -283q58 -76 213 -76t213 76t58 284q0 207 -57 283t-213 76zM586 1026q260 0 368 -121t107 -407q0 -286 -108 -406q-109 -119 -369 -119t-369 120t-109 406q0 287 110 407t370 120zM819 1430h90q14 -119 -30 -183q-82 -115 -302 -1
q-174 90 -213 37q-19 -26 -20 -89h-90q-14 124 32 188t120 58t168 -54q178 -92 225 -39q20 24 20 83z" />
    <glyph glyph-name="odieresis" unicode="&#xf6;" horiz-adv-x="1167" 
d="M584 858q-156 0 -213 -76t-57 -284t56 -283q58 -76 213 -76t213 76t58 284q0 207 -57 283t-213 76zM586 1026q260 0 368 -121t107 -407q0 -286 -108 -406q-109 -119 -369 -119t-369 120t-109 406q0 287 110 407t370 120zM729 1421h66q55 0 55 -55v-111q0 -55 -55 -55h-66
q-53 0 -53 55v111q0 55 53 55zM367 1421h65q53 0 53 -55v-111q0 -55 -53 -55h-65q-53 0 -54 55v111q1 55 54 55z" />
    <glyph glyph-name="divide" unicode="&#xf7;" horiz-adv-x="1161" 
d="M553 360h51q41 0 56 -16t16 -57v-92q0 -41 -16 -57t-56 -15h-51q-41 0 -56 15t-16 57v92q-1 41 15 57t57 16zM1034 530h-907v148h907v-148zM553 1083h51q41 0 56 -16t16 -57v-95q0 -39 -16 -54t-56 -15h-51q-41 0 -56 14t-16 55v95q-1 41 15 57t57 16z" />
    <glyph glyph-name="oslash" unicode="&#xf8;" horiz-adv-x="1167" 
d="M584 139q154 0 212 76q58 75 58 297t-80 293l-303 -653q47 -13 113 -13zM584 858q-156 0 -214 -76t-57 -293q0 -218 72 -290l301 649q-35 10 -102 10zM1061 498q0 -287 -108 -406t-367 -119q-109 0 -189 19l-71 -152l-88 43l65 144q-102 51 -149 166t-48 305
q0 288 110 408t370 120q94 0 176 -16l67 145l89 -43l-62 -133q109 -53 157 -169t48 -312z" />
    <glyph glyph-name="ugrave" unicode="&#xf9;" 
d="M1018 999v-999h-158l-14 137q-219 -164 -426 -164q-272 0 -273 277v749h199v-692q-2 -92 31 -128t112 -36q119 0 332 133v723h197zM631 1128l-408 240l111 152l362 -299z" />
    <glyph glyph-name="uacute" unicode="&#xfa;" 
d="M1018 999v-999h-158l-14 137q-219 -164 -426 -164q-272 0 -273 277v749h199v-692q-2 -92 31 -128t112 -36q119 0 332 133v723h197zM516 1128l-65 93l362 299l111 -152z" />
    <glyph glyph-name="ucircumflex" unicode="&#xfb;" 
d="M1018 999v-999h-158l-14 137q-219 -164 -426 -164q-272 0 -273 277v749h199v-692q-2 -92 31 -128t112 -36q119 0 332 133v723h197zM317 1135l-65 84l266 264h146l268 -264l-68 -84l-266 196h-16z" />
    <glyph glyph-name="udieresis" unicode="&#xfc;" 
d="M1018 999v-999h-158l-14 137q-219 -164 -426 -164q-272 0 -273 277v749h199v-692q-2 -92 31 -128t112 -36q119 0 332 133v723h197zM805 1208h-66q-53 0 -53 56v110q0 55 53 56h66q55 0 55 -56v-110q0 -56 -55 -56zM442 1208h-65q-53 0 -53 56v110q0 55 53 56h65
q53 0 54 -56v-110q-1 -56 -54 -56z" />
    <glyph glyph-name="yacute" unicode="&#xfd;" horiz-adv-x="1091" 
d="M457 0q-57 0 -70 51l-354 948h211l250 -727q25 -63 34 -122h29l287 849h213l-389 -1046q-135 -369 -459 -373l-19 131q117 35 185 96t108 156l15 37h-41zM475 1120l-65 92l362 299l111 -151z" />
    <glyph glyph-name="thorn" unicode="&#xfe;" horiz-adv-x="1179" 
d="M650 137q114 0 164 77t50 282q0 204 -50 282t-168 78t-294 -129v-522q184 -68 298 -68zM708 1024q196 0 278 -126t83 -410q0 -284 -86 -399q-87 -116 -279 -116t-358 86q6 -94 6 -186v-281h-198v1842h198v-334q0 -119 -8 -211q168 135 364 135z" />
    <glyph glyph-name="ydieresis" unicode="&#xff;" horiz-adv-x="1091" 
d="M457 0q-57 0 -70 51l-354 948h211l250 -727q25 -63 34 -122h29l287 849h213l-389 -1046q-135 -369 -459 -373l-19 131q117 35 185 96t108 156l15 37h-41zM764 1200h-66q-53 0 -53 55v111q0 55 53 55h66q55 0 55 -55v-111q0 -55 -55 -55zM401 1200h-65q-53 0 -53 55v111
q0 55 53 55h65q53 0 54 -55v-111q-1 -55 -54 -55z" />
    <glyph glyph-name="Amacron" unicode="&#x100;" horiz-adv-x="1282" 
d="M868 604l-166 537q-2 8 -15 50t-17 64h-56q-18 -53 -34 -114l-164 -537h452zM537 1413h208q59 0 76 -55l445 -1358h-211l-131 426h-564l-131 -426h-211l445 1358q12 55 74 55zM930 1602h-578v145h578v-145z" />
    <glyph glyph-name="amacron" unicode="&#x101;" horiz-adv-x="1128" 
d="M301 342v-53q0 -74 35 -107t110 -32q178 0 338 139v180h-362q-66 -2 -94 -35t-27 -92zM610 1026q200 0 287 -74q86 -74 86 -256v-696h-156l-22 158q-172 -176 -399 -176q-137 0 -222 74q-84 75 -84 208v105q0 119 75 185t210 64h399v78q-2 92 -43 127t-157 35t-422 -24
l-19 145q267 47 467 47zM842 1235h-578v145h578v-145z" />
    <glyph glyph-name="Abreve" unicode="&#x102;" horiz-adv-x="1282" 
d="M868 604l-166 537q-2 8 -15 50t-17 64h-56q-18 -53 -34 -114l-164 -537h452zM537 1413h208q59 0 76 -55l445 -1358h-211l-131 426h-564l-131 -426h-211l445 1358q12 55 74 55zM641 1524q-152 0 -238 77t-75 199l100 15q-2 -70 53 -108t159 -38t159 38t53 108l100 -15
q10 -124 -74 -200t-237 -76z" />
    <glyph glyph-name="abreve" unicode="&#x103;" horiz-adv-x="1128" 
d="M301 342v-53q0 -74 35 -107t110 -32q178 0 338 139v180h-362q-66 -2 -94 -35t-27 -92zM610 1026q200 0 287 -74q86 -74 86 -256v-696h-156l-22 158q-172 -176 -399 -176q-137 0 -222 74q-84 75 -84 208v105q0 119 75 185t210 64h399v78q-2 92 -43 127t-157 35t-422 -24
l-19 145q267 47 467 47zM551 1155q-152 0 -238 77t-75 200l100 14q-2 -70 53 -108t159 -38t159 38t53 108l100 -14q10 -123 -74 -200t-237 -77z" />
    <glyph glyph-name="Aogonek" unicode="&#x104;" horiz-adv-x="1282" 
d="M868 604l-166 537q-2 8 -15 50t-17 64h-56q-18 -53 -34 -114l-164 -537h452zM537 1413h208q59 0 76 -55l445 -1358h-2q-106 -125 -146 -227q-30 -69 16 -93t138 7l24 -82q-159 -63 -240 -33q-38 14 -64 42q-41 44 -11 148q41 121 190 238h-116l-131 426h-564l-131 -426
h-211l445 1358q12 55 74 55z" />
    <glyph glyph-name="aogonek" unicode="&#x105;" horiz-adv-x="1128" 
d="M301 342v-53q0 -74 35 -107t110 -32q178 0 338 139v180h-362q-66 -2 -94 -35t-27 -92zM406 -18q-137 0 -222 74q-84 75 -84 208v105q0 119 75 185t210 64h399v78q-2 92 -43 127t-157 35t-422 -24l-19 145q266 47 467 47t287 -74t86 -256v-696q-106 -125 -145 -227
q-31 -69 15 -93t138 7l25 -82q-218 -87 -304 9q-42 45 -12 148q41 121 191 238h-64l-22 158q-172 -176 -399 -176z" />
    <glyph glyph-name="Cacute" unicode="&#x106;" 
d="M680 1438q223 0 393 -41l-22 -158q-164 16 -365 16q-202 -1 -276 -119t-74 -429t75 -431t269 -118q260 0 399 22l23 -155q-170 -49 -422 -50q-309 0 -434 164q-125 163 -125 567t125 568t434 164zM987 1726l-407 -239l-66 92l363 299z" />
    <glyph glyph-name="cacute" unicode="&#x107;" horiz-adv-x="1005" 
d="M586 1026q199 0 329 -51l-24 -127q-158 10 -273 10q-172 0 -238 -76t-65 -282q0 -206 66 -283q65 -76 235 -76t297 23l19 -133q-152 -55 -348 -56q-262 0 -370 118t-108 408q0 289 109 407t371 118zM879 1360l-408 -240l-65 92l362 299z" />
    <glyph glyph-name="Cdotaccent" unicode="&#x10a;" 
d="M680 1438q223 0 393 -41l-22 -158q-164 16 -365 16q-202 -1 -276 -119t-74 -429t75 -431t269 -118q260 0 399 22l23 -155q-170 -49 -422 -50q-309 0 -434 164q-125 163 -125 567t125 568t434 164zM625 1778h63q59 0 60 -58v-114q0 -59 -60 -60h-63q-57 0 -58 60v114
q1 58 58 58z" />
    <glyph glyph-name="cdotaccent" unicode="&#x10b;" horiz-adv-x="1005" 
d="M586 1026q199 0 329 -51l-24 -127q-158 10 -273 10q-172 0 -238 -76t-65 -282q0 -206 66 -283q65 -76 235 -76t297 23l19 -133q-152 -55 -348 -56q-262 0 -370 118t-108 408q0 289 109 407t371 118zM514 1411h64q59 0 59 -57v-115q0 -59 -59 -59h-64q-57 0 -57 59v115
q0 57 57 57z" />
    <glyph glyph-name="Ccaron" unicode="&#x10c;" 
d="M680 1438q223 0 393 -41l-22 -158q-164 16 -365 16q-202 -1 -276 -119t-74 -429t75 -431t269 -118q260 0 399 22l23 -155q-170 -49 -422 -50q-309 0 -434 164q-125 163 -125 567t125 568t434 164zM999 1786l-297 -264h-90l-295 264l68 84l264 -172h17l266 172z" />
    <glyph glyph-name="ccaron" unicode="&#x10d;" horiz-adv-x="1005" 
d="M586 1026q199 0 329 -51l-24 -127q-158 10 -273 10q-172 0 -238 -76t-65 -282q0 -206 66 -283q65 -76 235 -76t297 23l19 -133q-152 -55 -348 -56q-262 0 -370 118t-108 408q0 289 109 407t371 118zM889 1419l-297 -264h-90l-295 264l67 84l265 -172h16l266 172z" />
    <glyph glyph-name="Dcaron" unicode="&#x10e;" horiz-adv-x="1361" 
d="M682 160q196 0 270 119t74 428t-75 428t-269 118q-125 0 -305 -4v-1085q176 -4 305 -4zM682 1432q311 0 435 -158t124 -568t-124 -567q-124 -158 -435 -157q-242 0 -510 18v1413q268 19 510 19zM606 1522l-295 264l68 84l264 -172h16l267 172l67 -84l-297 -264h-90z" />
    <glyph glyph-name="dcaron" unicode="&#x10f;" horiz-adv-x="1177" 
d="M313 506q0 -207 48 -283t165 -76q76 0 134 26t165 99v533q-187 49 -299 49t-162 -70t-51 -278zM825 1434h199v-1434h-156l-16 137q-188 -162 -382 -162q-194 1 -278 133t-84 408t93 392q92 118 285 118t348 -90q-8 88 -9 197v301zM1253 1440q35 0 49 -12t13 -44l2 -102
q-2 -137 -70 -252l-86 21q20 94 21 192q-51 0 -52 49v92q2 31 18 43t52 13h53z" />
    <glyph glyph-name="Dcroat" unicode="&#x110;" horiz-adv-x="1372" 
d="M692 160q194 0 268 119t74 428t-75 428t-267 118q-123 0 -307 -4v-444h299v-113h-299v-528q176 -4 307 -4zM692 1432q309 0 433 -159t124 -567t-124 -566q-124 -159 -433 -158q-242 0 -510 18v692h-137v113h137v608q268 19 510 19z" />
    <glyph glyph-name="dcroat" unicode="&#x111;" horiz-adv-x="1167" 
d="M313 506q0 -207 48 -283t165 -76q76 0 134 26t165 99v533q-187 49 -299 49t-162 -70t-51 -278zM1159 1167h-135v-1167h-156l-16 137q-188 -162 -382 -162q-194 1 -278 133t-84 408t93 392q92 118 285 118t348 -90q-8 88 -9 197v34h-305v113h305v154h199v-154h135v-113z
" />
    <glyph glyph-name="Emacron" unicode="&#x112;" horiz-adv-x="1150" 
d="M444 -4q-130 0 -206 69t-78 185v913q2 117 78 186t206 68q420 0 607 -16l-9 -160h-563q-61 0 -87 -30t-25 -101v-283h596v-165h-596v-361q-1 -71 25 -101t87 -30h563l9 -158q-186 -16 -607 -16zM924 1642h-578v146h578v-146z" />
    <glyph glyph-name="emacron" unicode="&#x113;" horiz-adv-x="1103" 
d="M570 858q-136 0 -194 -62t-63 -239h398q98 0 98 133q0 92 -51 130t-188 38zM606 141q144 0 359 25l18 -131q-133 -59 -395 -59t-372 118q-110 119 -110 409q0 291 108 407t346 116t342 -84t106 -236q3 -303 -242 -303h-449q13 -156 79 -209t210 -53zM862 1235h-577v145
h577v-145z" />
    <glyph glyph-name="Edotaccent" unicode="&#x116;" horiz-adv-x="1150" 
d="M444 -4q-130 0 -206 69t-78 185v913q2 117 78 186t206 68q420 0 607 -16l-9 -160h-563q-61 0 -87 -30t-25 -101v-283h596v-165h-596v-361q-1 -71 25 -101t87 -30h563l9 -158q-186 -16 -607 -16zM666 1587h-64q-57 0 -57 60v114q0 57 57 58h64q59 0 59 -58v-114
q0 -60 -59 -60z" />
    <glyph glyph-name="edotaccent" unicode="&#x117;" horiz-adv-x="1103" 
d="M570 858q-136 0 -194 -62t-63 -239h398q98 0 98 133q0 92 -51 130t-188 38zM606 141q144 0 359 25l18 -131q-133 -59 -395 -59t-372 118q-110 119 -110 409q0 291 108 407t346 116t342 -84t106 -236q3 -303 -242 -303h-449q13 -156 79 -209t210 -53zM606 1180h-63
q-57 0 -58 59v115q0 57 58 57h63q59 0 60 -57v-115q-1 -59 -60 -59z" />
    <glyph glyph-name="Eogonek" unicode="&#x118;" horiz-adv-x="1150" 
d="M444 -4q-130 0 -206 69t-78 185v913q2 117 78 186t206 68q420 0 607 -16l-9 -160h-563q-61 0 -87 -30t-25 -101v-283h596v-165h-596v-361q-1 -71 25 -101t87 -30h563l9 -158q-106 -125 -146 -227q-31 -69 15 -93t139 7l24 -82q-159 -63 -240 -33q-38 14 -64 42
q-40 44 -11 149q41 117 182 229q-162 -8 -506 -8z" />
    <glyph glyph-name="eogonek" unicode="&#x119;" horiz-adv-x="1103" 
d="M570 858q-136 0 -194 -62t-63 -239h398q98 0 98 133q0 92 -51 130t-188 38zM590 -25q-264 0 -374 119t-110 409q0 291 108 407t346 116t342 -84t106 -236q3 -303 -242 -303h-449q12 -157 79 -209t211 -52t358 24l18 -131q-106 -125 -145 -228q-31 -69 15 -93t138 7
l25 -81q-218 -87 -304 9q-41 44 -12 148q31 94 146 201q-119 -23 -256 -23z" />
    <glyph glyph-name="Ecaron" unicode="&#x11a;" horiz-adv-x="1150" 
d="M444 -4q-130 0 -206 69t-78 185v913q2 117 78 186t206 68q420 0 607 -16l-9 -160h-563q-61 0 -87 -30t-25 -101v-283h596v-165h-596v-361q-1 -71 25 -101t87 -30h563l9 -158q-186 -16 -607 -16zM590 1563l-295 264l67 84l265 -172h16l266 172l68 -84l-297 -264h-90z" />
    <glyph glyph-name="ecaron" unicode="&#x11b;" horiz-adv-x="1103" 
d="M570 858q-136 0 -194 -62t-63 -239h398q98 0 98 133q0 92 -51 130t-188 38zM606 141q144 0 359 25l18 -131q-133 -59 -395 -59t-372 118q-110 119 -110 409q0 291 108 407t346 116t342 -84t106 -236q3 -303 -242 -303h-449q13 -156 79 -209t210 -53zM530 1155l-294 264
l67 84l264 -172h17l266 172l68 -84l-297 -264h-91z" />
    <glyph glyph-name="Gbreve" unicode="&#x11e;" horiz-adv-x="1288" 
d="M1153 815v-815h-149l-21 143q-177 -170 -415 -170q-238 -1 -342 177t-105 563q0 285 59 441q58 156 186 222q128 64 352 64t396 -43l-18 -156q-172 16 -314 16t-202 -11q-140 -26 -192 -147t-52 -414q0 -292 62 -413q62 -120 218 -120t338 124v539h199zM672 1524
q-152 0 -238 77t-76 199l101 15q-2 -70 53 -108q54 -38 158 -38t159 38t54 108l100 -15q9 -124 -75 -200t-236 -76z" />
    <glyph glyph-name="gbreve" unicode="&#x11f;" horiz-adv-x="1148" 
d="M856 -99q0 83 -31 105t-139 37l-321 41q-93 -78 -93 -174t56 -124t234 -28q179 0 237 30q57 30 57 113zM554 535q140 0 196 37q55 38 55 134t-54 132q-55 36 -197 36t-198 -36q-55 -37 -55 -131t56 -134q57 -38 197 -38zM989 705q0 -172 -96 -246t-338 -74
q-111 0 -199 16q-32 -43 -16 -94t82 -61l369 -58q141 -20 200 -88t60 -196q-1 -178 -105 -246t-380 -68t-382 67t-106 241q0 82 37 132t123 97q-72 61 -64 159t78 152q-131 68 -131 254t96 260t340 74q152 0 240 -27h309l-10 -106l-142 -14q35 -63 35 -174zM557 1155
q-152 0 -238 77t-75 200l100 14q-2 -70 53 -108t159 -38t159 38t53 108l100 -14q10 -123 -74 -200t-237 -77z" />
    <glyph glyph-name="Gdotaccent" unicode="&#x120;" horiz-adv-x="1288" 
d="M1153 815v-815h-149l-21 143q-177 -170 -415 -170q-238 -1 -342 177t-105 563q0 285 59 441q58 156 186 222q128 64 352 64t396 -43l-18 -156q-172 16 -314 16t-202 -11q-140 -26 -192 -147t-52 -414q0 -292 62 -413q62 -120 218 -120t338 124v539h199zM705 1546h-64
q-57 0 -57 60v114q0 57 57 58h64q59 0 59 -58v-114q0 -60 -59 -60z" />
    <glyph glyph-name="gdotaccent" unicode="&#x121;" horiz-adv-x="1148" 
d="M856 -99q0 83 -31 105t-139 37l-321 41q-93 -78 -93 -174t56 -124t234 -28q179 0 237 30q57 30 57 113zM554 535q140 0 196 37q55 38 55 134t-54 132q-55 36 -197 36t-198 -36q-55 -37 -55 -131t56 -134q57 -38 197 -38zM989 705q0 -172 -96 -246t-338 -74
q-111 0 -199 16q-32 -43 -16 -94t82 -61l369 -58q141 -20 200 -88t60 -196q-1 -178 -105 -246t-380 -68t-382 67t-106 241q0 82 37 132t123 97q-72 61 -64 159t78 152q-131 68 -131 254t96 260t340 74q152 0 240 -27h309l-10 -106l-142 -14q35 -63 35 -174zM590 1180h-64
q-57 0 -57 59v115q0 57 57 57h64q59 0 59 -57v-115q0 -59 -59 -59z" />
    <glyph glyph-name="Gcommaaccent" unicode="&#x122;" horiz-adv-x="1288" 
d="M641 -119h53q37 0 50 -13t14 -48v-111q-2 -154 -70 -276l-86 22q20 102 21 211q-51 0 -52 53l2 101q3 35 17 48t51 13zM1153 815v-815h-149l-21 143q-177 -170 -415 -170q-238 -1 -342 177t-105 563q0 285 59 441q58 156 186 222q128 64 352 64t396 -43l-18 -156
q-172 16 -314 16t-202 -11q-140 -26 -192 -147t-52 -414q0 -292 62 -413q62 -120 218 -120t338 124v539h199z" />
    <glyph glyph-name="gcommaaccent" unicode="&#x123;" horiz-adv-x="1148" 
d="M856 -99q0 83 -31 105t-139 37l-321 41q-93 -78 -93 -174t56 -124t234 -28q179 0 237 30q57 30 57 113zM554 535q140 0 196 37q55 38 55 134t-54 132q-55 36 -197 36t-198 -36q-55 -37 -55 -131t56 -134q57 -38 197 -38zM989 705q0 -172 -96 -246t-338 -74
q-111 0 -199 16q-32 -43 -16 -94t82 -61l369 -58q141 -20 200 -88t60 -196q-1 -178 -105 -246t-380 -68t-382 67t-106 241q0 82 37 132t123 97q-72 61 -64 159t78 152q-131 68 -131 254t96 260t340 74q152 0 240 -27h309l-10 -106l-142 -14q35 -63 35 -174zM612 1139h-53
q-37 0 -50 13t-13 48v111q2 154 69 276l86 -22q-20 -102 -20 -211q51 0 51 -54l-2 -100q-2 -35 -16 -48t-52 -13z" />
    <glyph glyph-name="Hbar" unicode="&#x126;" horiz-adv-x="1388" 
d="M1004 1061h-619v-219h619v219zM1348 1061h-140v-1061h-204v666h-619v-666h-205v1061h-141v106h141v246h205v-246h619v246h204v-246h140v-106z" />
    <glyph glyph-name="hbar" unicode="&#x127;" horiz-adv-x="1202" 
d="M784 1026q131 0 201 -71t70 -205v-750h-199v692q0 94 -28 130t-102 36t-158 -35q-83 -35 -208 -112v-711h-198v1167h-152v113h152v154h198v-154h289v-113h-287v-120q0 -121 -14 -195q237 174 436 174z" />
    <glyph glyph-name="Imacron" unicode="&#x12a;" horiz-adv-x="548" 
d="M377 0h-205v1413h205v-1413zM563 1602h-577v145h577v-145z" />
    <glyph glyph-name="imacron" unicode="&#x12b;" horiz-adv-x="522" 
d="M360 0h-198v999h198v-999zM551 1235h-578v145h578v-145z" />
    <glyph glyph-name="Iogonek" unicode="&#x12e;" horiz-adv-x="548" 
d="M172 0v1413h205v-1413h-25q-106 -125 -145 -227q-31 -69 15 -93t138 7l25 -82q-218 -87 -304 9q-43 46 -6 157q36 112 185 229h-88z" />
    <glyph glyph-name="iogonek" unicode="&#x12f;" horiz-adv-x="522" 
d="M162 0v999h198v-999h-16q-106 -125 -145 -227q-31 -69 15 -93t138 7l25 -82q-218 -87 -304 9q-42 45 -12 148q41 121 191 238h-90zM293 1180h-64q-57 0 -57 59v115q0 57 57 57h64q59 0 59 -57v-115q0 -59 -59 -59z" />
    <glyph glyph-name="Idotaccent" unicode="&#x130;" horiz-adv-x="548" 
d="M377 0h-205v1413h205v-1413zM242 1778h63q59 0 60 -58v-114q0 -59 -60 -60h-63q-57 0 -58 60v114q1 58 58 58z" />
    <glyph glyph-name="dotlessi" unicode="&#x131;" horiz-adv-x="522" 
d="M360 0h-198v999h198v-999z" />
    <glyph glyph-name="IJ" unicode="&#x132;" horiz-adv-x="1251" 
d="M1085 1413v-1104q1 -162 -71 -246q-72 -85 -200 -83t-208 28l23 148h100q152 0 152 143v1114h204zM377 0h-205v1413h205v-1413z" />
    <glyph glyph-name="ij" unicode="&#x133;" horiz-adv-x="1044" 
d="M883 999v-1009q-1 -124 -55 -230t-148 -174l-111 86q115 145 115 318v1009h199zM358 0h-196v999h196v-999zM737 1425h94q57 0 58 -57v-115q0 -59 -58 -59h-94q-59 0 -59 59v115q0 57 59 57zM215 1425h92q59 0 60 -57v-115q0 -59 -60 -59h-92q-59 0 -59 59v115q0 57 59 57
z" />
    <glyph glyph-name="Kcommaaccent" unicode="&#x136;" horiz-adv-x="1222" 
d="M623 -119h53q37 0 50 -13t13 -48v-111q-2 -154 -69 -276l-86 22q20 102 20 211q-51 0 -51 53l2 101q2 35 16 48q15 13 52 13zM377 0h-205v1413h205v-434q0 -88 -15 -160h160l416 594h223l-399 -577q-29 -47 -84 -99v-6q61 -51 96 -106l416 -625h-229l-437 653h-162
q14 -70 15 -145v-508z" />
    <glyph glyph-name="kcommaaccent" unicode="&#x137;" horiz-adv-x="1058" 
d="M547 -119h53q37 0 50 -13t14 -48v-111q-2 -154 -70 -276l-86 22q20 102 20 211q-51 0 -51 53l2 101q3 35 17 48t51 13zM352 336v-336h-198v1434h198l2 -629q0 -78 -10 -170h123l299 364h229l-301 -362q-27 -37 -73 -74v-4q39 -31 73 -86l334 -473h-229l-332 492h-125
q10 -88 10 -156z" />
    <glyph glyph-name="Lacute" unicode="&#x139;" horiz-adv-x="1054" 
d="M373 1413v-1110q-1 -71 29 -101t102 -30h502l8 -158q-199 -18 -545 -18q-301 0 -301 278v1139h205zM606 1726l-407 -239l-66 92l363 299z" />
    <glyph glyph-name="lacute" unicode="&#x13a;" horiz-adv-x="618" 
d="M483 162h92l23 -154q-59 -26 -183 -26t-192 68t-67 194v1190h198l-2 -1145q0 -127 131 -127zM592 1769l-408 -239l-65 92l362 299z" />
    <glyph glyph-name="Lcommaaccent" unicode="&#x13b;" horiz-adv-x="1054" 
d="M578 -121h53q37 0 50 -13t13 -48v-111q-2 -154 -69 -276l-86 22q20 102 20 211q-51 0 -51 53l2 101q2 35 16 48q15 13 52 13zM373 1413v-1110q-1 -71 29 -101t102 -30h502l8 -158q-199 -18 -545 -18q-301 0 -301 278v1139h205z" />
    <glyph glyph-name="lcommaaccent" unicode="&#x13c;" horiz-adv-x="618" 
d="M330 -121h53q37 0 50 -13t13 -48v-111q-2 -154 -69 -276l-86 22q20 102 20 211q-51 0 -51 53l2 101q2 35 16 48t52 13zM483 162h92l23 -154q-59 -26 -183 -26t-192 68t-67 194v1190h198l-2 -1145q0 -127 131 -127z" />
    <glyph glyph-name="Lcaron" unicode="&#x13d;" horiz-adv-x="1054" 
d="M373 1413v-1110q-1 -71 29 -101t102 -30h502l8 -158q-199 -18 -545 -18q-301 0 -301 278v1139h205zM668 1415h53q37 0 50 -13t13 -48v-111q-2 -154 -69 -276l-86 22q20 102 20 211q-51 0 -51 53l2 101q2 35 16 48q15 13 52 13z" />
    <glyph glyph-name="lcaron" unicode="&#x13e;" horiz-adv-x="618" 
d="M483 162h92l23 -154q-59 -26 -183 -26t-192 68t-67 194v1190h198l-2 -1145q0 -127 131 -127zM530 1440h54q35 0 49 -12t12 -44l2 -102q-2 -137 -69 -252l-86 21q20 94 20 192q-51 0 -51 49v92q2 32 18 44t51 12z" />
    <glyph glyph-name="Ldot" unicode="&#x13f;" horiz-adv-x="1054" 
d="M838 696h-64q-59 0 -59 58v114q0 59 59 60h64q57 0 57 -60v-114q0 -58 -57 -58zM373 1413v-1110q-1 -71 29 -101t102 -30h502l8 -158q-199 -18 -545 -18q-301 0 -301 278v1139h205z" />
    <glyph glyph-name="ldot" unicode="&#x140;" horiz-adv-x="669" 
d="M616 682h-63q-59 0 -59 59v115q0 57 59 57h63q57 0 58 -57v-115q-1 -59 -58 -59zM483 162h92l23 -154q-59 -26 -183 -26t-192 68t-67 194v1190h198l-2 -1145q0 -127 131 -127z" />
    <glyph glyph-name="Lslash" unicode="&#x141;" horiz-adv-x="1067" 
d="M483 -4q-303 0 -303 278v404l-141 -60v125l141 60v610h205v-526l231 96v-125l-231 -96v-459q0 -71 30 -101t101 -30h502l8 -158q-199 -18 -543 -18z" />
    <glyph glyph-name="lslash" unicode="&#x142;" horiz-adv-x="679" 
d="M199 1434h198v-551l217 90v-127l-219 -90v-467q0 -127 131 -127h92l25 -154q-59 -26 -184 -26t-193 68t-67 194v428l-160 -66v127l160 66v635z" />
    <glyph glyph-name="Nacute" unicode="&#x143;" horiz-adv-x="1449" 
d="M1278 1413v-1333q0 -80 -76 -80h-194q-61 0 -88 63l-441 963q-74 160 -84 197h-26q8 -88 8 -197v-1026h-205v1333q0 80 80 80h188q61 0 88 -63l428 -938q55 -111 99 -211h30q-10 123 -10 219v993h203zM1073 1726l-407 -239l-66 92l363 299z" />
    <glyph glyph-name="nacute" unicode="&#x144;" horiz-adv-x="1193" 
d="M776 1026q133 0 202 -71t69 -205v-750h-199v692q0 94 -28 130t-102 36t-155 -35q-80 -35 -213 -114l2 -709h-198v999h168l12 -151q237 178 442 178zM535 1120l-66 92l362 299l111 -151z" />
    <glyph glyph-name="Ncommaaccent" unicode="&#x145;" horiz-adv-x="1449" 
d="M674 -119h53q37 0 50 -13t14 -48v-111q-2 -154 -70 -276l-86 22q20 102 20 211q-51 0 -51 53l2 101q2 35 16 48t52 13zM1278 1413v-1333q0 -80 -76 -80h-194q-61 0 -88 63l-441 963q-74 160 -84 197h-26q8 -88 8 -197v-1026h-205v1333q0 80 80 80h188q61 0 88 -63
l428 -938q55 -111 99 -211h30q-10 123 -10 219v993h203z" />
    <glyph glyph-name="ncommaaccent" unicode="&#x146;" horiz-adv-x="1193" 
d="M571 -119h52q37 0 51 -13t12 -48l2 -111q-2 -150 -72 -276l-86 22q20 102 21 211q-49 0 -49 53v101q1 61 69 61zM776 1026q133 0 202 -71t69 -205v-750h-199v692q0 94 -28 130t-102 36t-155 -35q-80 -35 -213 -114l2 -709h-198v999h168l12 -151q237 178 442 178z" />
    <glyph glyph-name="Ncaron" unicode="&#x147;" horiz-adv-x="1449" 
d="M1278 1413v-1333q0 -80 -76 -80h-194q-61 0 -88 63l-441 963q-74 160 -84 197h-26q8 -88 8 -197v-1026h-205v1333q0 80 80 80h188q61 0 88 -63l428 -938q55 -111 99 -211h30q-10 123 -10 219v993h203zM1083 1786l-297 -264h-90l-295 264l68 84l264 -172h17l266 172z" />
    <glyph glyph-name="ncaron" unicode="&#x148;" horiz-adv-x="1193" 
d="M776 1026q133 0 202 -71t69 -205v-750h-199v692q0 94 -28 130t-102 36t-155 -35q-80 -35 -213 -114l2 -709h-198v999h168l12 -151q237 178 442 178zM567 1155l-295 264l68 84l264 -172h17l266 172l67 -84l-297 -264h-90z" />
    <glyph glyph-name="Eng" unicode="&#x14a;" horiz-adv-x="1449" 
d="M1278 1413v-1567q0 -137 -76 -213q-76 -77 -195 -75t-200 30l22 129h97q160 0 159 146v137h-71q-29 0 -60 57l-477 932q-39 74 -86 197h-24q10 -66 10 -199v-987h-205v1333q0 80 78 80h149q57 0 90 -63l465 -901q41 -78 99 -213h30q-10 119 -10 215v962h205z" />
    <glyph glyph-name="eng" unicode="&#x14b;" horiz-adv-x="1193" 
d="M774 1026q272 0 273 -276v-881q0 -139 -67 -214q-66 -75 -180 -74t-200 30l23 127h86q139 0 139 147v807q0 84 -29 118t-104 34q-125 0 -365 -135l2 -709h-198v999h153l19 -161q235 188 448 188z" />
    <glyph glyph-name="Omacron" unicode="&#x14c;" horiz-adv-x="1370" 
d="M686 1257q-198 -1 -274 -119t-76 -431t76 -433t274 -118q198 0 274 118q74 118 74 432t-74 432t-274 119zM686 1440q315 0 440 -160t125 -574t-125 -573q-125 -160 -440 -160t-440 160t-125 574q0 413 125 573t440 160zM973 1602h-578v145h578v-145z" />
    <glyph glyph-name="omacron" unicode="&#x14d;" horiz-adv-x="1167" 
d="M584 858q-156 0 -213 -76t-57 -284t56 -283q58 -76 213 -76t213 76t58 284q0 207 -57 283t-213 76zM586 1026q260 0 368 -121t107 -407q0 -286 -108 -406q-109 -119 -369 -119t-369 120t-109 406q0 287 110 407t370 120zM870 1235h-577v145h577v-145z" />
    <glyph glyph-name="Ohungarumlaut" unicode="&#x150;" horiz-adv-x="1370" 
d="M686 1257q-198 -1 -274 -119t-76 -431t76 -433t274 -118q198 0 274 118q74 118 74 432t-74 432t-274 119zM686 1440q315 0 440 -160t125 -574t-125 -573q-125 -160 -440 -160t-440 160t-125 574q0 413 125 573t440 160zM1114 1804l-283 -329l-83 65l223 363zM768 1804
l-281 -329l-88 65l228 363z" />
    <glyph glyph-name="ohungarumlaut" unicode="&#x151;" horiz-adv-x="1167" 
d="M584 858q-156 0 -213 -76t-57 -284t56 -283q58 -76 213 -76t213 76t58 284q0 207 -57 283t-213 76zM586 1026q260 0 368 -121t107 -407q0 -286 -108 -406q-109 -119 -369 -119t-369 120t-109 406q0 287 110 407t370 120zM1012 1438l-283 -330l-84 66l223 362zM666 1438
l-281 -330l-88 66l227 362z" />
    <glyph glyph-name="OE" unicode="&#x152;" horiz-adv-x="1880" 
d="M336 708q0 -314 75 -434t273 -118q135 0 240 28q-12 43 -13 90v865q0 47 13 90q-119 29 -240 28q-200 1 -274 -117t-74 -432zM1161 -4q-80 0 -143 45q-143 -68 -334 -68q-313 0 -438 160t-125 574q0 413 125 573t438 160q188 0 346 -66q63 43 150 43q414 0 598 -16
l-9 -160h-520q-71 0 -101 -30t-30 -101v-281l572 -2v-165l-572 -3v-358q0 -71 30 -101t101 -30h520l9 -158q-188 -16 -617 -16z" />
    <glyph glyph-name="oe" unicode="&#x153;" horiz-adv-x="1853" 
d="M1430 559q74 0 102 35t24 115q-6 81 -64 115t-187 34t-185 -63t-61 -232v-4h371zM578 139q150 0 210 67q59 67 66 240l-2 62v51q-6 171 -64 235t-210 64q-150 0 -207 -76t-57 -284t56 -283q58 -76 208 -76zM1352 141q146 0 358 25l21 -131q-135 -59 -399 -59t-374 122
q-106 -125 -370 -125t-373 119t-109 406q0 288 109 408t370 120t367 -121q106 121 353 121q451 0 450 -313q3 -170 -69 -235t-244 -64h-379q11 -164 77 -218t212 -55z" />
    <glyph glyph-name="Racute" unicode="&#x154;" horiz-adv-x="1269" 
d="M375 758h287q152 2 208 54t56 196t-56 196q-56 51 -237 51q-180 0 -258 -2v-495zM375 0h-203v1413q176 18 494 19q256 0 361 -88t106 -322q-1 -170 -61 -256t-200 -104v-11q137 -41 179 -205l133 -446h-219l-121 440q-25 76 -67 109t-111 33l-291 2v-584zM545 1487
l-66 92l363 299l110 -152z" />
    <glyph glyph-name="racute" unicode="&#x155;" horiz-adv-x="827" 
d="M750 1026h45l-23 -186h-61q-117 0 -359 -115v-725h-198v999h153l21 -153q225 180 422 180zM393 1120l-65 92l362 299l111 -151z" />
    <glyph glyph-name="Rcommaaccent" unicode="&#x156;" horiz-adv-x="1269" 
d="M647 -119h53q36 0 50 -13t14 -48v-111q-2 -154 -70 -276l-86 22q20 102 21 211q-51 0 -51 53l2 101q2 35 16 48t51 13zM375 758h287q152 2 208 54t56 196t-56 196q-56 51 -237 51q-180 0 -258 -2v-495zM375 0h-203v1413q176 18 494 19q256 0 361 -88t106 -322
q-1 -170 -61 -256t-200 -104v-11q137 -41 179 -205l133 -446h-219l-121 440q-25 76 -67 109t-111 33l-291 2v-584z" />
    <glyph glyph-name="rcommaaccent" unicode="&#x157;" horiz-adv-x="827" 
d="M209 -119h53q37 0 50 -13t14 -48v-111q-2 -154 -70 -276l-86 22q20 102 20 211q-51 0 -51 53l2 101q3 35 17 48t51 13zM711 840q-117 0 -359 -115v-725h-198v999h153l21 -153q225 180 422 180h45l-23 -186h-61z" />
    <glyph glyph-name="Rcaron" unicode="&#x158;" horiz-adv-x="1269" 
d="M375 758h287q152 2 208 54t56 196t-56 196q-56 51 -237 51q-180 0 -258 -2v-495zM375 0h-203v1413q176 18 494 19q256 0 361 -88t106 -322q-1 -170 -61 -256t-200 -104v-11q137 -41 179 -205l133 -446h-219l-121 440q-25 76 -67 109t-111 33l-291 2v-584zM575 1522
l-294 264l67 84l264 -172h17l266 172l68 -84l-297 -264h-91z" />
    <glyph glyph-name="rcaron" unicode="&#x159;" horiz-adv-x="827" 
d="M750 1026h45l-23 -186h-61q-117 0 -359 -115v-725h-198v999h153l21 -153q225 180 422 180zM424 1155l-295 264l68 84l264 -172h16l266 172l68 -84l-297 -264h-90z" />
    <glyph glyph-name="Sacute" unicode="&#x15a;" horiz-adv-x="1153" 
d="M632 1438q190 0 367 -43l-12 -150q-297 10 -431 10q-134 1 -187 -31t-53 -150t37 -162q38 -44 132 -68l281 -78q158 -43 222 -139t65 -262q-1 -233 -107 -311t-353 -79q-247 0 -466 41l14 152q319 -10 457 -9t192 40t54 158t-37 161t-131 66l-287 80q-153 41 -217 138
q-64 96 -64 240t26 219q47 135 230 165q78 12 268 12zM901 1726l-407 -239l-66 92l363 299z" />
    <glyph glyph-name="sacute" unicode="&#x15b;" horiz-adv-x="1042" 
d="M482 858q-104 0 -148 -17q-43 -17 -43 -93q0 -35 6 -57t35 -38t100 -37l283 -69q127 -33 180 -93t53 -188q0 -176 -97 -232t-321 -56t-413 28l14 148q115 -10 313 -10t254 23q57 24 58 99q0 33 -8 55q-15 42 -144 72l-278 70q-125 33 -176 97t-52 188q0 166 89 223
t319 54t412 -34l-15 -143q-317 10 -421 10zM862 1360l-407 -240l-66 92l363 299z" />
    <glyph glyph-name="Scedilla" unicode="&#x15e;" horiz-adv-x="1153" 
d="M467 -203l20 92q135 12 190 -14q54 -27 52 -119q-2 -134 -102 -204t-252 -50l33 105q78 -2 128 35t52 98q2 33 -22 44t-99 13zM632 1438q190 0 367 -43l-12 -150q-297 10 -431 10q-134 1 -187 -31t-53 -150t37 -162q38 -44 132 -68l281 -78q158 -43 222 -139t65 -262
q-1 -233 -107 -311t-353 -79q-247 0 -466 41l14 152q319 -10 457 -9t192 40t54 158t-37 161t-131 66l-287 80q-153 41 -217 138q-64 96 -64 240t26 219q47 135 230 165q78 12 268 12z" />
    <glyph glyph-name="scedilla" unicode="&#x15f;" horiz-adv-x="1042" 
d="M395 -201l21 92q135 11 189 -15t52 -118q-2 -134 -102 -204t-252 -50l33 105q78 -2 128 35t52 98q2 33 -22 44q-25 11 -99 13zM482 858q-104 0 -148 -17q-43 -17 -43 -93q0 -35 6 -57t35 -38t100 -37l283 -69q127 -33 180 -93t53 -188q0 -176 -97 -232t-321 -56t-413 28
l14 148q115 -10 313 -10t254 23q57 24 58 99q0 33 -8 55q-15 42 -144 72l-278 70q-125 33 -176 97t-52 188q0 166 89 223t319 54t412 -34l-15 -143q-317 10 -421 10z" />
    <glyph glyph-name="Scaron" unicode="&#x160;" horiz-adv-x="1153" 
d="M632 1438q190 0 367 -43l-12 -150q-297 10 -431 10q-134 1 -187 -31t-53 -150t37 -162q38 -44 132 -68l281 -78q158 -43 222 -139t65 -262q-1 -233 -107 -311t-353 -79q-247 0 -466 41l14 152q319 -10 457 -9t192 40t54 158t-37 161t-131 66l-287 80q-153 41 -217 138
q-64 96 -64 240t26 219q47 135 230 165q78 12 268 12zM913 1786l-297 -264h-90l-295 264l68 84l264 -172h17l266 172z" />
    <glyph glyph-name="scaron" unicode="&#x161;" horiz-adv-x="1042" 
d="M482 858q-104 0 -148 -17q-43 -17 -43 -93q0 -35 6 -57t35 -38t100 -37l283 -69q127 -33 180 -93t53 -188q0 -176 -97 -232t-321 -56t-413 28l14 148q115 -10 313 -10t254 23q57 24 58 99q0 33 -8 55q-15 42 -144 72l-278 70q-125 33 -176 97t-52 188q0 166 89 223
t319 54t412 -34l-15 -143q-317 10 -421 10zM874 1419l-296 -264h-91l-294 264l67 84l264 -172h17l266 172z" />
    <glyph glyph-name="Tcedilla" unicode="&#x162;" horiz-adv-x="1196" 
d="M475 -178l21 92q135 12 189 -14t52 -119q-2 -133 -102 -204t-252 -50l33 104q78 -2 128 35t52 98q2 32 -22 44t-99 14zM1149 1413v-182h-449v-1231h-206v1231h-445v182h1100z" />
    <glyph glyph-name="tcedilla" unicode="&#x163;" horiz-adv-x="794" 
d="M332 -197l20 93q136 12 190 -15t52 -119q-2 -134 -102 -204t-252 -50l32 105q78 -2 128 35t53 98q1 33 -23 44t-98 13zM430 846v-557q0 -70 30 -99t101 -28h146l22 -154q-94 -26 -228 -26t-201 72t-67 208v584h-182v143l182 10v293h197v-293h309v-153h-309z" />
    <glyph glyph-name="Tcaron" unicode="&#x164;" horiz-adv-x="1196" 
d="M1149 1231h-449v-1231h-206v1231h-445v182h1100v-182zM553 1522l-295 264l68 84l264 -172h16l266 172l68 -84l-297 -264h-90z" />
    <glyph glyph-name="tcaron" unicode="&#x165;" horiz-adv-x="794" 
d="M430 999h309v-153h-309v-557q0 -70 30 -99t101 -28h146l22 -154q-94 -26 -228 -26t-201 72t-67 208v584h-182v143l182 10v293h197v-293zM623 1587h53q37 0 50 -13t13 -48v-111q-2 -154 -69 -276l-86 22q20 102 20 211q-51 0 -51 53l2 101q2 35 16 48q15 13 52 13z" />
    <glyph glyph-name="Tbar" unicode="&#x166;" horiz-adv-x="1196" 
d="M700 1231v-371h283v-112h-283v-748h-206v748h-283v112h283v371h-445v182h1100v-182h-449z" />
    <glyph glyph-name="tbar" unicode="&#x167;" horiz-adv-x="794" 
d="M430 846v-187h256v-108h-256v-262q0 -70 30 -99t101 -28h146l22 -154q-94 -26 -228 -26t-201 72t-67 208v289h-131v108h131v187h-182v143l182 10v293h197v-293h309v-153h-309z" />
    <glyph glyph-name="Umacron" unicode="&#x16a;" horiz-adv-x="1363" 
d="M1202 1413v-868q0 -311 -116 -441t-400 -131q-284 0 -404 130t-120 442v868h205v-868q-1 -217 69 -303t245 -86t246 86t70 303v868h205zM973 1602h-578v145h578v-145z" />
    <glyph glyph-name="umacron" unicode="&#x16b;" 
d="M1018 999v-999h-158l-14 137q-219 -164 -426 -164q-272 0 -273 277v749h199v-692q-2 -92 31 -128t112 -36q119 0 332 133v723h197zM881 1243h-578v146h578v-146z" />
    <glyph glyph-name="Uring" unicode="&#x16e;" horiz-adv-x="1363" 
d="M1202 1413v-868q0 -311 -116 -441t-400 -131q-284 0 -404 130t-120 442v868h205v-868q-1 -217 69 -303t245 -86t246 86t70 303v868h205zM684 1800q-49 0 -82 -33t-33 -87t33 -86t83 -32t83 32t33 85t-34 87t-83 34zM684 1898q92 0 158 -63t66 -155t-66 -155t-159 -63
t-158 62t-64 155q0 92 65 156q66 63 158 63z" />
    <glyph glyph-name="uring" unicode="&#x16f;" 
d="M1018 999v-999h-158l-14 137q-219 -164 -426 -164q-272 0 -273 277v749h199v-692q-2 -92 31 -128t112 -36q119 0 332 133v723h197zM593 1442q-50 0 -83 -33t-33 -87t33 -86t83 -32t83 32t33 86t-33 87t-83 33zM591 1104q-93 0 -158 62t-65 154t66 157q66 63 158 63
t158 -63t66 -155t-66 -156q-66 -62 -159 -62z" />
    <glyph glyph-name="Uhungarumlaut" unicode="&#x170;" horiz-adv-x="1363" 
d="M1202 1413v-868q0 -311 -116 -441t-400 -131q-284 0 -404 130t-120 442v868h205v-868q-1 -217 69 -303t245 -86t246 86t70 303v868h205zM1114 1804l-283 -329l-83 65l223 363zM768 1804l-281 -329l-88 65l228 363z" />
    <glyph glyph-name="uhungarumlaut" unicode="&#x171;" 
d="M821 999h197v-999h-158l-14 137q-219 -164 -426 -164q-272 0 -273 277v749h199v-692q-2 -92 31 -128t112 -36q119 0 332 133v723zM655 1182l224 362l143 -98l-283 -330zM395 1116l-88 66l228 362l141 -98z" />
    <glyph glyph-name="Uogonek" unicode="&#x172;" horiz-adv-x="1363" 
d="M1202 1413v-868q0 -293 -101 -424t-341 -146q-102 -121 -139 -221q-31 -70 15 -94t138 8l25 -82q-218 -87 -304 10q-41 44 -12 148q39 115 183 229q-274 5 -390 137t-114 435v868h205v-868q-1 -217 69 -303t245 -86t246 86t70 303v868h205z" />
    <glyph glyph-name="uogonek" unicode="&#x173;" 
d="M420 -27q-272 0 -273 277v749h199v-692q-2 -92 31 -128t112 -36q119 0 332 133v723h197v-999h4q-106 -125 -145 -227q-31 -69 15 -93t138 7l25 -82q-218 -87 -304 9q-42 45 -12 148q41 121 191 238h-70l-14 137q-219 -164 -426 -164z" />
    <glyph glyph-name="Wcircumflex" unicode="&#x174;" horiz-adv-x="1947" 
d="M1536 0h-229q-63 0 -78 61l-236 1199h-41l-233 -1199q-14 -61 -80 -61h-229q-29 0 -52 16t-26 43l-271 1354h218l200 -1077q12 -68 27 -180h47q10 88 31 180l202 1010q10 68 78 67h219q29 0 51 -19t25 -48l203 -1012q20 -96 29 -178h49q20 141 26 176l203 1081h215
l-270 -1354q-14 -59 -78 -59zM1317 1575l-68 -84l-266 197h-16l-265 -197l-65 84l266 264h146z" />
    <glyph glyph-name="wcircumflex" unicode="&#x175;" horiz-adv-x="1691" 
d="M1290 0h-178q-63 0 -78 63l-145 658q-4 18 -11 60t-20 100h-24q-20 -106 -33 -160l-144 -658q-14 -63 -77 -63h-174q-63 0 -76 55l-283 944h205l192 -720q18 -68 33 -154h27q11 77 33 154l147 659q14 61 74 61h178q59 0 74 -63l145 -657q27 -111 35 -154h27
q27 137 30 154l195 720h205l-283 -944q-12 -55 -74 -55zM1188 1210l-68 -84l-266 197h-16l-265 -197l-65 84l266 265h146z" />
    <glyph glyph-name="Ycircumflex" unicode="&#x176;" horiz-adv-x="1175" 
d="M690 0h-205v494l-467 919h218l284 -579q16 -35 62 -164h14q39 113 61 161l285 582h213l-465 -924v-489zM313 1493l-65 84l266 264h145l269 -264l-68 -84l-266 197h-16z" />
    <glyph glyph-name="ycircumflex" unicode="&#x177;" horiz-adv-x="1091" 
d="M457 0q-57 0 -70 51l-354 948h211l250 -727q25 -63 34 -122h29l287 849h213l-389 -1046q-135 -369 -459 -373l-19 131q117 35 185 96t108 156l15 37h-41zM276 1126l-65 84l266 265h146l268 -265l-68 -84l-266 197h-16z" />
    <glyph glyph-name="Ydieresis" unicode="&#x178;" horiz-adv-x="1175" 
d="M690 0h-205v494l-467 919h218l284 -579q16 -35 62 -164h14q39 113 61 161l285 582h213l-465 -924v-489zM801 1567h-66q-53 0 -53 55v111q0 55 53 55h66q55 0 55 -55v-111q0 -55 -55 -55zM438 1567h-65q-53 0 -54 55v111q0 55 54 55h65q53 0 54 -55v-111q-1 -55 -54 -55z
" />
    <glyph glyph-name="Zacute" unicode="&#x179;" horiz-adv-x="1163" 
d="M1067 174v-174h-969v174l731 1065h-720v174h944v-174h2l-729 -1065h741zM512 1487l-66 92l363 299l111 -152z" />
    <glyph glyph-name="zacute" unicode="&#x17a;" horiz-adv-x="1048" 
d="M952 162v-162h-854v162l625 676h-617v161h838v-161l-625 -676h633zM451 1120l-66 92l363 299l110 -151z" />
    <glyph glyph-name="Zdotaccent" unicode="&#x17b;" horiz-adv-x="1163" 
d="M1067 174v-174h-969v174l731 1065h-720v174h944v-174h2l-729 -1065h741zM618 1546h-63q-57 0 -57 60v114q0 57 57 58h63q59 0 60 -58v-114q-1 -60 -60 -60z" />
    <glyph glyph-name="zdotaccent" unicode="&#x17c;" horiz-adv-x="1048" 
d="M952 162v-162h-854v162l625 676h-617v161h838v-161l-625 -676h633zM557 1180h-63q-57 0 -58 59v115q0 57 58 57h63q59 0 59 -57v-115q0 -59 -59 -59z" />
    <glyph glyph-name="Zcaron" unicode="&#x17d;" horiz-adv-x="1163" 
d="M1067 174v-174h-969v174l731 1065h-720v174h944v-174h2l-729 -1065h741zM543 1522l-295 264l67 84l265 -172h16l266 172l68 -84l-297 -264h-90z" />
    <glyph glyph-name="zcaron" unicode="&#x17e;" horiz-adv-x="1048" 
d="M952 162v-162h-854v162l625 676h-617v161h838v-161l-625 -676h633zM481 1155l-295 264l68 84l264 -172h17l266 172l67 -84l-297 -264h-90z" />
    <glyph glyph-name="florin" unicode="&#x192;" horiz-adv-x="919" 
d="M721 1270q-90 0 -128 -31t-46 -123l-27 -295h283l-15 -155h-282l-64 -676q-24 -295 -303 -295q-143 0 -227 14l25 150h137q86 0 124 35t48 118l61 654h-203l11 147l207 8l28 318q27 297 324 297q143 0 219 -17l-27 -149h-145z" />
    <glyph glyph-name="Scommaaccent" unicode="&#x218;" horiz-adv-x="1153" 
d="M557 -119h53q37 0 50 -13t14 -48v-111q-2 -154 -70 -276l-86 22q20 102 21 211q-51 0 -52 53l2 101q3 35 17 48t51 13zM632 1438q190 0 367 -43l-12 -150q-297 10 -431 10q-134 1 -187 -31t-53 -150t37 -162q38 -44 132 -68l281 -78q158 -43 222 -139t65 -262
q-1 -233 -107 -311t-353 -79q-247 0 -466 41l14 152q319 -10 457 -9t192 40t54 158t-37 161t-131 66l-287 80q-153 41 -217 138q-64 96 -64 240t26 219q47 135 230 165q78 12 268 12z" />
    <glyph glyph-name="scommaaccent" unicode="&#x219;" horiz-adv-x="1042" 
d="M508 -119h53q37 0 50 -13t14 -48v-111q-2 -154 -70 -276l-86 22q20 102 20 211q-51 0 -51 53l2 101q2 35 16 48t52 13zM482 858q-104 0 -148 -17q-43 -17 -43 -93q0 -35 6 -57t35 -38t100 -37l283 -69q127 -33 180 -93t53 -188q0 -176 -97 -232t-321 -56t-413 28l14 148
q115 -10 313 -10t254 23q57 24 58 99q0 33 -8 55q-15 42 -144 72l-278 70q-125 33 -176 97t-52 188q0 166 89 223t319 54t412 -34l-15 -143q-317 10 -421 10z" />
    <glyph glyph-name="uni021A" unicode="&#x21a;" horiz-adv-x="1196" 
d="M549 -119h53q37 0 50 -13t14 -48v-111q-2 -154 -70 -276l-86 22q20 102 20 211q-51 0 -51 53l2 101q3 35 17 48t51 13zM1149 1231h-449v-1231h-206v1231h-445v182h1100v-182z" />
    <glyph glyph-name="uni021B" unicode="&#x21b;" horiz-adv-x="794" 
d="M444 -119h54q37 0 50 -13t13 -48v-111q-2 -154 -69 -276l-86 22q20 102 20 211q-51 0 -51 53l2 101q2 35 16 48t51 13zM430 846v-557q0 -70 30 -99t101 -28h146l22 -154q-94 -26 -228 -26t-201 72t-67 208v584h-182v143l182 10v293h197v-293h309v-153h-309z" />
    <glyph glyph-name="circumflex" unicode="&#x2c6;" horiz-adv-x="870" 
d="M778 1198l-67 -84l-267 197h-16l-264 -197l-66 84l267 264h145z" />
    <glyph glyph-name="caron" unicode="&#x2c7;" horiz-adv-x="870" 
d="M778 1407l-297 -264h-90l-295 264l68 84l264 -172h16l267 172z" />
    <glyph glyph-name="breve" unicode="&#x2d8;" horiz-adv-x="774" 
d="M388 1284q104 0 159 38t53 108l100 -15q10 -123 -74 -200t-237 -77q-151 0 -237 78q-86 76 -76 199l100 15q-2 -70 53 -108t159 -38z" />
    <glyph glyph-name="dotaccent" unicode="&#x2d9;" horiz-adv-x="458" 
d="M197 1407h63q59 0 59 -57v-115q0 -59 -59 -59h-63q-57 0 -58 59v115q1 57 58 57z" />
    <glyph glyph-name="ring" unicode="&#x2da;" horiz-adv-x="618" 
d="M426 1303q0 53 -33 87t-83 33t-83 -33t-33 -86t34 -86q32 -32 82 -32t83 32t33 85zM309 1522q92 0 158 -64q65 -64 65 -155q0 -92 -65 -155q-66 -62 -159 -62q-94 0 -158 62t-64 154t66 156t157 64z" />
    <glyph glyph-name="ogonek" unicode="&#x2db;" horiz-adv-x="516" 
d="M293 4l86 -4q-106 -125 -146 -227q-31 -70 15 -94t139 8l25 -82q-218 -87 -304 9q-42 45 -12 148q41 121 197 242z" />
    <glyph glyph-name="tilde" unicode="&#x2dc;" horiz-adv-x="868" 
d="M197 1192h-91q-14 124 32 188t120 58t168 -54q178 -92 225 -39q20 24 21 82h90q14 -119 -31 -182q-82 -115 -302 -1q-172 89 -213 37q-19 -26 -19 -89z" />
    <glyph glyph-name="hungarumlaut" unicode="&#x2dd;" horiz-adv-x="948" 
d="M825 1413l-282 -330l-84 66l223 362zM479 1413l-280 -330l-88 66l227 362z" />
    <glyph glyph-name="Delta" unicode="&#x394;" horiz-adv-x="1288" 
d="M645 1214q-8 -28 -23 -82t-24 -83l-313 -883h714l-309 885q-4 7 -45 163zM1241 0h-1194v82l494 1331h207l493 -1331v-82z" />
    <glyph glyph-name="Omega" unicode="&#x3a9;" horiz-adv-x="1472" 
d="M736 1440q308 0 446 -166t137 -508q0 -217 -67 -351t-224 -251q66 16 135 16h201l2 -180h-522l-2 172q147 104 205 232q57 128 59 337q-2 279 -87 399t-286 120t-283 -120t-83 -369q0 -249 58 -369t204 -230v-172h-523v180h201q72 0 135 -16q-158 117 -224 254
q-67 137 -64 350q0 342 137 507t445 165z" />
    <glyph glyph-name="mu" unicode="&#x3bc;" horiz-adv-x="1224" 
d="M1047 999v-999h-154l-19 150q-203 -176 -389 -177q-82 0 -153 33q12 -63 12 -131v-283h-174v1407h199v-692q0 -145 161 -145q123 0 318 110v727h199z" />
    <glyph glyph-name="pi" unicode="&#x3c0;" horiz-adv-x="1316" 
d="M1077 840v-840h-198v840h-441v-840h-196v840h-187v159h1209l-2 -159h-185z" />
    <glyph glyph-name="uni0401" unicode="&#x401;" horiz-adv-x="1148" 
d="M442 -4q-130 0 -206 69t-76 185v913q0 117 76 186t206 68q420 0 607 -16l-9 -160h-563q-61 0 -87 -30t-25 -101v-283h596v-165h-596v-361q-1 -71 25 -101t87 -30h563l9 -158q-186 -16 -607 -16zM846 1608h-64q-55 0 -55 53v113q0 53 55 53h64q55 0 55 -53v-113
q0 -53 -55 -53zM483 1608h-65q-53 0 -53 53v113q0 53 53 53h65q53 0 54 -53v-113q-1 -53 -54 -53z" />
    <glyph glyph-name="uni0402" unicode="&#x402;" horiz-adv-x="1542" 
d="M1104 909q166 0 260 -91t94 -350t-136 -374t-390 -104l-19 149q182 12 262 79q79 67 79 240t-49 224t-187 51t-318 -96v-637h-206v1231h-445v182h1100v-182h-449v-432q189 110 404 110z" />
    <glyph glyph-name="uni0403" unicode="&#x403;" horiz-adv-x="1060" 
d="M436 1417q403 0 586 -18l-8 -158h-510q-72 0 -102 -31t-29 -110v-1100h-205v1139q0 123 76 201t192 77zM936 1726l-408 -239l-65 92l362 299z" />
    <glyph glyph-name="uni0404" unicode="&#x404;" horiz-adv-x="1183" 
d="M121 706q0 404 128 568t443 164q227 0 398 -41l-23 -160q-163 16 -361 16t-279 -94t-93 -330l596 -2v-159h-598q2 -287 82 -398t278 -110q246 0 389 20l21 -155q-164 -49 -410 -50q-315 0 -443 164q-128 163 -128 567z" />
    <glyph glyph-name="uni0405" unicode="&#x405;" horiz-adv-x="1153" 
d="M632 1438q190 0 367 -43l-12 -150q-297 10 -431 10q-134 1 -187 -31t-53 -150t37 -162q38 -44 132 -68l281 -78q158 -43 222 -139t65 -262q-1 -233 -107 -311t-353 -79q-247 0 -466 41l14 152q319 -10 457 -9t192 40t54 158t-37 161t-131 66l-287 80q-153 41 -217 138
q-64 96 -64 240t26 219q47 135 230 165q78 12 268 12z" />
    <glyph glyph-name="uni0406" unicode="&#x406;" horiz-adv-x="548" 
d="M377 0h-205v1413h205v-1413z" />
    <glyph glyph-name="uni0407" unicode="&#x407;" horiz-adv-x="548" 
d="M377 0h-205v1413h205v-1413zM424 1786h63q55 0 56 -55v-111q0 -55 -56 -55h-63q-55 0 -55 55v111q0 55 55 55zM59 1786h66q53 0 53 -55v-111q0 -55 -53 -55h-66q-53 0 -53 55v111q0 55 53 55z" />
    <glyph glyph-name="uni0408" unicode="&#x408;" horiz-adv-x="702" 
d="M537 1413v-1104q0 -162 -72 -246q-72 -85 -200 -83t-208 28l23 148h100q152 0 152 143v1114h205z" />
    <glyph glyph-name="uni0409" unicode="&#x409;" horiz-adv-x="1988" 
d="M1427 684h-276v-520l276 -2q160 0 212 51q53 51 53 205t-52 210t-213 56zM1151 854h276q263 0 367 -96t104 -343t-98 -339t-342 -92q-328 0 -510 16l2 12v1235h-252q-115 0 -127 -139q-37 -399 -61 -552t-81 -289q-58 -136 -143 -199t-227 -72l-16 141q119 43 197 193
q65 134 85 295q21 161 27 240t13 159q6 80 8 115q18 274 307 274h471v-559z" />
    <glyph glyph-name="uni040A" unicode="&#x40a;" horiz-adv-x="2002" 
d="M1706 417q0 153 -52 210t-214 57h-275v-520l275 -2q162 0 214 51t52 204zM1165 852h275q266 0 369 -95t103 -343t-97 -339q-98 -91 -342 -91q-330 0 -510 16v684h-586v-684h-205v1413h205v-561h586v561h202v-561z" />
    <glyph glyph-name="uni040B" unicode="&#x40b;" horiz-adv-x="1583" 
d="M1145 909q170 0 250 -79t80 -244v-586h-205v545q0 102 -43 143t-152 41q-180 0 -375 -96v-633h-206v1231h-445v182h1100v-182h-449v-434q220 112 445 112z" />
    <glyph glyph-name="uni040C" unicode="&#x40c;" horiz-adv-x="1239" 
d="M510 653h-148q14 -70 15 -145v-508h-205v1413h205v-434q0 -70 -15 -160h142q129 0 210 96q80 96 148 287q38 103 74 211h207q-117 -342 -164 -434q-112 -225 -293 -238v-8q128 -12 195 -84q29 -31 48 -52t63 -107t77 -180q33 -93 64 -179t47 -131h-215q-123 352 -162 432
q-82 170 -199 207q-43 14 -94 14zM551 1487l-66 92l363 299l110 -152z" />
    <glyph glyph-name="uni040D" unicode="&#x40d;" horiz-adv-x="1421" 
d="M1249 0h-198v997q0 102 12 168h-12q-35 -94 -74 -159l-594 -1006h-211v1413h197v-987q0 -102 -13 -174h13q29 78 77 160l590 1001h213v-1413zM821 1579l-65 -92l-408 239l111 152z" />
    <glyph glyph-name="uni040E" unicode="&#x40e;" horiz-adv-x="1161" 
d="M508 410q-113 0 -148 102l-321 901h211l274 -801q10 -31 41 -30h78l291 831h211l-377 -1063q-59 -170 -133 -262t-198 -102t-263 30l25 150q203 -14 253 12t109 172l23 60h-76zM582 1524q-152 0 -238 77t-76 199l101 15q-2 -70 53 -108q54 -38 158 -38t159 38t54 108
l100 -15q9 -124 -75 -200t-236 -76z" />
    <glyph glyph-name="uni040F" unicode="&#x40f;" horiz-adv-x="1384" 
d="M1212 1413v-1413h-434l-10 -309h-139l-13 309h-444v1413h205v-1247h629v1247h206z" />
    <glyph glyph-name="uni0410" unicode="&#x410;" horiz-adv-x="1282" 
d="M866 604l-164 537q-6 18 -17 57t-17 57h-56l-32 -114l-166 -537h452zM537 1413h208q61 0 74 -55l445 -1358h-211l-131 426h-564l-131 -426h-209l443 1358q16 55 76 55z" />
    <glyph glyph-name="uni0411" unicode="&#x411;" horiz-adv-x="1228" 
d="M657 653h-278l-2 -493l280 -2q164 0 215 48q52 48 52 195t-52 199t-215 53zM379 813h278q265 0 369 -92t104 -314t-80 -322q-36 -44 -106 -68q-70 -23 -140 -29t-246 -6q-177 0 -382 18h-4v1413q262 14 444 14t435 -14l-17 -172h-655v-428z" />
    <glyph glyph-name="uni0412" unicode="&#x412;" horiz-adv-x="1273" 
d="M952 396q0 146 -62 200q-62 55 -228 57h-289v-493l301 -2q162 0 220 46t58 192zM633 1255h-260v-444h286q147 0 204 46t57 178t-62 176t-225 44zM1116 1061q0 -154 -57 -233t-182 -91v-8q155 -14 219 -107t64 -288t-102 -273q-101 -78 -353 -77q-346 0 -533 16v1413
q166 17 452 17t388 -77q104 -77 104 -292z" />
    <glyph glyph-name="uni0413" unicode="&#x413;" horiz-adv-x="1060" 
d="M434 1417q406 0 588 -18l-8 -158h-510q-72 0 -102 -31t-29 -110v-1100h-205v1139q0 123 74 201t192 77z" />
    <glyph glyph-name="uni0414" unicode="&#x414;" horiz-adv-x="1433" 
d="M991 166v1081h-266q-73 -1 -105 -31t-38 -108q-20 -314 -64 -534t-137 -408h610zM1370 166v-475h-139l-21 309h-1005l-19 -309h-141v475h139q168 367 201 973q4 127 85 201t218 73h508v-1247h174z" />
    <glyph glyph-name="uni0415" unicode="&#x415;" horiz-adv-x="1148" 
d="M442 -4q-130 0 -206 69t-76 185v913q0 117 76 186t206 68q420 0 607 -16l-9 -160h-563q-61 0 -87 -30t-25 -101v-283h596v-165h-596v-361q-1 -71 25 -101t87 -30h563l9 -158q-186 -16 -607 -16z" />
    <glyph glyph-name="uni0416" unicode="&#x416;" horiz-adv-x="1871" 
d="M1157 653h-133q12 -74 12 -145v-508h-194v508q0 59 14 145h-143q-98 1 -171 -75t-109 -158q-79 -180 -159 -420h-215q10 27 76 223t102 257t69 112q82 123 245 141v8q-137 16 -216 117q-78 101 -132 248q-54 148 -107 307h209q117 -326 168 -418q98 -176 242 -176h139
q-12 78 -12 160v434h194v-434q0 -96 -10 -160h127q94 0 169 80t112 165q38 85 82 208t51 141h209q-117 -342 -166 -438q-113 -219 -291 -234v-8q61 -6 111 -25q76 -29 164 -154q28 -38 67 -132t58 -150t52 -151q33 -94 41 -121h-217q-129 362 -168 438q-82 170 -192 205
q-37 10 -78 10z" />
    <glyph glyph-name="uni0417" unicode="&#x417;" horiz-adv-x="1128" 
d="M528 1430q240 0 341 -77t102 -292q-1 -154 -57 -233t-181 -91v-8q152 -14 215 -107q64 -93 64 -288t-100 -273q-100 -77 -370 -77q-268 0 -470 49l18 147q545 -69 654 19q58 47 58 195t-62 202q-62 55 -224 55h-242v162h242q141 0 196 46q54 46 54 179q0 134 -58 180
t-206 46t-379 -25l-17 158q182 33 422 33z" />
    <glyph glyph-name="uni0418" unicode="&#x418;" horiz-adv-x="1421" 
d="M1249 0h-198v997q0 102 12 168h-12q-29 -76 -74 -159l-594 -1006h-211v1413h197v-987q0 -86 -13 -174h11q35 84 79 160l590 1001h213v-1413z" />
    <glyph glyph-name="uni0419" unicode="&#x419;" horiz-adv-x="1421" 
d="M1249 0h-198v997q0 102 12 168h-12q-35 -94 -74 -159l-594 -1006h-211v1413h197v-987q0 -102 -13 -174h13q29 78 77 160l590 1001h213v-1413zM877 1810h149q10 -122 -76 -204t-236 -82t-236 82q-87 82 -77 204h150q0 -178 163 -178t163 178z" />
    <glyph glyph-name="uni041A" unicode="&#x41a;" horiz-adv-x="1239" 
d="M510 653h-148q14 -86 15 -145v-508h-205v1413h205v-434q0 -70 -15 -160h142q129 0 210 96q80 96 148 287q38 103 74 211h207q-117 -342 -164 -434q-112 -225 -293 -238v-8q128 -12 195 -84q29 -31 48 -52t63 -107t77 -180q33 -93 64 -179t47 -131h-215q-123 352 -162 432
q-82 170 -199 207q-43 14 -94 14z" />
    <glyph glyph-name="uni041B" unicode="&#x41b;" horiz-adv-x="1341" 
d="M1169 1413v-1413h-206v1247h-261q-133 0 -145 -139q-35 -395 -59 -552t-82 -284q-123 -283 -379 -276l-17 160q143 39 203 172q53 126 78 284t55 533q25 268 293 268h520z" />
    <glyph glyph-name="uni041C" unicode="&#x41c;" horiz-adv-x="1804" 
d="M1296 1413h224q80 0 84 -84l57 -1329h-205l-49 1243h-41l-287 -1005q-18 -70 -88 -70h-178q-72 0 -90 70l-289 1005h-39l-47 -1243h-203l54 1329q4 84 84 84h227q63 0 86 -70l240 -827q20 -74 47 -190h37q25 109 49 192l237 825q22 70 90 70z" />
    <glyph glyph-name="uni041D" unicode="&#x41d;" horiz-adv-x="1372" 
d="M1200 1413v-1413h-207v666h-616v-666h-205v1413h205v-571h616v571h207z" />
    <glyph glyph-name="uni041E" unicode="&#x41e;" horiz-adv-x="1370" 
d="M684 1257q-200 -1 -274 -119t-74 -431t75 -433t273 -118q198 0 274 118t76 432t-76 432t-274 119zM121 707q0 413 125 573t439 160t439 -160t125 -574t-125 -573q-125 -160 -439 -160t-439 160t-125 574z" />
    <glyph glyph-name="uni041F" unicode="&#x41f;" horiz-adv-x="1374" 
d="M1202 1413v-1413h-205v1247h-620v-1247h-205v1413h1030z" />
    <glyph glyph-name="uni0420" unicode="&#x420;" horiz-adv-x="1212" 
d="M379 713h280q150 2 205 57t56 215q0 160 -56 215t-232 55t-253 -2v-540zM638 1432q290 0 389 -94t99 -354q0 -259 -95 -353t-343 -94q-152 0 -309 18v-555h-207v1413q176 19 466 19z" />
    <glyph glyph-name="uni0421" unicode="&#x421;" 
d="M680 1438q221 0 391 -41l-20 -158q-164 16 -365 16q-202 -1 -276 -119t-74 -429t75 -431t269 -118q260 0 399 22l21 -155q-170 -49 -420 -50q-309 0 -434 164q-125 163 -125 567t125 568t434 164z" />
    <glyph glyph-name="uni0422" unicode="&#x422;" horiz-adv-x="1196" 
d="M1149 1231h-449v-1231h-206v1231h-445v182h1100v-182z" />
    <glyph glyph-name="uni0423" unicode="&#x423;" horiz-adv-x="1161" 
d="M353 160q57 0 77 10t39 19q34 17 90 161l23 60h-74q-61 0 -95 24t-55 78l-319 901h209l274 -801q14 -31 43 -30h78l291 831h209l-375 -1063q-63 -172 -135 -263t-196 -101t-263 30l23 150q99 -6 156 -6z" />
    <glyph glyph-name="uni0424" unicode="&#x424;" horiz-adv-x="1683" 
d="M1376 725q0 236 -94 329t-346 103v-860q252 10 346 101t94 327zM305 726q0 -238 94 -328t349 -101v860q-256 -10 -350 -102q-94 -91 -93 -329zM944 -72h-205v197q-356 14 -500 146q-145 132 -145 453t144 455t501 148v197h203l2 -197q356 -14 500 -148q144 -133 143 -453
q0 -320 -144 -454t-499 -147v-197z" />
    <glyph glyph-name="uni0425" unicode="&#x425;" horiz-adv-x="1261" 
d="M653 655h-49l-336 -655h-221l387 731l-360 682h219l309 -602h53l310 602h223l-363 -682l389 -731h-223z" />
    <glyph glyph-name="uni0426" unicode="&#x426;" horiz-adv-x="1423" 
d="M1358 166v-475h-139l-21 309h-1026v1413h205v-1247h602v1247h207v-1247h172z" />
    <glyph glyph-name="uni0427" unicode="&#x427;" horiz-adv-x="1288" 
d="M1118 1413v-1413h-205v633q-229 -125 -473 -125q-164 0 -242 80t-79 243v582h205v-541q-2 -96 42 -139t148 -43q180 0 399 98v625h205z" />
    <glyph glyph-name="uni0428" unicode="&#x428;" horiz-adv-x="1914" 
d="M1743 1413v-1413h-1571v1413h201v-1247h485v1247h199v-1247h485v1247h201z" />
    <glyph glyph-name="uni0429" unicode="&#x429;" horiz-adv-x="1966" 
d="M1903 166v-475h-140l-20 309h-1571v1413h201v-1247h479v1247h199v-1247h479v1247h201v-1247h172z" />
    <glyph glyph-name="uni042A" unicode="&#x42a;" horiz-adv-x="1531" 
d="M1235 417q0 153 -52 210t-212 57h-275v-520l275 -2q160 0 212 51t52 204zM696 854h275q266 0 368 -96q103 -96 103 -344t-98 -339t-343 -91q-330 0 -512 16v1231h-442v182h649v-559z" />
    <glyph glyph-name="uni042B" unicode="&#x42b;" horiz-adv-x="1746" 
d="M655 684h-278v-520l278 -2q162 0 214 51q53 51 53 204t-52 210t-215 57zM1577 1413v-1413h-205v1413h205zM377 854h278q265 0 369 -96t104 -344t-98 -339t-342 -91q-330 0 -512 16h-4v1413h205v-559z" />
    <glyph glyph-name="uni042C" unicode="&#x42c;" horiz-adv-x="1218" 
d="M655 684h-278v-520l278 -2q162 0 214 51q53 51 53 204t-52 210t-215 57zM377 854h278q265 0 369 -96t104 -344t-98 -339t-342 -91q-330 0 -512 16h-4v1413h205v-559z" />
    <glyph glyph-name="uni042D" unicode="&#x42d;" horiz-adv-x="1183" 
d="M489 1438q317 0 445 -164t129 -567q0 -403 -128 -567t-446 -165q-244 0 -407 50l20 155q143 -20 390 -20q198 0 278 110t82 398h-598v159l596 2q-12 236 -93 330t-279 94t-363 -16l-21 160q170 41 395 41z" />
    <glyph glyph-name="uni042E" unicode="&#x42e;" horiz-adv-x="1910" 
d="M889 707q0 -313 72 -432q73 -119 267 -119t268 118t75 432q0 314 -75 433t-269 119t-266 -120q-72 -118 -72 -431zM1240 1440q298 0 424 -160t126 -574t-126 -573q-126 -160 -428 -160q-302 1 -422 149t-128 529h-307v-651h-205v1413h205v-596h309q14 347 134 485
t418 138z" />
    <glyph glyph-name="uni042F" unicode="&#x42f;" horiz-adv-x="1259" 
d="M883 741v512q-78 2 -252 2q-175 0 -229 -52t-55 -194q-1 -143 55 -205t194 -63h287zM596 1432q319 0 491 -19v-1413h-204v567q-74 -2 -285 -2q-139 0 -178 -141l-119 -424h-217l125 432q47 164 199 201l-2 10q-142 19 -204 111t-61 264q-1 222 105 318t350 96z" />
    <glyph glyph-name="uni0430" unicode="&#x430;" horiz-adv-x="1136" 
d="M303 342v-53q0 -74 35 -107t113 -32q180 0 337 141v178h-364q-66 -2 -94 -35t-27 -92zM614 1026q200 0 287 -74q86 -74 86 -256v-696h-158l-20 160q-174 -178 -399 -178q-139 0 -224 74q-84 75 -84 208v105q0 119 75 185t210 64h401v78q-2 92 -43 127t-157 35t-422 -24
l-19 145q267 47 467 47z" />
    <glyph glyph-name="uni0431" unicode="&#x431;" horiz-adv-x="1181" 
d="M606 801q-152 0 -207 -73q-55 -74 -55 -256t57 -256t203 -75q146 0 202 75t56 264t-51 255q-53 66 -205 66zM670 969q219 0 309 -111t90 -369t-100 -386t-352 -128t-365 116q-49 50 -75 139t-32 168q-6 80 -6 230q0 305 65 481q38 103 113 167q76 62 165 90q90 28 180 42
q197 32 313 103l47 -155q-126 -78 -303 -104q-88 -13 -141 -27q-229 -66 -271 -312q-14 -78 -20 -147h4q29 59 63 98q35 39 116 72t200 33z" />
    <glyph glyph-name="uni0432" unicode="&#x432;" horiz-adv-x="1136" 
d="M831 289q0 88 -54 122t-189 33h-246v-301l256 -2q133 0 183 30t50 118zM342 586h246q123 0 171 28t48 109q1 81 -53 107t-191 26l-221 2v-272zM1030 233q0 -137 -90 -192t-350 -55t-434 12v999q156 13 406 13t341 -56q92 -56 92 -211q0 -107 -51 -163t-164 -64v-6
q134 -10 192 -75t58 -202z" />
    <glyph glyph-name="uni0433" unicode="&#x433;" horiz-adv-x="956" 
d="M379 1006q371 0 534 -19l-6 -139h-444q-59 0 -87 -28t-28 -89v-731h-196v784q0 222 227 222z" />
    <glyph glyph-name="uni0434" unicode="&#x434;" horiz-adv-x="1216" 
d="M815 160v686h-197q-111 0 -120 -117q-25 -348 -142 -569h459zM1147 160v-455h-131l-17 295h-794l-17 -295h-131v455h121q113 242 141 602q16 238 267 237h418v-839h143z" />
    <glyph glyph-name="uni0435" unicode="&#x435;" horiz-adv-x="1112" 
d="M574 858q-136 0 -194 -62t-65 -239h400q100 0 96 133q0 92 -50 130t-187 38zM608 141q142 0 361 25l18 -131q-135 -59 -396 -59t-372 119q-111 120 -111 409q0 290 110 406q108 116 345 116t341 -84t108 -252q0 -287 -244 -287h-449q15 -156 81 -209t208 -53z" />
    <glyph glyph-name="uni0436" unicode="&#x436;" horiz-adv-x="1628" 
d="M905 350v-350h-176v350q0 39 10 94h-145q-106 -2 -161 -80q-54 -79 -150 -321q-10 -29 -17 -43h-200q29 86 44 126t43 114t63 129q34 55 54 71q61 49 103 61q43 13 84 17v6q-55 5 -141 48q-26 12 -54 54t-43 62q-14 20 -42 89t-38 99t-45 123h199q103 -283 164 -344
t145 -61h137q-10 47 -10 115v290h176v-290q0 -70 -10 -115h129q109 0 166 86t143 319h201q-35 -93 -45 -123t-38 -99t-42 -89t-43 -61t-54 -55q-86 -43 -141 -48v-6q55 -6 95 -19t76 -48t59 -64t53 -101t49 -122q18 -51 60 -164h-203q-109 291 -168 366q-59 76 -160 78h-137
q10 -55 10 -94z" />
    <glyph glyph-name="uni0437" unicode="&#x437;" horiz-adv-x="1026" 
d="M460 1018q222 0 321 -54t100 -214q0 -113 -47 -168t-162 -66v-6q131 -10 188 -72q58 -62 58 -206q0 -142 -98 -196t-341 -54q-244 0 -403 32l14 150q483 -39 573 12q50 29 50 114q-1 85 -53 116t-189 30h-248v146h246q127 0 171 30t44 109q0 81 -53 105t-217 24t-289 -16
l-16 149q129 35 351 35z" />
    <glyph glyph-name="uni0438" unicode="&#x438;" horiz-adv-x="1204" 
d="M158 0v999h176v-634q0 -61 -6 -136h6q39 78 69 119l484 651h160v-999h-179v633l6 139h-4q-20 -55 -71 -123l-482 -649h-159z" />
    <glyph glyph-name="uni0439" unicode="&#x439;" horiz-adv-x="1204" 
d="M1049 0h-181v633q0 33 9 139h-7q-18 -49 -69 -123l-482 -649h-161v999h178v-634q0 -70 -8 -136h6q35 70 72 119l481 651h162v-999zM758 1442h149q10 -123 -76 -205q-85 -82 -235 -82t-237 82t-76 205h149q0 -178 163 -178t163 178z" />
    <glyph glyph-name="uni043A" unicode="&#x43a;" horiz-adv-x="1105" 
d="M481 442h-135q8 -66 8 -92v-350h-196v999h196v-288q0 -49 -10 -115h125q131 0 195 87q63 87 143 316h205q-35 -92 -66 -178t-56 -122q-25 -37 -53 -75t-55 -52q-75 -40 -145 -50v-4q152 -19 211 -97q59 -79 91 -155t49 -123t52 -143h-206q-114 299 -152 344
q-61 77 -108 87q-46 11 -93 11z" />
    <glyph glyph-name="uni043B" unicode="&#x43b;" horiz-adv-x="1161" 
d="M1004 999v-999h-199v846h-201q-61 0 -87 -27t-36 -96q-49 -381 -92 -506q-74 -233 -330 -227l-20 151q80 18 116 46t58 85q47 125 82 486q14 123 79 182t193 59h437z" />
    <glyph glyph-name="uni043C" unicode="&#x43c;" horiz-adv-x="1542" 
d="M1090 999h202q74 0 74 -73l41 -926h-184l-37 850h-33l-233 -674q-18 -63 -76 -63h-150q-55 0 -78 63l-231 674h-33l-35 -850h-182l39 926q0 74 76 73h201q57 0 75 -63l189 -551q23 -66 39 -143h30q18 73 39 143l189 551q23 63 78 63z" />
    <glyph glyph-name="uni043D" unicode="&#x43d;" horiz-adv-x="1198" 
d="M1042 999v-999h-196v455h-494v-455h-194v999h194v-393h494v393h196z" />
    <glyph glyph-name="uni043E" unicode="&#x43e;" horiz-adv-x="1173" 
d="M588 858q-156 0 -213 -76t-57 -284t56 -283q58 -76 213 -76t213 76t58 284q0 207 -57 283t-213 76zM588 1026q260 0 368 -121t109 -407q0 -286 -109 -406q-110 -119 -370 -119t-369 120t-109 406q0 287 110 407t370 120z" />
    <glyph glyph-name="uni043F" unicode="&#x43f;" horiz-adv-x="1181" 
d="M1024 999v-999h-193v840h-481v-840h-192v999h866z" />
    <glyph glyph-name="uni0440" unicode="&#x440;" horiz-adv-x="1202" 
d="M657 147q129 0 180 71q50 71 50 274q0 202 -46 282t-167 80t-320 -145v-508q217 -54 303 -54zM750 1026q178 0 260 -134t82 -408t-92 -391q-92 -118 -292 -118t-360 101q8 -102 6 -203v-281h-196v1407h164l14 -153q78 82 192 131t222 49z" />
    <glyph glyph-name="uni0441" unicode="&#x441;" horiz-adv-x="1013" 
d="M588 1026q199 0 330 -51l-25 -127q-154 10 -272 10q-172 0 -238 -76t-66 -282t66 -283q66 -76 236 -76t296 23l21 -133q-154 -55 -350 -56q-262 0 -370 118t-107 407q1 290 109 408t370 118z" />
    <glyph glyph-name="uni0442" unicode="&#x442;" horiz-adv-x="1011" 
d="M961 838h-355v-838h-198v838h-355v161h908v-161z" />
    <glyph glyph-name="uni0443" unicode="&#x443;" horiz-adv-x="1097" 
d="M459 0q-53 0 -70 51l-352 948h211l248 -727q29 -76 36 -122h29l287 849h213l-389 -1046q-74 -209 -189 -297q-137 -102 -391 -66l19 140q160 -12 239 41q78 55 137 192l15 37h-43z" />
    <glyph glyph-name="uni0444" unicode="&#x444;" horiz-adv-x="1480" 
d="M1182 498q0 188 -79 268t-278 90v-713q199 10 278 89q79 78 79 266zM299 500q0 -188 79 -268t277 -89v713q-199 -10 -277 -89t-79 -267zM1374 499q0 -267 -125 -387t-418 -135v-385h-182v385q-293 15 -418 135t-125 387t125 389t418 136v410h182v-410q293 -14 418 -136
t125 -389z" />
    <glyph glyph-name="uni0445" unicode="&#x445;" horiz-adv-x="1097" 
d="M567 442h-37l-270 -442h-215l326 516l-301 483h213l243 -403h45l244 403h213l-301 -483l326 -516h-215z" />
    <glyph glyph-name="uni0446" unicode="&#x446;" horiz-adv-x="1226" 
d="M1155 160v-455h-131l-18 295h-848v999h194v-839h465v839h199l-2 -839h141z" />
    <glyph glyph-name="uni0447" unicode="&#x447;" horiz-adv-x="1099" 
d="M743 0v408q-209 -68 -376 -68q-258 0 -258 221v438h194v-370q0 -70 30 -99t99 -28q158 0 311 63v434h201l-4 -999h-197z" />
    <glyph glyph-name="uni0448" unicode="&#x448;" horiz-adv-x="1660" 
d="M1503 999v-999h-1345v999h190v-839h391v839h179v-839h393v839h192z" />
    <glyph glyph-name="uni0449" unicode="&#x449;" horiz-adv-x="1718" 
d="M1647 160v-455h-131l-21 295h-1337v999h190v-839h393v839h177v-839h395v839h190v-839h144z" />
    <glyph glyph-name="uni044A" unicode="&#x44a;" horiz-adv-x="1298" 
d="M1012 308q0 97 -43 133t-164 36h-215v-332l215 -2q119 0 163 34t44 131zM590 623h215q233 0 321 -69t88 -250t-87 -249q-87 -67 -328 -67t-402 12v844h-346v155h539v-376z" />
    <glyph glyph-name="uni044B" unicode="&#x44b;" horiz-adv-x="1497" 
d="M770 308q0 97 -42 133t-161 36h-219v-332l219 -2q117 0 160 34t43 131zM1339 999v-999h-198v999h198zM348 623h219q231 0 317 -69t87 -250q0 -181 -84 -249q-84 -67 -325 -67t-400 12h-4v999h190v-376z" />
    <glyph glyph-name="uni044C" unicode="&#x44c;" horiz-adv-x="1060" 
d="M776 308q0 97 -44 133t-165 36h-219v-332l219 -2q121 0 165 34t44 131zM348 623h219q233 0 321 -69t89 -250q0 -181 -85 -249q-85 -67 -328 -67t-402 12h-4v999h190v-376z" />
    <glyph glyph-name="uni044D" unicode="&#x44d;" horiz-adv-x="1046" 
d="M438 1014q276 0 387 -115t111 -403t-111 -403q-111 -116 -387 -116q-213 0 -356 43l18 140q152 -12 325 -12t237 60t71 226h-504v150h502q-10 152 -76 209t-238 56t-304 -11l-21 137q133 39 346 39z" />
    <glyph glyph-name="uni044E" unicode="&#x44e;" horiz-adv-x="1640" 
d="M1050 147q155 0 214 76t59 280q0 203 -59 279t-214 76t-210 -75q-56 -75 -56 -279t56 -281q56 -76 210 -76zM1066 1026q253 0 358 -112q106 -112 106 -410t-106 -411q-106 -111 -361 -111q-256 0 -356 98t-109 358h-244v-438h-196v999h196v-407h244q14 248 114 341
t354 93z" />
    <glyph glyph-name="uni044F" unicode="&#x44f;" horiz-adv-x="1120" 
d="M770 512v338l-250 2q-120 0 -156 -34t-36 -133t39 -136t157 -37h246zM516 1012q301 0 449 -15v-997h-195v365h-258q-131 0 -158 -97l-73 -268h-205l90 301q31 109 192 127v8q-119 18 -171 86t-52 206t84 212q84 72 297 72z" />
    <glyph glyph-name="uni0451" unicode="&#x451;" horiz-adv-x="1112" 
d="M574 858q-136 0 -194 -62t-65 -239h400q100 0 96 133q0 92 -50 130t-187 38zM608 141q142 0 361 25l18 -131q-135 -59 -396 -59t-372 119q-111 120 -111 409q0 290 110 406q108 116 345 116t341 -84t108 -252q0 -287 -244 -287h-449q15 -156 81 -209t208 -53zM793 1200
h-66q-55 0 -55 53v111q0 55 55 55h66q53 0 53 -55v-111q0 -53 -53 -53zM430 1200h-68q-53 0 -53 53v111q0 55 53 55h68q51 0 51 -55v-111q0 -53 -51 -53z" />
    <glyph glyph-name="uni0452" unicode="&#x452;" horiz-adv-x="1206" 
d="M823 827q270 0 275 -274v-563q0 -124 -54 -230t-149 -174l-111 86q115 137 115 316v508q0 86 -36 120t-126 35q-131 0 -336 -121v-530h-196v1006h-152v112h152v316h196l2 -316h369v-112h-369v-156q0 -88 -10 -174q223 151 430 151z" />
    <glyph glyph-name="uni0453" unicode="&#x453;" horiz-adv-x="956" 
d="M379 1006q371 0 536 -19l-8 -139h-444q-59 0 -87 -28t-28 -89v-731h-196v784q0 222 227 222zM883 1360l-408 -240l-65 92l362 299z" />
    <glyph glyph-name="uni0454" unicode="&#x454;" horiz-adv-x="1046" 
d="M608 -23q-276 0 -387 116t-111 404q0 289 112 403q110 114 386 114q213 0 346 -39l-20 -137q-134 10 -306 11t-238 -56t-75 -209h504v-150h-506q7 -166 71 -226t237 -60t325 12l19 -140q-143 -43 -357 -43z" />
    <glyph glyph-name="uni0455" unicode="&#x455;" horiz-adv-x="1050" 
d="M486 858q-104 0 -149 -17q-44 -17 -44 -93q0 -35 6 -57t36 -38t101 -37l283 -69q125 -33 179 -94t54 -187q0 -176 -97 -232t-321 -56t-413 28l14 148q113 -10 311 -10t255 23q58 24 59 99q0 33 -8 55q-15 42 -144 72l-278 70q-125 33 -176 97t-52 188q0 166 88 223
q90 57 318 54t414 -34l-15 -143q-317 10 -421 10z" />
    <glyph glyph-name="uni0456" unicode="&#x456;" horiz-adv-x="526" 
d="M362 0h-196v999h196v-999zM217 1425h94q57 0 58 -57v-115q0 -59 -58 -59h-94q-59 0 -59 59v115q0 57 59 57z" />
    <glyph glyph-name="uni0457" unicode="&#x457;" horiz-adv-x="526" 
d="M362 0h-196v999h196v-999zM414 1419h63q55 0 55 -55v-111q0 -53 -55 -53h-63q-55 0 -56 53v111q1 55 56 55zM49 1419h66q53 0 53 -55v-111q0 -53 -53 -53h-66q-53 0 -53 53v111q0 55 53 55z" />
    <glyph glyph-name="uni0458" unicode="&#x458;" horiz-adv-x="528" 
d="M365 999v-1009q-1 -124 -55 -230t-148 -174l-109 86q113 141 113 318v1009h199zM219 1425h92q59 0 60 -57v-115q0 -59 -60 -59h-92q-59 0 -59 59v115q0 57 59 57z" />
    <glyph glyph-name="uni0459" unicode="&#x459;" horiz-adv-x="1656" 
d="M1372 309q0 100 -43 136t-162 36h-213v-336l205 -2q123 0 168 33t45 133zM954 625h213q231 0 319 -69t87 -252q0 -183 -87 -250q-88 -66 -324 -66t-396 12v850h-150q-56 0 -82 -20t-32 -74q-43 -401 -103 -551q-43 -113 -131 -165t-196 -46l-17 135q119 39 161 122
t59 182t47 360q23 207 239 206h393v-374z" />
    <glyph glyph-name="uni045A" unicode="&#x45a;" horiz-adv-x="1669" 
d="M1384 309q0 98 -42 134t-162 36h-215v-334l215 -2q116 0 160 34t44 132zM965 623h215q233 0 319 -68t86 -250t-85 -250q-86 -67 -324 -67t-398 12v479h-438v-479h-182v999h182v-376h438v376h187v-376z" />
    <glyph glyph-name="uni045B" unicode="&#x45b;" horiz-adv-x="1206" 
d="M823 827q274 0 275 -274v-553h-199v496q0 86 -36 120t-126 35q-131 0 -336 -121v-530h-196v1006h-152v112h152v316h196l2 -316h369v-112h-369v-156q0 -88 -10 -174q223 151 430 151z" />
    <glyph glyph-name="uni045C" unicode="&#x45c;" horiz-adv-x="1105" 
d="M481 442h-135q8 -66 8 -92v-350h-196v999h196v-288q0 -66 -10 -115h125q99 0 162 54t122 202q19 49 54 147h205q-35 -92 -66 -178t-56 -122q-25 -37 -53 -75t-55 -52q-75 -40 -145 -50v-4q152 -19 211 -97q59 -79 91 -155t49 -123t52 -143h-206q-114 299 -152 344
q-61 77 -108 87q-46 11 -93 11zM498 1120l-66 92l363 299l110 -151z" />
    <glyph glyph-name="uni045D" unicode="&#x45d;" horiz-adv-x="1204" 
d="M1049 0h-181v633q0 33 9 139h-7q-18 -49 -69 -123l-482 -649h-161v999h178v-634q0 -70 -8 -136h6q35 70 72 119l481 651h162v-999zM702 1212l-65 -92l-408 240l111 151z" />
    <glyph glyph-name="uni045E" unicode="&#x45e;" horiz-adv-x="1097" 
d="M461 0q-57 0 -70 51l-354 948h211l250 -727q25 -63 34 -122h31l285 849h213l-387 -1046q-80 -211 -191 -297q-137 -102 -391 -66l19 140q161 -12 241 42t135 191l15 37h-41zM546 1155q-150 0 -236 83q-87 83 -77 206h150q0 -180 166 -180q160 0 160 180h149
q10 -123 -76 -206t-236 -83z" />
    <glyph glyph-name="uni045F" unicode="&#x45f;" horiz-adv-x="1191" 
d="M1036 999v-999h-358l-16 -338h-134l-16 338h-354v999h194l4 -839h480l2 839h198z" />
    <glyph glyph-name="uni0490" unicode="&#x490;" horiz-adv-x="1075" 
d="M1034 1724v-342l-8 -141h-522q-72 0 -102 -31t-29 -110v-1100h-205v1139q0 123 75 201t191 77q299 0 445 -14l22 321h133z" />
    <glyph glyph-name="uni0491" unicode="&#x491;" horiz-adv-x="960" 
d="M918 1298v-311l-9 -139h-446q-113 0 -113 -117v-731h-196v784q0 221 227 222q260 0 385 -7l20 299h132z" />
    <glyph glyph-name="uni04B0" unicode="&#x4b0;" horiz-adv-x="1198" 
d="M702 449v-449h-204v449h-301v120h262l-428 844h219l282 -579q16 -35 62 -164h16q31 100 62 161l282 582h213l-424 -844h261l2 -120h-304z" />
    <glyph glyph-name="uni04B1" unicode="&#x4b1;" horiz-adv-x="1204" 
d="M1008 160v-125h-303v-443h-203v443h-305v125h264l-428 839h217l282 -573q29 -59 62 -162h16q33 102 62 162l282 573h217l-428 -839h265z" />
    <glyph glyph-name="uni04B6" unicode="&#x4b6;" horiz-adv-x="1349" 
d="M1288 141v-450h-139l-21 309h-213v621q-233 -113 -466 -113q-168 0 -249 80t-81 243v582h207v-541q-4 -98 42 -142t152 -44q180 0 395 100v627h205v-1272h168z" />
    <glyph glyph-name="uni04B7" unicode="&#x4b7;" horiz-adv-x="1155" 
d="M1083 160v-455h-131l-18 295h-191v408q-209 -68 -376 -68q-258 0 -258 221v438h194v-370q0 -70 30 -99t99 -28q158 0 311 63v434h201l-4 -839h143z" />
    <glyph glyph-name="uni04BA" unicode="&#x4ba;" horiz-adv-x="1290" 
d="M842 905q168 0 249 -80t80 -243v-582h-204v541q2 98 -44 142t-153 44q-190 0 -393 -98v-629h-205v1413h205v-618q227 110 465 110z" />
    <glyph glyph-name="uni04C0" unicode="&#x4c0;" horiz-adv-x="550" 
d="M379 0h-205v1413h205v-1413z" />
    <glyph glyph-name="Wgrave" unicode="&#x1e80;" horiz-adv-x="1947" 
d="M1536 0h-229q-63 0 -78 61l-236 1199h-41l-233 -1199q-14 -61 -80 -61h-229q-29 0 -52 16t-26 43l-271 1354h218l200 -1077q12 -68 27 -180h47q10 88 31 180l202 1010q10 68 78 67h219q29 0 51 -19t25 -48l203 -1012q20 -96 29 -178h49q20 141 26 176l203 1081h215
l-270 -1354q-14 -59 -78 -59zM1081 1577l-65 -92l-408 239l111 152z" />
    <glyph glyph-name="wgrave" unicode="&#x1e81;" horiz-adv-x="1691" 
d="M1290 0h-178q-63 0 -78 63l-145 658q-4 18 -11 60t-20 100h-24q-20 -106 -33 -160l-144 -658q-14 -63 -77 -63h-174q-63 0 -76 55l-283 944h205l192 -720q18 -68 33 -154h27q11 77 33 154l147 659q14 61 74 61h178q59 0 74 -63l145 -657q27 -111 35 -154h27
q27 137 30 154l195 720h205l-283 -944q-12 -55 -74 -55zM952 1212l-65 -92l-408 240l111 151z" />
    <glyph glyph-name="Wacute" unicode="&#x1e82;" horiz-adv-x="1947" 
d="M1536 0h-229q-63 0 -78 61l-236 1199h-41l-233 -1199q-14 -61 -80 -61h-229q-29 0 -52 16t-26 43l-271 1354h218l200 -1077q12 -68 27 -180h47q10 88 31 180l202 1010q10 68 78 67h219q29 0 51 -19t25 -48l203 -1012q20 -96 29 -178h49q20 141 26 176l203 1081h215
l-270 -1354q-14 -59 -78 -59zM1309 1724l-408 -239l-65 92l362 299z" />
    <glyph glyph-name="wacute" unicode="&#x1e83;" horiz-adv-x="1691" 
d="M1290 0h-178q-63 0 -78 63l-145 658q-4 18 -11 60t-20 100h-24q-20 -106 -33 -160l-144 -658q-14 -63 -77 -63h-174q-63 0 -76 55l-283 944h205l192 -720q18 -68 33 -154h27q11 77 33 154l147 659q14 61 74 61h178q59 0 74 -63l145 -657q27 -111 35 -154h27
q27 137 30 154l195 720h205l-283 -944q-12 -55 -74 -55zM1180 1360l-408 -240l-65 92l362 299z" />
    <glyph glyph-name="Wdieresis" unicode="&#x1e84;" horiz-adv-x="1947" 
d="M1536 0h-229q-63 0 -78 61l-236 1199h-41l-233 -1199q-14 -61 -80 -61h-229q-29 0 -52 16t-26 43l-271 1354h218l200 -1077q12 -68 27 -180h47q10 88 31 180l202 1010q10 68 78 67h219q29 0 51 -19t25 -48l203 -1012q20 -96 29 -178h49q20 141 26 176l203 1081h215
l-270 -1354q-14 -59 -78 -59zM1124 1786h66q55 0 55 -55v-111q0 -55 -55 -55h-66q-53 0 -53 55v111q0 55 53 55zM762 1786h65q53 0 54 -55v-111q0 -55 -54 -55h-65q-53 0 -53 55v111q0 55 53 55z" />
    <glyph glyph-name="wdieresis" unicode="&#x1e85;" horiz-adv-x="1691" 
d="M1290 0h-178q-63 0 -78 63l-145 658q-4 18 -11 60t-20 100h-24q-20 -106 -33 -160l-144 -658q-14 -63 -77 -63h-174q-63 0 -76 55l-283 944h205l192 -720q18 -68 33 -154h27q11 77 33 154l147 659q14 61 74 61h178q59 0 74 -63l145 -657q27 -111 35 -154h27
q27 137 30 154l195 720h205l-283 -944q-12 -55 -74 -55zM995 1421h66q55 0 55 -55v-111q0 -55 -55 -55h-66q-53 0 -53 55v111q0 55 53 55zM633 1421h65q53 0 54 -55v-111q0 -55 -54 -55h-65q-53 0 -53 55v111q0 55 53 55z" />
    <glyph glyph-name="Ygrave" unicode="&#x1ef2;" horiz-adv-x="1175" 
d="M690 0h-205v494l-467 919h218l284 -579q16 -35 62 -164h14q39 113 61 161l285 582h213l-465 -924v-489zM627 1487l-408 239l111 152l362 -299z" />
    <glyph glyph-name="ygrave" unicode="&#x1ef3;" horiz-adv-x="1091" 
d="M457 0q-57 0 -70 51l-354 948h211l250 -727q25 -63 34 -122h29l287 849h213l-389 -1046q-135 -369 -459 -373l-19 131q117 35 185 96t108 156l15 37h-41zM592 1120l-408 240l111 151l362 -299z" />
    <glyph glyph-name="endash" unicode="&#x2013;" horiz-adv-x="1200" 
d="M1059 442h-918v152h918v-152z" />
    <glyph glyph-name="emdash" unicode="&#x2014;" horiz-adv-x="1820" 
d="M1677 442h-1536v152h1536v-152z" />
    <glyph glyph-name="quoteleft" unicode="&#x2018;" horiz-adv-x="452" 
d="M254 1006h-57q-39 0 -55 14q-15 14 -15 53v119q2 170 78 301l92 -25q-20 -109 -21 -229q57 0 54 -57v-109q-2 -39 -18 -53t-58 -14z" />
    <glyph glyph-name="quoteright" unicode="&#x2019;" horiz-adv-x="446" 
d="M195 1479h57q41 -1 56 -15t14 -51l2 -121q-2 -162 -78 -301l-94 25q23 106 22 229q-55 0 -55 58v110q1 37 19 51t57 15z" />
    <glyph glyph-name="quotesinglbase" unicode="&#x201a;" horiz-adv-x="475" 
d="M211 236h57q40 0 56 -14t14 -52l2 -121q-2 -164 -78 -301l-94 25q23 123 22 229q-55 0 -55 57v111q2 66 76 66z" />
    <glyph glyph-name="quotedblleft" unicode="&#x201c;" horiz-adv-x="780" 
d="M582 1006h-58q-41 0 -55 14t-12 53l-2 119q2 164 77 301l95 -25q-23 -104 -23 -229q55 0 55 -57l-2 -109q-2 -39 -18 -53t-57 -14zM254 1006h-57q-39 0 -55 14q-15 14 -15 53v119q2 170 78 301l92 -25q-20 -109 -21 -229q57 0 54 -57v-109q-2 -39 -18 -53t-58 -14z" />
    <glyph glyph-name="quotedblright" unicode="&#x201d;" horiz-adv-x="774" 
d="M522 1479h60q39 -1 54 -15t13 -51l2 -121q-2 -162 -78 -301l-94 25q23 106 23 229q-55 0 -56 58v110q2 37 20 51t56 15zM195 1479h57q41 -1 56 -15t14 -51l2 -121q-2 -162 -78 -301l-94 25q23 106 22 229q-55 0 -55 58v110q1 37 19 51t57 15z" />
    <glyph glyph-name="quotedblbase" unicode="&#x201e;" horiz-adv-x="802" 
d="M539 236h57q41 0 56 -14t14 -52l2 -121q-2 -164 -78 -301l-94 25q23 123 22 229q-55 0 -55 57v111q1 38 19 52t57 14zM211 236h57q40 0 56 -14t14 -52l2 -121q-2 -164 -78 -301l-94 25q23 123 22 229q-55 0 -55 57v111q2 66 76 66z" />
    <glyph glyph-name="dagger" unicode="&#x2020;" horiz-adv-x="935" 
d="M854 999v-172l-266 23v149h266zM82 999h266v-149l-266 -23v172zM557 -225h-178l8 1102v114l-8 424h180l-10 -424v-114z" />
    <glyph glyph-name="daggerdbl" unicode="&#x2021;" horiz-adv-x="1013" 
d="M893 190h-266v150l266 22v-172zM387 190h-266v172l266 -22v-150zM627 999h266v-172l-266 23v149zM121 999h266v-149l-266 -23v172zM588 995v-805l8 -415h-178l8 415v805l-8 420h178z" />
    <glyph glyph-name="bullet" unicode="&#x2022;" horiz-adv-x="747" 
d="M365 741h26q98 0 137 -39t39 -137v-26q0 -105 -39 -145t-137 -40h-26q-104 0 -145 40q-40 40 -40 145v26q0 98 40 137q41 39 145 39z" />
    <glyph glyph-name="ellipsis" unicode="&#x2026;" horiz-adv-x="1761" 
d="M1483 254h65q40 0 56 -16t16 -56v-108q0 -42 -15 -58t-57 -16h-65q-41 0 -58 16q-16 16 -16 58v108q0 39 16 56q17 16 58 16zM840 254h65q41 0 57 -15t17 -57v-108q0 -42 -16 -58t-58 -16h-65q-41 0 -57 16q-15 16 -15 58v108q0 39 15 56q16 16 57 16zM199 254h65
q39 0 55 -16t17 -56v-108q0 -42 -15 -58t-57 -16h-65q-41 0 -57 16q-15 16 -15 58v108q0 39 16 56q17 16 56 16z" />
    <glyph glyph-name="perthousand" unicode="&#x2030;" horiz-adv-x="2605" 
d="M2359 400q0 168 -39 232q-39 62 -143 62t-143 -63t-39 -231t39 -234q39 -64 142 -64t143 65t40 233zM1409 694q-104 0 -143 -63t-39 -231t39 -234q39 -64 143 -64t143 65t39 233t-39 232q-39 62 -143 62zM2177 819q184 0 258 -96q74 -97 74 -325t-74 -323t-258 -95
t-258 95t-74 323t74 324t258 97zM1077 398q0 228 75 324t258 97q183 0 258 -96q75 -97 75 -325t-75 -323t-258 -95t-258 95t-75 323zM604 1018q0 172 -39 236t-142 63q-103 1 -142 -63t-39 -234t39 -234t143 -63q104 0 142 62q38 61 38 233zM532 0h-139l903 1413h140z
M424 1440q184 0 259 -95t75 -323t-75 -326q-75 -96 -259 -96t-259 96t-75 324t75 324t259 96z" />
    <glyph glyph-name="guilsinglleft" unicode="&#x2039;" horiz-adv-x="606" 
d="M512 874l-250 -360l252 -367l-104 -69l-330 414v45l328 405z" />
    <glyph glyph-name="guilsinglright" unicode="&#x203a;" horiz-adv-x="610" 
d="M528 537v-45l-329 -414l-107 69l252 367l-250 360l107 68z" />
    <glyph glyph-name="fraction" unicode="&#x2044;" horiz-adv-x="327" 
d="M-217 0h-141l903 1413h139z" />
    <glyph glyph-name="Euro" unicode="&#x20ac;" horiz-adv-x="1304" 
d="M102 528v121h162v58q0 57 2 86h-162v120h170q31 265 164 395t398 130q184 0 342 -41l-21 -162q-165 29 -323 21t-238 -92q-80 -83 -104 -251h507l-14 -120h-506q-2 -29 -2 -91v-53h447l-15 -121h-424q23 -186 103 -275t235 -93q193 -11 359 22l22 -157q-154 -49 -368 -50
q-272 -1 -404 135t-160 418h-170z" />
    <glyph glyph-name="trademark" unicode="&#x2122;" horiz-adv-x="1980" 
d="M1417 743h-102q-43 0 -60 45l-172 529h-24l-29 -670h-131l31 723q4 55 53 55h145q39 0 56 -45l143 -432q4 -14 13 -52t16 -58h20q6 18 16 56q9 38 15 56l139 430q14 45 58 45h147q51 0 53 -55l31 -723h-131l-31 670h-24l-172 -529q-16 -45 -60 -45zM803 1425v-116h-264
v-662h-142v662h-264v116h670z" />
    <glyph glyph-name="partialdiff" unicode="&#x2202;" horiz-adv-x="1173" 
d="M549 152q158 0 220 127t81 374q-125 102 -272 103q-260 0 -275 -289q-5 -143 55 -229t191 -86zM262 1288v152q186 2 311 -14q284 -37 385 -194q116 -179 97 -539q-18 -361 -134 -539t-376 -179q-351 0 -423 313q-19 83 -16 179q10 203 118 331t310 125t322 -149
q10 306 -110 410t-484 104z" />
    <glyph glyph-name="emptyset" unicode="&#x2205;" horiz-adv-x="1402" 
d="M735 350h-80q-14 0 -14 -16v-76q0 -14 14 -14h80q16 0 17 14v76q-1 16 -17 16zM702 1116q-104 0 -249 -22l6 -93q123 19 251 19t128 -94q0 -75 -100 -178q-38 -39 -68 -107t-31 -147h111q0 72 29 132q30 60 67 95t66 89q30 54 30 116q0 190 -240 190zM702 1296
q248 0 423 -175t175 -423t-175 -424t-423 -176t-424 176t-176 424t176 423t424 175z" />
    <glyph glyph-name="product" unicode="&#x220f;" horiz-adv-x="1474" 
d="M1399 1245h-207v-1454h-197v1454h-514v-1454h-198v1454h-207v168h1323v-168z" />
    <glyph glyph-name="summation" unicode="&#x2211;" horiz-adv-x="1212" 
d="M1090 1247h-744l332 -540l-361 -775h793v-165h-1012v165l359 775l-334 540v166h967v-166z" />
    <glyph glyph-name="minus" unicode="&#x2212;" horiz-adv-x="1198" 
d="M1051 530h-906v148h906v-148z" />
    <glyph glyph-name="radical" unicode="&#x221a;" horiz-adv-x="1163" 
d="M582 0h-234q-23 0 -26 16l-259 983h166l222 -866h26l475 1661h168l-512 -1778q-6 -16 -26 -16z" />
    <glyph glyph-name="infinity" unicode="&#x221e;" horiz-adv-x="1593" 
d="M1139 477q78 0 122 39t44 115q0 141 -154 141q-59 0 -111 -26t-80 -52q-26 -26 -71 -78q109 -139 250 -139zM457 477q76 0 133 37t121 109q-68 77 -122 113t-143 36q-158 0 -157 -141q0 -154 168 -154zM1190 918q123 0 204 -72t81 -213t-87 -221t-223 -80
q-195 0 -366 184q-180 -184 -375 -184q-131 0 -218 81t-87 221t84 212t215 72q205 0 381 -195q190 195 391 195z" />
    <glyph glyph-name="integral" unicode="&#x222b;" horiz-adv-x="753" 
d="M484 1462q128 0 204 -8l-12 -141h-133q-72 0 -101 -35t-24 -123l94 -1337q8 -139 -48 -206t-198 -67t-200 9l12 141h129q75 0 103 37t24 125l-92 1333q-8 132 53 202t189 70z" />
    <glyph glyph-name="approxequal" unicode="&#x2248;" horiz-adv-x="1200" 
d="M915 518h134q36 -256 -209 -254q-76 2 -242 58t-222 59q-56 2 -74 -21t-17 -90h-131q-20 137 35 201q56 63 167 59q68 -2 236 -58t228 -59t78 19q17 23 17 86zM915 911h134q36 -260 -209 -256q-76 1 -242 59t-221 60t-74 -21q-18 -24 -18 -89h-131q-20 134 36 198t166 60
q68 -2 236 -58t228 -58q60 -3 78 18q17 22 17 87z" />
    <glyph glyph-name="notequal" unicode="&#x2260;" horiz-adv-x="1261" 
d="M1090 459v-148h-619l-154 -252l-57 29l135 223h-211v148h299l174 284h-473v148h561l136 223l59 -31l-117 -192h267v-148h-357l-172 -284h529z" />
    <glyph glyph-name="lessequal" unicode="&#x2264;" horiz-adv-x="1153" 
d="M1016 152h-883v145h883v-145zM999 948l-671 -203l671 -186v-158l-843 265v157l843 283v-158z" />
    <glyph glyph-name="greaterequal" unicode="&#x2265;" horiz-adv-x="1153" 
d="M1020 152h-883v145h883v-145zM997 823v-157l-843 -265v158l671 186l-671 203v158z" />
    <glyph glyph-name="lozenge" unicode="&#x25ca;" horiz-adv-x="1173" 
d="M229 709l359 -514l356 514l-356 510zM604 1415l502 -688q8 -18 0 -37l-502 -692q-16 -23 -33 0l-503 692q-8 18 0 37l503 688q17 23 33 0z" />
    <glyph glyph-name="fi" unicode="&#xfb01;" horiz-adv-x="1265" 
d="M956 1425h95q57 0 57 -57v-115q0 -59 -57 -59h-95q-59 0 -59 59v115q0 57 59 57zM1104 999v-999h-197v846h-473v-846h-198v846h-181v143l181 10v150q0 158 68 239q68 80 226 80t242 -14v-147h-170q-94 0 -131 -40t-37 -141v-127h670z" />
    <glyph glyph-name="fl" unicode="&#xfb02;" horiz-adv-x="1390" 
d="M928 1309h-328q-92 2 -130 -39t-38 -144v-127h291v-153h-291v-846h-199v846h-180v143l180 10v150q0 158 70 240t227 79q444 0 596 -24v-1180q0 -129 129 -129h95l22 -127q-59 -26 -184 -26t-193 62t-67 175v1090z" />
    <glyph glyph-name="uni00630074" horiz-adv-x="1716" 
d="M1352 846v-557q0 -70 30 -99t101 -28h145l23 -154q-95 -26 -229 -26q-268 1 -267 280v584h-537q-172 0 -238 -73t-67 -277q0 -204 66 -279q67 -76 229 -76t279 23l18 -133q-141 -55 -325 -56q-260 0 -367 118q-107 117 -107 397t115 395t363 114h571v293h197v-293h309
v-153h-309z" />
    <glyph glyph-name="f_f" horiz-adv-x="1476" 
d="M1290 1307q-92 0 -130 -35t-38 -121v-152h310v-153h-310v-846h-200v846h-488v-846h-198v846h-181v143l181 10v152q0 141 74 218q76 77 226 77t248 -14l-16 -148h-166q-96 0 -132 -32t-36 -124v-129h488v175q0 145 69 220q71 74 247 74t269 -14l-16 -147h-201z" />
    <glyph glyph-name="f_f_i" horiz-adv-x="1931" 
d="M1626 1425h92q59 0 60 -57v-115q0 -59 -60 -59h-92q-59 0 -59 59v115q0 57 59 57zM1772 999v-999h-197v846h-471v-846h-199v846h-489v-846h-199v846h-162v143l162 8v154q0 141 75 218q74 77 226 77t250 -14l-16 -148h-168q-94 0 -131 -32t-37 -124v-129h489v150
q0 158 69 239q68 80 228 80t244 -14v-147h-174q-94 0 -131 -40t-37 -141v-127h668z" />
    <glyph glyph-name="f_f_l" horiz-adv-x="2080" 
d="M1616 1309h-326q-94 2 -131 -39t-37 -144v-127h291v-153h-291v-846h-200v846h-488v-846h-198v846h-181v143l181 10v152q0 141 74 218q76 77 226 77t248 -14l-16 -148h-166q-96 0 -132 -32t-36 -124v-129h488v150q0 158 69 240q70 82 228 79q444 0 596 -24v-1180
q0 -129 129 -129h94l22 -127q-59 -26 -184 -26t-193 62t-67 175v1090z" />
    <glyph glyph-name="uni006600660079" horiz-adv-x="2496" 
d="M1862 0q-53 0 -70 51l-266 711q-31 84 -119 84h-285v-846h-198v846h-490v-846h-198v846h-181v143l181 10v152q0 141 74 218q76 77 226 77t248 -14l-16 -148h-166q-96 0 -132 -32t-36 -124v-129h490v175q0 145 69 220q69 74 247 74t269 -14l-16 -147h-203q-92 0 -130 -36
t-38 -120v-152h322q205 0 272 -194l182 -533q23 -59 37 -122h29q23 63 41 122l244 727h213l-387 -1046q-135 -369 -459 -373l-19 131q117 35 185 96t106 156l15 37h-41z" />
    <glyph glyph-name="uni00660074" horiz-adv-x="1482" 
d="M1120 846v-557q0 -72 29 -100t100 -27h146l22 -154q-94 -26 -228 -26t-201 72t-66 208v584h-488v-846h-198v846h-181v143l181 10v175q0 145 69 220q69 74 239 74t259 -14l-17 -147h-184q-92 0 -130 -35t-38 -121v-152h488v293h198v-293h310v-153h-310z" />
    <glyph glyph-name="uni00660079" horiz-adv-x="1808" 
d="M1174 0q-53 0 -70 51l-266 711q-31 84 -119 84h-285v-846h-198v846h-181v143l181 10v175q0 145 69 220q70 74 245 74t271 -14l-16 -147h-203q-92 0 -130 -35t-38 -121v-152h322q207 0 270 -194l184 -533q25 -63 35 -122h29l287 849h213l-388 -1046q-139 -369 -458 -373
l-21 131q217 66 293 252l14 37h-40z" />
    <glyph glyph-name="s_t" horiz-adv-x="1769" 
d="M1405 846v-557q0 -70 30 -99t101 -28h145l23 -154q-94 -26 -228 -26q-268 1 -268 280v584h-684q-145 0 -189 -16t-44 -82q0 -35 6 -57t35 -38t100 -37l283 -69q127 -33 180 -93t53 -188q0 -176 -97 -232t-321 -56t-413 28l14 148q115 -10 313 -10t254 23q57 24 58 99
q0 33 -8 55q-15 42 -144 72l-278 70q-125 33 -176 97q-52 64 -52 202q0 136 89 188t307 49h714v293h197v-293h309v-153h-309z" />
    <glyph glyph-name="uni00740074" horiz-adv-x="1515" 
d="M1151 846v-557q0 -70 30 -99t101 -28h145l23 -154q-94 -26 -228 -26q-268 1 -268 280v584h-524v-557q0 -70 30 -99t101 -28h146l22 -154q-94 -26 -228 -26t-201 72t-67 208v584h-182v143l182 10v293h197v-293h524v293h197v-293h309v-153h-309z" />
    <glyph glyph-name="uni00740079" horiz-adv-x="1851" 
d="M1217 0q-53 0 -70 51l-266 711q-31 84 -119 84h-332v-557q0 -70 30 -99t101 -28h146l22 -154q-94 -26 -228 -26t-201 72t-67 208v584h-182v143l182 10v293h197v-293h369q207 0 270 -192l184 -535q25 -63 35 -122h29q8 22 22 64t19 56l246 729h213l-387 -1046
q-139 -369 -459 -373l-21 131q119 35 186 95t107 157l14 37h-40z" />
    <glyph glyph-name="brevecy" horiz-adv-x="774" 
d="M551 1425h149q10 -123 -76 -205t-235 -81q-151 0 -237 82t-76 204h149q0 -178 163 -178t163 178z" />
    </font>
</defs>
</svg>
